<svg width="20" height="12" viewBox="0 0 20 12" fill="none" xmlns="http://www.w3.org/2000/svg">
<path d="M0.0332031 0.0317383H19.9668V11.9998H0.0332031V0.0317383Z" fill="#74ACDF"/>
<path d="M0.0332031 4.021H19.9668V8.01042H0.0332031V4.021Z" fill="white"/>
<path d="M9.9393 5.95801L8.78356 7.15507C8.78356 7.15507 8.76096 7.17671 8.77598 7.19126C8.791 7.20582 8.81365 7.18405 8.81365 7.18405L10.0598 6.07379M9.49804 6.27965C9.27771 6.35835 9.21365 6.53407 9.01259 6.59445C8.81153 6.65484 8.74608 6.80069 8.68096 6.85443C8.61578 6.90818 8.54947 6.87671 8.54787 6.90224C8.54634 6.92784 8.62595 6.95075 8.72655 6.89292C8.82714 6.83509 8.82528 6.74426 9.06993 6.6685C9.31458 6.59267 9.32169 6.45933 9.54934 6.40054" fill="#F6B40E"/>
<path d="M9.9393 5.95801L8.78356 7.15507C8.78356 7.15507 8.76096 7.17671 8.77598 7.19126C8.791 7.20582 8.81365 7.18405 8.81365 7.18405L10.0598 6.07379M9.49804 6.27965C9.27771 6.35835 9.21365 6.53407 9.01259 6.59445C8.81153 6.65484 8.74608 6.80069 8.68096 6.85443C8.61578 6.90818 8.54947 6.87671 8.54787 6.90224C8.54634 6.92784 8.62595 6.95075 8.72655 6.89292C8.82714 6.83509 8.82528 6.74426 9.06993 6.6685C9.31458 6.59267 9.32169 6.45933 9.54934 6.40054" stroke="#85340A" stroke-width="0.10425"/>
<path d="M9.92083 5.98438L9.32993 7.5152C9.32993 7.5152 9.31764 7.54354 9.33737 7.5514C9.35704 7.55925 9.36927 7.53084 9.36927 7.53084L10.0782 6.04699M9.64129 6.44376C9.46907 6.59746 9.4799 6.7834 9.31817 6.91303C9.15651 7.04274 9.15412 7.20155 9.11531 7.27514C9.07651 7.34874 9.00269 7.34408 9.01146 7.36827C9.02023 7.39246 9.10289 7.38435 9.17279 7.29391C9.24269 7.20346 9.20481 7.12029 9.40063 6.96027C9.59644 6.80031 9.54986 6.6745 9.73678 6.5365" fill="#F6B40E"/>
<path d="M9.92083 5.98438L9.32993 7.5152C9.32993 7.5152 9.31764 7.54354 9.33737 7.5514C9.35704 7.55925 9.36927 7.53084 9.36927 7.53084L10.0782 6.04699M9.64129 6.44376C9.46907 6.59746 9.4799 6.7834 9.31817 6.91303C9.15651 7.04274 9.15412 7.20155 9.11531 7.27514C9.07651 7.34874 9.00269 7.34408 9.01146 7.36827C9.02023 7.39246 9.10289 7.38435 9.17279 7.29391C9.24269 7.20346 9.20481 7.12029 9.40063 6.96027C9.59644 6.80031 9.54986 6.6745 9.73678 6.5365" stroke="#85340A" stroke-width="0.10425"/>
<path d="M9.9209 6.04706L10.6299 7.53091C10.6299 7.53091 10.642 7.55925 10.6618 7.55146C10.6814 7.54361 10.6692 7.51527 10.6692 7.51527L10.0783 5.98438M10.0614 6.56178C10.0527 6.78742 10.1972 6.91157 10.1783 7.11308C10.1594 7.31459 10.2747 7.42852 10.3014 7.50691C10.3281 7.58529 10.2725 7.63214 10.2964 7.64331C10.3204 7.65448 10.3729 7.59257 10.3558 7.48112C10.3387 7.36974 10.2507 7.33661 10.2714 7.09048C10.2921 6.84435 10.1666 6.78697 10.1972 6.56248" fill="#F6B40E"/>
<path d="M9.9209 6.04706L10.6299 7.53091C10.6299 7.53091 10.642 7.55925 10.6618 7.55146C10.6814 7.54361 10.6692 7.51527 10.6692 7.51527L10.0783 5.98438M10.0614 6.56178C10.0527 6.78742 10.1972 6.91157 10.1783 7.11308C10.1594 7.31459 10.2747 7.42852 10.3014 7.50691C10.3281 7.58529 10.2725 7.63214 10.2964 7.64331C10.3204 7.65448 10.3729 7.59257 10.3558 7.48112C10.3387 7.36974 10.2507 7.33661 10.2714 7.09048C10.2921 6.84435 10.1666 6.78697 10.1972 6.56248" stroke="#85340A" stroke-width="0.10425"/>
<path d="M9.91475 6.01562L9.97867 7.64718C9.97867 7.64718 9.97867 7.67788 9.99993 7.67788C10.0213 7.67788 10.0212 7.64718 10.0212 7.64718L10.0851 6.01562M9.83954 6.5428C9.74166 6.74807 9.82572 6.91588 9.72798 7.09511C9.63023 7.27435 9.6913 7.42199 9.68479 7.5042C9.67827 7.58641 9.60817 7.60926 9.62591 7.62841C9.64366 7.64756 9.71681 7.60965 9.74538 7.50043C9.77396 7.39122 9.70578 7.32828 9.82299 7.10845C9.9402 6.88863 9.84704 6.78956 9.96472 6.59335" fill="#F6B40E"/>
<path d="M9.91475 6.01562L9.97867 7.64718C9.97867 7.64718 9.97867 7.67788 9.99993 7.67788C10.0213 7.67788 10.0212 7.64718 10.0212 7.64718L10.0851 6.01562M9.83954 6.5428C9.74166 6.74807 9.82572 6.91588 9.72798 7.09511C9.63023 7.27435 9.6913 7.42199 9.68479 7.5042C9.67827 7.58641 9.60817 7.60926 9.62591 7.62841C9.64366 7.64756 9.71681 7.60965 9.74538 7.50043C9.77396 7.39122 9.70578 7.32828 9.82299 7.10845C9.9402 6.88863 9.84704 6.78956 9.96472 6.59335" stroke="#85340A" stroke-width="0.10425"/>
<path d="M9.99983 5.93408L8.30149 5.99548C8.30149 5.99548 8.26953 5.99548 8.26953 6.01591C8.26953 6.0364 8.30149 6.03633 8.30149 6.03633L9.9999 6.09774M9.45113 5.86182C9.23744 5.7678 9.06275 5.84854 8.87618 5.75465C8.6896 5.66082 8.53591 5.71942 8.45033 5.71316C8.36475 5.70691 8.34096 5.63957 8.32103 5.65654C8.30109 5.67359 8.34056 5.74386 8.45425 5.77131C8.56794 5.79876 8.63345 5.73327 8.86229 5.84586C9.09113 5.95846 9.19425 5.86897 9.3985 5.98201" fill="#F6B40E"/>
<path d="M9.99983 5.93408L8.30149 5.99548C8.30149 5.99548 8.26953 5.99548 8.26953 6.01591C8.26953 6.0364 8.30149 6.03633 8.30149 6.03633L9.9999 6.09774M9.45113 5.86182C9.23744 5.7678 9.06275 5.84854 8.87618 5.75465C8.6896 5.66082 8.53591 5.71942 8.45033 5.71316C8.36475 5.70691 8.34096 5.63957 8.32103 5.65654C8.30109 5.67359 8.34056 5.74386 8.45425 5.77131C8.56794 5.79876 8.63345 5.73327 8.86229 5.84586C9.09113 5.95846 9.19425 5.86897 9.3985 5.98201" stroke="#85340A" stroke-width="0.10425"/>
<path d="M10.033 5.94024L8.43949 5.3726C8.43949 5.3726 8.40999 5.36079 8.40182 5.37975C8.39365 5.39864 8.42321 5.41038 8.42321 5.41038L9.96786 6.09145M9.55484 5.6717C9.39484 5.50626 9.20129 5.51666 9.06634 5.3613C8.93132 5.206 8.766 5.2037 8.68939 5.16643C8.61278 5.12915 8.61763 5.05824 8.59252 5.0666C8.56733 5.07502 8.57577 5.15449 8.66992 5.22164C8.76408 5.28879 8.85066 5.25241 9.01723 5.44051C9.18375 5.62862 9.31471 5.58387 9.45836 5.76343" fill="#F6B40E"/>
<path d="M10.033 5.94024L8.43949 5.3726C8.43949 5.3726 8.40999 5.36079 8.40182 5.37975C8.39365 5.39864 8.42321 5.41038 8.42321 5.41038L9.96786 6.09145M9.55484 5.6717C9.39484 5.50626 9.20129 5.51666 9.06634 5.3613C8.93132 5.206 8.766 5.2037 8.68939 5.16643C8.61278 5.12915 8.61763 5.05824 8.59252 5.0666C8.56733 5.07502 8.57577 5.15449 8.66992 5.22164C8.76408 5.28879 8.85066 5.25241 9.01723 5.44051C9.18375 5.62862 9.31471 5.58387 9.45836 5.76343" stroke="#85340A" stroke-width="0.10425"/>
<path d="M10.0605 5.95777L8.81435 4.84752C8.81435 4.84752 8.79176 4.82582 8.77667 4.84024C8.76159 4.85467 8.78418 4.87643 8.78418 4.87643L9.93993 6.0735M9.72564 5.53388C9.64372 5.32222 9.46079 5.26069 9.39794 5.06754C9.33508 4.87439 9.18325 4.81152 9.12731 4.7489C9.07136 4.68628 9.10412 4.62258 9.07754 4.62111C9.05089 4.61965 9.02704 4.69611 9.08724 4.79275C9.14744 4.88939 9.24192 4.8876 9.32086 5.12263C9.3998 5.35765 9.53853 5.36448 9.5998 5.58309" fill="#F6B40E"/>
<path d="M10.0605 5.95777L8.81435 4.84752C8.81435 4.84752 8.79176 4.82582 8.77667 4.84024C8.76159 4.85467 8.78418 4.87643 8.78418 4.87643L9.93993 6.0735M9.72564 5.53388C9.64372 5.32222 9.46079 5.26069 9.39794 5.06754C9.33508 4.87439 9.18325 4.81152 9.12731 4.7489C9.07136 4.68628 9.10412 4.62258 9.07754 4.62111C9.05089 4.61965 9.02704 4.69611 9.08724 4.79275C9.14744 4.88939 9.24192 4.8876 9.32086 5.12263C9.3998 5.35765 9.53853 5.36448 9.5998 5.58309" stroke="#85340A" stroke-width="0.10425"/>
<path d="M9.4792 6.33477C9.27515 6.42771 9.23176 6.57796 9.03223 6.63126C9.20359 6.62041 9.2691 6.45611 9.49382 6.37454M9.96784 5.98779L9.17349 6.80877L10.028 6.04569" fill="#85340A"/>
<path d="M9.86643 6.59485C9.79048 6.79924 9.87048 6.93494 9.76855 7.10817C9.88171 6.98415 9.80709 6.82343 9.90596 6.61311M9.95646 6.01764L9.99905 7.13766L10.0416 6.01758" fill="#85340A"/>
<path d="M9.64547 6.50163C9.49391 6.66255 9.51371 6.81727 9.35059 6.93989C9.50454 6.86693 9.49962 6.69102 9.67477 6.53298M9.95863 6.00146L9.55178 7.05191L10.0373 6.03274" fill="#85340A"/>
<path d="M9.96769 5.93994L8.42304 6.62101C8.42304 6.62101 8.39354 6.63275 8.40165 6.65164C8.40982 6.67054 8.43932 6.65879 8.43932 6.65879L10.0329 6.09115M9.43188 6.07488C9.197 6.06658 9.06776 6.20541 8.85799 6.18722C8.64822 6.16903 8.52962 6.27977 8.44802 6.30543C8.36643 6.33109 8.31766 6.27766 8.30603 6.30071C8.2944 6.32375 8.35886 6.37418 8.47487 6.35777C8.59088 6.34137 8.6253 6.25679 8.88151 6.27664C9.13773 6.29649 9.19739 6.17598 9.43115 6.20535" fill="#F6B40E"/>
<path d="M9.96769 5.93994L8.42304 6.62101C8.42304 6.62101 8.39354 6.63275 8.40165 6.65164C8.40982 6.67054 8.43932 6.65879 8.43932 6.65879L10.0329 6.09115M9.43188 6.07488C9.197 6.06658 9.06776 6.20541 8.85799 6.18722C8.64822 6.16903 8.52962 6.27977 8.44802 6.30543C8.36643 6.33109 8.31766 6.27766 8.30603 6.30071C8.2944 6.32375 8.35886 6.37418 8.47487 6.35777C8.59088 6.34137 8.6253 6.25679 8.88151 6.27664C9.13773 6.29649 9.19739 6.17598 9.43115 6.20535" stroke="#85340A" stroke-width="0.10425"/>
<path d="M9.39145 6.11903C9.16587 6.12988 9.06593 6.25275 8.86035 6.22862C9.02294 6.2816 9.14899 6.15388 9.38906 6.16116M9.98108 5.97803L8.92022 6.4445L10.0138 6.05367" fill="#85340A"/>
<path d="M9.39701 5.88741C9.18426 5.81452 9.04306 5.89131 8.86273 5.79346C8.99183 5.90216 9.15914 5.83048 9.37808 5.92546M9.99794 5.9739L8.83203 6.01482L9.99801 6.05573" fill="#85340A"/>
<path d="M9.49372 5.67579C9.32621 5.53026 9.16515 5.54928 9.03751 5.39258C9.11346 5.54047 9.29658 5.53575 9.46103 5.704M10.0144 5.97662L8.9209 5.58579L9.98183 6.0522" fill="#85340A"/>
<path d="M9.66823 5.51532C9.57148 5.31924 9.41507 5.27762 9.35959 5.08594C9.37088 5.25049 9.54191 5.31349 9.62683 5.52936M10.0294 5.98466L9.1748 5.22164L9.96916 6.04255" fill="#85340A"/>
<path d="M10.0782 5.98427L9.36926 4.50041C9.36926 4.50041 9.3571 4.47207 9.33737 4.47986C9.3177 4.48765 9.32993 4.51605 9.32993 4.51605L9.92082 6.04695M9.93777 5.46954C9.94641 5.2439 9.80189 5.11975 9.82082 4.91824C9.83976 4.71673 9.72448 4.6028 9.69777 4.52441C9.67106 4.44603 9.72667 4.39918 9.70268 4.38801C9.6787 4.37684 9.62621 4.43875 9.64328 4.5502C9.66043 4.66165 9.74847 4.69471 9.72773 4.94084C9.70707 5.18697 9.83252 5.24429 9.80202 5.46884" fill="#F6B40E"/>
<path d="M10.0782 5.98427L9.36926 4.50041C9.36926 4.50041 9.3571 4.47207 9.33737 4.47986C9.3177 4.48765 9.32993 4.51605 9.32993 4.51605L9.92082 6.04695M9.93777 5.46954C9.94641 5.2439 9.80189 5.11975 9.82082 4.91824C9.83976 4.71673 9.72448 4.6028 9.69777 4.52441C9.67106 4.44603 9.72667 4.39918 9.70268 4.38801C9.6787 4.37684 9.62621 4.43875 9.64328 4.5502C9.66043 4.66165 9.74847 4.69471 9.72773 4.94084C9.70707 5.18697 9.83252 5.24429 9.80202 5.46884" stroke="#85340A" stroke-width="0.10425"/>
<path d="M10.0854 6.01577L10.0215 4.38422C10.0215 4.38422 10.0215 4.35352 10.0002 4.35352C9.97889 4.35352 9.97896 4.38422 9.97896 4.38422L9.91504 6.01577M10.1606 5.48866C10.2585 5.28339 10.1744 5.11558 10.2722 4.93635C10.3699 4.75711 10.3089 4.60947 10.3154 4.52726C10.3219 4.44505 10.392 4.4222 10.3742 4.40305C10.3565 4.3839 10.2833 4.42181 10.2548 4.53103C10.2262 4.64024 10.2944 4.70318 10.1772 4.923C10.06 5.14283 10.1531 5.2419 10.0354 5.43811" fill="#F6B40E"/>
<path d="M10.0854 6.01577L10.0215 4.38422C10.0215 4.38422 10.0215 4.35352 10.0002 4.35352C9.97889 4.35352 9.97896 4.38422 9.97896 4.38422L9.91504 6.01577M10.1606 5.48866C10.2585 5.28339 10.1744 5.11558 10.2722 4.93635C10.3699 4.75711 10.3089 4.60947 10.3154 4.52726C10.3219 4.44505 10.392 4.4222 10.3742 4.40305C10.3565 4.3839 10.2833 4.42181 10.2548 4.53103C10.2262 4.64024 10.2944 4.70318 10.1772 4.923C10.06 5.14283 10.1531 5.2419 10.0354 5.43811" stroke="#85340A" stroke-width="0.10425"/>
<path d="M10.0783 6.04691L10.6692 4.51608C10.6692 4.51608 10.6815 4.48774 10.6618 4.47989C10.6421 4.47204 10.6299 4.50044 10.6299 4.50044L9.9209 5.98429M10.3578 5.58759C10.5301 5.43389 10.5192 5.24795 10.681 5.11831C10.8426 4.98861 10.845 4.82974 10.8838 4.75621C10.9226 4.68267 10.9964 4.68727 10.9877 4.66314C10.9789 4.63895 10.8962 4.64706 10.8263 4.7375C10.7564 4.82795 10.7943 4.91112 10.5985 5.07108C10.4027 5.2311 10.4493 5.35685 10.2624 5.49485" fill="#F6B40E"/>
<path d="M10.0783 6.04691L10.6692 4.51608C10.6692 4.51608 10.6815 4.48774 10.6618 4.47989C10.6421 4.47204 10.6299 4.50044 10.6299 4.50044L9.9209 5.98429M10.3578 5.58759C10.5301 5.43389 10.5192 5.24795 10.681 5.11831C10.8426 4.98861 10.845 4.82974 10.8838 4.75621C10.9226 4.68267 10.9964 4.68727 10.9877 4.66314C10.9789 4.63895 10.8962 4.64706 10.8263 4.7375C10.7564 4.82795 10.7943 4.91112 10.5985 5.07108C10.4027 5.2311 10.4493 5.35685 10.2624 5.49485" stroke="#85340A" stroke-width="0.10425"/>
<path d="M10.0599 6.07368L11.2157 4.87662C11.2157 4.87662 11.2383 4.85491 11.2232 4.84042C11.2082 4.82594 11.1856 4.8477 11.1856 4.8477L9.93945 5.95796M10.5012 5.75204C10.7215 5.67334 10.7856 5.49762 10.9866 5.4373C11.1877 5.37691 11.2531 5.23106 11.3183 5.17732C11.3834 5.12357 11.4498 5.15504 11.4513 5.12951C11.4529 5.10391 11.3733 5.08106 11.2727 5.13889C11.1721 5.19672 11.1739 5.28749 10.9293 5.36332C10.6846 5.43915 10.6775 5.57242 10.4499 5.63128" fill="#F6B40E"/>
<path d="M10.0599 6.07368L11.2157 4.87662C11.2157 4.87662 11.2383 4.85491 11.2232 4.84042C11.2082 4.82594 11.1856 4.8477 11.1856 4.8477L9.93945 5.95796M10.5012 5.75204C10.7215 5.67334 10.7856 5.49762 10.9866 5.4373C11.1877 5.37691 11.2531 5.23106 11.3183 5.17732C11.3834 5.12357 11.4498 5.15504 11.4513 5.12951C11.4529 5.10391 11.3733 5.08106 11.2727 5.13889C11.1721 5.19672 11.1739 5.28749 10.9293 5.36332C10.6846 5.43915 10.6775 5.57242 10.4499 5.63128" stroke="#85340A" stroke-width="0.10425"/>
<path d="M9.93945 6.07379L11.1856 7.18405C11.1856 7.18405 11.2081 7.20582 11.2232 7.19133C11.2384 7.17684 11.2157 7.15514 11.2157 7.15514L10.06 5.95801M10.2743 6.49769C10.3562 6.70935 10.5391 6.77088 10.602 6.96403C10.6648 7.15718 10.8167 7.22005 10.8726 7.2826C10.9286 7.34516 10.8958 7.40892 10.9224 7.41045C10.949 7.41192 10.9729 7.33539 10.9127 7.23882C10.8525 7.14224 10.758 7.14396 10.6791 6.90894C10.6001 6.67392 10.4614 6.66716 10.4001 6.44848" fill="#F6B40E"/>
<path d="M9.93945 6.07379L11.1856 7.18405C11.1856 7.18405 11.2081 7.20582 11.2232 7.19133C11.2384 7.17684 11.2157 7.15514 11.2157 7.15514L10.06 5.95801M10.2743 6.49769C10.3562 6.70935 10.5391 6.77088 10.602 6.96403C10.6648 7.15718 10.8167 7.22005 10.8726 7.2826C10.9286 7.34516 10.8958 7.40892 10.9224 7.41045C10.949 7.41192 10.9729 7.33539 10.9127 7.23882C10.8525 7.14224 10.758 7.14396 10.6791 6.90894C10.6001 6.67392 10.4614 6.66716 10.4001 6.44848" stroke="#85340A" stroke-width="0.10425"/>
<path d="M10.0001 6.09774L11.6984 6.03634C11.6984 6.03634 11.7304 6.03634 11.7304 6.01591C11.7304 5.99549 11.6984 5.99549 11.6984 5.99549L10 5.93408M10.5488 6.17C10.7625 6.26402 10.9371 6.18327 11.1237 6.27717C11.3103 6.37106 11.464 6.3124 11.5496 6.31866C11.6351 6.32491 11.6589 6.39225 11.6789 6.37521C11.6988 6.35817 11.6593 6.28789 11.5456 6.26044C11.432 6.233 11.3664 6.29849 11.1376 6.18595C10.9088 6.07342 10.8056 6.16285 10.6014 6.04981" fill="#F6B40E"/>
<path d="M10.0001 6.09774L11.6984 6.03634C11.6984 6.03634 11.7304 6.03634 11.7304 6.01591C11.7304 5.99549 11.6984 5.99549 11.6984 5.99549L10 5.93408M10.5488 6.17C10.7625 6.26402 10.9371 6.18327 11.1237 6.27717C11.3103 6.37106 11.464 6.3124 11.5496 6.31866C11.6351 6.32491 11.6589 6.39225 11.6789 6.37521C11.6988 6.35817 11.6593 6.28789 11.5456 6.26044C11.432 6.233 11.3664 6.29849 11.1376 6.18595C10.9088 6.07342 10.8056 6.16285 10.6014 6.04981" stroke="#85340A" stroke-width="0.10425"/>
<path d="M9.96777 6.09122L11.5613 6.65886C11.5613 6.65886 11.5908 6.67066 11.599 6.65171C11.6072 6.63275 11.5776 6.62107 11.5776 6.62107L10.033 5.93994M10.4459 6.35975C10.6059 6.5252 10.7995 6.51479 10.9344 6.67015C11.0694 6.82545 11.2348 6.82775 11.3114 6.86503C11.3879 6.9023 11.3831 6.97322 11.4082 6.96479C11.4334 6.95637 11.425 6.87696 11.3308 6.80975C11.2367 6.74254 11.1501 6.77898 10.9835 6.59094C10.817 6.40283 10.686 6.44752 10.5424 6.26803" fill="#F6B40E"/>
<path d="M9.96777 6.09122L11.5613 6.65886C11.5613 6.65886 11.5908 6.67066 11.599 6.65171C11.6072 6.63275 11.5776 6.62107 11.5776 6.62107L10.033 5.93994M10.4459 6.35975C10.6059 6.5252 10.7995 6.51479 10.9344 6.67015C11.0694 6.82545 11.2348 6.82775 11.3114 6.86503C11.3879 6.9023 11.3831 6.97322 11.4082 6.96479C11.4334 6.95637 11.425 6.87696 11.3308 6.80975C11.2367 6.74254 11.1501 6.77898 10.9835 6.59094C10.817 6.40283 10.686 6.44752 10.5424 6.26803" stroke="#85340A" stroke-width="0.10425"/>
<path d="M10.1332 5.43636C10.2091 5.23198 10.1292 5.09634 10.231 4.92311C10.1179 5.04713 10.1925 5.20785 10.0936 5.41817M10.0432 6.01364L10.0006 4.89355L9.95801 6.01364" fill="#85340A"/>
<path d="M10.3537 5.52971C10.5053 5.36879 10.4855 5.21407 10.6486 5.09145C10.4947 5.16441 10.4996 5.34039 10.3244 5.49836M10.0406 6.02994L10.4474 4.97949L9.96191 5.99866" fill="#85340A"/>
<path d="M10.5206 5.69708C10.7246 5.60414 10.768 5.45389 10.9676 5.40059C10.7963 5.41144 10.7307 5.57574 10.506 5.65731M10.0319 6.04406L10.8263 5.22314L9.97168 5.98623" fill="#85340A"/>
<path d="M9.89251 5.43158C9.88122 5.21488 9.75331 5.11894 9.77843 4.92139C9.72328 5.07758 9.85624 5.19866 9.84873 5.42928M10.0392 5.998L9.55371 4.9789L9.96055 6.02941" fill="#85340A"/>
<path d="M10.033 6.09163L11.5776 5.41056C11.5776 5.41056 11.6071 5.39888 11.599 5.37992C11.5908 5.36097 11.5613 5.37277 11.5613 5.37277L9.96777 5.94041M10.5688 5.95669C10.8037 5.96499 10.9329 5.82616 11.1427 5.84435C11.3524 5.86254 11.471 5.7518 11.5526 5.72614C11.6342 5.70048 11.683 5.7539 11.6946 5.73086C11.7062 5.70782 11.6418 5.65739 11.5258 5.6738C11.4098 5.6902 11.3753 5.77484 11.1191 5.75492C10.8629 5.73507 10.8032 5.85558 10.5695 5.82628" fill="#F6B40E"/>
<path d="M10.033 6.09163L11.5776 5.41056C11.5776 5.41056 11.6071 5.39888 11.599 5.37992C11.5908 5.36097 11.5613 5.37277 11.5613 5.37277L9.96777 5.94041M10.5688 5.95669C10.8037 5.96499 10.9329 5.82616 11.1427 5.84435C11.3524 5.86254 11.471 5.7518 11.5526 5.72614C11.6342 5.70048 11.683 5.7539 11.6946 5.73086C11.7062 5.70782 11.6418 5.65739 11.5258 5.6738C11.4098 5.6902 11.3753 5.77484 11.1191 5.75492C10.8629 5.73507 10.8032 5.85558 10.5695 5.82628" stroke="#85340A" stroke-width="0.10425"/>
<path d="M10.6087 5.91287C10.8342 5.90202 10.9342 5.77915 11.1398 5.80327C10.9772 5.7503 10.8511 5.87808 10.611 5.87081M10.019 6.05381L11.0799 5.5874L9.98633 5.97823" fill="#85340A"/>
<path d="M10.6029 6.14391C10.8157 6.2168 10.9569 6.14001 11.1372 6.23793C11.0081 6.12922 10.8408 6.20091 10.6219 6.10593M10.002 6.05742L11.1679 6.0165L10.002 5.97559" fill="#85340A"/>
<path d="M10.5061 6.3559C10.6736 6.50149 10.8347 6.48247 10.9623 6.63917C10.8863 6.49128 10.7032 6.496 10.5387 6.32775M9.98535 6.05507L11.0789 6.4459L10.0179 5.97949" fill="#85340A"/>
<path d="M10.3319 6.51607C10.4286 6.71209 10.5851 6.75377 10.6405 6.94545C10.6292 6.7809 10.4582 6.7179 10.3733 6.50202M9.9707 6.04666L10.8253 6.80975L10.031 5.98877" fill="#85340A"/>
<path d="M10.1076 6.60027C10.1189 6.81697 10.2469 6.91297 10.2217 7.11046C10.2769 6.95427 10.1439 6.83319 10.1514 6.60251M9.96094 6.03385L10.4465 7.05295L10.0396 6.00244" fill="#85340A"/>
<path d="M9.99978 6.6809C10.382 6.6809 10.6919 6.38321 10.6919 6.01599C10.6919 5.64877 10.382 5.35107 9.99978 5.35107C9.61751 5.35107 9.30762 5.64877 9.30762 6.01599C9.30762 6.38321 9.61751 6.6809 9.99978 6.6809Z" fill="#F6B40E" stroke="#85340A" stroke-width="0.14075"/>
<path d="M10.2363 5.87354C10.1891 5.87354 10.1438 5.89319 10.1172 5.93411C10.1704 5.98013 10.288 5.98511 10.3679 5.92888C10.351 5.91159 10.3306 5.89778 10.308 5.88827C10.2854 5.87876 10.261 5.87374 10.2363 5.87354ZM10.2356 5.88407C10.2816 5.88324 10.3246 5.90353 10.3306 5.92371C10.2774 5.97994 10.1923 5.97509 10.139 5.93417C10.1623 5.89836 10.1998 5.88464 10.2356 5.88407Z" fill="#843511"/>
<path d="M10.2447 5.8418C10.1755 5.8418 10.1595 5.85718 10.1276 5.88271C10.0956 5.90831 10.0797 5.90314 10.0744 5.90831C10.069 5.91348 10.0744 5.92873 10.085 5.92363C10.0956 5.91852 10.1169 5.90831 10.1488 5.88271C10.1808 5.85712 10.2127 5.85712 10.2447 5.85712C10.3405 5.85712 10.3938 5.93384 10.4043 5.92867C10.415 5.92363 10.3512 5.8418 10.2447 5.8418Z" fill="#85340A"/>
<path d="M10.4362 5.87265C10.3137 5.77034 10.1594 5.75502 10.0741 5.83174C10.0533 5.85855 10.0399 5.88727 10.0345 5.91721C10.0237 5.97548 10.0427 6.03836 10.0902 6.10282C10.0848 6.10282 10.0742 6.10793 10.0689 6.11304C10.0266 6.03536 10.0117 5.95563 10.0255 5.8798C10.0291 5.85991 10.0347 5.8404 10.0422 5.82153C10.1593 5.72948 10.319 5.71921 10.4361 5.87272L10.4362 5.87265Z" fill="#85340A"/>
<path d="M10.2344 5.98752C10.2711 5.98752 10.3009 5.95895 10.3009 5.92369C10.3009 5.88844 10.2711 5.85986 10.2344 5.85986C10.1977 5.85986 10.168 5.88844 10.168 5.92369C10.168 5.95895 10.1977 5.98752 10.2344 5.98752Z" fill="#85340A"/>
<path d="M10.3731 5.95455C10.2826 6.02106 10.192 6.01595 10.1388 5.98525C10.0855 5.95455 10.0855 5.94434 10.0962 5.94434C10.1068 5.94434 10.1174 5.95455 10.16 5.97497C10.2026 5.99546 10.2665 5.99546 10.373 5.95455H10.3731ZM9.89438 6.10774C9.88668 6.10917 9.87945 6.1124 9.87335 6.11713C9.86724 6.12187 9.86244 6.12797 9.85936 6.13491C9.85628 6.14185 9.85502 6.1494 9.85569 6.15692C9.85636 6.16443 9.85893 6.17167 9.86319 6.178C9.86745 6.18433 9.87327 6.18957 9.88012 6.19324C9.88698 6.19691 9.89467 6.19891 9.90251 6.19906C9.91036 6.19922 9.91813 6.19752 9.92513 6.19412C9.93214 6.19071 9.93817 6.18571 9.94269 6.17955C9.9611 6.19289 9.98661 6.19429 10.0003 6.19449C10.0024 6.19455 10.0051 6.19449 10.0065 6.19449C10.0202 6.19423 10.0457 6.19283 10.0642 6.17955C10.0687 6.18571 10.0747 6.19071 10.0817 6.19412C10.0887 6.19752 10.0965 6.19922 10.1043 6.19906C10.1122 6.19891 10.1199 6.19691 10.1267 6.19324C10.1336 6.18957 10.1394 6.18433 10.1436 6.178C10.1479 6.17167 10.1505 6.16443 10.1512 6.15692C10.1518 6.1494 10.1506 6.14185 10.1475 6.13491C10.1444 6.12797 10.1396 6.12187 10.1335 6.11713C10.1274 6.1124 10.1202 6.10917 10.1125 6.10774C10.1187 6.10991 10.124 6.11388 10.1278 6.11911C10.1316 6.12434 10.1335 6.13056 10.1335 6.13691C10.1335 6.15389 10.1192 6.16755 10.1016 6.16755C10.0934 6.1675 10.0855 6.16445 10.0796 6.15903C10.0737 6.15361 10.0701 6.14623 10.0697 6.13838C10.0645 6.14834 10.0439 6.17802 10.0035 6.17955C9.96309 6.17802 9.94249 6.1484 9.93731 6.13838C9.93711 6.1465 9.93355 6.15422 9.92743 6.15983C9.9213 6.16544 9.91311 6.16848 9.90465 6.16828C9.89619 6.16809 9.88816 6.16467 9.88232 6.15879C9.87648 6.15291 9.87332 6.14504 9.87352 6.13691C9.87343 6.13057 9.87539 6.12436 9.87913 6.11914C9.88286 6.11391 9.88819 6.10993 9.89438 6.10774ZM9.94648 6.24395C9.89319 6.24395 9.87213 6.29029 9.82422 6.321C9.85086 6.31078 9.87179 6.29061 9.90907 6.27012C9.94634 6.2497 9.9781 6.27459 9.99937 6.27459H10.0002C10.0214 6.27459 10.0532 6.24963 10.0905 6.27012C10.1277 6.29061 10.1495 6.31078 10.1761 6.321C10.1282 6.29029 10.1063 6.24395 10.0531 6.24395C10.0424 6.24395 10.0214 6.24944 10.0001 6.25966H9.9993C9.97817 6.24944 9.95711 6.24395 9.94648 6.24395Z" fill="#85340A"/>
<path d="M9.92861 6.30425C9.90762 6.30515 9.87978 6.30917 9.83984 6.32072C9.93572 6.3003 9.95685 6.33119 9.99944 6.33119H10.0002C10.0428 6.33119 10.064 6.3003 10.1598 6.32072C10.0533 6.29002 10.0322 6.31025 10.0002 6.31025H9.99944C9.97951 6.31025 9.9637 6.30279 9.92861 6.30425Z" fill="#85340A"/>
<path d="M9.84389 6.32029C9.83771 6.32036 9.83093 6.32042 9.82362 6.32106C9.93545 6.33127 9.88169 6.39287 9.99877 6.39287H9.99957C10.1167 6.39287 10.0638 6.33127 10.1755 6.32106C10.0584 6.31085 10.0954 6.37716 9.99957 6.37716H9.99877C9.90894 6.37716 9.93671 6.31914 9.84389 6.32029ZM10.0956 6.48638C10.0945 6.46268 10.0839 6.44032 10.066 6.42393C10.0482 6.40755 10.0244 6.39841 9.99973 6.39841C9.97504 6.39841 9.9513 6.40755 9.93345 6.42393C9.9156 6.44032 9.90501 6.46268 9.90389 6.48638C9.90903 6.46567 9.92129 6.44724 9.93868 6.43405C9.95607 6.42086 9.97758 6.41369 9.99973 6.41369C10.0219 6.41369 10.0434 6.42086 10.0608 6.43405C10.0782 6.44724 10.0904 6.46567 10.0956 6.48638ZM9.56934 5.87265C9.69179 5.77034 9.84615 5.75502 9.9314 5.83174C9.95226 5.85855 9.96562 5.88727 9.97106 5.91721C9.98183 5.97548 9.96282 6.03836 9.91532 6.10282C9.9207 6.10282 9.93133 6.10793 9.93664 6.11304C9.9789 6.03536 9.99385 5.95563 9.98003 5.8798C9.97641 5.85991 9.97082 5.8404 9.96336 5.82153C9.84621 5.72948 9.68654 5.71921 9.5694 5.87272L9.56934 5.87265Z" fill="#85340A"/>
<path d="M9.76135 5.8418C9.83052 5.8418 9.84653 5.85718 9.87849 5.88271C9.91045 5.90831 9.9264 5.90314 9.93172 5.90831C9.93703 5.91348 9.93172 5.92873 9.92108 5.92363C9.91045 5.91852 9.88912 5.90831 9.85723 5.88271C9.82527 5.85712 9.79338 5.85712 9.76142 5.85712C9.66554 5.85712 9.61231 5.93384 9.60175 5.92867C9.59105 5.92363 9.65491 5.8418 9.76135 5.8418Z" fill="#85340A"/>
<path d="M9.75781 5.87354C9.71057 5.87354 9.66532 5.89319 9.63867 5.93411C9.69189 5.98013 9.8095 5.98511 9.88937 5.92888C9.87247 5.91159 9.8521 5.89778 9.82949 5.88827C9.80687 5.87876 9.78249 5.87374 9.75781 5.87354ZM9.75708 5.88407C9.80306 5.88324 9.84605 5.90353 9.85209 5.92371C9.79887 5.97994 9.71375 5.97509 9.66053 5.93417C9.68379 5.89836 9.72126 5.88464 9.75708 5.88407Z" fill="#843511"/>
<path d="M9.76469 5.98752C9.80138 5.98752 9.83113 5.95895 9.83113 5.92369C9.83113 5.88844 9.80138 5.85986 9.76469 5.85986C9.72799 5.85986 9.69824 5.88844 9.69824 5.92369C9.69824 5.95895 9.72799 5.98752 9.76469 5.98752Z" fill="#85340A"/>
<path d="M9.63379 5.95455C9.72429 6.02106 9.81485 6.01595 9.86807 5.98525C9.9213 5.95455 9.9213 5.94434 9.91067 5.94434C9.90004 5.94434 9.8894 5.95455 9.84681 5.97497C9.80422 5.99546 9.7403 5.99546 9.63386 5.95455H9.63379Z" fill="#85340A"/>
</svg>
