<svg width="20" height="14" viewBox="0 0 20 14" fill="none" xmlns="http://www.w3.org/2000/svg">
<path d="M0.0332031 0.0332031H19.9668V13.9669H0.0332031V0.0332031Z" fill="#009B3A"/>
<path d="M1.72754 6.99998L9.99996 12.2749L18.2724 6.99998L9.99996 1.7251L1.72754 6.99998Z" fill="#FEDF00"/>
<path d="M10.0001 10.4834C11.9267 10.4834 13.4885 8.92385 13.4885 7.00001C13.4885 5.07618 11.9267 3.5166 10.0001 3.5166C8.07352 3.5166 6.51172 5.07618 6.51172 7.00001C6.51172 8.92385 8.07352 10.4834 10.0001 10.4834Z" fill="#002776"/>
<mask id="mask0_1225_7725" style="mask-type:luminance" maskUnits="userSpaceOnUse" x="6" y="3" width="8" height="8">
<path d="M10.0001 10.4834C11.9267 10.4834 13.4885 8.92385 13.4885 7.00001C13.4885 5.07618 11.9267 3.5166 10.0001 3.5166C8.07352 3.5166 6.51172 5.07618 6.51172 7.00001C6.51172 8.92385 8.07352 10.4834 10.0001 10.4834Z" fill="white"/>
</mask>
<g mask="url(#mask0_1225_7725)">
<path d="M-0.464844 13.967C-0.464844 9.29489 3.32811 5.50732 8.00692 5.50732C12.6857 5.50732 16.4787 9.29489 16.4787 13.967H15.9803C15.9803 9.56971 12.4105 6.00495 8.00692 6.00495C3.60333 6.00495 0.0334951 9.56971 0.0334951 13.967H-0.464844Z" fill="white"/>
</g>
<path d="M8.13867 5.9214L8.43748 5.93182L8.43967 5.87024L8.19774 5.86182L8.20073 5.77655L8.39043 5.78319L8.39243 5.72633L8.20266 5.71969L8.20498 5.65341L8.43263 5.66137L8.43482 5.5998L8.15023 5.58984L8.13867 5.9214ZM8.56013 5.93931L8.61688 5.94429L8.63675 5.7177L8.68306 5.95013L8.73508 5.95464L8.82113 5.73382L8.80126 5.96041L8.85801 5.96539L8.88698 5.6349L8.80425 5.62766L8.71821 5.84848L8.67189 5.61605L8.58917 5.60882L8.56013 5.93931ZM9.24844 6.01688L9.49402 6.05901L9.50365 6.00294L9.31422 5.97043L9.32711 5.89572L9.48146 5.92219L9.4911 5.86613L9.33675 5.83965L9.34558 5.7883L9.52917 5.81982L9.5388 5.76375L9.29907 5.72261L9.24844 6.01688ZM11.405 6.53926L11.2897 6.48916L11.3162 6.42832L11.4316 6.47841L11.405 6.53926Z" fill="#009B3A"/>
<path d="M11.3548 6.64788L11.2939 6.6214L11.3601 6.46926L11.4211 6.4958L11.3548 6.64788ZM12.3282 7.05361C12.3103 7.08161 12.3284 7.1128 12.3684 7.13821C12.4084 7.16369 12.4357 7.16276 12.4472 7.14478C12.4836 7.08778 12.2735 7.00478 12.3382 6.90545C12.394 6.82012 12.4896 6.88654 12.5256 6.90943C12.5616 6.93232 12.6195 6.99164 12.5745 7.05992L12.5134 7.02103C12.5326 6.99104 12.5116 6.96225 12.4795 6.94188C12.4485 6.92217 12.4233 6.91315 12.4048 6.94208C12.3738 6.98839 12.5797 7.07584 12.5166 7.17477C12.4701 7.24769 12.3891 7.21584 12.3351 7.18147C12.289 7.15221 12.2203 7.08314 12.2651 7.01334L12.3282 7.05361ZM11.8435 6.89119L12.1037 7.03822L12.134 6.98461L11.9233 6.86557L11.9654 6.79133L12.1306 6.88468L12.1587 6.83519L11.9934 6.74183L12.0262 6.6841L12.2245 6.79611L12.2548 6.74249L12.007 6.60249L11.8435 6.89119ZM12.6846 7.28896C12.6653 7.31596 12.6817 7.34808 12.7204 7.37555C12.759 7.40308 12.7863 7.40355 12.7987 7.38623C12.838 7.33122 12.6326 7.23734 12.7025 7.14153C12.7627 7.05925 12.8546 7.13051 12.8894 7.15533C12.9241 7.18014 12.9788 7.24231 12.9303 7.3082L12.8714 7.26627C12.892 7.23734 12.8726 7.20748 12.8417 7.18545C12.8117 7.16415 12.787 7.1538 12.767 7.1818C12.7337 7.22646 12.9348 7.32452 12.8665 7.42C12.8162 7.4904 12.737 7.45437 12.6848 7.41721C12.6404 7.38556 12.5753 7.31304 12.6237 7.2457L12.6846 7.28896ZM7.15269 5.79885C7.14153 5.70795 7.06598 5.64233 6.98405 5.65242C6.90213 5.66244 6.84472 5.74431 6.85588 5.83528C6.86704 5.92625 6.94259 5.99174 7.02452 5.98172C7.10644 5.9717 7.16385 5.88982 7.15269 5.79885ZM7.00432 5.71611C7.11721 5.71611 7.11721 5.91829 7.00432 5.91829C6.89143 5.91829 6.89136 5.71611 7.00432 5.71611ZM13.274 7.61766C13.3161 7.53631 13.291 7.43957 13.2176 7.40169C13.1443 7.36374 13.0506 7.39897 13.0084 7.48031C12.9662 7.56166 12.9915 7.65833 13.0648 7.69629C13.1381 7.73417 13.2318 7.69894 13.274 7.61766ZM13.1983 7.46565C13.2916 7.52935 13.1771 7.69622 13.084 7.63246C12.9908 7.56876 13.1052 7.40195 13.1983 7.46565ZM7.98704 5.65295C7.95043 5.5941 7.87661 5.59131 7.87661 5.59131L7.7105 5.5939L7.71628 5.92558C7.71628 5.92558 7.84804 5.92565 7.88306 5.92233C7.91807 5.91902 7.9592 5.89884 7.98611 5.86361C8.01296 5.82831 8.01269 5.78658 8.01249 5.7609C8.01229 5.73522 8.01634 5.70012 7.98704 5.65295ZM7.85149 5.86255C7.82598 5.86255 7.77688 5.86288 7.77688 5.86288L7.77322 5.65441C7.84193 5.65348 7.84432 5.65348 7.87096 5.65348C7.92027 5.65434 7.94106 5.69103 7.95143 5.71479C7.95515 5.74126 7.95535 5.75194 7.95621 5.77484C7.95316 5.79945 7.94585 5.81975 7.92505 5.83919C7.89083 5.86215 7.87355 5.86255 7.85149 5.86255ZM7.53329 5.7966C7.53329 5.7966 7.56804 5.76727 7.57694 5.72527C7.58591 5.68327 7.55987 5.64897 7.54884 5.63915C7.53781 5.62933 7.51462 5.60604 7.48033 5.60737C7.44605 5.60869 7.27681 5.6205 7.27681 5.6205L7.29528 5.95179L7.35681 5.94748L7.34824 5.82453L7.45508 5.81703L7.4808 5.81524C7.4808 5.81524 7.51389 5.86932 7.51701 5.90269C7.51914 5.92233 7.51887 5.93899 7.51887 5.93899H7.57887C7.57887 5.93899 7.5804 5.88 7.56332 5.84464C7.54625 5.80927 7.53329 5.7966 7.53329 5.7966ZM7.49588 5.74504C7.48292 5.75586 7.44658 5.75626 7.44658 5.75626L7.34385 5.76302L7.33787 5.6779C7.35349 5.67803 7.43515 5.67113 7.43661 5.67113C7.45309 5.6706 7.47163 5.66894 7.47163 5.66894C7.47163 5.66894 7.48505 5.6694 7.49847 5.68102C7.50278 5.6844 7.50623 5.68874 7.50856 5.69369C7.51089 5.69865 7.51203 5.70408 7.51189 5.70955C7.51149 5.72647 7.50186 5.74179 7.49588 5.74504ZM11.0423 6.30113C11.0548 6.21036 10.9987 6.12762 10.9169 6.11641C10.8351 6.10513 10.7587 6.16956 10.7461 6.26026C10.7336 6.35102 10.7897 6.4337 10.8714 6.44498C10.9532 6.45626 11.0297 6.39183 11.0423 6.30113ZM10.9201 6.18309C11.0292 6.21202 10.9773 6.40742 10.8681 6.37849C10.759 6.34956 10.811 6.15416 10.9201 6.18309ZM10.5649 6.17241C10.5649 6.17241 10.6073 6.15595 10.6295 6.11926C10.6517 6.0825 10.6383 6.04156 10.6311 6.02869C10.6239 6.01575 10.6096 5.98623 10.5768 5.97628C10.5114 5.95781 10.4459 5.93979 10.3802 5.9222L10.2891 6.24128L10.3487 6.25734L10.3808 6.13837L10.4843 6.16624L10.5091 6.17294C10.5091 6.17294 10.5227 6.23484 10.5148 6.26736C10.512 6.27919 10.5086 6.29086 10.5046 6.30232L10.5612 6.3219C10.5612 6.3219 10.582 6.26663 10.5774 6.22768C10.5728 6.18866 10.5649 6.17241 10.5649 6.17241ZM10.5464 6.1115C10.5306 6.11747 10.4961 6.10599 10.4961 6.10599L10.3968 6.07885L10.4191 5.99651C10.4338 6.00169 10.5132 6.02192 10.5146 6.02232C10.5303 6.02723 10.5484 6.03174 10.5484 6.03174C10.5484 6.03174 10.561 6.03652 10.5698 6.05192C10.5728 6.05652 10.5746 6.06175 10.5752 6.06718C10.5758 6.07262 10.5751 6.07811 10.5732 6.08323C10.5672 6.09902 10.5531 6.11037 10.5464 6.1115ZM11.7716 6.66062C11.7716 6.66062 11.8152 6.64788 11.8405 6.61311C11.8657 6.57834 11.8559 6.53641 11.8498 6.52301C11.8437 6.5096 11.832 6.47888 11.8001 6.46614C11.7682 6.45347 11.6088 6.39568 11.6088 6.39568L11.491 6.70593L11.5489 6.72697L11.591 6.61112L11.6917 6.64761L11.7159 6.65637C11.7159 6.65637 11.7242 6.71914 11.7136 6.75092C11.7075 6.76976 11.7005 6.78489 11.7005 6.78489L11.7552 6.80918C11.7552 6.80918 11.7806 6.7559 11.7794 6.71668C11.7781 6.67754 11.7716 6.66062 11.7716 6.66062ZM11.7583 6.59838C11.7421 6.60296 11.7087 6.58863 11.7087 6.58863L11.6121 6.55319L11.6412 6.47298C11.6553 6.47941 11.7328 6.50622 11.7342 6.50682C11.7495 6.51299 11.7671 6.51902 11.7671 6.51902C11.7671 6.51902 11.7791 6.52486 11.7867 6.54092C11.7893 6.54576 11.7907 6.55113 11.7908 6.5566C11.7909 6.56207 11.7897 6.56749 11.7874 6.57244C11.7801 6.5877 11.7651 6.59778 11.7583 6.59838ZM10.1561 6.06167C10.1561 6.06167 10.1981 6.04422 10.2195 6.00693C10.2408 5.96964 10.2264 5.92903 10.2189 5.91629C10.2114 5.90356 10.1964 5.87436 10.1634 5.8652C10.1303 5.85605 9.96551 5.81591 9.96551 5.81591L9.88213 6.13704L9.94206 6.15164L9.9713 6.03194L10.0753 6.05729L10.1004 6.06339L10.1561 6.06167ZM10.1363 6.00122C10.1207 6.00759 10.0859 5.99691 10.0859 5.99691L9.98598 5.97216L10.0062 5.88929C10.0211 5.89413 10.101 5.91245 10.1024 5.91284C10.1183 5.91736 10.1364 5.92147 10.1364 5.92147C10.1364 5.92147 10.149 5.92598 10.1583 5.94111C10.1613 5.94564 10.1633 5.95082 10.164 5.95625C10.1648 5.96167 10.1642 5.96719 10.1624 5.97236C10.1567 5.98829 10.1429 5.9999 10.1363 6.00122Z" fill="#009B3A"/>
<path d="M11.3919 6.48098C11.3833 6.47719 11.3744 6.47454 11.3654 6.47175C11.3395 6.52072 11.2819 6.55555 11.2307 6.52045C11.1375 6.45682 11.2519 6.28995 11.345 6.35365C11.3676 6.36904 11.3777 6.39041 11.3793 6.4131C11.3934 6.41907 11.4086 6.42186 11.4227 6.42836L11.4405 6.43659C11.4452 6.37554 11.4175 6.31716 11.3644 6.28969C11.2911 6.25173 11.1974 6.28697 11.1552 6.36825C11.113 6.44959 11.1382 6.54626 11.2116 6.58422C11.2849 6.62217 11.3785 6.58694 11.4207 6.50566C11.4223 6.50243 11.4238 6.49918 11.4252 6.4959L11.3919 6.48098Z" fill="#009B3A"/>
<path d="M11.2127 5.87425L11.1389 5.92773L11.1671 6.01445L11.0932 5.96084L11.0195 6.01445L11.0477 5.92773L10.9738 5.87425H11.0651L11.0932 5.7876L11.1215 5.87425H11.2127ZM7.00999 6.32836L7.09783 6.39212L7.06428 6.49529L7.15218 6.43153L7.24002 6.49529L7.20647 6.39212L7.29437 6.32836H7.18574L7.15218 6.22525L7.11863 6.32836H7.00999ZM10.8566 6.79394L10.9174 6.83806L10.8942 6.90946L10.955 6.86533L11.0158 6.90946L10.9926 6.83806L11.0534 6.79394H10.9782L10.955 6.72255L10.9321 6.79394H10.8566ZM7.73969 7.61118L7.7769 7.63719L7.76255 7.68145L7.79956 7.65457L7.8365 7.68145L7.82235 7.63799L7.85936 7.61118H7.81364L7.79956 7.56772L7.7854 7.61118H7.73969ZM7.46009 7.68967L7.427 7.79278H7.31849L7.40634 7.85655L7.37278 7.95972L7.46069 7.89596L7.54853 7.95972L7.51497 7.85655L7.60288 7.79278H7.49424L7.46069 7.68967M6.91504 8.11332L6.98826 8.1664L6.96029 8.25239L7.03351 8.19925L7.10673 8.25239L7.07876 8.16647L7.15198 8.11332H7.06148L7.03351 8.02733L7.00554 8.11332H6.91504ZM8.55697 7.10154L8.62873 7.15356L8.60128 7.23783L8.67305 7.18574L8.74481 7.23783L8.71737 7.15356L8.78919 7.10154H8.70049L8.67305 7.01728L8.64567 7.10154H8.55697ZM8.0878 8.14185L8.15398 8.18989L8.12873 8.26759L8.19491 8.21955L8.26109 8.26759L8.23577 8.18989L8.30202 8.14185H8.22022L8.19491 8.06422L8.16966 8.14185H8.0878ZM7.98939 8.50638L8.05025 8.55051L8.027 8.6219L8.08786 8.57778L8.14866 8.6219L8.1254 8.55051L8.1862 8.50638H8.11105L8.08786 8.43499L8.06494 8.50638H7.98939ZM8.46049 8.7838L8.5484 8.84756L8.51484 8.95074L8.60268 8.88697L8.69059 8.95074L8.65697 8.84756L8.74487 8.7838H8.63623L8.60268 8.68069L8.56913 8.7838H8.46049ZM9.88035 7.53335L9.95418 7.58683L9.926 7.67355L9.99982 7.61994L10.0736 7.67355L10.0455 7.58683L10.1192 7.53335H10.0276L9.99982 7.4467L9.97165 7.53335H9.88035ZM9.54886 7.84706L9.60966 7.89118L9.58647 7.96257L9.64707 7.91832L9.70806 7.96257L9.68481 7.89118L9.7456 7.84706H9.67045L9.64727 7.77566L9.62401 7.84706H9.54886ZM9.76202 8.08725L9.79896 8.11412L9.78487 8.15751L9.82188 8.13071L9.85883 8.15751L9.84467 8.11405L9.88168 8.08725H9.83597L9.82188 8.04385L9.80773 8.08725H9.76202ZM10.2835 7.83777L10.3574 7.89131L10.3292 7.97797L10.4029 7.92436L10.4768 7.97797L10.4486 7.89131L10.5224 7.83777H10.4312L10.4029 7.75111L10.3752 7.83777H10.2835ZM9.85763 8.53352L9.94554 8.59729L9.91192 8.70046L9.99982 8.6367L10.0877 8.70046L10.0541 8.59729L10.142 8.53352H10.0334L9.99982 8.43041L9.96673 8.53352H9.85763ZM9.95198 9.71025L9.98022 9.73069L9.96946 9.7638L9.99763 9.74336L10.0258 9.7638L10.015 9.73069L10.0432 9.71025H10.0084L9.99763 9.67721L9.987 9.71025H9.95198ZM10.6694 8.92347L10.7303 8.96759L10.707 9.03898L10.7679 8.99486L10.8287 9.03898L10.8054 8.96759L10.8662 8.92347H10.7911L10.7679 8.85207L10.7449 8.92347H10.6694ZM10.9231 9.30584L10.9969 9.35939L10.9687 9.44604L11.0425 9.39243L11.1164 9.44604L11.0881 9.35939L11.1619 9.30584H11.0707L11.0425 9.21919L11.0143 9.30584H10.9231ZM11.382 9.04674L11.4428 9.00262H11.3677L11.3445 8.93123L11.3216 9.00262H11.246L11.3069 9.04674L11.2836 9.11814L11.3445 9.07402L11.4053 9.11814L11.382 9.04674ZM11.634 8.88697L11.6948 8.9311L11.6716 9.00249L11.7324 8.95837L11.7932 9.00249L11.7699 8.9311L11.8307 8.88697H11.7556L11.7324 8.81558L11.7091 8.88697H11.634ZM11.6219 9.2164L11.6957 9.26988L11.6675 9.3566L11.7413 9.30299L11.8151 9.3566L11.7869 9.26988L11.8608 9.2164H11.7695L11.7413 9.12975L11.7131 9.2164H11.6219ZM11.6512 9.5802L11.712 9.62433L11.6888 9.69572L11.7496 9.6516L11.8104 9.69572L11.7872 9.62433L11.848 9.5802H11.7725L11.7496 9.50881L11.7267 9.5802H11.6512ZM11.9984 8.94928L12.0592 8.9934L12.036 9.06479L12.0968 9.02067L12.1576 9.06479L12.1344 8.9934L12.1952 8.94928H12.1201L12.0968 8.87795L12.0736 8.94928H11.9984ZM12.2566 8.76887L12.3304 8.82241L12.3022 8.90907L12.376 8.85546L12.4499 8.90907L12.4216 8.82241L12.4954 8.76887H12.4042L12.376 8.68221L12.3483 8.76887L12.2587 8.7684M12.4662 8.4971L12.54 8.55057L12.5118 8.63729L12.5857 8.58368L12.6595 8.63729L12.6313 8.55064L12.7051 8.4971H12.6138L12.5857 8.41044L12.5574 8.4971H12.4662ZM12.3013 8.17417L12.3891 8.23786L12.3556 8.34104L12.4435 8.27728L12.5313 8.34104L12.4978 8.23786L12.5857 8.17417H12.477L12.4435 8.07099L12.4099 8.17417H12.3013ZM12.8335 8.22672L12.8943 8.27084L12.8711 8.34223L12.9319 8.29811L12.9927 8.34223L12.9695 8.27084L13.0303 8.22672H12.9552L12.9319 8.15532L12.9091 8.22672H12.8335Z" fill="white"/>
</svg>
