<svg width="70" height="71" viewBox="0 0 70 71" fill="none" xmlns="http://www.w3.org/2000/svg">
<path d="M35 70.4561C54.33 70.4561 70 54.786 70 35.4561C70 16.1261 54.33 0.456055 35 0.456055C15.67 0.456055 0 16.1261 0 35.4561C0 54.786 15.67 70.4561 35 70.4561Z" fill="url(#paint0_linear_57_4159)"/>
<path fill-rule="evenodd" clip-rule="evenodd" d="M35.6033 57.3313C30.5305 57.3182 25.9893 55.7607 21.9336 52.7813C20.8552 51.9894 20.8224 51.5344 21.7411 50.5479L21.8243 50.4604C22.9464 49.2441 22.9399 49.2507 24.2721 50.2088C27.3417 52.4523 31.0216 53.7082 34.8224 53.8094C38.8605 53.9494 42.5705 52.9847 45.9239 50.8213C49.9468 48.2269 52.6899 44.6132 53.8383 39.9997C55.2799 34.2072 54.208 28.8435 50.4105 24.1294C47.7505 20.8263 44.2943 18.6979 40.1183 17.6894C36.3908 16.7882 32.7289 17.0091 29.1305 18.2472C27.2252 18.9035 25.4643 19.8704 23.8739 21.1129C23.0886 21.7254 22.7911 21.7122 22.1239 20.9641C21.8039 20.6146 21.5031 20.248 21.2227 19.866C20.8114 19.2841 20.8683 18.9385 21.4239 18.4966C24.0638 16.4022 27.1398 14.9266 30.4255 14.1785C33.3987 13.472 36.4862 13.3901 39.4927 13.9379C43.5789 14.6772 47.2146 16.3572 50.3361 19.0785C52.6461 21.0954 54.5143 23.4535 55.8136 26.2097C57.603 30.0072 58.3314 33.9841 57.7955 38.1797C57.3157 42.0077 55.8118 45.6352 53.4424 48.6797C51.0208 51.8341 47.9211 54.1354 44.2155 55.6469C41.4854 56.7757 38.5575 57.3484 35.6033 57.3313ZM34.2121 43.3685C34.0655 43.5916 33.9889 43.7579 33.8664 43.8847C33.1271 44.6613 32.2236 45.1272 31.1343 45.1622C30.3796 45.1841 29.6227 45.1207 28.868 45.1382C28.5763 45.1374 28.2891 45.2096 28.0324 45.3482C24.5455 47.5357 20.7918 47.855 16.8368 47.015C15.5352 46.7394 14.3693 46.2385 13.3761 45.3854C12.628 44.7444 12.1008 43.9875 12.0374 42.9244C11.928 41.0716 13.2996 39.8072 14.7127 39.3938C17.3224 38.6282 19.8052 39.0941 22.1808 40.2469C23.2658 40.7719 24.2808 41.4413 25.3177 42.0625C25.9127 42.4147 26.0899 42.4016 26.3874 41.7935C27.7327 39.046 26.8643 36.0163 23.5786 34.8963C20.6955 33.9119 17.8758 34.0104 15.0999 35.29C14.693 35.4782 14.2468 35.8369 13.7677 35.4519C13.2711 35.0494 13.6036 34.5704 13.7305 34.146C14.642 31.0762 15.5673 28.01 16.5064 24.9475C16.7121 24.276 17.248 23.9304 18.0311 23.9719C19.1839 24.0354 20.3302 24.2082 21.483 24.2344C23.2111 24.2782 24.9458 24.2935 26.6718 24.2082C27.9558 24.1425 29.0824 23.5782 30.0733 22.76C30.1936 22.6616 30.4364 22.5479 30.5152 22.6004C30.6311 22.6769 30.7011 22.8913 30.7121 23.0532C30.793 24.3788 30.2243 25.4004 29.1699 26.1944C27.923 27.135 26.4989 27.5725 24.9436 27.6097C23.3307 27.6462 21.7193 27.6681 20.1093 27.6754C19.7461 27.6797 19.5536 27.811 19.4683 28.1522C19.3239 28.721 19.1701 29.2897 19.0068 29.8585C18.8821 30.2807 19.0418 30.4491 19.4683 30.4316C20.4833 30.3944 21.4983 30.3266 22.5111 30.3332C24.8423 30.3204 27.0932 31.1839 28.8177 32.7525C30.5086 34.2575 31.1933 36.2 31.2961 38.37C31.3771 40.1091 31.0446 41.7738 30.0886 43.2722C29.8283 43.6813 29.9464 43.8585 30.3861 43.9744C31.5543 44.2829 32.6327 44.0729 33.663 43.4975C33.7505 43.4494 33.8314 43.3947 33.9211 43.3532C33.9518 43.34 33.9977 43.3554 34.2121 43.3685ZM24.2196 43.8629L24.1846 43.6507C24.038 43.561 23.9002 43.4494 23.7405 43.3794C22.5811 42.8654 21.4371 42.2966 20.2471 41.8635C19.033 41.4194 17.7708 41.1022 16.4496 41.4107C15.8546 41.5485 15.2596 41.6994 15.0868 42.3841C14.8943 43.1388 15.3558 43.6091 15.8939 44.0204C16.0624 44.1494 16.2702 44.2413 16.4714 44.32C18.5146 45.1075 20.5883 45.1294 22.6708 44.5125C23.2046 44.355 23.7055 44.0816 24.2196 43.8629Z" fill="#00C844"/>
<defs>
<linearGradient id="paint0_linear_57_4159" x1="35" y1="0.456055" x2="35" y2="70.4561" gradientUnits="userSpaceOnUse">
<stop stop-color="#00A732"/>
<stop offset="0.5" stop-color="#181818"/>
<stop offset="1"/>
</linearGradient>
</defs>
</svg>
