<svg width="70" height="71" viewBox="0 0 70 71" fill="none" xmlns="http://www.w3.org/2000/svg">
<path d="M35 70.4561C54.33 70.4561 70 54.786 70 35.4561C70 16.1261 54.33 0.456055 35 0.456055C15.67 0.456055 0 16.1261 0 35.4561C0 54.786 15.67 70.4561 35 70.4561Z" fill="url(#paint0_linear_57_4169)"/>
<path d="M47.3086 39.5638C46.3855 40.3579 45.5586 41.0645 44.7405 41.7798C44.6486 41.8607 44.5568 42.0051 44.5568 42.121C44.5436 43.5167 44.548 44.9101 44.548 46.3538C46.6502 45.4657 47.7483 42.7663 47.3086 39.5638ZM44.7755 31.0392C47.1183 29.6435 47.3961 29.1601 47.4049 26.3907C47.4049 26.172 47.4114 25.9554 47.4027 25.7388C47.3021 23.1948 45.5608 20.9482 43.1502 20.4101C40.9846 19.9288 38.8014 19.5285 36.6139 19.1588C35.5005 18.9685 34.3608 18.8067 33.2386 18.8438C31.8802 18.8876 30.7711 19.6007 29.7496 20.7645C32.2258 21.226 34.5249 21.7007 36.8393 22.077C40.0177 22.5932 42.4436 24.1879 43.7693 27.2263C44.2833 28.4054 44.4474 29.742 44.7755 31.0392ZM25.4752 24.4592C23.5939 25.6273 22.6664 27.211 22.638 29.1798C22.5738 34.4952 22.5687 39.8111 22.6227 45.1267C22.6446 47.7013 24.3443 49.9085 26.7986 50.5079C28.8986 51.0198 31.0468 51.3348 33.173 51.746C34.5205 52.0085 35.8549 52.4067 37.2461 52.061C38.3836 51.7767 39.3986 51.2976 40.1993 50.1732C37.6486 49.6942 35.2533 49.167 32.8339 48.8082C28.693 48.1935 25.4818 44.5251 25.4774 40.2551C25.473 35.3741 25.4723 30.4923 25.4752 25.6098V24.4592ZM28.4021 23.6913C28.3758 24.2317 28.3364 24.6342 28.3364 25.0367C28.3299 29.9498 28.3299 34.8629 28.3364 39.776C28.343 43.0048 30.2943 45.3235 33.3939 45.866C35.6339 46.2598 37.8652 46.6973 40.1008 47.1129C40.2569 47.1392 40.4136 47.1596 40.5711 47.1742C41.6321 47.2923 41.6693 47.2726 41.6758 46.2095C41.6868 44.5798 41.6321 42.9501 41.7086 41.3248C41.7305 40.8435 41.9733 40.2376 42.3211 39.9292C44.0952 38.3476 45.9371 36.8448 47.7549 35.3135C48.2493 34.8979 48.7568 34.6135 49.4218 34.9351C50.1239 35.2742 50.3077 35.8604 50.2968 36.5976C50.2705 38.4438 50.3099 40.2923 50.253 42.1342C50.1458 45.4635 47.7308 48.7404 44.6311 49.7904C44.3686 49.8713 44.125 50.0039 43.9146 50.1805C43.7042 50.3571 43.5313 50.574 43.4061 50.8185C41.4964 54.2092 38.2239 55.5173 34.7174 55.0535C31.843 54.6707 28.9905 54.0648 26.1511 53.4567C22.4936 52.6735 19.7921 49.2698 19.733 45.1967C19.6543 39.7148 19.6805 34.2307 19.7746 28.751C19.8314 25.3254 22.3777 22.1448 25.6064 21.0948C25.9654 20.9612 26.269 20.7108 26.4683 20.3838C28.6339 16.6257 32.1514 15.101 36.3318 16.0373C38.6505 16.5557 41.0108 16.897 43.3427 17.3717C47.4814 18.216 50.2464 21.6329 50.3011 25.9335C50.3164 27.1563 50.3252 28.3792 50.2574 29.5976C50.2377 29.9848 50.0671 30.4792 49.7914 30.722C47.8074 32.472 45.7993 34.1957 43.7408 35.8538C43.4236 36.1098 42.7127 36.1688 42.3583 35.9785C42.0105 35.7904 41.7174 35.1801 41.6933 34.7382C41.608 33.2792 41.7699 31.7982 41.6277 30.3479C41.3433 27.4407 39.3636 25.5201 36.3799 25.0235C34.0086 24.6298 31.6418 24.2032 29.2727 23.7963C29.0189 23.7526 28.7608 23.7329 28.4021 23.6913Z" fill="#00C844"/>
<defs>
<linearGradient id="paint0_linear_57_4169" x1="35" y1="0.456055" x2="35" y2="70.4561" gradientUnits="userSpaceOnUse">
<stop stop-color="#00A732"/>
<stop offset="0.5" stop-color="#181818"/>
<stop offset="1"/>
</linearGradient>
</defs>
</svg>
