<svg width="70" height="71" viewBox="0 0 70 71" fill="none" xmlns="http://www.w3.org/2000/svg">
<path d="M35 70.4561C54.33 70.4561 70 54.786 70 35.4561C70 16.1261 54.33 0.456055 35 0.456055C15.67 0.456055 0 16.1261 0 35.4561C0 54.786 15.67 70.4561 35 70.4561Z" fill="url(#paint0_linear_57_4060)"/>
<path d="M34.9363 51.0966C26.2803 51.0966 19.2388 44.0988 19.2388 35.4997C19.2388 26.9007 26.2825 19.9029 34.9363 19.9029C43.59 19.9029 50.6338 26.8985 50.6338 35.4997C50.6338 44.101 43.5922 51.0966 34.9363 51.0966ZM34.9363 22.9566C27.9778 22.9566 22.3144 28.5829 22.3144 35.4997C22.3144 42.4166 27.9778 48.0407 34.9363 48.0407C41.8969 48.0407 47.5581 42.4144 47.5581 35.4997C47.5581 28.5829 41.8969 22.9566 34.9363 22.9566ZM45.9285 17.6738C42.6168 15.6576 38.8134 14.5934 34.9363 14.5982C31.3677 14.5995 27.8572 15.5009 24.7294 17.2188L23.2331 14.55C26.8182 12.5765 30.8439 11.5411 34.9363 11.54C39.3988 11.54 43.7563 12.7607 47.5385 15.0707L45.9285 17.6738ZM50.5113 53.7894L48.5228 51.4554C50.8544 49.5013 52.7296 47.0601 54.0164 44.3035C55.3032 41.5469 55.9705 38.5419 55.9713 35.4997H59.0469C59.0469 42.5566 55.9363 49.2219 50.5113 53.7872V53.7894ZM34.9363 59.455C29.3428 59.455 23.8916 57.5082 19.5888 53.9754L21.5488 51.6216C25.3263 54.7114 30.056 56.4001 34.9363 56.4013C38.3488 56.4013 41.6038 55.6138 44.6094 54.065L46.0247 56.7775C42.5938 58.5387 38.7928 59.4551 34.9363 59.455Z" fill="#00C844"/>
<path opacity="0.5" d="M55.4531 29.8228C54.6462 26.9394 53.2321 24.2618 51.3056 21.9697L53.2743 20.3378C55.4373 22.9054 57.0226 25.9082 57.9228 29.1425L55.4531 29.8228ZM15.0062 48.5281C12.4423 44.6672 11.0777 40.1341 11.084 35.4994C11.084 29.02 13.6653 22.9694 18.3531 18.4609L20.1337 20.2919C18.0754 22.2526 16.4385 24.6125 15.3229 27.2272C14.2074 29.8419 13.6366 32.6566 13.6456 35.4994C13.6456 39.6534 14.8574 43.6741 17.1456 47.1281L15.0062 48.5281Z" fill="#00C844"/>
<defs>
<linearGradient id="paint0_linear_57_4060" x1="35" y1="0.456055" x2="35" y2="70.4561" gradientUnits="userSpaceOnUse">
<stop stop-color="#00A732"/>
<stop offset="0.5" stop-color="#181818"/>
<stop offset="1"/>
</linearGradient>
</defs>
</svg>
