<svg width="70" height="71" viewBox="0 0 70 71" fill="none" xmlns="http://www.w3.org/2000/svg">
<path d="M35 70.4561C54.33 70.4561 70 54.786 70 35.4561C70 16.1261 54.33 0.456055 35 0.456055C15.67 0.456055 0 16.1261 0 35.4561C0 54.786 15.67 70.4561 35 70.4561Z" fill="url(#paint0_linear_57_4147)"/>
<path fill-rule="evenodd" clip-rule="evenodd" d="M29.6358 56.0356L35.1833 48.8672C37.2593 49.191 39.3046 49.0072 41.2602 48.1584C41.9668 47.8522 42.599 47.3753 43.264 46.9728C43.358 46.9159 43.4455 46.8416 43.5177 46.7869L50.2377 53.4325C49.6799 53.8044 49.1265 54.2069 48.538 54.5525C46.2606 55.8707 43.7514 56.7396 41.1465 57.1119C39.6091 57.3269 38.0538 57.3856 36.5046 57.2869C34.1695 57.1775 31.8595 56.7567 29.6358 56.0356ZM27.5227 55.2131C26.776 54.8794 26.0486 54.504 25.344 54.0888C21.7426 52.0023 18.8998 48.8224 17.2283 45.0106C16.3467 43.0224 15.7664 40.9138 15.5068 38.7544C15.3034 37.0794 15.258 35.3891 15.3712 33.7056C15.6402 29.3853 16.9549 25.415 19.604 21.9216C22.0496 18.6972 25.2608 16.49 29.0605 15.0747C30.8635 14.3916 32.7512 13.9574 34.6715 13.7841C36.1218 13.6594 37.5874 13.5347 39.0377 13.5981C39.9346 13.6361 40.8169 13.7236 41.6846 13.8606L36.0583 22.0288C34.1822 22.1869 32.3728 22.7995 30.7865 23.8138C27.8771 25.66 26.1358 28.32 25.3177 31.6013C24.9695 32.9836 24.8105 34.4068 24.8452 35.8319C24.8642 36.58 24.9291 37.3121 25.0399 38.0281L24.3662 39.0059C23.8237 39.7934 24.4908 40.8347 25.4555 40.7078L25.7005 40.6772C26.2649 42.2719 27.1202 43.7616 28.3037 45.1288C29.0387 45.9746 29.8582 46.6819 30.7624 47.2506L27.6015 54.8872C27.5584 54.9918 27.5318 55.1025 27.5227 55.2153V55.2131ZM43.8043 14.3113C45.7516 14.8306 47.5974 15.6744 49.2643 16.8072C49.5662 17.0128 49.8418 17.2556 50.1305 17.481C50.183 17.5203 50.2436 17.5626 50.3121 17.6078C50.2202 17.7128 50.1677 17.7828 50.1043 17.8441C48.1115 19.8085 46.1143 21.7663 44.128 23.7372C43.9093 23.9559 43.7715 23.991 43.5068 23.8028C42.7046 23.2335 41.8181 22.7936 40.8796 22.4991L43.6862 15.1163L43.7605 14.926C43.8337 14.7295 43.8489 14.5161 43.8043 14.3113ZM35.7018 38.26L25.3046 39.6185L42.6033 14.4994L42.6996 14.5431L36.0168 32.1109L48.2121 30.1859L28.7455 55.3641L28.6515 55.2984L35.7018 38.26Z" fill="#00C844"/>
<defs>
<linearGradient id="paint0_linear_57_4147" x1="35" y1="0.456055" x2="35" y2="70.4561" gradientUnits="userSpaceOnUse">
<stop stop-color="#00A732"/>
<stop offset="0.5" stop-color="#181818"/>
<stop offset="1"/>
</linearGradient>
</defs>
</svg>
