<svg width="160" height="40" viewBox="0 0 160 40" fill="none" xmlns="http://www.w3.org/2000/svg">
<path d="M20 40C31.0457 40 40 31.0457 40 20C40 8.9543 31.0457 0 20 0C8.9543 0 0 8.9543 0 20C0 31.0457 8.9543 40 20 40Z" fill="url(#paint0_linear_545_12969)"/>
<path fill-rule="evenodd" clip-rule="evenodd" d="M16.9349 31.7598L20.1049 27.6635C21.2912 27.8485 22.4599 27.7435 23.5774 27.2585C23.9812 27.0835 24.3424 26.811 24.7224 26.581C24.7762 26.5485 24.8262 26.506 24.8674 26.4748L28.7074 30.2723C28.3887 30.4848 28.0724 30.7148 27.7362 30.9123C26.4348 31.6655 25.0009 32.162 23.5124 32.3748C22.6339 32.4976 21.7452 32.5312 20.8599 32.4748C19.5256 32.4123 18.2056 32.1718 16.9349 31.7598ZM15.7274 31.2898C15.3007 31.099 14.8851 30.8845 14.4824 30.6473C12.4245 29.455 10.8 27.6379 9.84491 25.4598C9.34109 24.3236 9.00953 23.1187 8.86116 21.8848C8.74493 20.9277 8.71898 19.9617 8.78366 18.9998C8.93741 16.531 9.68866 14.2623 11.2024 12.266C12.5999 10.4235 14.4349 9.16226 16.6062 8.35351C17.6364 7.96315 18.7151 7.71503 19.8124 7.61601C20.6412 7.54476 21.4787 7.47351 22.3074 7.50976C22.8199 7.53143 23.3241 7.58143 23.8199 7.65976L20.6049 12.3273C19.5328 12.4176 18.4989 12.7677 17.5924 13.3473C15.9299 14.4023 14.9349 15.9223 14.4674 17.7973C14.2684 18.5872 14.1776 19.4004 14.1974 20.2148C14.2082 20.6423 14.2453 21.0606 14.3087 21.4698L13.9237 22.0285C13.6137 22.4785 13.9949 23.0735 14.5462 23.001L14.6862 22.9835C15.0087 23.8948 15.4974 24.746 16.1737 25.5273C16.5937 26.0106 17.062 26.4148 17.5787 26.7398L15.7724 31.1035C15.7478 31.1633 15.7326 31.2266 15.7274 31.291V31.2898ZM25.0312 7.91726C26.1439 8.21403 27.1987 8.6962 28.1512 9.34351C28.3237 9.46101 28.4812 9.59976 28.6462 9.72851C28.6762 9.75101 28.7107 9.77518 28.7499 9.80101C28.6974 9.86101 28.6674 9.90101 28.6312 9.93601C27.4924 11.0585 26.3512 12.1773 25.2162 13.3035C25.0912 13.4285 25.0124 13.4485 24.8612 13.341C24.4028 13.0157 23.8962 12.7643 23.3599 12.596L24.9637 8.37726L25.0062 8.26851C25.048 8.15624 25.0567 8.03432 25.0312 7.91726ZM20.4012 21.6023L14.4599 22.3785L24.3449 8.02476L24.3999 8.04976L20.5812 18.0885L27.5499 16.9885L16.4262 31.376L16.3724 31.3385L20.4012 21.6023Z" fill="#00C844"/>
<path d="M140 40C151.046 40 160 31.0457 160 20C160 8.9543 151.046 0 140 0C128.954 0 120 8.9543 120 20C120 31.0457 128.954 40 140 40Z" fill="url(#paint1_linear_545_12969)"/>
<path d="M147.034 22.3473C146.506 22.8011 146.034 23.2048 145.566 23.6136C145.514 23.6598 145.461 23.7423 145.461 23.8086C145.454 24.6061 145.456 25.4023 145.456 26.2273C146.657 25.7198 147.285 24.1773 147.034 22.3473ZM145.586 17.4761C146.925 16.6786 147.084 16.4023 147.089 14.8198C147.089 14.6948 147.092 14.5711 147.087 14.4473C147.03 12.9936 146.035 11.7098 144.657 11.4023C143.42 11.1273 142.172 10.8986 140.922 10.6873C140.286 10.5786 139.635 10.4861 138.994 10.5073C138.217 10.5323 137.584 10.9398 137 11.6048C138.415 11.8686 139.729 12.1398 141.051 12.3548C142.867 12.6498 144.254 13.5611 145.011 15.2973C145.305 15.9711 145.399 16.7348 145.586 17.4761ZM134.557 13.7161C133.482 14.3836 132.952 15.2886 132.936 16.4136C132.899 19.4509 132.896 22.4886 132.927 25.5261C132.94 26.9973 133.911 28.2586 135.314 28.6011C136.514 28.8936 137.741 29.0736 138.956 29.3086C139.726 29.4586 140.489 29.6861 141.284 29.4886C141.934 29.3261 142.514 29.0523 142.971 28.4098C141.514 28.1361 140.145 27.8348 138.762 27.6298C136.396 27.2786 134.561 25.1823 134.559 22.7423C134.556 19.9531 134.556 17.1636 134.557 14.3736V13.7161ZM136.23 13.2773C136.215 13.5861 136.192 13.8161 136.192 14.0461C136.189 16.8536 136.189 19.6611 136.192 22.4686C136.196 24.3136 137.311 25.6386 139.082 25.9486C140.362 26.1736 141.637 26.4236 142.915 26.6611C143.004 26.6761 143.094 26.6877 143.184 26.6961C143.79 26.7636 143.811 26.7523 143.815 26.1448C143.821 25.2136 143.79 24.2823 143.834 23.3536C143.846 23.0786 143.985 22.7323 144.184 22.5561C145.197 21.6523 146.25 20.7936 147.289 19.9186C147.571 19.6811 147.861 19.5186 148.241 19.7023C148.642 19.8961 148.747 20.2311 148.741 20.6523C148.726 21.7073 148.749 22.7636 148.716 23.8161C148.655 25.7186 147.275 27.5911 145.504 28.1911C145.354 28.2373 145.214 28.3131 145.094 28.414C144.974 28.5149 144.875 28.6388 144.804 28.7786C143.712 30.7161 141.842 31.4636 139.839 31.1986C138.196 30.9798 136.566 30.6336 134.944 30.2861C132.854 29.8386 131.31 27.8936 131.276 25.5661C131.231 22.4336 131.246 19.2998 131.3 16.1686C131.332 14.2111 132.787 12.3936 134.632 11.7936C134.837 11.7173 135.011 11.5742 135.125 11.3873C136.362 9.23981 138.372 8.36856 140.761 8.90356C142.086 9.19981 143.435 9.39481 144.767 9.66606C147.132 10.1486 148.712 12.1011 148.744 14.5586C148.752 15.2573 148.757 15.9561 148.719 16.6523C148.707 16.8736 148.61 17.1561 148.452 17.2948C147.319 18.2948 146.171 19.2798 144.995 20.2273C144.814 20.3736 144.407 20.4073 144.205 20.2986C144.006 20.1911 143.839 19.8423 143.825 19.5898C143.776 18.7561 143.869 17.9098 143.787 17.0811C143.625 15.4198 142.494 14.3223 140.789 14.0386C139.434 13.8136 138.081 13.5698 136.727 13.3373C136.582 13.3123 136.435 13.3011 136.23 13.2773Z" fill="#00C844"/>
<path d="M50 40C61.0457 40 70 31.0457 70 20C70 8.9543 61.0457 0 50 0C38.9543 0 30 8.9543 30 20C30 31.0457 38.9543 40 50 40Z" fill="url(#paint2_linear_545_12969)"/>
<path fill-rule="evenodd" clip-rule="evenodd" d="M37.5 12.1426V17.2376L49.8688 24.3813L57.8938 19.7376V23.8813L62.2137 26.4288V12.1426L49.8575 19.2863L37.5 12.1426Z" fill="#00C844"/>
<path opacity="0.7" fill-rule="evenodd" clip-rule="evenodd" d="M49.8575 5L37.5 12.1425V26.4287L49.8575 33.5713L62.1788 26.4287L57.81 23.8812L49.8575 28.4763L41.87 23.8812V14.69L49.8575 10.095L57.81 14.69L62.1788 12.1425L49.8575 5Z" fill="#00C844"/>
<path d="M110 40C121.046 40 130 31.0457 130 20C130 8.9543 121.046 0 110 0C98.9543 0 90 8.9543 90 20C90 31.0457 98.9543 40 110 40Z" fill="url(#paint3_linear_545_12969)"/>
<path fill-rule="evenodd" clip-rule="evenodd" d="M119.149 9.0625C119.964 9.0625 120.625 9.745 120.625 10.5875C120.625 11.43 119.964 12.1125 119.149 12.1125L119.058 12.1113L115.877 19.8512C116.059 20.105 116.166 20.4188 116.166 20.7575C116.166 21.5325 115.607 22.1725 114.884 22.27L111.605 30.2513C111.849 30.5225 111.997 30.8875 111.997 31.2875C111.997 32.13 111.336 32.8125 110.521 32.8125C109.706 32.8125 109.045 32.13 109.045 31.2875C109.045 30.8825 109.196 30.515 109.445 30.2425L105.686 22.2787L105.599 22.2837C104.835 22.2837 104.206 21.6838 104.13 20.9138L104.123 20.7575C104.123 20.3713 104.263 20.0187 104.491 19.7487L100.888 12.1125L100.853 12.115C100.089 12.115 99.46 11.515 99.3837 10.745L99.375 10.5875C99.375 9.745 100.036 9.0625 100.851 9.0625C101.472 9.0625 102.004 9.45875 102.221 10.0188H117.779C117.996 9.45875 118.529 9.0625 119.149 9.0625ZM110.303 17.9887L107.044 20.4387C107.095 20.6776 107.088 20.925 107.025 21.1609C106.962 21.3968 106.844 21.6145 106.681 21.7963L110.444 29.765L110.521 29.7613L110.609 29.7638L113.806 21.98C113.542 21.7711 113.353 21.4826 113.266 21.1573C113.179 20.8321 113.2 20.4876 113.325 20.175L110.303 17.9887ZM102.075 12.0375L105.474 19.2387L105.599 19.2325C105.908 19.2325 106.192 19.33 106.429 19.495L109.35 17.3L102.075 12.0375ZM117.739 12.4075L111.244 17.2825L114.107 19.3562C114.243 19.2954 114.387 19.2567 114.539 19.24L114.69 19.2325C114.771 19.2325 114.85 19.2392 114.927 19.2525L117.739 12.4075ZM117.534 11.1563H102.775L110.291 16.5937L117.534 11.1563Z" fill="#00C844"/>
<path d="M80 40C91.0457 40 100 31.0457 100 20C100 8.9543 91.0457 0 80 0C68.9543 0 60 8.9543 60 20C60 31.0457 68.9543 40 80 40Z" fill="url(#paint4_linear_545_12969)"/>
<path fill-rule="evenodd" clip-rule="evenodd" d="M80.3452 32.5002C77.4465 32.4927 74.8515 31.6027 72.534 29.9002C71.9177 29.4477 71.899 29.1877 72.424 28.624L72.4715 28.574C73.1127 27.879 73.109 27.8827 73.8702 28.4302C75.6243 29.7122 77.7271 30.4298 79.899 30.4877C82.2065 30.5677 84.3265 30.0165 86.2427 28.7802C88.5415 27.2977 90.109 25.2327 90.7652 22.5965C91.589 19.2865 90.9765 16.2215 88.8065 13.5277C87.2865 11.6402 85.3115 10.424 82.9252 9.84771C80.7952 9.33271 78.7027 9.45896 76.6465 10.1665C75.5577 10.5415 74.5515 11.094 73.6427 11.804C73.194 12.154 73.024 12.1465 72.6427 11.719C72.4599 11.5192 72.288 11.3098 72.1277 11.0915C71.8927 10.759 71.9252 10.5615 72.2427 10.309C73.7512 9.11215 75.509 8.26896 77.3865 7.84146C79.0855 7.43778 80.8497 7.39096 82.5677 7.70396C84.9027 8.12646 86.9802 9.08646 88.764 10.6415C90.084 11.794 91.1515 13.1415 91.894 14.7165C92.9165 16.8865 93.3327 19.159 93.0265 21.5565C92.7523 23.7438 91.8929 25.8167 90.539 27.5565C89.1552 29.359 87.384 30.674 85.2665 31.5377C83.7064 32.1827 82.0334 32.51 80.3452 32.5002ZM79.5502 24.5215C79.4665 24.649 79.4227 24.744 79.3527 24.8165C78.9302 25.2602 78.414 25.5265 77.7915 25.5465C77.3602 25.559 76.9277 25.5227 76.4965 25.5327C76.3298 25.5323 76.1657 25.5735 76.019 25.6527C74.0265 26.9027 71.8815 27.0852 69.6215 26.6052C68.8777 26.4477 68.2115 26.1615 67.644 25.674C67.2165 25.3077 66.9152 24.8752 66.879 24.2677C66.8165 23.209 67.6002 22.4865 68.4077 22.2502C69.899 21.8127 71.3177 22.079 72.6752 22.7377C73.2952 23.0377 73.8752 23.4202 74.4677 23.7752C74.8077 23.9765 74.909 23.969 75.079 23.6215C75.8477 22.0515 75.3515 20.3202 73.474 19.6802C71.8265 19.1177 70.2152 19.174 68.629 19.9052C68.3965 20.0127 68.1415 20.2177 67.8677 19.9977C67.584 19.7677 67.774 19.494 67.8465 19.2515C68.3673 17.4973 68.8961 15.7452 69.4327 13.9952C69.5502 13.6115 69.8565 13.414 70.304 13.4377C70.9627 13.474 71.6177 13.5727 72.2765 13.5877C73.264 13.6127 74.2552 13.6215 75.2415 13.5727C75.9752 13.5352 76.619 13.2127 77.1852 12.7452C77.254 12.689 77.3927 12.624 77.4377 12.654C77.504 12.6977 77.544 12.8202 77.5502 12.9127C77.5965 13.6702 77.2715 14.254 76.669 14.7077C75.9565 15.2452 75.1427 15.4952 74.254 15.5165C73.3323 15.5373 72.4115 15.5498 71.4915 15.554C71.284 15.5565 71.174 15.6315 71.1252 15.8265C71.0427 16.1515 70.9548 16.4765 70.8615 16.8015C70.7902 17.0427 70.8815 17.139 71.1252 17.129C71.7052 17.1077 72.2852 17.069 72.864 17.0727C74.1961 17.0654 75.4823 17.5588 76.4677 18.4552C77.434 19.3152 77.8252 20.4252 77.884 21.6652C77.9302 22.659 77.7402 23.6102 77.194 24.4665C77.0452 24.7002 77.1127 24.8015 77.364 24.8677C78.0315 25.044 78.6477 24.924 79.2365 24.5952C79.2865 24.5677 79.3327 24.5365 79.384 24.5127C79.4015 24.5052 79.4277 24.514 79.5502 24.5215ZM73.8402 24.804L73.8202 24.6827C73.7365 24.6315 73.6577 24.5677 73.5665 24.5277C72.904 24.234 72.2502 23.909 71.5702 23.6615C70.8765 23.4077 70.1552 23.2265 69.4002 23.4027C69.0602 23.4815 68.7202 23.5677 68.6215 23.959C68.5115 24.3902 68.7752 24.659 69.0827 24.894C69.179 24.9677 69.2977 25.0202 69.4127 25.0652C70.5802 25.5152 71.7652 25.5277 72.9552 25.1752C73.2602 25.0852 73.5465 24.929 73.8402 24.804Z" fill="#00C844"/>
<defs>
<linearGradient id="paint0_linear_545_12969" x1="20" y1="0" x2="20" y2="40" gradientUnits="userSpaceOnUse">
<stop stop-color="#00A732"/>
<stop offset="0.5" stop-color="#181818"/>
<stop offset="1"/>
</linearGradient>
<linearGradient id="paint1_linear_545_12969" x1="140" y1="0" x2="140" y2="40" gradientUnits="userSpaceOnUse">
<stop stop-color="#00A732"/>
<stop offset="0.5" stop-color="#181818"/>
<stop offset="1"/>
</linearGradient>
<linearGradient id="paint2_linear_545_12969" x1="50" y1="0" x2="50" y2="40" gradientUnits="userSpaceOnUse">
<stop stop-color="#00A732"/>
<stop offset="0.5" stop-color="#181818"/>
<stop offset="1"/>
</linearGradient>
<linearGradient id="paint3_linear_545_12969" x1="110" y1="0" x2="110" y2="40" gradientUnits="userSpaceOnUse">
<stop stop-color="#00A732"/>
<stop offset="0.5" stop-color="#181818"/>
<stop offset="1"/>
</linearGradient>
<linearGradient id="paint4_linear_545_12969" x1="80" y1="0" x2="80" y2="40" gradientUnits="userSpaceOnUse">
<stop stop-color="#00A732"/>
<stop offset="0.5" stop-color="#181818"/>
<stop offset="1"/>
</linearGradient>
</defs>
</svg>
