<svg width="70" height="71" viewBox="0 0 70 71" fill="none" xmlns="http://www.w3.org/2000/svg">
<path d="M35 70.4561C54.33 70.4561 70 54.786 70 35.4561C70 16.1261 54.33 0.456055 35 0.456055C15.67 0.456055 0 16.1261 0 35.4561C0 54.786 15.67 70.4561 35 70.4561Z" fill="url(#paint0_linear_57_4102)"/>
<path d="M59.4125 28.1494V23.3369L43.75 32.4588L34.0812 15.79V26.7275L39.0031 35.2588L37.0125 36.44L34.0812 31.2775L30.9313 36.8775L28.7438 35.9807L34.0812 26.7275V15.79L23.4937 33.815L8.75 27.7119V33.29L21.875 36.5275L13.5625 50.79H34.0812V44.9057H23.6031L27.5187 38.0369L29.8813 38.6275L27.5187 42.7838H40.6437L38.675 39.3057L41.2781 39.1088L44.625 44.9057H34.0812V50.79H54.6875L47.6 38.6932L59.5 37.8182V32.9838L46.1125 36.2869L59.4781 32.8525V28.4775L44.975 34.3619L59.4125 28.1494ZM40.3812 37.665L38.0187 38.2557L40.3375 37.665H40.3812ZM39.6375 36.3525L37.45 37.2275L39.6375 36.3307V36.3525Z" fill="#00C844"/>
<defs>
<linearGradient id="paint0_linear_57_4102" x1="35" y1="0.456055" x2="35" y2="70.4561" gradientUnits="userSpaceOnUse">
<stop stop-color="#00A732"/>
<stop offset="0.5" stop-color="#181818"/>
<stop offset="1"/>
</linearGradient>
</defs>
</svg>
