<svg width="70" height="71" viewBox="0 0 70 71" fill="none" xmlns="http://www.w3.org/2000/svg">
<path d="M35 70.4561C54.33 70.4561 70 54.786 70 35.4561C70 16.1261 54.33 0.456055 35 0.456055C15.67 0.456055 0 16.1261 0 35.4561C0 54.786 15.67 70.4561 35 70.4561Z" fill="url(#paint0_linear_57_4174)"/>
<path fill-rule="evenodd" clip-rule="evenodd" d="M56.4811 32.6449C54.7595 32.7259 53.0314 32.8265 51.3098 32.7653C49.7655 32.7084 48.2277 32.4524 46.6877 32.2731C46.5282 32.2471 46.379 32.1774 46.2567 32.0718C43.7083 29.9828 41.2036 27.8456 39.0073 25.3715C38.2067 24.4681 37.5592 23.4924 37.1961 22.3068C36.7083 20.7078 34.6586 20.0931 33.1405 21.0184C31.548 21.9896 31.2745 24.2493 32.6155 25.5443C32.8528 25.7804 33.1464 25.9521 33.4686 26.0431C34.628 26.3231 35.5248 27.0143 36.3714 27.7974C37.8895 29.1996 39.2502 30.7506 40.5714 32.3387C40.9499 32.7915 40.7573 33.3165 40.1777 33.3821C39.2808 33.4871 38.3773 33.5812 37.4739 33.6184C35.772 33.6884 34.068 33.7562 32.3639 33.7387C31.4123 33.7278 30.4564 33.5812 29.5136 33.4237C29.0692 33.3366 28.6444 33.1691 28.2602 32.9293C26.9936 32.1703 25.6811 32.6887 24.9505 33.4368C24.51 33.8896 24.2289 34.4735 24.1496 35.1001C24.0702 35.7268 24.197 36.3623 24.5108 36.9106C25.1189 37.9518 26.3177 38.5599 27.3939 38.3324C27.7045 38.2668 28.0108 38.129 28.2864 37.9693C29.0083 37.5581 29.7914 37.3656 30.6008 37.3153C31.9002 37.2365 33.2083 37.1621 34.5098 37.1928C36.1658 37.2321 37.8217 37.3787 39.4777 37.4815C39.703 37.4968 39.9305 37.5078 40.1536 37.5428C40.7749 37.6434 40.9542 38.1399 40.543 38.6278C40.0486 39.214 39.5717 39.82 39.038 40.3668C37.9153 41.5176 36.774 42.6502 35.6145 43.764C35.0884 44.2675 34.4362 44.6196 33.7267 44.7834C32.2917 45.1268 31.583 46.5115 31.7842 47.9115C31.9855 49.3028 33.228 50.3484 34.6345 50.3506C35.9383 50.3506 36.9402 49.6549 37.288 48.4081C37.6445 47.1262 38.467 46.1593 39.3245 45.2165C41.4398 42.8956 43.8177 40.8546 46.2436 38.8728C46.3869 38.76 46.5561 38.6848 46.7358 38.654C47.963 38.4943 49.1902 38.2953 50.4217 38.2187C51.8104 38.1299 53.2027 38.1109 54.5933 38.1618C56.0436 38.2209 57.4874 38.4112 58.9748 38.549C58.9486 39.0521 58.942 39.4809 58.9027 39.9053C58.6358 42.6615 57.9336 45.3018 56.6364 47.754C53.4339 53.8025 48.4945 57.589 41.8117 59.0656C40.314 59.3824 38.7859 59.5328 37.2552 59.514C35.6255 59.5118 33.9958 59.5271 32.3661 59.5096C27.8489 59.4615 23.7167 58.1753 20.0395 55.5415C15.6142 52.3696 12.7552 48.1106 11.5258 42.7971C11.251 41.6103 11.087 40.4005 11.0358 39.1834C10.9328 36.8836 10.9124 34.5809 10.9745 32.2796C11.1079 27.6658 12.7224 23.2174 15.5792 19.592C18.436 15.9666 22.3836 13.3567 26.8383 12.1481C28.6186 11.6627 30.4552 11.4141 32.3005 11.4087C34.1905 11.4021 36.0783 11.3737 37.9661 11.4174C42.4855 11.5224 46.5914 12.9006 50.2227 15.5999C54.5648 18.8265 57.3277 23.1075 58.4914 28.3946C58.7736 29.6634 58.872 30.9715 59.0624 32.3256C58.1217 32.4459 57.3058 32.6056 56.4811 32.6449Z" fill="#00C844"/>
<defs>
<linearGradient id="paint0_linear_57_4174" x1="35" y1="0.456055" x2="35" y2="70.4561" gradientUnits="userSpaceOnUse">
<stop stop-color="#00A732"/>
<stop offset="0.5" stop-color="#181818"/>
<stop offset="1"/>
</linearGradient>
</defs>
</svg>
