<svg width="70" height="71" viewBox="0 0 70 71" fill="none" xmlns="http://www.w3.org/2000/svg">
<path d="M35 70.4561C54.33 70.4561 70 54.786 70 35.4561C70 16.1261 54.33 0.456055 35 0.456055C15.67 0.456055 0 16.1261 0 35.4561C0 54.786 15.67 70.4561 35 70.4561Z" fill="url(#paint0_linear_57_4137)"/>
<path d="M36.2466 9.22131C30.3362 9.0181 24.5352 10.8506 19.8141 14.4122C19.3564 14.7562 18.981 15.1976 18.715 15.7046C18.449 16.2115 18.299 16.7713 18.276 17.3433C18.253 17.9153 18.3574 18.4853 18.5818 19.012C18.8062 19.5387 19.1449 20.0089 19.5734 20.3885C20.9341 21.6747 23.0297 21.7754 24.5084 20.6269C28.1294 17.809 32.6749 16.4502 37.2483 16.8187C41.8217 17.1872 46.091 19.2562 49.2141 22.6176C50.5047 23.9519 50.5441 26.0541 49.3059 27.4366C48.6769 28.1096 47.8065 28.5056 46.8858 28.5376C45.9651 28.5696 45.0693 28.235 44.395 27.6072L44.2266 27.4366C42.6693 25.7289 40.632 24.5321 38.3821 24.0033C36.1323 23.4744 33.7752 23.6383 31.6202 24.4734C29.4652 25.3084 27.6131 26.7757 26.3071 28.6824C25.001 30.5892 24.3022 32.8463 24.3022 35.1574C24.3022 37.4685 25.001 39.7256 26.3071 41.6324C27.6131 43.5391 29.4652 45.0064 31.6202 45.8414C33.7752 46.6765 36.1323 46.8404 38.3821 46.3115C40.632 45.7827 42.6693 44.5859 44.2266 42.8782C44.7254 42.3199 45.3944 41.9417 46.13 41.8021C46.8656 41.6625 47.6266 41.7693 48.2953 42.106C48.7711 42.3446 49.1852 42.69 49.5053 43.1151C49.8255 43.5403 50.043 44.0337 50.1408 44.5569C50.2387 45.08 50.2142 45.6187 50.0694 46.1308C49.9246 46.643 49.6633 47.1147 49.3059 47.5091C46.1958 50.9138 41.9209 53.0269 37.3272 53.4303C32.7335 53.8338 28.1557 52.4982 24.4997 49.6879C23.7762 49.1367 22.8814 48.8586 21.973 48.9026C21.0646 48.9466 20.2008 49.3099 19.5341 49.9285C19.1084 50.3185 18.7745 50.7981 18.5563 51.3326C18.3381 51.8671 18.2411 52.4434 18.2723 53.0199C18.3035 53.5964 18.462 54.1588 18.7366 54.6667C19.0111 55.1746 19.3948 55.6154 19.86 55.9572C23.123 58.3771 26.909 59.9964 30.9128 60.6844C34.9165 61.3724 39.0259 61.11 42.9095 59.9182C46.7932 58.7264 50.3425 56.6387 53.2711 53.8234C56.1998 51.0081 58.4259 47.5439 59.7699 43.7103C61.1139 39.8766 61.5383 35.7808 61.0087 31.7531C60.4792 27.7253 59.0106 23.8784 56.7213 20.5225C54.432 17.1665 51.3861 14.3955 47.8293 12.4329C44.2724 10.4702 40.3041 9.37089 36.2444 9.22349L36.2466 9.22131ZM35.7653 41.5701C34.9228 41.5669 34.0891 41.3978 33.3119 41.0725C32.5347 40.7471 31.8292 40.2719 31.2356 39.6739C30.6421 39.0758 30.1721 38.3668 29.8526 37.5872C29.5331 36.8075 29.3703 35.9726 29.3734 35.1301C29.3766 34.2875 29.5457 33.4538 29.871 32.6766C30.1964 31.8994 30.6716 31.1939 31.2696 30.6004C31.8677 30.0068 32.5767 29.5369 33.3563 29.2174C34.136 28.8978 34.9709 28.735 35.8134 28.7382C37.5151 28.7443 39.1446 29.4261 40.3435 30.6336C41.5424 31.8411 42.2125 33.4755 42.2064 35.1771C42.2003 36.8787 41.5185 38.5082 40.311 39.7071C39.1035 40.906 37.4669 41.5761 35.7653 41.5701Z" fill="#00C844"/>
<defs>
<linearGradient id="paint0_linear_57_4137" x1="35" y1="0.456055" x2="35" y2="70.4561" gradientUnits="userSpaceOnUse">
<stop stop-color="#00A732"/>
<stop offset="0.5" stop-color="#181818"/>
<stop offset="1"/>
</linearGradient>
</defs>
</svg>
