<svg width="70" height="71" viewBox="0 0 70 71" fill="none" xmlns="http://www.w3.org/2000/svg">
<path d="M35 70.4561C54.33 70.4561 70 54.786 70 35.4561C70 16.1261 54.33 0.456055 35 0.456055C15.67 0.456055 0 16.1261 0 35.4561C0 54.786 15.67 70.4561 35 70.4561Z" fill="url(#paint0_linear_57_4122)"/>
<path d="M30.52 53.9645H18.0775L20.5188 40.1504L33.4359 28.5151H22.4503L31.3338 23.0704H45.7778L27.0966 41.5111L25.8409 48.5548C25.8409 48.5548 30.0125 48.8611 33.3003 48.5548C36.5903 48.2157 40.285 46.8551 40.285 46.8551L30.52 53.9645ZM50.085 24.3982L44.5244 29.8429C44.5244 29.8429 49.2034 35.0492 44.8962 42.1936C40.6591 49.2023 26.5869 47.9095 26.5869 47.9095L27.6719 41.7517L47.4731 22.4251H31.0625L32.725 13.0342H24.7909L21.9428 29.0926H32.0469L20.0441 39.9142L17.5 54.4764C17.5 54.4764 27.0966 54.7476 35.2341 54.4764C43.4044 54.2029 52.9309 47.1942 54.3222 39.2667C56.2209 28.5479 50.085 24.3982 50.085 24.3982Z" fill="#00C844"/>
<defs>
<linearGradient id="paint0_linear_57_4122" x1="35" y1="0.456055" x2="35" y2="70.4561" gradientUnits="userSpaceOnUse">
<stop stop-color="#00A732"/>
<stop offset="0.5" stop-color="#181818"/>
<stop offset="1"/>
</linearGradient>
</defs>
</svg>
