<svg width="70" height="71" viewBox="0 0 70 71" fill="none" xmlns="http://www.w3.org/2000/svg">
<path d="M35 70.4561C54.33 70.4561 70 54.786 70 35.4561C70 16.1261 54.33 0.456055 35 0.456055C15.67 0.456055 0 16.1261 0 35.4561C0 54.786 15.67 70.4561 35 70.4561Z" fill="url(#paint0_linear_57_4053)"/>
<path d="M37.5025 14.5089C37.3809 14.4212 37.2957 14.2919 37.263 14.1455C37.2304 13.9992 37.2525 13.8459 37.3253 13.7148C37.4272 13.6498 37.5456 13.6152 37.6666 13.6152C37.7875 13.6152 37.9059 13.6498 38.0078 13.7148C39.5503 14.3532 40.9461 15.3001 42.1094 16.4973C42.7722 17.112 43.3278 17.8295 43.75 18.6192C44.1962 19.4257 44.5608 20.2657 44.8438 21.1392C45.1128 22.0427 45.2528 22.9811 45.255 23.9217C45.1172 24.8514 44.9816 29.3577 42.3828 31.4795C42.052 31.6784 41.6594 31.7478 41.2805 31.6743C40.9016 31.6008 40.5633 31.3896 40.3309 31.0814C40.1461 30.8632 40.0338 30.5928 40.0095 30.3079C39.9852 30.0229 40.0501 29.7375 40.1953 29.4911C41.2995 27.7804 41.9093 25.7978 41.9576 23.7623C42.0058 21.7268 41.4906 19.7175 40.4688 17.9564C39.5923 16.7168 38.6035 15.5677 37.5025 14.5089ZM33.4688 55.157C33.7422 55.4217 33.7422 55.6864 33.6066 55.8198C33.4709 55.9533 33.1953 56.0845 33.0597 55.9511C31.5172 55.3127 30.1214 54.3659 28.9581 53.1686C28.297 52.5575 27.7426 51.8403 27.3175 51.0467C26.8726 50.2447 26.5063 49.4015 26.2237 48.5289C25.954 47.6252 25.8155 46.6873 25.8125 45.7442C25.9503 44.8167 26.0859 40.3083 28.6847 38.1864C29.0152 37.9881 29.4075 37.9191 29.7858 37.9926C30.1642 38.0661 30.5021 38.2769 30.7344 38.5845C30.933 38.8022 31.0431 39.0861 31.0431 39.3808C31.0431 39.6754 30.933 39.9594 30.7344 40.177C29.6307 41.8875 29.021 43.8697 28.9728 45.9048C28.9245 47.9398 29.4395 49.9487 30.4609 51.7095C31.3469 52.9498 32.3553 54.1048 33.4688 55.157Z" fill="#00C844"/>
<path d="M45.2681 44.2191C45.0705 41.674 44.064 39.2587 42.3959 37.3263C40.7079 35.629 38.7717 34.1981 36.6537 33.0826C34.8067 32.0611 33.0663 30.8579 31.4584 29.4907C30.136 28.2482 29.2292 26.628 28.8618 24.851C28.5349 23.0165 28.7682 21.1261 29.5312 19.426C30.4454 17.5349 31.7554 15.8623 33.3724 14.5216C33.4634 14.4405 33.5259 14.3323 33.5507 14.213C33.5755 14.0936 33.5613 13.9695 33.5103 13.8588C33.4712 13.7891 33.4169 13.7291 33.3514 13.6833C33.2859 13.6375 33.2108 13.6072 33.1319 13.5945C33.053 13.5819 32.9722 13.5873 32.8957 13.6104C32.8191 13.6334 32.7488 13.6735 32.6899 13.7276C30.5127 14.6805 28.6598 16.2462 27.3568 18.2338C25.9004 20.3232 25.2188 22.8554 25.4296 25.3935C25.5408 26.6755 25.8646 27.9301 26.3878 29.1057C26.956 30.2687 27.6931 31.3413 28.5753 32.2885C30.3141 33.949 32.2962 35.3343 34.4531 36.3966C36.3081 37.3591 38.0515 38.5163 39.6484 39.8441C41.0536 41.0764 41.9747 42.7683 42.2471 44.6173C42.6321 46.5401 42.3915 48.5329 41.5624 50.3179C40.6339 52.1985 39.2752 53.8338 37.5965 55.091C37.541 55.1229 37.493 55.1661 37.4554 55.2179C37.4179 55.2697 37.3918 55.3288 37.3787 55.3915C37.3657 55.4541 37.3661 55.5188 37.3799 55.5812C37.3937 55.6437 37.4205 55.7025 37.4587 55.7538C37.5353 55.8938 37.6774 55.9945 37.8371 56.0185C37.9968 56.0426 38.1631 55.9966 38.2812 55.8873C40.3138 54.7138 42.0824 53.1335 43.4765 51.2454C44.8328 49.1498 45.4584 46.6866 45.2681 44.2191Z" fill="#00C844"/>
<defs>
<linearGradient id="paint0_linear_57_4053" x1="35" y1="0.456055" x2="35" y2="70.4561" gradientUnits="userSpaceOnUse">
<stop stop-color="#00A732"/>
<stop offset="0.5" stop-color="#181818"/>
<stop offset="1"/>
</linearGradient>
</defs>
</svg>
