<svg width="70" height="71" viewBox="0 0 70 71" fill="none" xmlns="http://www.w3.org/2000/svg">
<path d="M35 70.4561C54.33 70.4561 70 54.786 70 35.4561C70 16.1261 54.33 0.456055 35 0.456055C15.67 0.456055 0 16.1261 0 35.4561C0 54.786 15.67 70.4561 35 70.4561Z" fill="url(#paint0_linear_57_4107)"/>
<path fill-rule="evenodd" clip-rule="evenodd" d="M17.2813 15.7686H30.8438C31.3659 15.7686 31.8667 15.976 32.2359 16.3452C32.6051 16.7144 32.8125 17.2152 32.8125 17.7373V31.2998C32.8125 31.822 32.6051 32.3227 32.2359 32.6919C31.8667 33.0611 31.3659 33.2686 30.8438 33.2686H17.2813C16.7591 33.2686 16.2583 33.0611 15.8891 32.6919C15.5199 32.3227 15.3125 31.822 15.3125 31.2998V17.7373C15.3125 17.2152 15.5199 16.7144 15.8891 16.3452C16.2583 15.976 16.7591 15.7686 17.2813 15.7686ZM39.1562 15.7686H52.7188C53.2409 15.7686 53.7417 15.976 54.1109 16.3452C54.4801 16.7144 54.6875 17.2152 54.6875 17.7373V31.2998C54.6875 31.822 54.4801 32.3227 54.1109 32.6919C53.7417 33.0611 53.2409 33.2686 52.7188 33.2686H39.1562C38.6341 33.2686 38.1333 33.0611 37.7641 32.6919C37.3949 32.3227 37.1875 31.822 37.1875 31.2998V17.7373C37.1875 17.2152 37.3949 16.7144 37.7641 16.3452C38.1333 15.976 38.6341 15.7686 39.1562 15.7686ZM39.1562 37.6436H52.7188C53.2409 37.6436 53.7417 37.851 54.1109 38.2202C54.4801 38.5894 54.6875 39.0902 54.6875 39.6123V53.1748C54.6875 53.6969 54.4801 54.1977 54.1109 54.5669C53.7417 54.9361 53.2409 55.1436 52.7188 55.1436H39.1562C38.6341 55.1436 38.1333 54.9361 37.7641 54.5669C37.3949 54.1977 37.1875 53.6969 37.1875 53.1748V39.6123C37.1875 39.0902 37.3949 38.5894 37.7641 38.2202C38.1333 37.851 38.6341 37.6436 39.1562 37.6436ZM17.2813 37.6436H30.8438C31.3659 37.6436 31.8667 37.851 32.2359 38.2202C32.6051 38.5894 32.8125 39.0902 32.8125 39.6123V53.1748C32.8125 53.6969 32.6051 54.1977 32.2359 54.5669C31.8667 54.9361 31.3659 55.1436 30.8438 55.1436H17.2813C16.7591 55.1436 16.2583 54.9361 15.8891 54.5669C15.5199 54.1977 15.3125 53.6969 15.3125 53.1748V39.6123C15.3125 39.0902 15.5199 38.5894 15.8891 38.2202C16.2583 37.851 16.7591 37.6436 17.2813 37.6436Z" fill="#00C844"/>
<defs>
<linearGradient id="paint0_linear_57_4107" x1="35" y1="0.456055" x2="35" y2="70.4561" gradientUnits="userSpaceOnUse">
<stop stop-color="#00A732"/>
<stop offset="0.5" stop-color="#181818"/>
<stop offset="1"/>
</linearGradient>
</defs>
</svg>
