<svg width="70" height="71" viewBox="0 0 70 71" fill="none" xmlns="http://www.w3.org/2000/svg">
<path d="M35 70.4561C54.33 70.4561 70 54.786 70 35.4561C70 16.1261 54.33 0.456055 35 0.456055C15.67 0.456055 0 16.1261 0 35.4561C0 54.786 15.67 70.4561 35 70.4561Z" fill="url(#paint0_linear_57_4142)"/>
<path d="M35.0066 11.3936C48.2781 11.4154 59.0669 22.2129 59.0625 35.4626C59.0581 48.7276 48.2606 59.5186 34.9913 59.5186H34.9694C21.7131 59.5054 10.9309 48.697 10.9375 35.4254C10.9441 22.1779 21.7438 11.3936 35.0066 11.3936ZM35 14.4954C23.4566 14.4954 14.0613 23.8973 14.0569 35.4517C14.0547 46.9929 23.4369 56.3904 34.9738 56.3992C46.5303 56.3992 55.9409 47.0017 55.9497 35.4517C55.9584 32.6999 55.4205 29.9738 54.3671 27.4315C53.3138 24.8893 51.7661 22.5816 49.8138 20.6423C47.8754 18.688 45.5681 17.1382 43.0258 16.083C40.4835 15.0278 37.7569 14.4882 35.0044 14.4954H35ZM45.3425 33.3057C46.0841 37.0661 45.1303 40.2248 42.4288 42.9679L42.0569 43.342L41.5844 43.1101C41.323 42.9817 41.0574 42.8621 40.7881 42.7514L39.7184 42.3051L40.5803 41.5307C42.2625 40.0214 43.1572 38.0504 43.2425 35.6748C43.3278 33.2992 42.4878 31.2276 40.7422 29.5192C39.2115 28.019 37.152 27.1814 35.0088 27.1873C33.8371 27.1858 32.6787 27.4347 31.6111 27.9172C30.5434 28.3997 29.5912 29.1048 28.8181 29.9851C27.0725 31.9757 26.4053 34.3995 26.8931 36.9917C27.1954 38.7063 28.0514 40.2746 29.33 41.4564L30.1766 42.2417L29.1069 42.6726C28.8415 42.7791 28.5593 42.8957 28.2603 43.0226L27.8009 43.2151L27.4509 42.8586C25.6506 41.0036 24.675 38.8686 24.4716 36.3311C24.0406 30.9826 27.5078 26.2707 32.7184 25.1289C33.4871 24.9588 34.2718 24.8723 35.0591 24.8707C37.483 24.8739 39.8313 25.7156 41.7053 27.2531C43.5793 28.7906 44.8636 30.9291 45.3403 33.3057H45.3425ZM21.8159 47.0651C18.5872 43.4645 15.9688 37.077 18.3094 29.9501C19.4654 26.4385 21.7 23.3812 24.6948 21.2135C27.6897 19.0459 31.2921 17.8784 34.9891 17.8773C38.6544 17.8737 42.2291 19.0168 45.2123 21.1464C48.1955 23.276 50.4378 26.2855 51.625 29.7532C53.6944 35.817 52.255 42.712 47.9609 47.3189L47.4141 47.9029L45.4519 45.7111L45.885 45.2232C48.5713 42.1979 49.8181 38.6104 49.5928 34.5636C49.3828 30.8667 47.9128 27.6467 45.2222 24.9954C42.506 22.3071 38.8347 20.8054 35.0131 20.8195C31.5031 20.8212 28.1103 22.0826 25.4516 24.3742C23.3927 26.1327 21.8698 28.4348 21.0569 31.0176C20.2301 33.5851 20.1392 36.3329 20.7944 38.9495C21.3383 41.1901 22.4109 43.2678 23.9225 45.0089L24.3513 45.5054L22.3475 47.6623L21.8159 47.0651Z" fill="#00C844"/>
<defs>
<linearGradient id="paint0_linear_57_4142" x1="35" y1="0.456055" x2="35" y2="70.4561" gradientUnits="userSpaceOnUse">
<stop stop-color="#00A732"/>
<stop offset="0.5" stop-color="#181818"/>
<stop offset="1"/>
</linearGradient>
</defs>
</svg>
