<svg width="70" height="71" viewBox="0 0 70 71" fill="none" xmlns="http://www.w3.org/2000/svg">
<path d="M35 70.4561C54.33 70.4561 70 54.786 70 35.4561C70 16.1261 54.33 0.456055 35 0.456055C15.67 0.456055 0 16.1261 0 35.4561C0 54.786 15.67 70.4561 35 70.4561Z" fill="url(#paint0_linear_57_4132)"/>
<path fill-rule="evenodd" clip-rule="evenodd" d="M20.0616 17.9561H50.2841V22.167H20.0594L20.0616 17.9561ZM16.6928 30.2957H54.04V34.5504H42.5994V48.7845C42.5994 49.8782 43.0741 50.4251 44.065 50.4251H48.8162C49.3347 50.4251 49.7656 50.0904 50.0238 49.4582C50.3278 48.7845 50.5422 46.7195 50.6297 43.3092L54.6875 44.5736C54.3856 49.3314 53.8234 52.1532 53.0469 53.0392C52.2703 53.8792 51.1481 54.3429 49.6344 54.3429H42.7722C39.7053 54.3429 38.1959 52.7854 38.1959 49.7098V34.5504H31.8041V35.3926C31.5897 40.7411 30.3822 45.0351 28.1794 48.2376C26.0203 51.1842 22.5662 53.5007 17.7297 55.1436L15.3125 51.4379C19.9762 49.8367 23.0847 47.8154 24.7253 45.4573C26.3659 42.8454 27.2278 39.5182 27.4006 35.3926V34.5504H16.695L16.6928 30.2957Z" fill="#00C844"/>
<defs>
<linearGradient id="paint0_linear_57_4132" x1="35" y1="0.456055" x2="35" y2="70.4561" gradientUnits="userSpaceOnUse">
<stop stop-color="#00A732"/>
<stop offset="0.5" stop-color="#181818"/>
<stop offset="1"/>
</linearGradient>
</defs>
</svg>
