<svg width="70" height="71" viewBox="0 0 70 71" fill="none" xmlns="http://www.w3.org/2000/svg">
<path d="M35 70.4551C54.33 70.4551 70 54.785 70 35.4551C70 16.1251 54.33 0.455078 35 0.455078C15.67 0.455078 0 16.1251 0 35.4551C0 54.785 15.67 70.4551 35 70.4551Z" fill="url(#paint0_linear_518_12880)"/>
<path d="M20.7181 20.1769H32.6006C37.3125 20.1769 39.6531 20.0282 43.1663 20.3497C46.6816 20.7216 50.1969 22.1566 52.4719 24.9063C55.1516 28.1001 55.9347 32.4094 55.7575 36.4191C55.5825 40.4069 54.2153 44.5894 51.0806 47.3129C48.3003 49.8154 44.4088 50.7319 40.7163 50.756C33.5369 50.7801 26.3816 50.756 19.2022 50.756C18.4191 50.7057 17.5331 50.7801 16.9272 50.2354C15.8663 49.1722 16.4985 46.8929 18.1916 46.9913C22.186 46.8688 26.2044 46.9913 30.201 46.9169C30.1244 43.5504 30.1747 40.1838 30.1747 36.8413C27.0903 36.8151 24.03 36.8413 20.9478 36.8413C20.2631 36.8151 19.5041 36.8151 18.9747 36.3688C18.3425 35.8001 18.3425 34.8354 18.6203 34.0938C18.9747 33.2757 19.935 33.1269 20.7444 33.1269C23.8791 33.1007 27.04 33.1269 30.1725 33.1269C30.225 30.0557 30.1244 26.9844 30.225 23.9394C26.7097 23.9154 23.1966 23.9394 19.6813 23.9394C18.8981 23.9154 18.0144 23.9154 17.4063 23.3707C16.7763 22.5526 16.9031 21.3888 17.4325 20.5707C18.4431 20.0763 19.6069 20.1769 20.7181 20.1769ZM34.5738 33.1269C36.0131 33.151 37.4547 33.0263 38.8963 33.2254C40.6156 33.4726 40.6156 36.4935 38.87 36.7407C37.4547 36.9638 35.9891 36.8151 34.5475 36.8413C34.5738 39.7616 34.5475 42.6601 34.5475 45.5804C34.5738 46.0769 34.5978 46.8185 35.23 46.8688C36.9494 47.0176 38.4456 46.9672 40.3881 46.9672C43.2691 47.0919 46.3031 46.2016 48.3244 44.0951C50.3981 41.8922 51.1572 38.8232 51.2075 35.8985C51.2841 32.6566 50.676 29.091 48.2981 26.6629C46.1522 24.4841 42.9169 23.7426 39.9069 23.9154C38.1919 23.9154 36.7219 23.8651 35.1294 24.0138C34.6241 24.1626 34.5978 24.7816 34.5738 25.2279V33.1269Z" fill="#00C844"/>
<defs>
<linearGradient id="paint0_linear_518_12880" x1="35" y1="0.455078" x2="35" y2="70.4551" gradientUnits="userSpaceOnUse">
<stop stop-color="#00A732"/>
<stop offset="0.5" stop-color="#181818"/>
<stop offset="1"/>
</linearGradient>
</defs>
</svg>
