<svg width="70" height="71" viewBox="0 0 70 71" fill="none" xmlns="http://www.w3.org/2000/svg">
<path d="M35 70.4561C54.33 70.4561 70 54.786 70 35.4561C70 16.1261 54.33 0.456055 35 0.456055C15.67 0.456055 0 16.1261 0 35.4561C0 54.786 15.67 70.4561 35 70.4561Z" fill="url(#paint0_linear_57_4189)"/>
<path fill-rule="evenodd" clip-rule="evenodd" d="M54.8673 46.7217C54.4171 47.4729 53.6909 48.0182 52.8439 48.241C51.9969 48.4638 51.0964 48.3464 50.3348 47.9139L39.8807 41.9857V38.2232L43.2014 36.342L53.6532 42.2679C55.2414 43.167 55.7839 45.1642 54.8673 46.7217ZM38.3189 54.7257C38.3189 56.5261 36.8335 57.9851 35.0004 57.9851C33.1673 57.9851 31.682 56.5261 31.682 54.7257V42.8717L35.0004 40.9904L38.3189 42.8717V54.7257ZM19.666 47.9139C18.9042 48.3462 18.0035 48.4633 17.1565 48.2401C16.3095 48.0168 15.5834 47.4711 15.1335 46.7195C14.9164 46.3486 14.7755 45.9382 14.719 45.5121C14.6626 45.0861 14.6917 44.6531 14.8048 44.2385C14.9179 43.8239 15.1126 43.436 15.3775 43.0977C15.6424 42.7593 15.9723 42.4772 16.3476 42.2679L26.7995 36.3398L30.1201 38.2232V41.9857L19.666 47.9139ZM16.3476 28.6442C15.9723 28.4349 15.6424 28.1528 15.3775 27.8145C15.1126 27.4761 14.9179 27.0882 14.8048 26.6736C14.6917 26.259 14.6626 25.826 14.719 25.4C14.7755 24.9739 14.9164 24.5635 15.1335 24.1926C15.5834 23.441 16.3095 22.8953 17.1565 22.6721C18.0035 22.4489 18.9042 22.5659 19.666 22.9982L30.1201 28.9264V32.6889L26.7995 34.5701L16.3476 28.6442ZM31.682 16.1864C31.682 14.3861 33.1695 12.927 35.0004 12.927C36.8335 12.927 38.3189 14.3861 38.3189 16.1864V28.0382L35.0004 29.9217L31.682 28.0404V16.1864ZM39.8807 34.4607L41.6395 35.4561L39.8807 36.4514V34.4607ZM36.5623 30.8076L38.3189 29.8101V31.8029L36.5623 30.8076ZM31.682 31.8029V29.8123L33.4385 30.8076L31.682 31.8029ZM30.1201 36.4514L28.3614 35.4561L30.1201 34.4607V36.4514ZM33.4385 40.1045L31.682 41.102V39.1092L33.4385 40.1045ZM38.3189 39.1092V41.0998L36.5623 40.1045L38.3189 39.1092ZM35.0004 39.2186L31.682 37.3373V33.5748L35.0004 31.6936L38.3189 33.5748V37.3373L35.0004 39.2186ZM50.3348 22.9982C51.0966 22.5659 51.9973 22.4489 52.8444 22.6721C53.6914 22.8953 54.4175 23.441 54.8673 24.1926C55.786 25.7501 55.2392 27.7451 53.6532 28.6442L43.2014 34.5723L39.8807 32.6889V28.9264L50.3348 22.9982ZM54.4342 40.9401L44.7632 35.4561L54.4342 29.972C54.9866 29.6645 55.472 29.2498 55.8619 28.7523C56.2518 28.2547 56.5385 27.6842 56.7049 27.0743C56.8714 26.4645 56.9144 25.8275 56.8313 25.2008C56.7483 24.5741 56.5409 23.9703 56.2214 23.4248C54.8739 21.1323 51.8879 20.347 49.5539 21.6704L39.8807 27.1545V16.1842C39.8807 13.5395 37.6954 11.3936 35.0004 11.3936C32.3054 11.3936 30.1201 13.5395 30.1201 16.1864V27.1545L20.447 21.6704C18.1129 20.347 15.127 21.1323 13.7817 23.4248C13.4621 23.9703 13.2547 24.5741 13.1717 25.2008C13.0886 25.8275 13.1316 26.4645 13.2981 27.0743C13.4646 27.6842 13.7512 28.2547 14.1411 28.7523C14.5311 29.2498 15.0165 29.6645 15.5689 29.972L25.2376 35.4561L15.5689 40.9401C15.0163 41.2474 14.5307 41.6619 14.1405 42.1594C13.7504 42.657 13.4635 43.2274 13.2968 43.8373C13.1302 44.4472 13.087 45.0842 13.1699 45.711C13.2528 46.3378 13.46 46.9417 13.7795 47.4873C15.127 49.7798 18.1129 50.5651 20.447 49.2417L30.1201 43.7576V54.7257C30.1201 57.3726 32.3054 59.5186 35.0004 59.5186C37.6954 59.5186 39.8807 57.3726 39.8807 54.7257V43.7576L49.5539 49.2417C51.8879 50.5651 54.8739 49.7798 56.2214 47.4873C56.5409 46.9418 56.7483 46.338 56.8313 45.7113C56.9144 45.0846 56.8714 44.4477 56.7049 43.8378C56.5385 43.2279 56.2518 42.6574 55.8619 42.1599C55.472 41.6623 54.9866 41.2476 54.4342 40.9401Z" fill="#00C844"/>
<defs>
<linearGradient id="paint0_linear_57_4189" x1="35" y1="0.456055" x2="35" y2="70.4561" gradientUnits="userSpaceOnUse">
<stop stop-color="#00A732"/>
<stop offset="0.5" stop-color="#181818"/>
<stop offset="1"/>
</linearGradient>
</defs>
</svg>
