<svg width="70" height="71" viewBox="0 0 70 71" fill="none" xmlns="http://www.w3.org/2000/svg">
<path d="M35 70.4561C54.33 70.4561 70 54.786 70 35.4561C70 16.1261 54.33 0.456055 35 0.456055C15.67 0.456055 0 16.1261 0 35.4561C0 54.786 15.67 70.4561 35 70.4561Z" fill="url(#paint0_linear_57_4202)"/>
<path d="M17.2681 42.3705H26.8866L22.7456 50.7683H13.125L17.2681 42.3705ZM22.7478 31.258H32.3684L28.2406 39.6339H18.6156L22.75 31.2558L22.7478 31.258ZM28.2297 20.1455H37.8503L33.7181 28.5236H24.0997L28.2297 20.1455Z" fill="#00C844"/>
<path d="M26.856 42.3686H36.4766L32.3335 50.7642H22.7129L26.856 42.3686ZM32.3379 31.2561H41.9563L37.8263 39.6298H28.2057L32.3379 31.2561ZM37.8176 20.1436H47.4382L43.306 28.5195H33.6876L37.8176 20.1436Z" fill="#00C844"/>
<path d="M36.2904 42.3686H45.911L41.77 50.7642H32.1494L36.2904 42.3686ZM41.7722 31.2561H51.3929L47.2629 39.6298H37.6422L41.7722 31.2561ZM47.2541 20.1436H56.8747L52.7425 28.5195H43.1241L47.2541 20.1436Z" fill="#00C844"/>
<defs>
<linearGradient id="paint0_linear_57_4202" x1="35" y1="0.456055" x2="35" y2="70.4561" gradientUnits="userSpaceOnUse">
<stop stop-color="#00A732"/>
<stop offset="0.5" stop-color="#181818"/>
<stop offset="1"/>
</linearGradient>
</defs>
</svg>
