<svg width="70" height="71" viewBox="0 0 70 71" fill="none" xmlns="http://www.w3.org/2000/svg">
<path d="M35 70.4561C54.33 70.4561 70 54.786 70 35.4561C70 16.1261 54.33 0.456055 35 0.456055C15.67 0.456055 0 16.1261 0 35.4561C0 54.786 15.67 70.4561 35 70.4561Z" fill="url(#paint0_linear_57_4070)"/>
<path d="M20.4047 19.3061C20.3609 18.9845 20.6628 18.792 20.8356 18.5732C23.0102 16.4217 25.1744 14.2597 27.3281 12.0873C27.2975 18.0286 27.3456 23.9698 27.3041 29.9111C31.7863 27.4392 37.4322 27.3298 42.0391 29.5436C42.0362 29.9256 42.0347 30.3084 42.0347 30.692C38.3575 28.7145 33.8359 28.4607 29.9138 29.8389C25.4009 31.392 21.8047 35.2136 20.3981 39.7614C20.4047 32.9407 20.3959 26.1245 20.4047 19.3061ZM49.6953 44.8167C49.5588 48.433 48.0793 51.8686 45.5456 54.4526C43.163 56.8997 40.0004 58.4379 36.6044 58.8013C33.2083 59.1648 29.7919 58.3307 26.9453 56.4432C23.7078 54.3126 21.3672 50.8564 20.6497 47.0457C20.0263 44.027 20.4484 40.8223 21.7456 38.0332C23.2198 34.8965 25.7504 32.3782 28.8944 30.9195C33.0156 28.977 38.0381 29.1411 42.0281 31.3395C42.0048 34.6076 42.0055 37.8757 42.0303 41.1439C41.3784 39.7942 40.4116 38.5867 39.1319 37.7861C36.6009 36.152 33.0834 36.2286 30.64 38.0004C27.9494 39.8511 26.7353 43.5217 27.805 46.6082C28.7609 49.6511 31.7863 51.8845 34.9844 51.8495C38.06 51.9261 41.0284 49.9157 42.1288 47.0479C42.8288 45.4226 42.6538 43.6267 42.6691 41.9073C42.6822 33.037 42.6472 24.1667 42.6516 15.2986C42.6538 14.1829 42.6734 13.0673 42.6078 11.9561C44.9922 14.3054 47.3547 16.6832 49.7172 19.0567C49.6691 27.6426 49.7172 36.2286 49.6953 44.8189V44.8167Z" fill="#00C844"/>
<defs>
<linearGradient id="paint0_linear_57_4070" x1="35" y1="0.456055" x2="35" y2="70.4561" gradientUnits="userSpaceOnUse">
<stop stop-color="#00A732"/>
<stop offset="0.5" stop-color="#181818"/>
<stop offset="1"/>
</linearGradient>
</defs>
</svg>
