<svg width="70" height="71" viewBox="0 0 70 71" fill="none" xmlns="http://www.w3.org/2000/svg">
<path d="M35 70.4551C54.33 70.4551 70 54.785 70 35.4551C70 16.1251 54.33 0.455078 35 0.455078C15.67 0.455078 0 16.1251 0 35.4551C0 54.785 15.67 70.4551 35 70.4551Z" fill="url(#paint0_linear_518_12878)"/>
<path d="M17.4234 38.9507C17.4088 38.7198 17.4015 38.4886 17.4016 38.2573C17.4016 30.5638 23.3997 24.3098 30.9028 24.0429C31.0822 24.0429 31.2747 24.0429 31.4541 24.0582L29.6647 22.2798C29.6647 22.2798 36.8681 21.0766 46.1169 26.6373C46.1169 26.6373 46.2525 26.9195 46.1169 27.7485C46.1169 27.7485 50.4744 29.6166 50.8462 33.2479C51.2181 36.8791 48.9081 38.9551 47.0422 39.2504C47.0422 39.2504 48.0113 37.7541 46.5216 36.9535C46.1971 36.7768 45.8294 36.6949 45.4606 36.7173C42.6125 36.7173 42.2844 39.9482 42.2844 39.9482C42.2537 40.1101 42.2537 40.2741 42.2537 40.436C42.2537 40.436 41.8381 44.5463 48.6456 45.0298C50.2009 43.0228 51.5639 40.874 52.7166 38.6116C54.5349 35.0444 55.8968 31.2623 56.77 27.3548C52.8041 24.1041 48.1272 21.3173 43.0981 18.9832C41.2125 18.1082 39.3859 17.3491 37.6556 16.6973C36.7737 16.3625 35.8838 16.0488 34.9869 15.7566C34.281 15.9827 33.3915 16.2962 32.3181 16.6973C30.59 17.347 28.7612 18.1082 26.8778 18.9832C21.8531 21.3151 17.1741 24.102 13.2081 27.357C13.4225 28.3895 13.7484 29.6779 14.2166 31.1741C15.0511 33.8569 16.1243 36.4595 17.4234 38.9507ZM59.0625 26.4907L58.9531 27.1032C58.8963 27.5779 58.5091 29.2798 58.0322 30.9095C57.1609 33.8907 56.0118 36.7835 54.6 39.5501C52.6181 43.4132 50.2119 46.782 47.4512 49.5557C44.0453 52.9704 40.1034 55.4926 35.7109 57.0632L35.4659 57.1507L35 57.3301L34.5384 57.1682L34.2803 57.0785C29.8527 55.4897 25.8405 52.9228 22.5422 49.5688C19.7684 46.7688 17.3644 43.4066 15.3934 39.5632C13.5562 35.9522 12.1677 32.13 11.2591 28.1816C11.1497 27.6916 11.0294 27.0791 11.0513 27.1666L10.9375 26.5366L11.2 26.3179L11.3925 26.1538C15.4263 22.7588 20.1972 19.8473 25.3488 17.3995C28.2478 16.0065 31.2342 14.803 34.2891 13.7966L34.9847 13.5801L35.4594 13.7223L35.6956 13.7988C38.0581 14.5579 41.1972 15.7676 44.6294 17.3995C49.7744 19.8429 54.5388 22.7501 58.5681 26.1385L59.0625 26.4907ZM42.4331 28.0745C42.5534 28.0154 42.9406 27.8229 43.3891 27.3635C44.2837 27.4816 45.1631 27.7638 45.1631 27.7638C43.5378 26.786 41.3131 26.2063 38.8522 26.2216C38.8522 26.2216 39.7928 27.556 42.4025 28.1029L42.4331 28.0745Z" fill="#00C844"/>
<defs>
<linearGradient id="paint0_linear_518_12878" x1="35" y1="0.455078" x2="35" y2="70.4551" gradientUnits="userSpaceOnUse">
<stop stop-color="#00A732"/>
<stop offset="0.5" stop-color="#181818"/>
<stop offset="1"/>
</linearGradient>
</defs>
</svg>
