<svg width="70" height="71" viewBox="0 0 70 71" fill="none" xmlns="http://www.w3.org/2000/svg">
<path d="M35 70.4561C54.33 70.4561 70 54.786 70 35.4561C70 16.1261 54.33 0.456055 35 0.456055C15.67 0.456055 0 16.1261 0 35.4561C0 54.786 15.67 70.4561 35 70.4561Z" fill="url(#paint0_linear_57_4017)"/>
<path fill-rule="evenodd" clip-rule="evenodd" d="M30.122 14.6748H39.8783C40.2163 14.6746 40.5484 14.7645 40.8402 14.9352C41.132 15.1059 41.3731 15.3513 41.5386 15.6461L56.6455 42.5939C56.8045 42.8779 56.888 43.198 56.888 43.5236C56.888 43.8491 56.8045 44.1692 56.6455 44.4532L51.8111 53.0764C51.646 53.3712 51.4054 53.6168 51.114 53.7879C50.8226 53.959 50.4909 54.0494 50.153 54.0498H19.8473C19.509 54.0498 19.1769 53.9595 18.8851 53.7884C18.5932 53.6173 18.3523 53.3715 18.187 53.0764L13.3548 44.4532C13.1958 44.1692 13.1123 43.8491 13.1123 43.5236C13.1123 43.198 13.1958 42.8779 13.3548 42.5939L28.4617 15.6461C28.6273 15.3513 28.8683 15.1059 29.1601 14.9352C29.4519 14.7645 29.784 14.6746 30.122 14.6748ZM35.0002 25.3957L24.8217 43.5236H45.1786L35.0002 25.3957Z" fill="#00C844"/>
<defs>
<linearGradient id="paint0_linear_57_4017" x1="35" y1="0.456055" x2="35" y2="70.4561" gradientUnits="userSpaceOnUse">
<stop stop-color="#00A732"/>
<stop offset="0.5" stop-color="#181818"/>
<stop offset="1"/>
</linearGradient>
</defs>
</svg>
