<svg width="70" height="71" viewBox="0 0 70 71" fill="none" xmlns="http://www.w3.org/2000/svg">
<path d="M35 70.4551C54.33 70.4551 70 54.785 70 35.4551C70 16.1251 54.33 0.455078 35 0.455078C15.67 0.455078 0 16.1251 0 35.4551C0 54.785 15.67 70.4551 35 70.4551Z" fill="url(#paint0_linear_518_12881)"/>
<path fill-rule="evenodd" clip-rule="evenodd" d="M34.9999 60.0819C21.398 60.0819 10.373 49.0569 10.373 35.455C10.373 21.8531 21.398 10.8281 34.9999 10.8281C48.6018 10.8281 59.6268 21.8531 59.6268 35.455C59.6268 49.0569 48.6018 60.0819 34.9999 60.0819ZM34.9999 58.6338C47.8012 58.6338 58.1787 48.2562 58.1787 35.455C58.1787 22.6537 47.8012 12.2762 34.9999 12.2762C22.1987 12.2762 11.8212 22.6537 11.8212 35.455C11.8212 48.2562 22.1987 58.6338 34.9999 58.6338Z" fill="#00C844"/>
<path d="M30.8214 53.2437C31.3639 53.0206 33.4858 51.3844 35.5355 49.6234C38.0754 47.462 40.519 45.1899 42.8592 42.8137C45.1036 40.5694 45.937 39.6047 46.0748 39.1059C46.5605 37.3537 41.2514 18.0928 40.1708 17.6794C39.5123 17.4256 33.6236 22.3234 28.4086 27.4509C25.3505 30.4566 24.5039 31.4562 24.4383 32.1103C24.3945 32.6156 24.5695 33.8822 24.8955 35.3828C26.1926 41.3372 28.553 49.5644 29.7473 52.2659C30.2483 53.4122 30.3051 53.4625 30.8192 53.2437H30.8214Z" fill="#00C844"/>
<defs>
<linearGradient id="paint0_linear_518_12881" x1="35" y1="0.455078" x2="35" y2="70.4551" gradientUnits="userSpaceOnUse">
<stop stop-color="#00A732"/>
<stop offset="0.5" stop-color="#181818"/>
<stop offset="1"/>
</linearGradient>
</defs>
</svg>
