<svg width="70" height="71" viewBox="0 0 70 71" fill="none" xmlns="http://www.w3.org/2000/svg">
<path d="M35 70.4561C54.33 70.4561 70 54.786 70 35.4561C70 16.1261 54.33 0.456055 35 0.456055C15.67 0.456055 0 16.1261 0 35.4561C0 54.786 15.67 70.4561 35 70.4561Z" fill="url(#paint0_linear_57_4097)"/>
<path fill-rule="evenodd" clip-rule="evenodd" d="M18.1496 25.7612C17.2931 25.3125 16.5758 24.6377 16.0756 23.8101C15.5754 22.9826 15.3115 22.0338 15.3124 21.0668C14.9386 20.3579 14.7308 19.5732 14.7049 18.7722C14.679 17.9711 14.8356 17.1747 15.163 16.4431C15.4903 15.7115 15.9797 15.0639 16.5942 14.5494C17.2087 14.0348 17.9321 13.6668 18.7099 13.4731C19.4876 13.2794 20.2992 13.2651 21.0832 13.4313C21.8672 13.5975 22.6032 13.9399 23.2354 14.4325C23.8677 14.9251 24.3796 15.555 24.7324 16.2747C25.0853 16.9943 25.2698 17.7847 25.2721 18.5862C28.2594 16.8404 31.658 15.9222 35.1181 15.9262C45.9243 15.9262 54.6874 24.7068 54.6874 35.535C54.6874 46.3631 45.9265 55.1437 35.1181 55.1437C24.3096 55.1437 15.5487 46.3653 15.5487 35.535C15.5436 32.1053 16.4406 28.7347 18.1496 25.7612ZM35.1181 45.1818C40.4337 45.1818 44.7431 40.8637 44.7431 35.535C44.7431 30.2062 40.4337 25.8881 35.1181 25.8881C29.8024 25.8881 25.4931 30.2084 25.4931 35.535C25.4931 40.8615 29.8024 45.1818 35.1181 45.1818Z" fill="#00C844"/>
<defs>
<linearGradient id="paint0_linear_57_4097" x1="35" y1="0.456055" x2="35" y2="70.4561" gradientUnits="userSpaceOnUse">
<stop stop-color="#00A732"/>
<stop offset="0.5" stop-color="#181818"/>
<stop offset="1"/>
</linearGradient>
</defs>
</svg>
