<svg width="70" height="71" viewBox="0 0 70 71" fill="none" xmlns="http://www.w3.org/2000/svg">
<path d="M35 70.4561C54.33 70.4561 70 54.786 70 35.4561C70 16.1261 54.33 0.456055 35 0.456055C15.67 0.456055 0 16.1261 0 35.4561C0 54.786 15.67 70.4561 35 70.4561Z" fill="url(#paint0_linear_57_4127)"/>
<path fill-rule="evenodd" clip-rule="evenodd" d="M51.0103 16.3154C52.4366 16.3154 53.5938 17.5098 53.5938 18.9842C53.5938 20.4586 52.4366 21.6529 51.0103 21.6529L50.8506 21.6507L45.2856 35.1957C45.6028 35.6398 45.7909 36.1889 45.7909 36.7817C45.7909 38.1379 44.8131 39.2579 43.5466 39.4286L37.8088 53.3957C38.2353 53.8704 38.4956 54.5092 38.4956 55.2092C38.4956 56.6836 37.3384 57.8779 35.9122 57.8779C34.4859 57.8779 33.3288 56.6836 33.3288 55.2092C33.3288 54.5004 33.5934 53.8573 34.0287 53.3804L27.4509 39.4439L27.2978 39.4526C25.9613 39.4526 24.8609 38.4026 24.7275 37.0551L24.7144 36.7817C24.7144 36.1057 24.9594 35.4889 25.3597 35.0164L19.0531 21.6529L18.9919 21.6573C17.6553 21.6573 16.555 20.6073 16.4216 19.2598L16.4062 18.9842C16.4062 17.5098 17.5634 16.3154 18.9897 16.3154C20.0769 16.3154 21.0066 17.0089 21.3872 17.9889H48.6128C48.9934 17.0089 49.9253 16.3154 51.0103 16.3154ZM35.5294 31.9364L29.8266 36.2239C29.9154 36.6418 29.9043 37.0749 29.794 37.4877C29.6838 37.9005 29.4776 38.2815 29.1922 38.5995L35.7766 52.5448L35.9122 52.5382L36.0653 52.5426L41.6609 38.9211C41.1991 38.5555 40.8676 38.0506 40.7158 37.4814C40.5641 36.9122 40.6002 36.3093 40.8188 35.7623L35.5294 31.9364ZM21.1312 21.5217L27.0791 34.1239L27.2978 34.1129C27.8381 34.1129 28.3369 34.2836 28.7503 34.5723L33.8625 30.7311L21.1312 21.5217ZM48.5428 22.1692L37.1766 30.7004L42.1881 34.3295C42.4258 34.223 42.6774 34.1552 42.9428 34.1261L43.2075 34.1129C43.349 34.1129 43.4875 34.1246 43.6231 34.1479L48.5428 22.1692ZM48.1841 19.9795H22.3563L35.5097 29.4951L48.1841 19.9795Z" fill="#00C844"/>
<defs>
<linearGradient id="paint0_linear_57_4127" x1="35" y1="0.456055" x2="35" y2="70.4561" gradientUnits="userSpaceOnUse">
<stop stop-color="#00A732"/>
<stop offset="0.5" stop-color="#181818"/>
<stop offset="1"/>
</linearGradient>
</defs>
</svg>
