<svg width="70" height="71" viewBox="0 0 70 71" fill="none" xmlns="http://www.w3.org/2000/svg">
<path d="M35 70.4561C54.33 70.4561 70 54.786 70 35.4561C70 16.1261 54.33 0.456055 35 0.456055C15.67 0.456055 0 16.1261 0 35.4561C0 54.786 15.67 70.4561 35 70.4561Z" fill="url(#paint0_linear_57_4184)"/>
<path fill-rule="evenodd" clip-rule="evenodd" d="M30.1547 37.4858L26.5453 41.2571C25.8956 41.9352 25.2591 42.6199 24.6072 43.2937C24.4978 43.4074 24.3425 43.4752 24.2091 43.5649C23.9247 43.519 23.7059 43.3418 23.6687 43.0837C23.6085 42.6908 23.5545 42.297 23.5069 41.9024C23.4413 41.3818 23.2816 41.2374 22.7544 41.1718C21.6679 41.0391 20.5815 40.9005 19.495 40.7562L17.0144 40.4346C16.52 40.369 16.3406 40.0146 16.5987 39.5924L18.3903 36.7268L22.0434 30.8905C22.1878 30.6543 22.3497 30.4924 22.6603 30.5012C22.8572 30.5055 23.0628 30.4574 23.2575 30.4071C23.4894 30.3502 23.6709 30.4202 23.8328 30.5733C24.1216 30.8417 24.4089 31.1107 24.6947 31.3805L27.9934 34.5108L30.1328 36.5277C30.5003 36.8733 30.5003 37.1227 30.1547 37.4858ZM54.4141 42.5587C54.6197 42.7293 54.8428 42.8912 54.8866 43.1821C54.9412 43.554 54.7925 43.823 54.4775 44.0265L48.8994 47.6446L45.3053 49.9743C45.1903 50.0437 45.0819 50.1235 44.9816 50.2127C44.8906 50.2867 44.8184 50.3812 44.7709 50.4884C44.7233 50.5956 44.7018 50.7125 44.7081 50.8296C44.7256 51.278 44.7519 51.7265 44.7584 52.1727C44.765 52.6868 44.3866 53.0083 43.8703 52.9493C43.6846 52.9241 43.5159 52.8276 43.4 52.6802L42.105 51.1818L40.4841 49.3027C40.3719 49.1914 40.2869 49.0558 40.2357 48.9063C40.1845 48.7568 40.1684 48.5975 40.1887 48.4408L40.2631 45.8268C40.2719 45.5205 40.4534 45.3237 40.6984 45.1662L43.6691 43.2674C45.3316 42.2065 46.9984 41.1499 48.6566 40.078C49.0066 39.8527 49.3325 39.7849 49.7175 39.9818C50.0019 40.1262 50.3234 40.1524 50.6319 40.0562C51.0934 39.9096 51.4478 40.0387 51.8044 40.3537C52.6575 41.1062 53.5412 41.8237 54.4141 42.5587ZM38.4497 44.7287C38.5847 44.8605 38.6808 45.027 38.7275 45.2099C38.8084 45.619 38.6466 45.8968 38.2616 46.0827C36.9819 46.6996 35.7044 47.323 34.4138 47.9202C34.1819 48.0252 33.8909 48.0383 33.6262 48.0515C32.5566 48.0996 31.4869 48.128 30.4172 48.1718C29.785 48.1958 29.155 48.2352 28.5731 48.2659H28.1444C28.0474 48.2683 27.9509 48.2511 27.8607 48.2154C27.7705 48.1797 27.6884 48.1262 27.6194 48.058C27.4823 47.9355 27.3459 47.8116 27.2103 47.6862C26.4578 46.9708 25.7184 46.2424 24.9506 45.5424C24.5219 45.153 24.5153 44.6302 24.9244 44.2124C25.8431 43.2616 26.7582 42.3064 27.6697 41.3468C28.657 40.3128 29.6428 39.2774 30.6272 38.2405C30.7019 38.1526 30.7938 38.081 30.8972 38.03C31.0006 37.979 31.1134 37.9497 31.2286 37.944C31.3438 37.9382 31.459 37.9561 31.567 37.9966C31.675 38.0371 31.7735 38.0993 31.8566 38.1793L35.7941 42.0927C36.6778 42.9721 37.5703 43.8427 38.4497 44.7287ZM43.8703 27.1215C43.4481 26.4696 43.925 25.5683 44.6272 25.4524C46.5041 25.1396 48.3744 24.7808 50.2491 24.4549C50.6625 24.3827 50.9906 24.573 51.2181 24.9143C51.6104 25.5049 52.0005 26.097 52.3884 26.6905C53.2139 27.9374 54.0342 29.1857 54.8494 30.4355C54.9587 30.604 55.0134 30.8074 55.0944 30.9933L55.0462 31.0152C55.0335 31.3347 54.915 31.641 54.7094 31.8858C53.5631 33.4258 52.4038 34.9593 51.2597 36.5015C51.1517 36.6383 51.012 36.7468 50.8527 36.8174C50.6934 36.8881 50.5192 36.9188 50.3453 36.907C50.1714 36.8951 50.003 36.841 49.8547 36.7494C49.7065 36.6578 49.5828 36.5314 49.4944 36.3812C47.8209 33.603 46.13 30.8337 44.4456 28.0621C44.2553 27.7471 44.0694 27.4277 43.8703 27.1215ZM40.5781 34.8477L40.25 37.768L39.9678 40.1918L39.6441 43.0355C39.6222 43.2346 39.62 43.438 39.5784 43.6305C39.5566 43.7246 39.4866 43.8449 39.4078 43.8755C39.3291 43.9062 39.1891 43.8624 39.1191 43.8033C38.8114 43.5306 38.5102 43.2521 38.2156 42.9677C37.1467 41.9513 36.077 40.937 35.0066 39.9249C34.0747 39.0441 33.1406 38.1669 32.2044 37.2933C31.8938 37.0046 31.8916 36.9127 32.1912 36.5999L36.4744 32.1155L39.3991 29.0443L40.8341 27.5349C40.8756 27.4912 40.9106 27.4321 40.9609 27.4146C41.0638 27.3774 41.1906 27.3271 41.2803 27.3555C41.3547 27.3818 41.3897 27.5152 41.4116 27.5524L41.1928 29.4774L40.9106 31.9515L40.5781 34.8477ZM48.9038 37.079C49.0438 37.3043 49.0656 37.5187 48.9125 37.7527C48.7461 38.0155 48.675 38.3275 48.7113 38.6365C48.7375 38.9121 48.6237 39.0805 48.3897 39.2271C46.5609 40.3909 44.7351 41.5575 42.9122 42.7271C42.3391 43.0946 41.7652 43.4599 41.1906 43.823C40.9631 43.9674 40.7291 43.9565 40.6044 43.7727C40.5344 43.6721 40.5256 43.5321 40.5059 43.4621L40.7466 41.6946L41.2825 37.7965L41.8731 33.5308L42.4484 29.3593L42.6672 27.8062C42.6716 27.7646 42.6737 27.7165 42.6956 27.6858C42.7525 27.6137 42.8159 27.5065 42.8881 27.4933C42.9669 27.4802 43.0894 27.5415 43.1397 27.6093C43.2731 27.7887 43.3803 27.9877 43.4984 28.1802L47.775 35.2152C48.1483 35.8379 48.5246 36.4585 48.9038 37.0768V37.079ZM40.0378 26.3515C40.1056 26.3952 40.2369 26.4412 40.3069 26.5352C40.4141 26.6796 40.32 26.8152 40.2084 26.9312L38.7209 28.4952L34.3853 33.0321L31.6728 35.889C31.3447 36.2302 31.0822 36.2302 30.7409 35.9065C29.6851 34.9031 28.6278 33.9005 27.5691 32.8987C26.5395 31.9274 25.5084 30.9576 24.4759 29.9893C24.3381 29.858 24.2288 29.7158 24.2441 29.5146C24.2659 29.2412 24.4234 29.0858 24.7362 29.0333C25.3079 28.9313 25.8803 28.8306 26.4534 28.7315L31.955 27.769L38.4519 26.6293L40.0378 26.3515ZM25.2963 27.734C26.3156 27.0369 27.3357 26.342 28.3566 25.6493L38.2222 18.9293C38.5503 18.7062 38.7581 18.7521 38.9222 19.1065L40.9566 23.4815L41.2169 24.0502C41.2891 24.2033 41.2409 24.328 41.1491 24.4658C41.0291 24.6344 40.9279 24.8156 40.8472 25.0062C40.775 25.1877 40.6656 25.2862 40.4688 25.3212L36.1156 26.1043L30.9662 27.0296L25.3444 28.0402C25.2656 28.0533 25.1847 28.0402 25.1037 28.0402L25.0556 27.9505C25.1366 27.8783 25.2088 27.7952 25.2963 27.734ZM15.0369 31.0721C14.3938 31.059 14.0109 30.4333 14.3194 29.858C14.5797 29.3724 14.8684 28.9043 15.1484 28.4296C15.9549 27.0558 16.7599 25.6814 17.5634 24.3062C17.6942 24.0815 17.8831 23.8964 18.1103 23.7702L24.5109 20.0799C24.6457 19.9954 24.7947 19.9361 24.9506 19.9049C25.0963 19.8767 25.2471 19.8915 25.3846 19.9474C25.5221 20.0033 25.6403 20.098 25.725 20.2199C25.8179 20.3396 25.8744 20.4835 25.8876 20.6344C25.9008 20.7854 25.8701 20.9369 25.7994 21.0708C25.4778 21.7577 25.1431 22.438 24.815 23.1205C24.2025 24.3703 23.5922 25.6216 22.9841 26.8743C22.9273 27.0132 22.8381 27.1365 22.7239 27.234C22.6098 27.3314 22.4739 27.4001 22.3278 27.4343C22.0562 27.4985 21.8078 27.6368 21.6101 27.8337C21.4124 28.0307 21.2731 28.2786 21.2078 28.5499C21.1746 28.6838 21.1068 28.8066 21.0112 28.906C20.9156 29.0054 20.7956 29.078 20.6631 29.1165C18.9088 29.7333 17.1566 30.3633 15.4044 30.9868C15.2862 31.0305 15.1616 31.0437 15.0391 31.0743L15.0369 31.0721ZM24.1216 27.0777C24.1325 26.9869 24.1576 26.8983 24.1959 26.8152L26.4884 21.7905C26.9653 20.7449 27.4487 19.7015 27.9191 18.6537C28.0284 18.413 28.1881 18.2927 28.4594 18.2818C29.1747 18.2599 29.89 18.2227 30.6053 18.1943L34.8272 18.0346C35.3216 18.0127 35.8181 17.9799 36.3147 17.9558C36.6691 17.9405 36.9119 18.1549 36.9141 18.5027C36.9294 18.7149 36.7937 18.8527 36.6187 18.973L35.2669 19.894L27.1863 25.3912L24.605 27.1499C24.5451 27.1958 24.4806 27.2354 24.4125 27.268C24.2594 27.3337 24.1128 27.2418 24.1216 27.0777ZM21.14 30.6871C20.7827 31.2617 20.424 31.8348 20.0637 32.4065L16.0387 38.8377C15.9845 38.9411 15.9101 39.0326 15.82 39.1068C15.5881 39.273 15.2797 39.1571 15.1703 38.8662C14.9968 38.3966 14.8269 37.9263 14.6606 37.4552L13.1972 33.3383C13.1622 33.2355 13.1381 33.1305 13.125 33.0802C13.1272 32.8024 13.2191 32.6843 13.4794 32.599C14.2581 32.3481 15.0369 32.0995 15.8156 31.853L20.2234 30.453L20.8031 30.2737C20.9409 30.2299 21.0787 30.1708 21.1925 30.324C21.2953 30.4618 21.21 30.5755 21.14 30.6871ZM56.3981 36.3943L56.84 38.923C56.8531 39.004 56.8619 39.0871 56.875 39.1943C56.8531 39.3037 56.8291 39.4349 56.7941 39.5618L56.2144 41.653C56.0481 42.2546 55.5713 42.3968 55.09 41.9899C54.1027 41.1587 53.1132 40.3289 52.1216 39.5005C51.8962 39.3124 51.8022 39.0958 51.8547 38.7983C51.9188 38.5021 51.8834 38.1931 51.7541 37.919C51.6184 37.6499 51.6622 37.4115 51.8394 37.1752L54.2588 33.9158L54.7509 33.2508C54.915 33.0255 55.1316 32.9162 55.4072 32.9774C55.6959 33.043 55.8447 33.2399 55.8928 33.5221L56.3981 36.3943ZM39.8519 19.0168L39.8081 18.9249C39.7491 18.7937 39.725 18.6405 39.8584 18.5662C39.9756 18.5137 40.1078 18.5059 40.2303 18.5443C40.4228 18.6033 40.5956 18.7127 40.7772 18.8024L48.1316 22.4752L49.4375 23.1315C49.5841 23.2037 49.7 23.289 49.6694 23.4727C49.6387 23.6543 49.5009 23.6937 49.3412 23.7221L44.0431 24.6737L43.8703 24.7087C43.82 24.6758 43.7237 24.6387 43.6625 24.5687C43.5056 24.3704 43.3076 24.2085 43.0822 24.0941C42.8568 23.9797 42.6092 23.9154 42.3566 23.9058C42.1597 23.8971 42.0591 23.7812 41.9847 23.6171C41.6726 22.9448 41.3591 22.2732 41.0441 21.6024L39.8519 19.0168Z" fill="#00C844"/>
<defs>
<linearGradient id="paint0_linear_57_4184" x1="35" y1="0.456055" x2="35" y2="70.4561" gradientUnits="userSpaceOnUse">
<stop stop-color="#00A732"/>
<stop offset="0.5" stop-color="#181818"/>
<stop offset="1"/>
</linearGradient>
</defs>
</svg>
