<svg width="70" height="71" viewBox="0 0 70 71" fill="none" xmlns="http://www.w3.org/2000/svg">
<path d="M35 70.4561C54.33 70.4561 70 54.786 70 35.4561C70 16.1261 54.33 0.456055 35 0.456055C15.67 0.456055 0 16.1261 0 35.4561C0 54.786 15.67 70.4561 35 70.4561Z" fill="url(#paint0_linear_57_4179)"/>
<path d="M37.5397 37.1601C38.4095 36.7439 39.1441 36.0905 39.6588 35.275C40.1736 34.4596 40.4475 33.5154 40.4491 32.5511C40.4491 29.7204 38.1259 27.4257 35.2647 27.4257C32.3991 27.4257 30.0737 29.7204 30.0737 32.5511C30.0761 33.5154 30.3509 34.4595 30.8664 35.2746C31.3819 36.0897 32.1172 36.7425 32.9875 37.1579V43.4886H37.5397V37.1601ZM35.2647 51.8623C26.1078 51.8623 18.6616 44.5036 18.6616 35.4561C18.6616 26.4086 26.1078 19.0498 35.2647 19.0498C42.735 19.0498 49.0678 23.9498 51.1459 30.6698H56.8684C54.6591 20.8917 45.8259 13.5811 35.2625 13.5811C23.0366 13.5811 13.125 23.3745 13.125 35.4561C13.125 47.5376 23.0366 57.3311 35.2625 57.3311C45.8259 57.3311 54.6591 50.0204 56.8684 40.2423H51.1437C49.0656 46.9623 42.735 51.8623 35.2647 51.8623Z" fill="#00C844"/>
<defs>
<linearGradient id="paint0_linear_57_4179" x1="35" y1="0.456055" x2="35" y2="70.4561" gradientUnits="userSpaceOnUse">
<stop stop-color="#00A732"/>
<stop offset="0.5" stop-color="#181818"/>
<stop offset="1"/>
</linearGradient>
</defs>
</svg>
