<svg width="70" height="71" viewBox="0 0 70 71" fill="none" xmlns="http://www.w3.org/2000/svg">
<path d="M35 70.4561C54.33 70.4561 70 54.786 70 35.4561C70 16.1261 54.33 0.456055 35 0.456055C15.67 0.456055 0 16.1261 0 35.4561C0 54.786 15.67 70.4561 35 70.4561Z" fill="url(#paint0_linear_57_4018)"/>
<path fill-rule="evenodd" clip-rule="evenodd" d="M35 59.5186C21.7109 59.5186 10.9375 48.7451 10.9375 35.4561C10.9375 22.167 21.7109 11.3936 35 11.3936C48.2891 11.3936 59.0625 22.167 59.0625 35.4561C59.0625 48.7451 48.2891 59.5186 35 59.5186ZM32.8388 15.1998L32.8431 20.942L35.7087 20.9464C35.7175 18.9834 35.7175 17.0205 35.7087 15.0576C34.7506 15.0897 33.794 15.1371 32.8388 15.1998ZM39.7337 21.0339C42.2537 21.3729 44.9619 21.7579 46.9678 23.4576C50.0325 26.2073 49.6366 31.9801 45.885 33.9729C48.1316 34.4979 50.3563 35.992 50.9097 38.3523C51.6316 41.4454 51.0584 45.1554 48.5713 47.3342C46.1081 49.3576 42.7744 49.6245 39.7272 49.9154C39.7374 51.7048 39.7389 53.4956 39.7316 55.2879C46.1409 53.7239 51.6753 48.9551 54.0269 42.7864C56.2581 37.0945 55.7331 30.3986 52.5787 25.1551C49.7941 20.4301 45.0603 16.952 39.7447 15.622C39.733 17.4274 39.7301 19.2314 39.7359 21.0339H39.7337ZM20.6019 20.9573C23.38 21.0886 26.1581 21.0623 28.9362 21.0579C28.9362 19.3692 28.9428 17.6804 28.9275 15.9917C25.8169 17.0001 23.0475 18.8092 20.5997 20.9573H20.6019ZM17.36 25.3104C14.0941 30.8667 13.7266 37.9957 16.45 43.8429C18.8016 49.0842 23.4675 53.1617 28.9297 54.9182C28.9406 53.2339 28.9362 51.5451 28.9362 49.8607C26.1472 49.8323 23.3516 49.9351 20.5691 49.7842C20.5997 48.2311 20.9628 46.7129 21.4944 45.2539C22.8594 45.2254 24.2834 45.4639 25.6025 45.0198C26.3725 44.3723 26.1538 43.3026 26.1931 42.4167C26.1538 37.3548 26.215 32.2907 26.1669 27.2289C26.2172 26.4129 25.7053 25.5314 24.8544 25.3695C23.4544 25.0917 22.0172 25.2011 20.6019 25.1923C20.4356 24.0548 20.4181 22.902 20.3984 21.7492C20.4197 21.6322 20.4169 21.5122 20.3902 21.3963C20.3635 21.2805 20.3134 21.1713 20.2431 21.0754C19.4425 22.5936 18.1694 23.7945 17.36 25.3082V25.3104ZM32.9569 25.5314V32.9951C35.4528 32.9514 38.22 33.227 40.4031 31.7789C42.2144 30.5954 42.0984 27.592 40.2281 26.5289C38.045 25.2339 35.3806 25.6014 32.9591 25.5314H32.9569ZM32.9569 37.0114V45.2911C36.0369 45.0417 39.4931 45.5601 42.1728 43.7029C44.0891 42.432 43.8594 39.2864 41.8841 38.1861C39.2 36.5826 35.9384 37.0923 32.9591 37.0114H32.9569ZM32.8453 49.9723C32.8453 51.8856 32.8417 53.8012 32.8344 55.7189C33.8319 55.783 34.8294 55.8268 35.8269 55.8501C35.8327 53.8916 35.8342 51.9323 35.8312 49.9723H32.8453Z" fill="#00C844"/>
<defs>
<linearGradient id="paint0_linear_57_4018" x1="35" y1="0.456055" x2="35" y2="70.4561" gradientUnits="userSpaceOnUse">
<stop stop-color="#00A732"/>
<stop offset="0.5" stop-color="#181818"/>
<stop offset="1"/>
</linearGradient>
</defs>
</svg>
