<svg width="70" height="71" viewBox="0 0 70 71" fill="none" xmlns="http://www.w3.org/2000/svg">
<path d="M35 70.4561C54.33 70.4561 70 54.786 70 35.4561C70 16.1261 54.33 0.456055 35 0.456055C15.67 0.456055 0 16.1261 0 35.4561C0 54.786 15.67 70.4561 35 70.4561Z" fill="url(#paint0_linear_57_4075)"/>
<path d="M55.1144 42.8936C56.7988 43.8123 57.3609 45.9254 56.2366 47.5792C55.3025 49.2329 53.1522 49.7842 51.4678 48.8654C50.9603 48.5732 50.5325 48.1606 50.2224 47.6638C49.9122 47.1671 49.7291 46.6016 49.6894 46.0173H41.0816L36.9647 52.9976C36.9647 53.0895 36.8706 53.1814 36.7788 53.2732C37.7128 53.8245 38.3691 54.927 38.3691 56.1214C38.3691 57.9589 36.7788 59.5186 34.9063 59.5186C33.0359 59.5186 31.4456 58.0486 31.4456 56.1214C31.4456 54.927 32.1019 53.9164 33.0359 53.2732C33.0359 53.1814 32.9419 53.0895 32.8478 52.9976L28.7331 46.0195H20.1253C20.0313 47.2117 19.3772 48.2223 18.3469 48.8632C16.6625 49.782 14.5122 49.2329 13.5759 47.5792C12.6397 45.9254 13.2019 43.8145 14.8863 42.8957C16.0084 42.2526 17.2247 42.2526 18.255 42.8039C18.3469 42.712 18.3469 42.5282 18.4409 42.4364L22.6519 35.4561L18.535 28.4779C18.434 28.3783 18.368 28.2486 18.3469 28.1082C17.3188 28.5676 16.0084 28.6595 14.9781 28.0164C14.5822 27.7973 14.2338 27.5016 13.9532 27.1466C13.6725 26.7916 13.4653 26.3843 13.3436 25.9485C13.2219 25.5127 13.188 25.057 13.2441 24.6079C13.3001 24.1589 13.4449 23.7255 13.67 23.3329C14.6041 21.6792 16.7566 21.1279 18.4409 22.0467C19.5631 22.6898 20.1253 23.7923 20.2194 24.8948H28.9191L33.0359 17.9145C33.0359 17.8226 33.13 17.7307 33.2219 17.6389C32.7359 17.3392 32.3346 16.9202 32.0562 16.4217C31.7779 15.9232 31.6317 15.3617 31.6316 14.7907C31.6316 12.9532 33.2219 11.3936 35.0944 11.3936C36.9647 11.3936 38.555 12.8636 38.555 14.7907C38.555 15.9851 37.8988 16.9957 36.9647 17.6389C36.9647 17.7307 37.0588 17.8226 37.1528 17.9145L41.2675 24.8926H49.8753C49.9694 23.7004 50.6234 22.6898 51.6538 22.0489C53.3381 21.1301 55.4884 21.6792 56.4247 23.3329C56.6497 23.7256 56.7944 24.1591 56.8503 24.6083C56.9061 25.0574 56.8721 25.5132 56.7502 25.949C56.6282 26.3849 56.4208 26.7921 56.14 27.147C55.8591 27.5019 55.5105 27.7975 55.1144 28.0164C53.9922 28.6595 52.7759 28.6595 51.7456 28.1082C51.6538 28.2001 51.6538 28.3839 51.5597 28.4757L47.4428 35.4561L51.5597 42.4342C51.6607 42.5338 51.7267 42.6635 51.7478 42.8039C52.7759 42.3445 54.0863 42.2526 55.1166 42.8957L55.1144 42.8936ZM39.4913 33.1592C39.4913 31.232 37.9009 29.6701 35.9366 29.6701H31.4456C31.3359 29.6687 31.227 29.689 31.1252 29.7298C31.0233 29.7707 30.9306 29.8313 30.8523 29.9081C30.774 29.985 30.7117 30.0766 30.669 30.1777C30.6263 30.2788 30.604 30.3873 30.6034 30.497V40.4151C30.6034 40.8745 30.9775 41.242 31.4456 41.242H35.9366C37.9009 41.242 39.4913 39.6801 39.4913 37.7529C39.4913 36.9261 39.2113 36.0992 38.6491 35.5479C39.1172 34.8129 39.4913 34.0779 39.4913 33.1592Z" fill="#00C844"/>
<defs>
<linearGradient id="paint0_linear_57_4075" x1="35" y1="0.456055" x2="35" y2="70.4561" gradientUnits="userSpaceOnUse">
<stop stop-color="#00A732"/>
<stop offset="0.5" stop-color="#181818"/>
<stop offset="1"/>
</linearGradient>
</defs>
</svg>
