<svg width="70" height="71" viewBox="0 0 70 71" fill="none" xmlns="http://www.w3.org/2000/svg">
<path d="M35 70.4561C54.33 70.4561 70 54.786 70 35.4561C70 16.1261 54.33 0.456055 35 0.456055C15.67 0.456055 0 16.1261 0 35.4561C0 54.786 15.67 70.4561 35 70.4561Z" fill="url(#paint0_linear_57_4117)"/>
<path d="M37.3581 42.7973C48.4706 39.3695 44.5047 27.8479 37.3581 27.4104C39.1737 27.4104 40.6569 22.2107 40.6569 15.7686C58.1044 17.0089 66.3009 45.7614 40.1319 54.7564C40.3003 52.4223 39.3444 45.9079 37.3603 42.7973H37.3581ZM13.125 39.3936V27.4345H13.1469C19.4578 27.4104 24.5481 22.1845 24.5262 15.7926H36.6887C36.6909 28.8432 26.1516 39.3936 13.125 39.3936ZM29.0653 37.2279C36.2841 43.1604 36.6909 53.1507 36.6909 55.1436H24.5262C24.5262 48.5329 20.2234 43.1845 14.8947 43.1845C23.9291 41.7276 25.7687 40.1964 29.0653 37.2301V37.2279Z" fill="#00C844"/>
<defs>
<linearGradient id="paint0_linear_57_4117" x1="35" y1="0.456055" x2="35" y2="70.4561" gradientUnits="userSpaceOnUse">
<stop stop-color="#00A732"/>
<stop offset="0.5" stop-color="#181818"/>
<stop offset="1"/>
</linearGradient>
</defs>
</svg>
