<svg width="70" height="71" viewBox="0 0 70 71" fill="none" xmlns="http://www.w3.org/2000/svg">
<path d="M35 70.4561C54.33 70.4561 70 54.786 70 35.4561C70 16.1261 54.33 0.456055 35 0.456055C15.67 0.456055 0 16.1261 0 35.4561C0 54.786 15.67 70.4561 35 70.4561Z" fill="url(#paint0_linear_57_4046)"/>
<path d="M9.63813 47.9489L21.3128 26.6929C21.7963 25.8048 22.5991 25.5642 23.4128 26.0454H23.4981C23.6805 26.1551 23.8837 26.2257 24.0948 26.2528C24.3058 26.2799 24.5203 26.2629 24.7244 26.2029C24.9286 26.1428 25.1181 26.0411 25.2809 25.904C25.4437 25.767 25.5763 25.5976 25.6703 25.4067L33.8713 12.8417C34.1513 12.3094 34.5012 11.8267 34.9212 11.3936C35.2887 11.8442 35.5622 12.3626 35.7241 12.9204L39.2678 21.6989C40.0706 23.7157 42.0022 25.1639 44.0191 25.1639H44.66C45.6947 25.2032 46.6747 25.6342 47.4009 26.3714L49.9734 29.1057C50.7376 29.9151 51.4376 30.7748 52.0734 31.6848L60.3684 43.6023C60.6805 44.0748 60.9744 44.5575 61.25 45.0504V45.1292C60.8037 44.7812 60.3986 44.3834 60.0425 43.9436L48.8491 32.3301C48.1555 31.6346 47.5588 30.8487 47.075 29.9939C46.1825 28.0623 45.0581 27.2529 43.2906 27.3382H41.0375C39.6725 27.3382 39.3466 27.0976 38.9375 25.7261L35.7241 15.6636C35.1619 13.6467 35.0788 13.6467 34.5166 15.6636L32.3444 22.4886C31.8609 23.8514 31.6969 26.1089 31.9397 26.1089C32.0228 26.1089 32.585 25.0589 33.4709 23.2104C33.6401 22.8327 33.8538 22.4827 34.1119 22.1604C34.3175 22.9304 34.4269 23.7223 34.44 24.5186C34.2038 25.0742 33.934 25.6116 33.6306 26.1307L33.5519 26.3714C32.585 28.1411 32.585 28.2242 33.6306 29.9151L34.5953 31.5229C34.9628 32.0202 35.2589 32.5569 35.4834 33.1329C35.0273 33.5191 34.5424 33.8701 34.0331 34.1829L29.0413 37.4029C28.1503 37.8913 27.1581 38.1661 26.1428 38.2057C24.3688 38.127 22.8397 39.0151 21.4703 40.8614L19.5388 43.6023C18.8402 44.4627 18.0615 45.2415 17.2025 45.9386L15.4328 47.3867C14.5221 48.0181 13.5512 48.5581 12.5344 48.9989L11.5697 49.2395C10.8697 49.4932 10.1369 49.6551 9.39531 49.7186C9.065 49.7186 8.75 49.7186 8.75 49.6398C9.00083 49.0536 9.29688 48.4899 9.63813 47.9489Z" fill="#00C844"/>
<defs>
<linearGradient id="paint0_linear_57_4046" x1="35" y1="0.456055" x2="35" y2="70.4561" gradientUnits="userSpaceOnUse">
<stop stop-color="#00A732"/>
<stop offset="0.5" stop-color="#181818"/>
<stop offset="1"/>
</linearGradient>
</defs>
</svg>
