<svg width="70" height="71" viewBox="0 0 70 71" fill="none" xmlns="http://www.w3.org/2000/svg">
<path d="M35 70.4561C54.33 70.4561 70 54.786 70 35.4561C70 16.1261 54.33 0.456055 35 0.456055C15.67 0.456055 0 16.1261 0 35.4561C0 54.786 15.67 70.4561 35 70.4561Z" fill="url(#paint0_linear_57_4065)"/>
<path d="M49.8094 30.9717H60.4625L61.25 26.5967H50.9469C48.9161 26.6624 46.948 27.3159 45.2812 28.4779C44.6688 26.2904 38.7188 26.5967 38.7188 26.5967L39.5062 22.2217H37.1875L36.4 26.5967H33.9719L34.65 22.2217H32.1344L31.2156 26.5967H28.6125L27.2781 33.4217L25.5063 26.7279H19.6875L8.75 42.8061H17.7625L18.6812 38.5404H16.8438L22.0938 30.8623L24.0625 38.5842H22.0938L21.2406 42.8061H27.9344L27.3875 45.7373H30.0125L30.625 42.8061H32.8125L32.2656 45.7373H35L35.5469 42.8061H38.9594C40.5285 42.6281 41.9809 41.8903 43.05 40.7279C44.3245 42.0178 46.0497 42.7628 47.8625 42.8061H58.1656L58.8438 38.5404H49.5906C43.225 38.4311 45.9375 30.9279 49.8094 30.9717ZM38.2375 38.4311H31.4125L31.9594 36.3529H38.5219C40.1844 36.4623 39.6375 38.4311 38.2375 38.4311ZM39.2656 32.8311H32.4406L32.9875 30.7529H39.55C41.2125 30.8623 40.6 32.9186 39.2656 32.9186V32.8311Z" fill="#00C844"/>
<defs>
<linearGradient id="paint0_linear_57_4065" x1="35" y1="0.456055" x2="35" y2="70.4561" gradientUnits="userSpaceOnUse">
<stop stop-color="#00A732"/>
<stop offset="0.5" stop-color="#181818"/>
<stop offset="1"/>
</linearGradient>
</defs>
</svg>
