<svg width="70" height="71" viewBox="0 0 70 71" fill="none" xmlns="http://www.w3.org/2000/svg">
<path d="M35 70.4561C54.33 70.4561 70 54.786 70 35.4561C70 16.1261 54.33 0.456055 35 0.456055C15.67 0.456055 0 16.1261 0 35.4561C0 54.786 15.67 70.4561 35 70.4561Z" fill="url(#paint0_linear_57_4087)"/>
<path d="M37.0584 54.2183C37.1736 54.4866 37.232 54.7746 37.2334 55.0823C37.2334 56.3248 36.2097 57.3311 34.9475 57.3311C33.6853 57.3311 32.6616 56.3248 32.6616 55.0823C32.663 54.7834 32.7184 54.5026 32.8278 54.2401L19.2434 46.5248C19.0289 46.7432 18.7728 46.9164 18.4903 47.0344C18.2078 47.1523 17.9046 47.2126 17.5984 47.2117C16.3363 47.2117 15.3125 46.2055 15.3125 44.963C15.3125 43.913 16.0409 43.0336 17.0275 42.7842V27.4126C16.5397 27.2927 16.1059 27.0131 15.7952 26.6183C15.4844 26.2236 15.3145 25.7363 15.3125 25.2339C15.3125 23.9914 16.3363 22.9851 17.5984 22.9851C18.3553 22.9851 19.0269 23.3483 19.4447 23.9083L32.7272 16.3614C32.6836 16.1876 32.6616 16.009 32.6616 15.8298C32.6616 14.5873 33.6875 13.5811 34.9475 13.5811C35.2888 13.5793 35.626 13.6546 35.9342 13.8012C36.2423 13.9479 36.5134 14.1622 36.7272 14.4282C36.941 14.6941 37.0921 15.0049 37.1691 15.3374C37.2462 15.6698 37.2472 16.0154 37.1722 16.3483L50.5334 23.9389C50.9491 23.3614 51.6294 22.9851 52.4016 22.9851C53.6637 22.9851 54.6875 23.9914 54.6875 25.2339C54.6875 26.2839 53.9547 27.1676 52.9659 27.4148L52.9266 42.7711C53.935 43.0051 54.6875 43.8976 54.6875 44.963C54.6875 46.2055 53.6637 47.2117 52.4016 47.2117C52.0825 47.2125 51.7667 47.1467 51.4745 47.0186C51.1822 46.8906 50.9198 46.703 50.7041 46.468L37.0584 54.2183ZM36.4481 53.387L50.2009 45.5733C50.0704 45.1266 50.0858 44.65 50.2447 44.2126L36.9775 35.6814C36.7232 35.9503 36.4166 36.1643 36.0765 36.3103C35.7364 36.4562 35.3701 36.5311 35 36.5301C34.5875 36.5312 34.1803 36.4381 33.8092 36.2581C33.4381 36.078 33.1129 35.8157 32.8584 35.4911L19.7837 44.3001C19.9227 44.739 19.9196 45.2106 19.775 45.6476L33.4294 53.4023C33.8495 53.0345 34.3891 52.8323 34.9475 52.8336C35.5228 52.8336 36.0478 53.0414 36.4481 53.3848V53.387ZM36.7084 17.2648C36.3973 17.632 35.9788 17.8921 35.5119 18.0086L35.4769 31.2561C36.0963 31.3606 36.659 31.6803 37.0659 32.1588C37.4729 32.6374 37.698 33.2442 37.7016 33.8723C37.7016 34.2026 37.6403 34.522 37.5266 34.813L50.8047 43.353C51.1 43.0686 51.4719 42.8651 51.8875 42.7711L51.9269 27.4345C51.3617 27.3193 50.862 26.9923 50.5301 26.5205C50.1982 26.0487 50.0593 25.4679 50.1419 24.897L36.7084 17.2648ZM33.1975 17.2758L19.8516 24.8555C19.9463 25.4331 19.8132 26.025 19.4803 26.5065C19.1473 26.988 18.6405 27.3215 18.0666 27.4367V42.7602C18.5303 42.8564 18.9416 43.0883 19.2566 43.4164L32.3925 34.568C32.3 34.217 32.2801 33.8508 32.334 33.4919C32.3879 33.133 32.5144 32.7888 32.7059 32.4804C32.8973 32.1721 33.1497 31.906 33.4475 31.6985C33.7452 31.491 34.0822 31.3464 34.4378 31.2736L34.4728 18.0305C33.976 17.9267 33.5275 17.6613 33.1975 17.2758Z" fill="#00C844"/>
<defs>
<linearGradient id="paint0_linear_57_4087" x1="35" y1="0.456055" x2="35" y2="70.4561" gradientUnits="userSpaceOnUse">
<stop stop-color="#00A732"/>
<stop offset="0.5" stop-color="#181818"/>
<stop offset="1"/>
</linearGradient>
</defs>
</svg>
