<svg width="70" height="71" viewBox="0 0 70 71" fill="none" xmlns="http://www.w3.org/2000/svg">
<path d="M35 70.4561C54.33 70.4561 70 54.786 70 35.4561C70 16.1261 54.33 0.456055 35 0.456055C15.67 0.456055 0 16.1261 0 35.4561C0 54.786 15.67 70.4561 35 70.4561Z" fill="url(#paint0_linear_57_4112)"/>
<path d="M17.5 20.2289C17.5 18.9732 18.5325 17.9561 19.8056 17.9561H36.4044C46.1956 17.9561 49.6497 19.1111 52.0297 21.4582C52.7657 22.2058 53.3367 23.0993 53.706 24.0813C54.0752 25.0632 54.2345 26.1116 54.1734 27.1589C54.1734 31.2079 51.9925 33.9532 46.1081 35.1586C51.7912 36.1517 54.6766 38.4617 54.6766 43.1079C54.731 44.1916 54.5609 45.2749 54.177 46.2897C53.793 47.3046 53.2035 48.2292 52.4453 49.0054C50.1156 51.3023 46.3094 52.9561 36.0653 52.9561H19.8056C19.1986 52.9601 18.6147 52.723 18.1824 52.2969C17.7501 51.8707 17.5046 51.2903 17.5 50.6832V20.2289ZM30.1022 33.2707C30.1022 32.4329 30.7912 31.7548 31.64 31.7548H36.9841C40.0334 31.7548 42.315 31.6061 43.3716 30.5123C43.6177 30.2539 43.8075 29.9473 43.9291 29.6118C44.0507 29.2764 44.1015 28.9193 44.0781 28.5632C44.1437 27.8632 43.9075 27.1676 43.4219 26.6492C42.35 25.5948 40.0706 25.4089 36.9841 25.4089H27.0375V45.6039H36.8813C40.2325 45.6039 42.7153 45.3545 43.8747 44.1995C44.4084 43.6526 44.6841 42.9089 44.6316 42.1498C44.6797 41.3776 44.4062 40.6186 43.8747 40.0498C42.7022 38.897 40.2216 38.8095 36.8813 38.8095H31.675C31.4662 38.8157 31.2584 38.7791 31.0643 38.702C30.8701 38.6249 30.6939 38.5088 30.5462 38.3611C30.4005 38.2148 30.2858 38.0406 30.2091 37.8488C30.1324 37.6571 30.0953 37.4519 30.1 37.2454L30.1022 33.2707Z" fill="#00C844"/>
<defs>
<linearGradient id="paint0_linear_57_4112" x1="35" y1="0.456055" x2="35" y2="70.4561" gradientUnits="userSpaceOnUse">
<stop stop-color="#00A732"/>
<stop offset="0.5" stop-color="#181818"/>
<stop offset="1"/>
</linearGradient>
</defs>
</svg>
