<svg width="25" height="18" viewBox="0 0 25 18" fill="none" xmlns="http://www.w3.org/2000/svg">
<path d="M24.5388 1.38462C24.0591 0.560077 23.1764 0 22.1538 0H12.4615V1.38462H24.5388ZM0 13.8462H24.9231V15.2308H0V13.8462ZM12.4615 8.30769H24.9231V9.69231H12.4615V8.30769ZM12.4615 5.53846H24.9231V6.92308H12.4615V5.53846ZM0 11.0769H24.9231V12.4615H0V11.0769ZM2.76923 18H22.1538C23.1764 18 24.0591 17.4399 24.5388 16.6154H0.384231C0.864 17.4399 1.74669 18 2.76923 18ZM12.4615 2.76923H24.9231V4.15385H12.4615V2.76923Z" fill="#B22334"/>
<path d="M0.0470769 15.7C0.0588462 15.7644 0.072 15.8288 0.0879231 15.8918C0.105923 15.9617 0.128077 16.0289 0.151615 16.0967C0.213231 16.276 0.288 16.4491 0.382154 16.6111L0.384231 16.6146H24.5388L24.5402 16.6118C24.6337 16.4505 24.7085 16.2774 24.7701 16.0988C24.7936 16.0303 24.8165 15.9617 24.8345 15.8904C24.8504 15.8281 24.8635 15.7644 24.8753 15.7C24.9037 15.5477 24.9231 15.3913 24.9231 15.2299H0C0 15.3913 0.0193846 15.547 0.0470769 15.7ZM0 12.4607H24.9231V13.8453H0V12.4607ZM0 9.69148V11.0761H24.9231V9.69148H12.4615H0ZM12.4615 6.92225H24.9231V8.30687H12.4615V6.92225ZM12.4615 4.15302H24.9231V5.53764H12.4615V4.15302ZM0 2.7684C0 2.6071 0.0207692 2.45202 0.0470769 2.29833C0.0193846 2.45133 0 2.6071 0 2.7684ZM0.0886154 2.10656C0.105923 2.03594 0.130154 1.96879 0.152308 1.90094C0.128769 1.96879 0.106615 2.03664 0.0886154 2.10656ZM12.4615 2.7684H24.9231C24.9231 2.6071 24.9037 2.45064 24.8753 2.29764C24.8635 2.23394 24.8511 2.17025 24.8345 2.10794C24.8158 2.03663 24.7936 1.9674 24.7694 1.89887C24.7078 1.72025 24.633 1.54787 24.5395 1.38656C24.5402 1.38587 24.5395 1.38448 24.5388 1.38379H12.4615V2.7684Z" fill="#EEEEEE"/>
<path d="M12.4615 0H2.76923C1.23992 0 0 1.23992 0 2.76923V9.69231H12.4615V0Z" fill="#3C3B6E"/>
<path d="M1.38477 1.8864L1.81261 2.19725L1.64923 2.69917L2.07638 2.38902L2.50423 2.69917L2.34084 2.19725L2.76869 1.8864H2.23977L2.07638 1.38379L1.91369 1.8864H1.38477ZM2.76938 3.27102L3.19723 3.58187L3.03384 4.08379L3.461 3.77364L3.88884 4.08379L3.72546 3.58187L4.1533 3.27102H3.62438L3.461 2.7684L3.2983 3.27102H2.76938ZM5.53861 3.27102L5.96646 3.58187L5.80307 4.08379L6.23023 3.77364L6.65807 4.08379L6.49469 3.58187L6.92253 3.27102H6.39361L6.23023 2.7684L6.06753 3.27102H5.53861ZM8.30784 3.27102L8.73569 3.58187L8.5723 4.08379L8.99946 3.77364L9.4273 4.08379L9.26392 3.58187L9.69177 3.27102H9.16284L8.99946 2.7684L8.83677 3.27102H8.30784ZM2.76938 6.04025L3.19723 6.3511L3.03384 6.85302L3.461 6.54287L3.88884 6.85302L3.72546 6.3511L4.1533 6.04025H3.62438L3.461 5.53764L3.2983 6.04025H2.76938ZM5.53861 6.04025L5.96646 6.3511L5.80307 6.85302L6.23023 6.54287L6.65807 6.85302L6.49469 6.3511L6.92253 6.04025H6.39361L6.23023 5.53764L6.06753 6.04025H5.53861ZM8.30784 6.04025L8.73569 6.3511L8.5723 6.85302L8.99946 6.54287L9.4273 6.85302L9.26392 6.3511L9.69177 6.04025H9.16284L8.99946 5.53764L8.83677 6.04025H8.30784ZM4.154 1.8864L4.58184 2.19725L4.41846 2.69917L4.84561 2.38902L5.27346 2.69917L5.11007 2.19725L5.53792 1.8864H5.009L4.84561 1.38379L4.68292 1.8864H4.154ZM6.92323 1.8864L7.35107 2.19725L7.18769 2.69917L7.61484 2.38902L8.04269 2.69917L7.8793 2.19725L8.30715 1.8864H7.77823L7.61484 1.38379L7.45215 1.8864H6.92323ZM9.69246 1.8864L10.1203 2.19725L9.95692 2.69917L10.3841 2.38902L10.8119 2.69917L10.6485 2.19725L11.0764 1.8864H10.5475L10.3841 1.38379L10.2214 1.8864H9.69246ZM1.38477 4.65564L1.81261 4.96648L1.64923 5.4684L2.07638 5.15825L2.50423 5.4684L2.34084 4.96648L2.76869 4.65564H2.23977L2.07638 4.15302L1.91369 4.65564H1.38477ZM4.41846 5.4684L4.84561 5.15825L5.27346 5.4684L5.11007 4.96648L5.53792 4.65564H5.009L4.84561 4.15302L4.68292 4.65564H4.154L4.58184 4.96648L4.41846 5.4684ZM6.92323 4.65564L7.35107 4.96648L7.18769 5.4684L7.61484 5.15825L8.04269 5.4684L7.8793 4.96648L8.30715 4.65564H7.77823L7.61484 4.15302L7.45215 4.65564H6.92323ZM9.69246 4.65564L10.1203 4.96648L9.95692 5.4684L10.3841 5.15825L10.8119 5.4684L10.6485 4.96648L11.0764 4.65564H10.5475L10.3841 4.15302L10.2214 4.65564H9.69246ZM1.38477 7.42487L1.81261 7.73571L1.64923 8.23764L2.07638 7.92748L2.50423 8.23764L2.34084 7.73571L2.76869 7.42487H2.23977L2.07638 6.92225L1.91369 7.42487H1.38477ZM4.41846 8.23764L4.84561 7.92748L5.27346 8.23764L5.11007 7.73571L5.53792 7.42487H5.009L4.84561 6.92225L4.68292 7.42487H4.154L4.58184 7.73571L4.41846 8.23764ZM6.92323 7.42487L7.35107 7.73571L7.18769 8.23764L7.61484 7.92748L8.04269 8.23764L7.8793 7.73571L8.30715 7.42487H7.77823L7.61484 6.92225L7.45215 7.42487H6.92323ZM9.69246 7.42487L10.1203 7.73571L9.95692 8.23764L10.3841 7.92748L10.8119 8.23764L10.6485 7.73571L11.0764 7.42487H10.5475L10.3841 6.92225L10.2214 7.42487H9.69246Z" fill="white"/>
</svg>
