<svg width="20" height="20" viewBox="0 0 20 20" fill="none" xmlns="http://www.w3.org/2000/svg">
<path d="M17.5 9.16732C17.5 13.7923 14.3 18.1173 10 19.1673C5.7 18.1173 2.5 13.7923 2.5 9.16732V4.16732L10 0.833984L17.5 4.16732V9.16732ZM10 17.5006C13.125 16.6673 15.8333 12.9507 15.8333 9.35065V5.25065L10 2.65065L4.16667 5.25065V9.35065C4.16667 12.9507 6.875 16.6673 10 17.5006ZM12.3333 9.16732V7.91732C12.3333 6.75065 11.1667 5.83398 10 5.83398C8.83333 5.83398 7.66667 6.75065 7.66667 7.91732V9.16732C7.16667 9.16732 6.66667 9.66732 6.66667 10.1673V13.084C6.66667 13.6673 7.16667 14.1673 7.66667 14.1673H12.25C12.8333 14.1673 13.3333 13.6673 13.3333 13.1673V10.2507C13.3333 9.66732 12.8333 9.16732 12.3333 9.16732ZM11.25 9.16732H8.75V7.91732C8.75 7.25065 9.33333 6.83398 10 6.83398C10.6667 6.83398 11.25 7.25065 11.25 7.91732V9.16732Z" fill="white"/>
</svg>
