<svg width="20" height="20" viewBox="0 0 20 20" fill="none" xmlns="http://www.w3.org/2000/svg">
<path d="M17.4999 2.5H2.49992C2.05789 2.5 1.63397 2.67559 1.32141 2.98816C1.00885 3.30072 0.833252 3.72464 0.833252 4.16667V6.66667H2.49992V4.16667H17.4999V15.8333H11.6666V17.5H17.4999C17.9419 17.5 18.3659 17.3244 18.6784 17.0118C18.991 16.6993 19.1666 16.2754 19.1666 15.8333V4.16667C19.1666 3.72464 18.991 3.30072 18.6784 2.98816C18.3659 2.67559 17.9419 2.5 17.4999 2.5ZM0.833252 15V17.5H3.33325C3.33325 16.837 3.06986 16.2011 2.60102 15.7322C2.13218 15.2634 1.49629 15 0.833252 15ZM0.833252 11.6667V13.3333C1.38043 13.3333 1.92224 13.4411 2.42777 13.6505C2.93329 13.8599 3.39262 14.1668 3.77953 14.5537C4.16644 14.9406 4.47336 15.4 4.68275 15.9055C4.89214 16.411 4.99992 16.9528 4.99992 17.5H6.66658C6.66658 15.9529 6.052 14.4692 4.95804 13.3752C3.86408 12.2812 2.38035 11.6667 0.833252 11.6667ZM0.833252 8.33333V10C1.81817 10 2.79344 10.194 3.70338 10.5709C4.61332 10.9478 5.44011 11.5003 6.13655 12.1967C6.83299 12.8931 7.38544 13.7199 7.76235 14.6299C8.13926 15.5398 8.33325 16.5151 8.33325 17.5H9.99992C9.99992 12.4333 5.89158 8.33333 0.833252 8.33333ZM9.16658 9.24167V10.9083L12.0833 12.5L14.9999 10.9083V9.24167L12.0833 10.8333L9.16658 9.24167ZM12.0833 5L7.49992 7.5L12.0833 10L16.6666 7.5L12.0833 5Z" fill="white"/>
</svg>
