<svg width="20" height="10" viewBox="0 0 20 10" fill="none" xmlns="http://www.w3.org/2000/svg">
<path d="M0.0332031 0.0332031H19.9668V9.96698H0.0332031V0.0332031Z" fill="#0073CF"/>
<path d="M0.0332031 3.34424H19.9668V6.6555H0.0332031V3.34424Z" fill="white"/>
<path d="M9.47365 4.8298L9.7991 5.06543L9.67478 5.44682L10.0002 5.21112L10.3257 5.44682L10.2014 5.06543L10.5269 4.8298H10.1245L10.0002 4.44848L9.87591 4.8298H9.47365ZM12.2422 3.94675L12.5677 4.18245L12.4433 4.56377L12.7688 4.32808L13.0942 4.56377L12.9699 4.18245L13.2954 3.94675H12.8931L12.7688 3.56543L12.6445 3.94675H12.2422ZM12.2422 5.60238L12.5677 5.83808L12.4433 6.2194L12.7688 5.98371L13.0942 6.2194L12.9699 5.83808L13.2954 5.60238H12.8931L12.7688 5.22106L12.6445 5.60238H12.2422ZM6.70508 5.60238L7.03053 5.83808L6.90621 6.2194L7.23172 5.98371L7.55717 6.2194L7.43285 5.83808L7.7583 5.60238H7.35598L7.23172 5.22106L7.1074 5.60238H6.70508ZM6.70508 3.94675L7.03053 4.18245L6.90621 4.56377L7.23172 4.32808L7.55717 4.56377L7.43285 4.18245L7.7583 3.94675H7.35598L7.23172 3.56543L7.1074 3.94675H6.70508Z" fill="#0073CF"/>
</svg>
