<svg width="24" height="24" viewBox="0 0 24 24" fill="none" xmlns="http://www.w3.org/2000/svg">
<path d="M12.0006 8C13.0615 8 14.0789 8.42143 14.8291 9.17157C15.5792 9.92172 16.0006 10.9391 16.0006 12C16.0006 13.0609 15.5792 14.0783 14.8291 14.8284C14.0789 15.5786 13.0615 16 12.0006 16C10.9398 16 9.92234 15.5786 9.1722 14.8284C8.42205 14.0783 8.00063 13.0609 8.00063 12C8.00063 10.9391 8.42205 9.92172 9.1722 9.17157C9.92234 8.42143 10.9398 8 12.0006 8ZM12.0006 10C11.4702 10 10.9615 10.2107 10.5864 10.5858C10.2113 10.9609 10.0006 11.4696 10.0006 12C10.0006 12.5304 10.2113 13.0391 10.5864 13.4142C10.9615 13.7893 11.4702 14 12.0006 14C12.5311 14 13.0398 13.7893 13.4148 13.4142C13.7899 13.0391 14.0006 12.5304 14.0006 12C14.0006 11.4696 13.7899 10.9609 13.4148 10.5858C13.0398 10.2107 12.5311 10 12.0006 10ZM10.0006 22C9.75063 22 9.54063 21.82 9.50063 21.58L9.13063 18.93C8.50063 18.68 7.96063 18.34 7.44063 17.94L4.95062 18.95C4.73062 19.03 4.46063 18.95 4.34063 18.73L2.34062 15.27C2.27942 15.167 2.25784 15.0452 2.27993 14.9274C2.30202 14.8096 2.36625 14.7039 2.46063 14.63L4.57063 12.97L4.50063 12L4.57063 11L2.46063 9.37C2.36625 9.29613 2.30202 9.19042 2.27993 9.07263C2.25784 8.95484 2.27942 8.83304 2.34062 8.73L4.34063 5.27C4.46063 5.05 4.73062 4.96 4.95062 5.05L7.44063 6.05C7.96063 5.66 8.50063 5.32 9.13063 5.07L9.50063 2.42C9.54063 2.18 9.75063 2 10.0006 2H14.0006C14.2506 2 14.4606 2.18 14.5006 2.42L14.8706 5.07C15.5006 5.32 16.0406 5.66 16.5606 6.05L19.0506 5.05C19.2706 4.96 19.5406 5.05 19.6606 5.27L21.6606 8.73C21.7906 8.95 21.7306 9.22 21.5406 9.37L19.4306 11L19.5006 12L19.4306 13L21.5406 14.63C21.7306 14.78 21.7906 15.05 21.6606 15.27L19.6606 18.73C19.5406 18.95 19.2706 19.04 19.0506 18.95L16.5606 17.95C16.0406 18.34 15.5006 18.68 14.8706 18.93L14.5006 21.58C14.4606 21.82 14.2506 22 14.0006 22H10.0006ZM11.2506 4L10.8806 6.61C9.68062 6.86 8.62063 7.5 7.85063 8.39L5.44063 7.35L4.69063 8.65L6.80063 10.2C6.40063 11.3667 6.40063 12.6333 6.80063 13.8L4.68062 15.36L5.43062 16.66L7.86063 15.62C8.63063 16.5 9.68062 17.14 10.8706 17.38L11.2406 20H12.7606L13.1306 17.39C14.3206 17.14 15.3706 16.5 16.1406 15.62L18.5706 16.66L19.3206 15.36L17.2006 13.81C17.6006 12.64 17.6006 11.37 17.2006 10.2L19.3106 8.65L18.5606 7.35L16.1506 8.39C15.3648 7.48032 14.299 6.85767 13.1206 6.62L12.7506 4H11.2506Z" fill="white"/>
</svg>
