<svg width="35" height="35" viewBox="0 0 35 35" fill="none" xmlns="http://www.w3.org/2000/svg">
<circle cx="17.5" cy="17.5" r="17.5" fill="#B4B4B4"/>
<path d="M25 11H20V9H25C26.1 9 27 9.9 27 11V19.4C26.4 19.2 25.7 19 25 19V11ZM16 7H18V29H16V27H11C9.9 27 9 26.1 9 25V11C9 9.9 9.9 9 11 9H16V7ZM16 18L11 24H16V18ZM21.7 20L20 18V21.7C20.4 21 21 20.5 21.7 20ZM27.1 21.5L25 23.6L22.9 21.5L21.5 22.9L23.6 25L21.5 27.1L22.9 28.5L25 26.4L27.1 28.5L28.5 27.1L26.4 25L28.5 22.9L27.1 21.5Z" fill="#172F1F"/>
</svg>
