<svg width="50" height="50" viewBox="0 0 50 50" fill="none" xmlns="http://www.w3.org/2000/svg">
<g clip-path="url(#clip0_451_26409)">
<rect width="50" height="50" rx="25" fill="url(#paint0_linear_451_26409)"/>
<g filter="url(#filter0_d_451_26409)">
<path d="M37.5 40L30.9375 33.75L31.725 36.25H15.625C14.7962 36.25 14.0013 35.9208 13.4153 35.3347C12.8292 34.7487 12.5 33.9538 12.5 33.125V14.375C12.5 13.5462 12.8292 12.7513 13.4153 12.1653C14.0013 11.5792 14.7962 11.25 15.625 11.25H34.375C35.2038 11.25 35.9987 11.5792 36.5847 12.1653C37.1708 12.7513 37.5 13.5462 37.5 14.375V40ZM25 18.5C21.65 18.5 19.3 19.9375 19.3 19.9375C20.5875 18.7875 22.8375 18.125 22.8375 18.125L22.625 17.9125C20.5125 17.95 18.6 19.4125 18.6 19.4125C16.45 23.9 16.5875 27.775 16.5875 27.775C18.3375 30.0375 20.9375 29.875 20.9375 29.875L21.825 28.75C20.2625 28.4125 19.275 27.025 19.275 27.025C19.275 27.025 21.625 28.625 25 28.625C28.375 28.625 30.725 27.025 30.725 27.025C30.725 27.025 29.7375 28.4125 28.175 28.75L29.0625 29.875C29.0625 29.875 31.6625 30.0375 33.4125 27.775C33.4125 27.775 33.55 23.9 31.4 19.4125C31.4 19.4125 29.4875 17.95 27.375 17.9125L27.1625 18.125C27.1625 18.125 29.4125 18.7875 30.7 19.9375C30.7 19.9375 28.35 18.5 25 18.5ZM22.4125 23.2375C23.225 23.2375 23.8875 23.95 23.875 24.825C23.875 25.6875 23.225 26.4125 22.4125 26.4125C21.6125 26.4125 20.9625 25.6875 20.9625 24.825C20.9625 23.95 21.6 23.2375 22.4125 23.2375ZM27.625 23.2375C28.4375 23.2375 29.0875 23.95 29.0875 24.825C29.0875 25.6875 28.4375 26.4125 27.625 26.4125C26.825 26.4125 26.175 25.6875 26.175 24.825C26.175 23.95 26.8125 23.2375 27.625 23.2375Z" fill="#00C844"/>
</g>
</g>
<defs>
<filter id="filter0_d_451_26409" x="-3.5" y="-0.75" width="57" height="60.75" filterUnits="userSpaceOnUse" color-interpolation-filters="sRGB">
<feFlood flood-opacity="0" result="BackgroundImageFix"/>
<feColorMatrix in="SourceAlpha" type="matrix" values="0 0 0 0 0 0 0 0 0 0 0 0 0 0 0 0 0 0 127 0" result="hardAlpha"/>
<feOffset dy="4"/>
<feGaussianBlur stdDeviation="8"/>
<feComposite in2="hardAlpha" operator="out"/>
<feColorMatrix type="matrix" values="0 0 0 0 0 0 0 0 0 0 0 0 0 0 0 0 0 0 0.5 0"/>
<feBlend mode="normal" in2="BackgroundImageFix" result="effect1_dropShadow_451_26409"/>
<feBlend mode="normal" in="SourceGraphic" in2="effect1_dropShadow_451_26409" result="shape"/>
</filter>
<linearGradient id="paint0_linear_451_26409" x1="25" y1="0" x2="25" y2="50" gradientUnits="userSpaceOnUse">
<stop stop-color="#00C844"/>
<stop offset="1" stop-color="#181818"/>
<stop offset="1"/>
</linearGradient>
<clipPath id="clip0_451_26409">
<rect width="50" height="50" rx="25" fill="white"/>
</clipPath>
</defs>
</svg>
