<svg width="50" height="50" viewBox="0 0 50 50" fill="none" xmlns="http://www.w3.org/2000/svg">
<g clip-path="url(#clip0_451_26418)">
<rect width="50" height="50" rx="25" fill="url(#paint0_linear_451_26418)"/>
<g filter="url(#filter0_d_451_26418)">
<path d="M32.75 13.75C33.413 13.75 34.0489 14.0134 34.5178 14.4822C34.9866 14.9511 35.25 15.587 35.25 16.25V33.75C35.25 34.413 34.9866 35.0489 34.5178 35.5178C34.0489 35.9866 33.413 36.25 32.75 36.25H15.25C14.587 36.25 13.9511 35.9866 13.4822 35.5178C13.0134 35.0489 12.75 34.413 12.75 33.75V16.25C12.75 15.587 13.0134 14.9511 13.4822 14.4822C13.9511 14.0134 14.587 13.75 15.25 13.75H32.75ZM32.125 33.125V26.5C32.125 25.4192 31.6957 24.3828 30.9315 23.6185C30.1673 22.8543 29.1308 22.425 28.05 22.425C26.9875 22.425 25.75 23.075 25.15 24.05V22.6625H21.6625V33.125H25.15V26.9625C25.15 26 25.925 25.2125 26.8875 25.2125C27.3516 25.2125 27.7967 25.3969 28.1249 25.7251C28.4531 26.0533 28.6375 26.4984 28.6375 26.9625V33.125H32.125ZM17.6 20.7C18.157 20.7 18.6911 20.4788 19.0849 20.0849C19.4788 19.6911 19.7 19.157 19.7 18.6C19.7 17.4375 18.7625 16.4875 17.6 16.4875C17.0397 16.4875 16.5024 16.7101 16.1062 17.1062C15.7101 17.5024 15.4875 18.0397 15.4875 18.6C15.4875 19.7625 16.4375 20.7 17.6 20.7ZM19.3375 33.125V22.6625H15.875V33.125H19.3375Z" fill="#00C844"/>
</g>
</g>
<defs>
<filter id="filter0_d_451_26418" x="-3.25" y="1.75" width="54.5" height="54.5" filterUnits="userSpaceOnUse" color-interpolation-filters="sRGB">
<feFlood flood-opacity="0" result="BackgroundImageFix"/>
<feColorMatrix in="SourceAlpha" type="matrix" values="0 0 0 0 0 0 0 0 0 0 0 0 0 0 0 0 0 0 127 0" result="hardAlpha"/>
<feOffset dy="4"/>
<feGaussianBlur stdDeviation="8"/>
<feComposite in2="hardAlpha" operator="out"/>
<feColorMatrix type="matrix" values="0 0 0 0 0 0 0 0 0 0 0 0 0 0 0 0 0 0 0.5 0"/>
<feBlend mode="normal" in2="BackgroundImageFix" result="effect1_dropShadow_451_26418"/>
<feBlend mode="normal" in="SourceGraphic" in2="effect1_dropShadow_451_26418" result="shape"/>
</filter>
<linearGradient id="paint0_linear_451_26418" x1="25" y1="0" x2="25" y2="50" gradientUnits="userSpaceOnUse">
<stop stop-color="#00C844"/>
<stop offset="1" stop-color="#181818"/>
<stop offset="1"/>
</linearGradient>
<clipPath id="clip0_451_26418">
<rect width="50" height="50" rx="25" fill="white"/>
</clipPath>
</defs>
</svg>
