<svg width="50" height="50" viewBox="0 0 50 50" fill="none" xmlns="http://www.w3.org/2000/svg">
<g clip-path="url(#clip0_451_26430)">
<rect width="50" height="50" rx="25" fill="url(#paint0_linear_451_26430)"/>
<g filter="url(#filter0_d_451_26430)">
<path d="M23 28.5L29.4875 24.75L23 21V28.5ZM37.45 18.7125C37.6125 19.3 37.725 20.0875 37.8 21.0875C37.8875 22.0875 37.925 22.95 37.925 23.7L38 24.75C38 27.4875 37.8 29.5 37.45 30.7875C37.1375 31.9125 36.4125 32.6375 35.2875 32.95C34.7 33.1125 33.625 33.225 31.975 33.3C30.35 33.3875 28.8625 33.425 27.4875 33.425L25.5 33.5C20.2625 33.5 17 33.3 15.7125 32.95C14.5875 32.6375 13.8625 31.9125 13.55 30.7875C13.3875 30.2 13.275 29.4125 13.2 28.4125C13.1125 27.4125 13.075 26.55 13.075 25.8L13 24.75C13 22.0125 13.2 20 13.55 18.7125C13.8625 17.5875 14.5875 16.8625 15.7125 16.55C16.3 16.3875 17.375 16.275 19.025 16.2C20.65 16.1125 22.1375 16.075 23.5125 16.075L25.5 16C30.7375 16 34 16.2 35.2875 16.55C36.4125 16.8625 37.1375 17.5875 37.45 18.7125Z" fill="#00C844"/>
</g>
</g>
<defs>
<filter id="filter0_d_451_26430" x="-3" y="4" width="57" height="49.5" filterUnits="userSpaceOnUse" color-interpolation-filters="sRGB">
<feFlood flood-opacity="0" result="BackgroundImageFix"/>
<feColorMatrix in="SourceAlpha" type="matrix" values="0 0 0 0 0 0 0 0 0 0 0 0 0 0 0 0 0 0 127 0" result="hardAlpha"/>
<feOffset dy="4"/>
<feGaussianBlur stdDeviation="8"/>
<feComposite in2="hardAlpha" operator="out"/>
<feColorMatrix type="matrix" values="0 0 0 0 0 0 0 0 0 0 0 0 0 0 0 0 0 0 0.5 0"/>
<feBlend mode="normal" in2="BackgroundImageFix" result="effect1_dropShadow_451_26430"/>
<feBlend mode="normal" in="SourceGraphic" in2="effect1_dropShadow_451_26430" result="shape"/>
</filter>
<linearGradient id="paint0_linear_451_26430" x1="25" y1="0" x2="25" y2="50" gradientUnits="userSpaceOnUse">
<stop stop-color="#00C844"/>
<stop offset="1" stop-color="#181818"/>
<stop offset="1"/>
</linearGradient>
<clipPath id="clip0_451_26430">
<rect width="50" height="50" rx="25" fill="white"/>
</clipPath>
</defs>
</svg>
