<svg width="50" height="50" viewBox="0 0 50 50" fill="none" xmlns="http://www.w3.org/2000/svg">
<g clip-path="url(#clip0_451_26427)">
<rect width="50" height="50" rx="25" fill="url(#paint0_linear_451_26427)"/>
<g filter="url(#filter0_d_451_26427)">
<path d="M22.2251 33.3125L22.5751 28.025L32.1751 19.375C32.6001 18.9875 32.0876 18.8 31.5251 19.1375L19.6751 26.625L14.5501 25C13.4501 24.6875 13.4376 23.925 14.8001 23.375L34.7626 15.675C35.6751 15.2625 36.5501 15.9 36.2001 17.3L32.8001 33.3125C32.5626 34.45 31.8751 34.725 30.9251 34.2L25.7501 30.375L23.2626 32.7875C22.9751 33.075 22.7376 33.3125 22.2251 33.3125Z" fill="#00C844"/>
</g>
</g>
<defs>
<filter id="filter0_d_451_26427" x="-2.25049" y="3.55118" width="54.5295" height="50.905" filterUnits="userSpaceOnUse" color-interpolation-filters="sRGB">
<feFlood flood-opacity="0" result="BackgroundImageFix"/>
<feColorMatrix in="SourceAlpha" type="matrix" values="0 0 0 0 0 0 0 0 0 0 0 0 0 0 0 0 0 0 127 0" result="hardAlpha"/>
<feOffset dy="4"/>
<feGaussianBlur stdDeviation="8"/>
<feComposite in2="hardAlpha" operator="out"/>
<feColorMatrix type="matrix" values="0 0 0 0 0 0 0 0 0 0 0 0 0 0 0 0 0 0 0.5 0"/>
<feBlend mode="normal" in2="BackgroundImageFix" result="effect1_dropShadow_451_26427"/>
<feBlend mode="normal" in="SourceGraphic" in2="effect1_dropShadow_451_26427" result="shape"/>
</filter>
<linearGradient id="paint0_linear_451_26427" x1="25" y1="0" x2="25" y2="50" gradientUnits="userSpaceOnUse">
<stop stop-color="#00C844"/>
<stop offset="1" stop-color="#181818"/>
<stop offset="1"/>
</linearGradient>
<clipPath id="clip0_451_26427">
<rect width="50" height="50" rx="25" fill="white"/>
</clipPath>
</defs>
</svg>
