<svg width="35" height="35" viewBox="0 0 35 35" fill="none" xmlns="http://www.w3.org/2000/svg">
<circle cx="17.5" cy="17.5" r="17.5" fill="#B4B4B4"/>
<path d="M12.91 11.5L15.21 13.79L13.79 15.21L11.5 12.91L9.21004 15.21L7.79004 13.79L10.09 11.5L7.79004 9.21004L9.21004 7.79004L11.5 10.09L13.79 7.79004L15.21 9.21004M28.21 22.21L26.79 20.79L24.5 23.09L22.21 20.79L20.79 22.21L23.09 24.5L20.79 26.79L22.21 28.21L24.5 25.91L26.79 28.21L28.21 26.79L25.91 24.5M26.4 12.83L23.18 17L21.6 15.73L22.77 14.23C21.2777 14.5332 19.8856 15.2068 18.7218 16.1889C17.558 17.1709 16.6598 18.4299 16.11 19.85C16.9804 20.4777 17.5979 21.3957 17.851 22.4386C18.1041 23.4814 17.9762 24.5803 17.4904 25.5372C17.0046 26.494 16.1929 27.2458 15.2016 27.6568C14.2103 28.0678 13.1048 28.1111 12.0845 27.7788C11.0641 27.4465 10.1961 26.7605 9.63699 25.8446C9.07789 24.9286 8.86451 23.843 9.03534 22.7836C9.20617 21.7242 9.74996 20.7607 10.5686 20.0669C11.3873 19.3732 12.427 18.9948 13.5 19C13.762 19.0011 14.0233 19.0279 14.28 19.08C14.9729 17.3607 16.0791 15.8387 17.5007 14.6491C18.9223 13.4595 20.6155 12.6389 22.43 12.26L21 11.18L22.27 9.60004M16 23.5C16 23.0056 15.8534 22.5222 15.5787 22.1111C15.304 21.7 14.9136 21.3796 14.4567 21.1903C13.9999 21.0011 13.4973 20.9516 13.0123 21.0481C12.5274 21.1445 12.0819 21.3826 11.7323 21.7323C11.3826 22.0819 11.1445 22.5274 11.0481 23.0123C10.9516 23.4973 11.0011 23.9999 11.1903 24.4567C11.3796 24.9136 11.7 25.304 12.1111 25.5787C12.5222 25.8534 13.0056 26 13.5 26C14.1631 26 14.799 25.7366 15.2678 25.2678C15.7366 24.799 16 24.1631 16 23.5Z" fill="#172F1F"/>
</svg>
