<svg width="20" height="20" viewBox="0 0 20 20" fill="none" xmlns="http://www.w3.org/2000/svg">
<path d="M7.49935 3.33301C8.3834 3.33301 9.23125 3.6842 9.85637 4.30932C10.4815 4.93444 10.8327 5.78229 10.8327 6.66634C10.8327 7.5504 10.4815 8.39824 9.85637 9.02336C9.23125 9.64849 8.3834 9.99967 7.49935 9.99967C6.6153 9.99967 5.76745 9.64849 5.14233 9.02336C4.51721 8.39824 4.16602 7.5504 4.16602 6.66634C4.16602 5.78229 4.51721 4.93444 5.14233 4.30932C5.76745 3.6842 6.6153 3.33301 7.49935 3.33301ZM7.49935 4.91634C7.26954 4.91634 7.04197 4.96161 6.82965 5.04955C6.61733 5.1375 6.42442 5.2664 6.26191 5.4289C6.09941 5.59141 5.97051 5.78433 5.88256 5.99665C5.79461 6.20897 5.74935 6.43653 5.74935 6.66634C5.74935 6.89615 5.79461 7.12372 5.88256 7.33604C5.97051 7.54836 6.09941 7.74128 6.26191 7.90378C6.42442 8.06628 6.61733 8.19519 6.82965 8.28313C7.04197 8.37108 7.26954 8.41634 7.49935 8.41634C7.72916 8.41634 7.95673 8.37108 8.16905 8.28313C8.38137 8.19519 8.57428 8.06628 8.73679 7.90378C8.89929 7.74128 9.02819 7.54836 9.11614 7.33604C9.20409 7.12372 9.24935 6.89615 9.24935 6.66634C9.24935 6.20221 9.06498 5.75709 8.73679 5.4289C8.4086 5.10072 7.96348 4.91634 7.49935 4.91634ZM19.166 8.33301V9.99967H12.4993V8.33301H19.166ZM7.49935 10.833C9.72435 10.833 14.166 11.9413 14.166 14.1663V16.6663H0.832684V14.1663C0.832684 11.9413 5.27435 10.833 7.49935 10.833ZM7.49935 12.4163C5.02435 12.4163 2.41602 13.633 2.41602 14.1663V15.083H12.5827V14.1663C12.5827 13.633 9.99935 12.4163 7.49935 12.4163Z" fill="#1D1D1D"/>
</svg>
