<svg width="50" height="50" viewBox="0 0 50 50" fill="none" xmlns="http://www.w3.org/2000/svg">
<g clip-path="url(#clip0_451_26415)">
<rect width="50" height="50" rx="25" fill="url(#paint0_linear_451_26415)"/>
<g filter="url(#filter0_d_451_26415)">
<path d="M28.125 29.2625C28.225 29.375 28.225 29.6125 28.125 29.75C27.2125 30.625 25.5125 30.7 25 30.7C24.5125 30.7 22.8125 30.625 21.925 29.75C21.8 29.6125 21.8 29.375 21.925 29.2625C22.0625 29.1375 22.275 29.1375 22.4 29.2625C22.975 29.8375 24.1625 30 25 30C25.8625 30 27.075 29.8375 27.625 29.2625C27.7625 29.1375 27.975 29.1375 28.125 29.2625ZM23.4375 26.3C23.4375 25.5875 22.85 25 22.1375 25C21.425 25 20.8375 25.5875 20.8375 26.3C20.8375 27.0125 21.425 27.6125 22.1375 27.6C22.85 27.6 23.4375 27.0125 23.4375 26.3ZM27.8625 25C27.15 25 26.5625 25.625 26.5625 26.3125C26.5625 27 27.15 27.6125 27.8625 27.6125C28.575 27.6125 29.1625 27.0125 29.1625 26.3125C29.1625 25.625 28.575 25 27.8625 25ZM37.5 25C37.5 31.875 31.875 37.5 25 37.5C18.125 37.5 12.5 31.875 12.5 25C12.5 18.125 18.125 12.5 25 12.5C31.875 12.5 37.5 18.125 37.5 25ZM33.3375 25C33.3375 23.9875 32.5 23.175 31.525 23.175C31.025 23.175 30.575 23.375 30.25 23.6875C29 22.7875 27.2875 22.2125 25.375 22.1375L26.2125 18.225L28.925 18.8125C28.95 19.5 29.525 20.05 30.225 20.05C30.9375 20.05 31.525 19.4625 31.525 18.75C31.525 18.0375 30.9375 17.45 30.225 17.45C29.7125 17.45 29.2625 17.75 29.0625 18.1875L26.025 17.5375C25.9375 17.5 25.85 17.5375 25.7875 17.5875C25.7125 17.6375 25.675 17.7125 25.6625 17.8L24.7375 22.15C22.8 22.2125 21.05 22.7875 19.775 23.7C19.45 23.3875 19 23.2 18.5125 23.2C17.5 23.2 16.6875 24.0125 16.6875 25C16.6875 25.7625 17.1375 26.3875 17.7625 26.675C17.7375 26.875 17.725 27.025 17.725 27.225C17.725 30 20.9875 32.3125 25 32.3125C29.0375 32.3125 32.3125 30.0375 32.3125 27.225C32.3125 27.05 32.3 26.875 32.2625 26.675C32.8875 26.3875 33.3375 25.75 33.3375 25Z" fill="#00C844"/>
</g>
</g>
<defs>
<filter id="filter0_d_451_26415" x="-3.5" y="0.5" width="57" height="57" filterUnits="userSpaceOnUse" color-interpolation-filters="sRGB">
<feFlood flood-opacity="0" result="BackgroundImageFix"/>
<feColorMatrix in="SourceAlpha" type="matrix" values="0 0 0 0 0 0 0 0 0 0 0 0 0 0 0 0 0 0 127 0" result="hardAlpha"/>
<feOffset dy="4"/>
<feGaussianBlur stdDeviation="8"/>
<feComposite in2="hardAlpha" operator="out"/>
<feColorMatrix type="matrix" values="0 0 0 0 0 0 0 0 0 0 0 0 0 0 0 0 0 0 0.5 0"/>
<feBlend mode="normal" in2="BackgroundImageFix" result="effect1_dropShadow_451_26415"/>
<feBlend mode="normal" in="SourceGraphic" in2="effect1_dropShadow_451_26415" result="shape"/>
</filter>
<linearGradient id="paint0_linear_451_26415" x1="25" y1="0" x2="25" y2="50" gradientUnits="userSpaceOnUse">
<stop stop-color="#00C844"/>
<stop offset="1" stop-color="#181818"/>
<stop offset="1"/>
</linearGradient>
<clipPath id="clip0_451_26415">
<rect width="50" height="50" rx="25" fill="white"/>
</clipPath>
</defs>
</svg>
