<svg width="22" height="22" viewBox="0 0 22 22" fill="none" xmlns="http://www.w3.org/2000/svg">
<path d="M11 22C17.0751 22 22 17.0751 22 11C22 4.92487 17.0751 0 11 0C4.92487 0 0 4.92487 0 11C0 17.0751 4.92487 22 11 22Z" fill="#66F9A1"/>
<path d="M6.82308 13.5348C6.8995 13.4604 7.00176 13.4186 7.10839 13.4179H16.985C17.0248 13.4174 17.0639 13.4288 17.0972 13.4507C17.1305 13.4725 17.1565 13.5039 17.1718 13.5406C17.1871 13.5774 17.191 13.6179 17.1831 13.6569C17.1752 13.696 17.1558 13.7317 17.1273 13.7596L15.1762 15.6949C15.0999 15.7696 14.9976 15.8117 14.8909 15.8125H5.01427C4.97445 15.8128 4.93544 15.8013 4.90223 15.7793C4.86901 15.7574 4.84311 15.726 4.82782 15.6892C4.81254 15.6525 4.80858 15.612 4.81644 15.5729C4.8243 15.5339 4.84363 15.4981 4.87196 15.4701L6.82308 13.5348ZM6.82308 6.30438C6.8995 6.23 7.00176 6.18811 7.10839 6.1875H16.985C17.1645 6.1875 17.2545 6.40338 17.1273 6.52988L15.1762 8.46519C15.0998 8.53956 14.9975 8.58145 14.8909 8.58206H5.01427C4.9746 8.58226 4.93576 8.57066 4.90269 8.54874C4.86963 8.52681 4.84383 8.49555 4.82858 8.45892C4.81332 8.4223 4.8093 8.38197 4.81703 8.34305C4.82475 8.30414 4.84387 8.2684 4.87196 8.24038L6.82308 6.30438ZM15.1762 9.89656C15.0998 9.82219 14.9975 9.7803 14.8909 9.77969H5.01427C4.97445 9.77935 4.93544 9.7909 4.90223 9.81286C4.86901 9.83482 4.84311 9.86619 4.82782 9.90295C4.81254 9.93972 4.80858 9.98021 4.81644 10.0192C4.8243 10.0583 4.84363 10.0941 4.87196 10.1221L6.82308 12.0574C6.89871 12.1323 7.00183 12.1743 7.10839 12.1743H16.985C17.0248 12.1746 17.0638 12.163 17.0971 12.1411C17.1303 12.1191 17.1562 12.0878 17.1715 12.051C17.1867 12.0142 17.1907 11.9737 17.1829 11.9347C17.175 11.8957 17.1557 11.8599 17.1273 11.8319L15.1762 9.89656Z" fill="white"/>
</svg>
