<svg width="22" height="23" viewBox="0 0 22 23" fill="none" xmlns="http://www.w3.org/2000/svg">
<path d="M11 22.625C17.0751 22.625 22 17.7001 22 11.625C22 5.54987 17.0751 0.625 11 0.625C4.92487 0.625 0 5.54987 0 11.625C0 17.7001 4.92487 22.625 11 22.625Z" fill="#23292F"/>
<path d="M15.8606 6.125H17.8475L13.7122 10.2204C12.9893 10.9329 12.015 11.3324 11 11.3324C9.98498 11.3324 9.01073 10.9329 8.28781 10.2204L4.14906 6.125H6.13938L9.28125 9.23456C9.73878 9.68615 10.3558 9.93936 10.9986 9.93936C11.6415 9.93936 12.2585 9.68615 12.716 9.23456L15.8606 6.125ZM6.11531 17.5121H4.125L8.28781 13.3919C9.01073 12.6794 9.98498 12.28 11 12.28C12.015 12.28 12.9893 12.6794 13.7122 13.3919L17.875 17.5114H15.8847L12.7188 14.375C12.2612 13.9234 11.6442 13.6702 11.0014 13.6702C10.3585 13.6702 9.74153 13.9234 9.284 14.375L6.11463 17.5121H6.11531Z" fill="white"/>
</svg>
