<svg width="22" height="22" viewBox="0 0 22 22" fill="none" xmlns="http://www.w3.org/2000/svg">
<path d="M11 22C17.0751 22 22 17.0751 22 11C22 4.92487 17.0751 0 11 0C4.92487 0 0 4.92487 0 11C0 17.0751 4.92487 22 11 22Z" fill="#6F41D8"/>
<path d="M14.5008 8.72644C14.2471 8.57862 13.9178 8.57862 13.6387 8.72644L11.6594 9.86356L10.3153 10.6047L8.33598 11.7411C8.08229 11.8896 7.75298 11.8896 7.47385 11.7411L5.90085 10.8515C5.64717 10.7037 5.46979 10.4321 5.46979 10.1351V8.38062C5.46979 8.08431 5.62173 7.81275 5.90085 7.66425L7.44773 6.79938C7.7021 6.65088 8.0321 6.65088 8.31123 6.79938L9.8581 7.66425C10.1125 7.81275 10.2899 8.08431 10.2899 8.38062V9.51775L11.6339 8.75119V7.61475C11.6354 7.46715 11.5959 7.32203 11.5198 7.19555C11.4437 7.06907 11.334 6.96619 11.2029 6.89838L8.33598 5.26763C8.08229 5.11912 7.75298 5.11912 7.47385 5.26763L4.5561 6.89838C4.42499 6.96619 4.31528 7.06907 4.23917 7.19555C4.16306 7.32203 4.12355 7.46715 4.12504 7.61475V10.901C4.12504 11.198 4.27698 11.4696 4.5561 11.6181L7.47385 13.2488C7.72754 13.3966 8.05754 13.3966 8.33598 13.2488L10.3153 12.1364L11.6594 11.3706L13.6387 10.2589C13.8924 10.1104 14.2217 10.1104 14.5008 10.2589L16.0484 11.1238C16.3027 11.2716 16.4794 11.5431 16.4794 11.8401V13.5946C16.4794 13.8909 16.3282 14.1625 16.0484 14.311L14.5015 15.2006C14.2471 15.3491 13.9171 15.3491 13.6387 15.2006L12.0911 14.3357C11.8367 14.1872 11.6594 13.9157 11.6594 13.6194V12.4823L10.3153 13.2488V14.3852C10.3153 14.6816 10.4672 14.9538 10.7464 15.1016L13.6641 16.7324C13.9178 16.8809 14.2471 16.8809 14.5262 16.7324L17.444 15.1016C17.6977 14.9538 17.875 14.6822 17.875 14.3852V11.099C17.8765 10.9514 17.837 10.8063 17.7609 10.6798C17.6848 10.5533 17.5751 10.4504 17.444 10.3826L14.5015 8.72644H14.5008Z" fill="white"/>
</svg>
