<svg width="22" height="22" viewBox="0 0 22 22" fill="none" xmlns="http://www.w3.org/2000/svg">
<path d="M11 22C17.0751 22 22 17.0751 22 11C22 4.92487 17.0751 0 11 0C4.92487 0 0 4.92487 0 11C0 17.0751 4.92487 22 11 22Z" fill="#F7931A"/>
<path d="M15.9429 9.63875C16.1588 8.19775 15.0608 7.42294 13.5607 6.90594L14.0475 4.95344L12.8595 4.65781L12.3851 6.55875C12.073 6.48037 11.7526 6.4075 11.4329 6.33462L11.9107 4.42131L10.7227 4.125L10.236 6.07681C9.977 6.0186 9.724 5.95902 9.47696 5.89806L9.47834 5.89187L7.83934 5.48281L7.52309 6.75194C7.52309 6.75194 8.40515 6.95406 8.38659 6.96644C8.86784 7.08675 8.95446 7.40506 8.94002 7.65806L8.3859 9.88212C8.41936 9.88992 8.46061 9.90298 8.50965 9.92131L8.38384 9.89037L7.60696 13.0061C7.54784 13.1519 7.39865 13.3712 7.06177 13.288C7.07415 13.3052 6.19827 13.0728 6.19827 13.0728L5.6084 14.4327L7.15527 14.8184C7.44265 14.8906 7.72452 14.9662 8.00159 15.037L7.51002 17.0115L8.69734 17.3071L9.18409 15.3546C9.50813 15.4417 9.82392 15.5235 10.1315 15.6001L9.64609 17.5443L10.8341 17.8399L11.3256 15.8696C13.3524 16.2532 14.8759 16.0985 15.5173 14.2656C16.0343 12.7903 15.4919 11.9384 14.4256 11.3836C15.2025 11.2049 15.7868 10.6941 15.9429 9.63875ZM13.2273 13.4461C12.8608 14.9222 10.3755 14.124 9.56977 13.9239L10.2229 11.308C11.0286 11.5094 13.6116 11.9075 13.2273 13.4461ZM13.5951 9.61744C13.2603 10.9601 11.1923 10.2774 10.522 10.1104L11.1132 7.7385C11.7835 7.90556 13.9443 8.217 13.5951 9.61744Z" fill="white"/>
</svg>
