<svg width="22" height="22" viewBox="0 0 22 22" fill="none" xmlns="http://www.w3.org/2000/svg">
<path d="M11 22C17.0751 22 22 17.0751 22 11C22 4.92487 17.0751 0 11 0C4.92487 0 0 4.92487 0 11C0 17.0751 4.92487 22 11 22Z" fill="#1F4C9F"/>
<path fill-rule="evenodd" clip-rule="evenodd" d="M4.125 13.2344L11 4.46875L17.875 13.2344V16.1562L11 7.39062L4.125 16.1562V13.2344ZM11.3438 14.0938C10.8879 14.0938 10.4507 13.9127 10.1284 13.5903C9.80608 13.268 9.625 12.8308 9.625 12.375C9.625 11.9192 9.80608 11.482 10.1284 11.1597C10.4507 10.8373 10.8879 10.6562 11.3438 10.6562C11.7996 10.6562 12.2368 10.8373 12.5591 11.1597C12.8814 11.482 13.0625 11.9192 13.0625 12.375C13.0625 12.8308 12.8814 13.268 12.5591 13.5903C12.2368 13.9127 11.7996 14.0938 11.3438 14.0938Z" fill="white"/>
</svg>
