<svg width="22" height="22" viewBox="0 0 22 22" fill="none" xmlns="http://www.w3.org/2000/svg">
<path d="M11 22C17.0751 22 22 17.0751 22 11C22 4.92487 17.0751 0 11 0C4.92487 0 0 4.92487 0 11C0 17.0751 4.92487 22 11 22Z" fill="#0D1E30"/>
<g filter="url(#filter0_d_442_17915)">
<path d="M10.8106 4.16596C11.1399 3.99615 11.5421 4.38871 11.3675 4.71253C11.2651 4.97653 10.8794 5.04665 10.6828 4.84521C10.4744 4.65271 10.5425 4.27046 10.8106 4.16528V4.16596ZM7.26657 4.54134C7.46663 4.46021 7.72032 4.64034 7.69969 4.85553C7.72032 5.0879 7.43157 5.25978 7.22738 5.14909C6.95719 5.04596 6.98813 4.61421 7.26657 4.54134M14.5252 5.15528C14.2124 5.11815 14.1629 4.63415 14.4633 4.53653C14.6971 4.42515 14.9116 4.63484 14.9459 4.85278C14.8964 5.0384 14.7383 5.2089 14.5252 5.15528M8.07301 6.02496C8.40782 5.81665 8.88494 6.12671 8.83338 6.50965C8.81619 6.89534 8.29507 7.11946 8.00082 6.85821C7.71619 6.65334 7.75951 6.18309 8.07301 6.02496ZM13.1811 6.24634C13.3303 5.86821 13.9353 5.85584 14.1051 6.22434C14.2736 6.51103 14.0666 6.86646 13.7676 6.96409C13.3709 7.03696 12.9948 6.61484 13.1811 6.24634ZM10.3837 6.94278C10.3803 6.6169 10.6814 6.3749 10.9956 6.35221C11.2046 6.39346 11.4314 6.48078 11.5208 6.68771C11.6879 6.97371 11.5394 7.36628 11.2389 7.49759C11.1014 7.57321 10.9378 7.54503 10.7879 7.53609C10.559 7.42609 10.3658 7.20815 10.3837 6.94278ZM5.11332 7.41715C5.41926 7.23153 5.83176 7.5684 5.71557 7.89565C5.65232 8.17821 5.26594 8.29303 5.04526 8.1129C4.80944 7.94378 4.84657 7.53746 5.11401 7.41646L5.11332 7.41715ZM16.4309 7.41578C16.6901 7.21778 17.1184 7.44534 17.0868 7.76709C17.1047 8.06065 16.7341 8.28271 16.477 8.13146C16.1938 8.00565 16.1642 7.57665 16.4309 7.41646V7.41578ZM11.8659 8.00084C12.2936 7.84959 12.8023 8.0304 13.0457 8.40646C13.3674 8.86503 13.1969 9.56353 12.6971 9.82684C12.1801 10.1383 11.4246 9.87496 11.2328 9.30571C11.0162 8.79696 11.3324 8.16034 11.8653 8.00084H11.8659ZM9.35451 8.05103C9.82888 7.83103 10.4676 8.01528 10.6965 8.4924C10.966 8.95715 10.7577 9.60409 10.2758 9.84403C9.79313 10.1142 9.11182 9.90934 8.87876 9.4109C8.61682 8.92828 8.84919 8.27309 9.35451 8.05103M6.84032 8.89596C6.87676 8.59553 7.16482 8.39959 7.45563 8.37896C7.6073 8.39498 7.74904 8.46198 7.85769 8.569C7.96634 8.67603 8.03546 8.81675 8.05376 8.96815C8.03313 9.27753 7.79044 9.57865 7.45769 9.57728C7.09126 9.60821 6.77019 9.24934 6.84032 8.89596M14.2667 8.44496C14.6428 8.22978 15.1646 8.54259 15.1481 8.96746C15.1735 9.41778 14.596 9.73471 14.222 9.47071C13.8329 9.25071 13.8631 8.63196 14.2667 8.44496M8.33357 10.031C8.77219 9.91209 9.27544 10.1156 9.49063 10.513C9.72644 10.9131 9.63019 11.4686 9.26376 11.7628C8.79282 12.1932 7.92588 12.02 7.67563 11.4328C7.38757 10.8945 7.73751 10.1727 8.33288 10.0303L8.33357 10.031ZM13.0959 10.029C13.5228 9.90865 14.0247 10.0702 14.2543 10.4532C14.5582 10.8911 14.4131 11.5449 13.9614 11.8268C13.4871 12.1547 12.7542 11.9828 12.4929 11.47C12.1767 10.9399 12.495 10.1905 13.0959 10.029M5.50588 10.5281C5.88538 10.3872 6.30613 10.799 6.15213 11.1695C6.05863 11.5064 5.57532 11.6315 5.32576 11.3827C5.03357 11.1489 5.14151 10.6298 5.50588 10.5281M15.7971 11.0657C15.7899 10.9144 15.8429 10.7663 15.9443 10.6538C16.0458 10.5413 16.1876 10.4734 16.3388 10.4648C16.5987 10.5061 16.8517 10.7123 16.8311 10.9908C16.8551 11.3586 16.4048 11.6082 16.0858 11.4356C15.9366 11.3607 15.8603 11.2101 15.7971 11.0657ZM3.63932 10.711C3.86757 10.6127 4.15013 10.8072 4.09788 11.0568C4.08551 11.3393 3.66132 11.4487 3.50594 11.2122C3.36844 11.0478 3.45094 10.7955 3.63932 10.7103V10.711ZM18.0418 10.7048C18.2026 10.5927 18.4611 10.6732 18.5244 10.8581C18.6323 11.0602 18.4343 11.3366 18.2033 11.3029C17.8788 11.3318 17.7743 10.8457 18.0418 10.7048ZM9.57382 12.0612C10.1747 11.9079 10.8209 12.4008 10.8251 13.01C10.8636 13.6253 10.2269 14.1705 9.61232 14.0288C9.13657 13.9532 8.76326 13.5022 8.77907 13.0299C8.77769 12.5775 9.12419 12.1568 9.57382 12.0612M11.9539 12.0605C12.5638 11.8928 13.2293 12.3947 13.2196 13.0175C13.2519 13.6212 12.6353 14.1485 12.033 14.0282C11.4658 13.9567 11.0478 13.3441 11.2059 12.8023C11.2857 12.4421 11.5923 12.1492 11.9539 12.0598V12.0605ZM7.36419 12.4352C7.78632 12.3644 8.18232 12.8271 8.01113 13.2217C7.88601 13.6425 7.26451 13.7559 6.98951 13.4128C6.66776 13.0828 6.90838 12.4806 7.36419 12.4352M14.3451 12.4538C14.7218 12.2984 15.1838 12.6188 15.1549 13.021C15.1701 13.463 14.5994 13.7683 14.2316 13.5098C13.8143 13.2781 13.8906 12.5954 14.3451 12.4538M16.2962 14.3788C16.1491 14.1086 16.4165 13.7504 16.7224 13.8006C16.8737 13.7978 16.9803 13.9154 17.0772 14.0144C17.0971 14.1746 17.1308 14.3657 16.9954 14.4888C16.8118 14.7177 16.3959 14.6524 16.2962 14.3788M5.11194 13.8755C5.39726 13.6892 5.80769 13.9677 5.74307 14.2949C5.70869 14.5857 5.33744 14.7514 5.09338 14.5864C4.83076 14.4372 4.84038 14.0117 5.11194 13.8755M10.7446 14.4826C11.1179 14.321 11.5937 14.6407 11.5579 15.045C11.5854 15.4918 10.9976 15.8012 10.6326 15.5331C10.2269 15.3028 10.295 14.6249 10.7446 14.4826M8.13626 15.0814C8.45388 14.9171 8.88013 15.201 8.85126 15.5517C8.86088 15.839 8.57626 16.0838 8.28751 16.0412C8.04894 16.0363 7.89357 15.8253 7.81657 15.6252C7.82069 15.4073 7.91213 15.1646 8.13626 15.0821V15.0814ZM13.4204 15.0869C13.7476 14.8875 14.2124 15.1735 14.1814 15.5475C14.1897 15.9394 13.6644 16.1897 13.3599 15.9325C13.0656 15.7311 13.1014 15.2471 13.4204 15.0869ZM14.3396 17.3213C14.1938 17.1054 14.365 16.8448 14.6008 16.7953C14.7913 16.8332 14.9927 16.9741 14.9521 17.19C14.9246 17.4835 14.4888 17.5729 14.3396 17.322V17.3213ZM7.04451 17.1336C7.10226 16.9617 7.24251 16.7919 7.44807 16.8366C7.74713 16.8572 7.83582 17.3013 7.57388 17.4382C7.33876 17.5942 7.06513 17.3804 7.04451 17.1336ZM10.5645 17.3309C10.6216 17.0765 10.955 16.9535 11.175 17.0882C11.3208 17.1501 11.3634 17.3096 11.4005 17.4457C11.3809 17.5164 11.3626 17.5875 11.3455 17.6588C11.2554 17.7633 11.1393 17.8685 10.9894 17.8651C10.7109 17.8974 10.4593 17.5873 10.5638 17.3309H10.5645Z" fill="black"/>
</g>
<path d="M10.8106 4.16596C11.1399 3.99615 11.5421 4.38871 11.3675 4.71253C11.2651 4.97653 10.8794 5.04665 10.6828 4.84521C10.4744 4.65271 10.5425 4.27046 10.8106 4.16528V4.16596ZM7.26657 4.54134C7.46663 4.46021 7.72032 4.64034 7.69969 4.85553C7.72032 5.0879 7.43157 5.25978 7.22738 5.14909C6.95719 5.04596 6.98813 4.61421 7.26657 4.54134M14.5252 5.15528C14.2124 5.11815 14.1629 4.63415 14.4633 4.53653C14.6971 4.42515 14.9116 4.63484 14.9459 4.85278C14.8964 5.0384 14.7383 5.2089 14.5252 5.15528M8.07301 6.02496C8.40782 5.81665 8.88494 6.12671 8.83338 6.50965C8.81619 6.89534 8.29507 7.11946 8.00082 6.85821C7.71619 6.65334 7.75951 6.18309 8.07301 6.02496ZM13.1811 6.24634C13.3303 5.86821 13.9353 5.85584 14.1051 6.22434C14.2736 6.51103 14.0666 6.86646 13.7676 6.96409C13.3709 7.03696 12.9948 6.61484 13.1811 6.24634ZM10.3837 6.94278C10.3803 6.6169 10.6814 6.3749 10.9956 6.35221C11.2046 6.39346 11.4314 6.48078 11.5208 6.68771C11.6879 6.97371 11.5394 7.36628 11.2389 7.49759C11.1014 7.57321 10.9378 7.54503 10.7879 7.53609C10.559 7.42609 10.3658 7.20815 10.3837 6.94278ZM5.11332 7.41715C5.41926 7.23153 5.83176 7.5684 5.71557 7.89565C5.65232 8.17821 5.26594 8.29303 5.04526 8.1129C4.80944 7.94378 4.84657 7.53746 5.11401 7.41646L5.11332 7.41715ZM16.4309 7.41578C16.6901 7.21778 17.1184 7.44534 17.0868 7.76709C17.1047 8.06065 16.7341 8.28271 16.477 8.13146C16.1938 8.00565 16.1642 7.57665 16.4309 7.41646V7.41578ZM11.8659 8.00084C12.2936 7.84959 12.8023 8.0304 13.0457 8.40646C13.3674 8.86503 13.1969 9.56353 12.6971 9.82684C12.1801 10.1383 11.4246 9.87496 11.2328 9.30571C11.0162 8.79696 11.3324 8.16034 11.8653 8.00084H11.8659ZM9.35451 8.05103C9.82888 7.83103 10.4676 8.01528 10.6965 8.4924C10.966 8.95715 10.7577 9.60409 10.2758 9.84403C9.79313 10.1142 9.11182 9.90934 8.87876 9.4109C8.61682 8.92828 8.84919 8.27309 9.35451 8.05103M6.84032 8.89596C6.87676 8.59553 7.16482 8.39959 7.45563 8.37896C7.6073 8.39498 7.74904 8.46198 7.85769 8.569C7.96634 8.67603 8.03546 8.81675 8.05376 8.96815C8.03313 9.27753 7.79044 9.57865 7.45769 9.57728C7.09126 9.60821 6.77019 9.24934 6.84032 8.89596M14.2667 8.44496C14.6428 8.22978 15.1646 8.54259 15.1481 8.96746C15.1735 9.41778 14.596 9.73471 14.222 9.47071C13.8329 9.25071 13.8631 8.63196 14.2667 8.44496M8.33357 10.031C8.77219 9.91209 9.27544 10.1156 9.49063 10.513C9.72644 10.9131 9.63019 11.4686 9.26376 11.7628C8.79282 12.1932 7.92588 12.02 7.67563 11.4328C7.38757 10.8945 7.73751 10.1727 8.33288 10.0303L8.33357 10.031ZM13.0959 10.029C13.5228 9.90865 14.0247 10.0702 14.2543 10.4532C14.5582 10.8911 14.4131 11.5449 13.9614 11.8268C13.4871 12.1547 12.7542 11.9828 12.4929 11.47C12.1767 10.9399 12.495 10.1905 13.0959 10.029M5.50588 10.5281C5.88538 10.3872 6.30613 10.799 6.15213 11.1695C6.05863 11.5064 5.57532 11.6315 5.32576 11.3827C5.03357 11.1489 5.14151 10.6298 5.50588 10.5281M15.7971 11.0657C15.7899 10.9144 15.8429 10.7663 15.9443 10.6538C16.0458 10.5413 16.1876 10.4734 16.3388 10.4648C16.5987 10.5061 16.8517 10.7123 16.8311 10.9908C16.8551 11.3586 16.4048 11.6082 16.0858 11.4356C15.9366 11.3607 15.8603 11.2101 15.7971 11.0657ZM3.63932 10.711C3.86757 10.6127 4.15013 10.8072 4.09788 11.0568C4.08551 11.3393 3.66132 11.4487 3.50594 11.2122C3.36844 11.0478 3.45094 10.7955 3.63932 10.7103V10.711ZM18.0418 10.7048C18.2026 10.5927 18.4611 10.6732 18.5244 10.8581C18.6323 11.0602 18.4343 11.3366 18.2033 11.3029C17.8788 11.3318 17.7743 10.8457 18.0418 10.7048ZM9.57382 12.0612C10.1747 11.9079 10.8209 12.4008 10.8251 13.01C10.8636 13.6253 10.2269 14.1705 9.61232 14.0288C9.13657 13.9532 8.76326 13.5022 8.77907 13.0299C8.77769 12.5775 9.12419 12.1568 9.57382 12.0612M11.9539 12.0605C12.5638 11.8928 13.2293 12.3947 13.2196 13.0175C13.2519 13.6212 12.6353 14.1485 12.033 14.0282C11.4658 13.9567 11.0478 13.3441 11.2059 12.8023C11.2857 12.4421 11.5923 12.1492 11.9539 12.0598V12.0605ZM7.36419 12.4352C7.78632 12.3644 8.18232 12.8271 8.01113 13.2217C7.88601 13.6425 7.26451 13.7559 6.98951 13.4128C6.66776 13.0828 6.90838 12.4806 7.36419 12.4352M14.3451 12.4538C14.7218 12.2984 15.1838 12.6188 15.1549 13.021C15.1701 13.463 14.5994 13.7683 14.2316 13.5098C13.8143 13.2781 13.8906 12.5954 14.3451 12.4538M16.2962 14.3788C16.1491 14.1086 16.4165 13.7504 16.7224 13.8006C16.8737 13.7978 16.9803 13.9154 17.0772 14.0144C17.0971 14.1746 17.1308 14.3657 16.9954 14.4888C16.8118 14.7177 16.3959 14.6524 16.2962 14.3788M5.11194 13.8755C5.39726 13.6892 5.80769 13.9677 5.74307 14.2949C5.70869 14.5857 5.33744 14.7514 5.09338 14.5864C4.83076 14.4372 4.84038 14.0117 5.11194 13.8755M10.7446 14.4826C11.1179 14.321 11.5937 14.6407 11.5579 15.045C11.5854 15.4918 10.9976 15.8012 10.6326 15.5331C10.2269 15.3028 10.295 14.6249 10.7446 14.4826M8.13626 15.0814C8.45388 14.9171 8.88013 15.201 8.85126 15.5517C8.86088 15.839 8.57626 16.0838 8.28751 16.0412C8.04894 16.0363 7.89357 15.8253 7.81657 15.6252C7.82069 15.4073 7.91213 15.1646 8.13626 15.0821V15.0814ZM13.4204 15.0869C13.7476 14.8875 14.2124 15.1735 14.1814 15.5475C14.1897 15.9394 13.6644 16.1897 13.3599 15.9325C13.0656 15.7311 13.1014 15.2471 13.4204 15.0869ZM14.3396 17.3213C14.1938 17.1054 14.365 16.8448 14.6008 16.7953C14.7913 16.8332 14.9927 16.9741 14.9521 17.19C14.9246 17.4835 14.4888 17.5729 14.3396 17.322V17.3213ZM7.04451 17.1336C7.10226 16.9617 7.24251 16.7919 7.44807 16.8366C7.74713 16.8572 7.83582 17.3013 7.57388 17.4382C7.33876 17.5942 7.06513 17.3804 7.04451 17.1336ZM10.5645 17.3309C10.6216 17.0765 10.955 16.9535 11.175 17.0882C11.3208 17.1501 11.3634 17.3096 11.4005 17.4457C11.3809 17.5164 11.3626 17.5875 11.3455 17.6588C11.2554 17.7633 11.1393 17.8685 10.9894 17.8651C10.7109 17.8974 10.4593 17.5873 10.5638 17.3309H10.5645Z" fill="white"/>
<defs>
<filter id="filter0_d_442_17915" x="2.9375" y="3.875" width="16.1172" height="14.7422" filterUnits="userSpaceOnUse" color-interpolation-filters="sRGB">
<feFlood flood-opacity="0" result="BackgroundImageFix"/>
<feColorMatrix in="SourceAlpha" type="matrix" values="0 0 0 0 0 0 0 0 0 0 0 0 0 0 0 0 0 0 127 0" result="hardAlpha"/>
<feOffset dy="0.25"/>
<feGaussianBlur stdDeviation="0.25"/>
<feColorMatrix type="matrix" values="0 0 0 0 0 0 0 0 0 0 0 0 0 0 0 0 0 0 0.204257 0"/>
<feBlend mode="normal" in2="BackgroundImageFix" result="effect1_dropShadow_442_17915"/>
<feBlend mode="normal" in="SourceGraphic" in2="effect1_dropShadow_442_17915" result="shape"/>
</filter>
</defs>
</svg>
