<svg width="22" height="23" viewBox="0 0 22 23" fill="none" xmlns="http://www.w3.org/2000/svg">
<path d="M11 22.625C17.0751 22.625 22 17.7001 22 11.625C22 5.54987 17.0751 0.625 11 0.625C4.92487 0.625 0 5.54987 0 11.625C0 17.7001 4.92487 22.625 11 22.625Z" fill="#0FACF3"/>
<path d="M6.51111 6.8233H10.2456C11.7265 6.8233 12.4621 6.77655 13.5662 6.87761C14.671 6.99448 15.7759 7.44548 16.4909 8.30967C17.333 9.31342 17.5792 10.6678 17.5235 11.928C17.4685 13.1813 17.0388 14.4958 16.0536 15.3517C15.1798 16.1382 13.9567 16.4263 12.7962 16.4339C10.5399 16.4414 8.29105 16.4339 6.03467 16.4339C5.78855 16.418 5.51011 16.4414 5.31967 16.2702C4.98623 15.9361 5.18492 15.2197 5.71705 15.2507C6.97242 15.2122 8.23536 15.2507 9.49142 15.2273C9.46736 14.1692 9.48317 13.1112 9.48317 12.0607C8.5138 12.0524 7.55198 12.0607 6.5833 12.0607C6.36811 12.0524 6.12955 12.0524 5.96317 11.9122C5.76448 11.7334 5.76448 11.4302 5.8518 11.1972C5.96317 10.94 6.26498 10.8933 6.51936 10.8933C7.50455 10.885 8.49799 10.8933 9.48249 10.8933C9.49899 9.92805 9.46736 8.9628 9.49899 8.0058C8.39417 7.99823 7.29005 8.0058 6.18523 8.0058C5.93911 7.99823 5.66136 7.99823 5.47023 7.82705C5.27223 7.56992 5.31211 7.20417 5.47848 6.94705C5.79611 6.79167 6.16186 6.8233 6.51111 6.8233ZM10.8657 10.8933C11.3181 10.9009 11.7712 10.8617 12.2242 10.9242C12.7646 11.0019 12.7646 11.9514 12.216 12.029C11.7712 12.0992 11.3105 12.0524 10.8575 12.0607C10.8657 12.9785 10.8575 13.8894 10.8575 14.8072C10.8657 14.9633 10.8733 15.1964 11.072 15.2122C11.6124 15.2589 12.0826 15.2431 12.6931 15.2431C13.5985 15.2823 14.5521 15.0025 15.1874 14.3404C15.8391 13.6481 16.0777 12.6835 16.0935 11.7644C16.1175 10.7455 15.9264 9.62486 15.1791 8.86173C14.5047 8.17698 13.4879 7.94392 12.5419 7.99823C12.0029 7.99823 11.5409 7.98242 11.0404 8.02917C10.8815 8.07592 10.8733 8.27048 10.8657 8.41073V10.8933Z" fill="white"/>
</svg>
