<svg width="70" height="24" viewBox="0 0 70 24" fill="none" xmlns="http://www.w3.org/2000/svg">
<path d="M19.384 24V21.6L23.768 19.68V20.544H26.648V24H19.384ZM4.888 24C4.12 24 3.416 23.8187 2.776 23.456C2.15733 23.072 1.656 22.5707 1.272 21.952C0.909333 21.312 0.728 20.608 0.728 19.84V5.12C0.728 4.352 0.909333 3.65867 1.272 3.04C1.656 2.4 2.15733 1.89867 2.776 1.536C3.416 1.152 4.12 0.959999 4.888 0.959999H19.608C20.3547 0.959999 21.048 1.152 21.688 1.536C22.328 1.89867 22.8293 2.4 23.192 3.04C23.576 3.65867 23.768 4.352 23.768 5.12V19.84C23.768 20.608 23.576 21.312 23.192 21.952C22.8293 22.5707 22.328 23.072 21.688 23.456C21.048 23.8187 20.3547 24 19.608 24H4.888ZM4.984 20.544H19.512C19.7253 20.544 19.9067 20.4693 20.056 20.32C20.2053 20.1493 20.28 19.9573 20.28 19.744V5.216C20.28 5.00267 20.2053 4.82133 20.056 4.672C19.9067 4.50133 19.7253 4.416 19.512 4.416H4.984C4.77067 4.416 4.57867 4.50133 4.408 4.672C4.25867 4.82133 4.184 5.00267 4.184 5.216V19.744C4.184 19.9573 4.25867 20.1493 4.408 20.32C4.57867 20.4693 4.77067 20.544 4.984 20.544ZM33.1373 24C32.3693 24 31.6653 23.808 31.0253 23.424C30.4066 23.04 29.9053 22.5387 29.5213 21.92C29.1586 21.3013 28.9773 20.608 28.9773 19.84V5.44H32.4333V19.744C32.4333 19.9573 32.5079 20.1493 32.6573 20.32C32.8279 20.4693 33.0199 20.544 33.2333 20.544H43.6013C43.8146 20.544 43.9959 20.4693 44.1453 20.32C44.3159 20.1493 44.4013 19.9573 44.4013 19.744V5.44H47.8573V19.84C47.8573 20.608 47.6653 21.3013 47.2812 21.92C46.9186 22.5387 46.4173 23.04 45.7773 23.424C45.1586 23.808 44.4653 24 43.6973 24H33.1373ZM55.1983 24C54.4303 24 53.7369 23.808 53.1183 23.424C52.4996 23.04 51.9983 22.5387 51.6143 21.92C51.2303 21.3013 51.0383 20.608 51.0383 19.84V9.6C51.0383 8.832 51.2303 8.13867 51.6143 7.52C51.9983 6.90133 52.4996 6.4 53.1183 6.016C53.7369 5.632 54.4303 5.44 55.1983 5.44H65.7583C66.5263 5.44 67.2196 5.632 67.8383 6.016C68.4783 6.37867 68.9796 6.88 69.3423 7.52C69.7263 8.16 69.9183 8.85333 69.9183 9.6V19.84C69.9183 20.608 69.7263 21.3013 69.3423 21.92C68.9796 22.5387 68.4783 23.04 67.8383 23.424C67.2196 23.808 66.5263 24 65.7583 24H55.1983ZM55.2943 20.544H65.6623C65.8756 20.544 66.0569 20.4693 66.2063 20.32C66.3556 20.1493 66.4303 19.9573 66.4303 19.744V9.696C66.4303 9.48267 66.3556 9.30133 66.2063 9.152C66.0569 8.98133 65.8756 8.896 65.6623 8.896H55.2943C55.0809 8.896 54.8889 8.98133 54.7183 9.152C54.5689 9.30133 54.4943 9.48267 54.4943 9.696V19.744C54.4943 19.9573 54.5689 20.1493 54.7183 20.32C54.8889 20.4693 55.0809 20.544 55.2943 20.544Z" fill="#00FF66"/>
</svg>
