<svg width="50" height="50" viewBox="0 0 50 50" fill="none" xmlns="http://www.w3.org/2000/svg">
<g clip-path="url(#clip0_1126_7506)">
<path d="M0 0H50V50H0V0Z" fill="#CE1126"/>
<path d="M0 0H33.3333V50H0V0Z" fill="white"/>
<path d="M0 0H16.6667V50H0V0Z" fill="#006847"/>
<path d="M24.5644 34.6986C24.5644 34.6986 24.5148 34.6053 24.4488 34.5444C24.3828 34.4835 24.3606 34.5017 24.3606 34.5017L24.3301 34.4827L24.3879 34.2189L24.8227 33.4919L24.89 32.7615L24.906 32.7606L25.1579 32.7561L25.1553 33.7532L25.2352 33.8165L25.7205 34.3258L25.719 34.5475L25.648 34.5949C25.601 34.6276 25.5897 34.6517 25.5897 34.6517L25.4066 34.6818L25.0867 34.2759L24.9546 34.0329L24.7135 34.5735L24.5643 34.6985L24.5644 34.6986Z" fill="white"/>
<path d="M24.9069 32.7603C24.9069 32.7603 24.8997 32.7988 24.8967 32.9112L24.8844 33.6931C24.8681 33.7735 24.634 33.9426 24.5002 34.1466C24.3665 34.3513 24.3615 34.5013 24.3615 34.5013C24.3615 34.5013 24.3174 34.5073 24.2344 34.5613C24.1515 34.6154 24.1143 34.6965 24.1143 34.6965C24.1143 34.6965 24.1634 34.3331 24.38 33.9967C24.5968 33.6596 24.7016 33.6313 24.7257 33.5747C24.7498 33.5182 24.7257 32.8738 24.7309 32.8219C24.7358 32.7701 24.7619 32.7655 24.7798 32.761C24.7977 32.7564 24.9069 32.7604 24.9069 32.7604V32.7603ZM25.4594 34.9133C25.4594 34.9133 25.4936 34.7963 25.5155 34.7571C25.5375 34.7178 25.5901 34.6519 25.5901 34.6519C25.5901 34.6519 25.5983 34.6371 25.4799 34.5467C25.3615 34.4563 25.3004 34.4866 25.2158 34.3817C25.1313 34.2768 25.0465 34.0961 25.0465 34.0961L24.9331 34.2733C24.9331 34.2733 25.0009 34.4416 25.0652 34.5498C25.1295 34.658 25.2749 34.694 25.3393 34.7571C25.4037 34.8203 25.4595 34.9133 25.4595 34.9133H25.4594Z" fill="#016848"/>
<path d="M25.1192 32.7562C25.1192 32.7562 25.2474 32.7428 25.2653 32.7776C25.2832 32.8124 25.2804 32.8508 25.2811 32.8623C25.2816 32.8732 25.2878 33.4068 25.2653 33.5824C25.2414 33.7657 25.1873 33.9487 25.1567 34.0029L24.8419 34.5078C24.7505 34.664 24.6575 34.8867 24.6575 34.8867L24.5948 34.7572C24.5662 34.6941 24.5371 34.6731 24.544 34.6311C24.5508 34.5891 24.6473 34.3365 24.8014 34.1592C24.9554 33.982 25.0841 33.7807 25.1128 33.4923C25.1418 33.2036 25.1192 32.7562 25.1192 32.7562Z" fill="#CD202A"/>
<path d="M25.9765 34.5797C25.9765 34.5797 25.9457 34.5252 25.8372 34.5222C25.7283 34.5189 25.7194 34.5476 25.7194 34.5476C25.7194 34.5476 25.6597 34.4157 25.5637 34.3065C25.4678 34.1973 25.3953 34.2132 25.2922 34.0944C25.189 33.9756 25.1348 33.8017 25.1348 33.8017L25.2143 33.519C25.2143 33.519 25.3032 33.7378 25.3953 33.8565C25.4875 33.9753 25.6923 34.091 25.7576 34.1912C25.8227 34.2908 25.9766 34.5796 25.9766 34.5796L25.9765 34.5797Z" fill="#CD202A"/>
<path d="M23.2536 31.6079C23.2874 31.7983 23.2029 31.8914 23.0936 31.9774C22.9843 32.0634 22.761 32.0131 22.7103 31.8602C22.6596 31.7074 22.7915 31.459 22.9261 31.4002C23.0608 31.3415 23.2231 31.4364 23.2536 31.6079H23.2536Z" fill="#F8C83C"/>
<path d="M23.0282 31.7206C23.0709 31.7077 23.0714 31.8336 23.1095 31.8241C23.1475 31.8154 23.1805 31.7072 23.1704 31.6348C23.1602 31.5624 23.089 31.4636 23.0282 31.4728C22.9673 31.482 22.787 31.7475 22.8072 31.8197C22.8275 31.892 22.8682 31.8829 22.9013 31.8559C22.9344 31.8288 22.9825 31.7342 23.0282 31.7206Z" fill="white"/>
<path d="M27.2858 30.6211C27.3848 30.8517 27.5633 30.6392 27.6106 30.5494C27.6579 30.4595 27.8036 30.3119 27.7444 30.1615C27.6852 30.0111 27.5837 30.0234 27.5158 30.029C27.448 30.0346 27.3094 30.2097 27.2858 30.2906C27.262 30.372 27.2416 30.5193 27.2858 30.6211Z" fill="#F8C83C"/>
<path d="M27.3184 30.4687C27.3184 30.4687 27.327 30.2176 27.4608 30.2071C27.5369 30.2012 27.5402 30.2433 27.5979 30.3007C27.6552 30.3574 27.6773 30.2255 27.6773 30.2255C27.6773 30.2255 27.6808 30.4029 27.5879 30.4085C27.4946 30.4144 27.5283 30.3366 27.437 30.3125C27.3566 30.2911 27.3184 30.4687 27.3184 30.4687Z" fill="white"/>
</g>
<defs>
<clipPath id="clip0_1126_7506">
<rect width="50" height="50" rx="25" fill="white"/>
</clipPath>
</defs>
</svg>
