<svg width="20" height="12" viewBox="0 0 20 12" fill="none" xmlns="http://www.w3.org/2000/svg">
<path d="M0 0H20V11.9999H0V0Z" fill="#003976"/>
<path d="M0 4H20V7.99993H0V4Z" fill="white"/>
<path d="M11.2502 6.70429L10.0001 4.57275L8.75 6.70429H11.2502Z" fill="#003976"/>
<path d="M8.79004 6.67874L9.99991 4.62354L11.2098 6.67874H8.79004Z" fill="#FFCF46"/>
<path d="M8.83008 6.65332L9.99968 4.67432L11.1693 6.65332H8.83008Z" fill="#003976"/>
<path d="M11.1289 6.6279L9.99952 4.7251L8.87012 6.6279H11.1289Z" fill="white"/>
<path d="M9.92963 5.77272C9.92449 5.77272 9.92009 5.77199 9.91423 5.77199C9.90836 5.77199 9.91056 5.76979 9.91056 5.75806C9.91056 5.71332 9.91276 5.67446 9.92889 5.65906C9.94503 5.64366 9.96476 5.64146 9.97876 5.64146C9.99276 5.64146 9.99856 5.62752 9.98169 5.62239C9.96483 5.61726 9.95456 5.61432 9.93403 5.61652C9.93329 5.58939 9.94283 5.56152 9.97503 5.56152C9.99189 5.56152 10.0022 5.56299 10.0286 5.56299C10.055 5.56299 10.0858 5.60179 10.0858 5.64359C10.0858 5.69492 10.0843 5.74432 10.0843 5.76012C10.0843 5.77586 10.0755 5.77992 10.0612 5.77992C10.0469 5.77992 10.0352 5.77952 10.0264 5.77952C10.0176 5.77952 10.0117 5.77846 10.0117 5.79452C10.0117 5.81066 10.0095 5.82679 10.0095 5.84219C10.0095 5.85759 9.99703 5.86639 9.97576 5.85539C9.95456 5.84452 9.94429 5.82766 9.92963 5.77272Z" fill="#EF3E42"/>
<path d="M8.29658 5.68152L8.27945 5.79605L8.33105 5.80379L8.34652 5.70072L8.38912 5.70712L8.37365 5.81012L8.43485 5.81932L8.45205 5.70485L8.48965 5.71052L8.46552 5.87185L8.23358 5.83712L8.25778 5.67572L8.29658 5.68152ZM8.36118 5.54752L8.40132 5.56019L8.41465 5.51739C8.42112 5.49672 8.40865 5.47765 8.38705 5.47092C8.36545 5.46419 8.34978 5.47719 8.34412 5.49539L8.33078 5.53819C8.33072 5.53799 8.34525 5.54259 8.36118 5.54752L8.35045 5.58925L8.28018 5.56732L8.30938 5.47372C8.32112 5.43619 8.35938 5.41872 8.39945 5.43119C8.43525 5.44232 8.46498 5.47899 8.45272 5.51845L8.43625 5.57105L8.51685 5.59625L8.50405 5.63719L8.35045 5.58925L8.36118 5.54752ZM8.57965 5.32152C8.59392 5.29259 8.57872 5.27572 8.56085 5.26692L8.42205 5.19832L8.44205 5.15785L8.58032 5.22619C8.61418 5.24292 8.64365 5.27945 8.61438 5.33865C8.58525 5.39765 8.53825 5.39679 8.50432 5.37999L8.36605 5.31165L8.38605 5.27119L8.52485 5.33979C8.54278 5.34859 8.56552 5.35012 8.57965 5.32152ZM8.65492 5.11432L8.68158 5.13352L8.71752 5.08345C8.72638 5.07119 8.72258 5.05579 8.70692 5.04445C8.69145 5.03332 8.67632 5.03479 8.66725 5.04739L8.63138 5.09745L8.65492 5.11432ZM8.62758 5.15185L8.54992 5.09612L8.57725 5.05859L8.59905 5.07419L8.63252 5.02759C8.64492 5.01032 8.63252 4.99539 8.62725 4.99165C8.61865 4.98552 8.60058 4.98359 8.59058 4.99752L8.55712 5.04412L8.57725 5.05859L8.54992 5.09612L8.49758 5.05859L8.55012 4.98552C8.57585 4.94965 8.61492 4.92885 8.64732 4.95212C8.66185 4.96252 8.67205 4.98059 8.67425 5.00005C8.69385 4.99539 8.71172 4.99512 8.73505 5.01192C8.75838 5.02865 8.78218 5.06439 8.74812 5.11179L8.68812 5.19539L8.62758 5.15185ZM8.70772 4.79085L8.84465 4.92505L8.91752 4.85065L8.94812 4.88065L8.84252 4.98845L8.67498 4.82419L8.70772 4.79085ZM8.88685 4.62379L9.03485 4.80579L8.98312 4.84779L8.83512 4.66585L8.88685 4.62379ZM9.13912 4.54619C9.13152 4.53399 9.10838 4.51832 9.07752 4.53765C9.04665 4.55699 9.04845 4.59152 9.07305 4.63079C9.09732 4.66952 9.13265 4.68479 9.15918 4.66812C9.18565 4.65159 9.18652 4.62192 9.17705 4.60679L9.21145 4.58525C9.23732 4.62652 9.22318 4.67512 9.17752 4.70365C9.13158 4.73239 9.07505 4.71245 9.03772 4.65279C9.00005 4.59265 9.00718 4.53352 9.05585 4.50305C9.10472 4.47245 9.15398 4.49352 9.17345 4.52452L9.13912 4.54619ZM9.74498 4.36005L9.75412 4.43979L9.79098 4.43559C9.80538 4.43392 9.84565 4.42279 9.83725 4.34912C9.82952 4.28152 9.78945 4.28052 9.77505 4.28219L9.73658 4.28659L9.74498 4.36005ZM9.74498 4.36005L9.70192 4.36592C9.69538 4.30879 9.68912 4.25279 9.68925 4.25279L9.77612 4.24279C9.80465 4.23952 9.86905 4.24045 9.88065 4.34179C9.88778 4.40472 9.86432 4.46879 9.81078 4.47492L9.71558 4.48579C9.71558 4.48579 9.70865 4.42525 9.70198 4.36585L9.74498 4.36005ZM10.1548 4.27259L10.0392 4.26705L10.0367 4.31919L10.1407 4.32419L10.1386 4.36725L10.0346 4.36225L10.0317 4.42412L10.1473 4.42965L10.1455 4.46772L9.98258 4.45992L9.99372 4.22559L10.1567 4.23332L10.1548 4.27259ZM10.4948 4.29539L10.531 4.45552L10.5743 4.32099L10.6185 4.33519L10.5468 4.55845L10.5044 4.54485L10.4638 4.37512L10.4181 4.51719L10.3736 4.50285L10.4453 4.27952L10.4948 4.29539ZM10.7624 4.39679L10.663 4.60899L10.6026 4.58072L10.7021 4.36845L10.7624 4.39679ZM10.9424 4.58999C10.95 4.57779 10.9541 4.55025 10.9233 4.53079C10.8925 4.51132 10.8622 4.52792 10.8375 4.56712C10.8131 4.60579 10.8148 4.64425 10.8412 4.66099C10.8677 4.67772 10.8947 4.66559 10.9043 4.65052L10.9386 4.67219C10.9127 4.71339 10.8628 4.72179 10.8172 4.69305C10.7714 4.66419 10.7648 4.60452 10.8024 4.54499C10.8402 4.48499 10.8966 4.46572 10.9451 4.49632C10.9939 4.52712 10.9964 4.58065 10.9768 4.61165L10.9424 4.58999ZM11.6279 5.48619C11.6468 5.46985 11.6544 5.44872 11.6468 5.42645C11.6354 5.39319 11.5984 5.38205 11.554 5.39725C11.5099 5.41239 11.4864 5.44499 11.4984 5.47839C11.5084 5.50639 11.5322 5.51899 11.5618 5.51125L11.547 5.46792L11.5816 5.45605L11.609 5.53599L11.4961 5.57472L11.4873 5.54912C11.4948 5.54652 11.5049 5.54172 11.511 5.53685C11.4879 5.53112 11.4705 5.51459 11.4606 5.49039C11.4402 5.44005 11.4748 5.37979 11.5405 5.35725C11.6063 5.33472 11.6624 5.35632 11.6822 5.41432C11.698 5.46005 11.6808 5.50785 11.6401 5.52192L11.6279 5.48619ZM11.5636 5.73159C11.5688 5.76339 11.591 5.76825 11.6107 5.76505L11.7635 5.74005L11.7708 5.78459L11.6186 5.80952C11.5812 5.81565 11.5361 5.80312 11.5254 5.73779C11.5148 5.67285 11.5535 5.64625 11.5908 5.64012L11.743 5.61519L11.7503 5.65979L11.5975 5.68479C11.5779 5.68799 11.5585 5.70005 11.5636 5.73159ZM8.55192 6.88032L8.56858 6.90745L8.63412 6.83232L8.53745 6.85725C8.53758 6.85719 8.54458 6.86845 8.55192 6.88032L8.51758 6.89925L8.49785 6.86739L8.44938 6.87992L8.42625 6.84265L8.66492 6.78252L8.69225 6.82665L8.53205 7.01345L8.50892 6.97612L8.54192 6.93865L8.51758 6.89925L8.55192 6.88032ZM8.64852 7.16245L8.75285 7.01125L8.62032 7.13139L8.59105 7.09912L8.76485 6.94159L8.81038 6.99179L8.70405 7.14212L8.86425 7.05132L8.90978 7.10145L8.73598 7.25899L8.70678 7.22672L8.83932 7.10665L8.67858 7.19565L8.64852 7.16245ZM9.07825 7.29452L8.98705 7.22325L8.95492 7.26439L9.03698 7.32852L9.01045 7.36245L8.92838 7.29832L8.89032 7.34705L8.98152 7.41839L8.95805 7.44839L8.82945 7.34792L8.97385 7.16312L9.10245 7.26359L9.07825 7.29452ZM9.16432 7.42405L9.20438 7.44652C9.21705 7.45359 9.23392 7.44859 9.24338 7.43172C9.25265 7.41505 9.24645 7.39845 9.23152 7.39012L9.17972 7.36112L9.14925 7.41559L9.16432 7.42405ZM9.14752 7.46279L9.12878 7.45225L9.08438 7.53159L9.04358 7.50872L9.15812 7.30399L9.26985 7.36652C9.29798 7.38225 9.29858 7.42092 9.28225 7.45005C9.26578 7.47945 9.23252 7.48605 9.22152 7.47999C9.23558 7.48785 9.24205 7.51125 9.22792 7.53665L9.19585 7.59399L9.15645 7.57192L9.18338 7.52379C9.19725 7.49899 9.18932 7.48612 9.16905 7.47479L9.14752 7.46279ZM9.41838 7.43712L9.32932 7.65405L9.26765 7.62872L9.35672 7.41179L9.41838 7.43712ZM9.60805 7.58352C9.61185 7.56965 9.60765 7.54212 9.57258 7.53245C9.53745 7.52279 9.51332 7.54752 9.50105 7.59219C9.48892 7.63632 9.50172 7.67265 9.53185 7.68092C9.56198 7.68925 9.58438 7.66979 9.58918 7.65259L9.62838 7.66332C9.61552 7.71025 9.57018 7.73279 9.51825 7.71852C9.46598 7.70419 9.44232 7.64905 9.46092 7.58119C9.47965 7.51279 9.52805 7.47799 9.58338 7.49319C9.63905 7.50845 9.65698 7.55899 9.64725 7.59432L9.60805 7.58352ZM10.2959 7.60545C10.2937 7.59125 10.2786 7.56779 10.2426 7.57345C10.2066 7.57912 10.1946 7.61152 10.2019 7.65732C10.209 7.70252 10.2356 7.73039 10.2664 7.72552C10.2974 7.72065 10.3098 7.69379 10.307 7.67612L10.3472 7.66979C10.3548 7.71785 10.3226 7.75699 10.2695 7.76539C10.216 7.77379 10.1718 7.73325 10.1608 7.66372C10.1498 7.59365 10.1796 7.54205 10.2363 7.53319C10.2933 7.52425 10.3304 7.56292 10.3361 7.59912L10.2959 7.60545ZM10.55 7.49459L10.4398 7.52985L10.4558 7.57959L10.555 7.54779L10.5681 7.58885L10.4689 7.62065L10.4878 7.67952L10.598 7.64419L10.6097 7.68045L10.4544 7.73032L10.3827 7.50699L10.538 7.45712L10.55 7.49459ZM10.649 7.41099L10.7873 7.49939L10.7235 7.37325L10.765 7.35232L10.8708 7.56165L10.8311 7.58172L10.6828 7.48945L10.7502 7.62265L10.7085 7.64372L10.6026 7.43445L10.649 7.41099ZM11.0208 7.46652L10.906 7.30865L10.851 7.34865L10.8278 7.31685L10.9726 7.21159L10.9958 7.24332L10.9404 7.28352L11.0553 7.44152L11.0208 7.46652ZM11.365 6.73979L11.536 6.82665L11.5832 6.73379L11.6213 6.75319L11.5529 6.88772L11.3438 6.78145L11.365 6.73979ZM9.80885 7.68759L9.84052 7.69092L9.82092 7.59319L9.78178 7.68499C9.78178 7.68485 9.79498 7.68619 9.80885 7.68759L9.80292 7.72632L9.76558 7.72252L9.74598 7.76859L9.70238 7.76412L9.80032 7.53832L9.85198 7.54359L9.90232 7.78445L9.85865 7.77999L9.84912 7.73099L9.80298 7.72625L9.80885 7.68759ZM11.3705 7.00519L11.3892 6.97945L11.2947 6.94765L11.3547 7.02739C11.3546 7.02725 11.3624 7.01652 11.3705 7.00519L11.4012 7.02959L11.3793 7.06005L11.4094 7.09999L11.3838 7.13559L11.2369 6.93812L11.2672 6.89599L11.5011 6.97252L11.4755 7.00812L11.4282 6.99199L11.4012 7.02965L11.3705 7.00519ZM11.141 7.19812L11.1735 7.16559C11.1838 7.15532 11.1835 7.13779 11.1698 7.12405C11.1562 7.11059 11.1386 7.11205 11.1266 7.12419L11.0846 7.16619L11.1288 7.21032L11.141 7.19812ZM11.1737 7.22472L11.1585 7.23992L11.2228 7.30419L11.1898 7.33725L11.0238 7.17152L11.1142 7.08092C11.137 7.05812 11.1744 7.06799 11.198 7.09165C11.2219 7.11545 11.2192 7.14925 11.2103 7.15819C11.2217 7.14672 11.246 7.14685 11.2666 7.16739L11.313 7.21385L11.2811 7.24579L11.2421 7.20685C11.222 7.18672 11.2074 7.19092 11.191 7.20732L11.1737 7.22472ZM11.6358 5.99599L11.6356 6.02779L11.731 5.99879L11.6358 5.96879C11.636 5.96885 11.6359 5.98205 11.6358 5.99599L11.5967 5.99392L11.5968 5.95639L11.5492 5.94139L11.5493 5.89752L11.7836 5.97292L11.7834 6.02485L11.5486 6.09845L11.5487 6.05465L11.5966 6.04032L11.5967 5.99392L11.6358 5.99599ZM11.4241 5.20185L11.4394 5.22979L11.5085 5.15785L11.4108 5.17819C11.4109 5.17805 11.4174 5.18965 11.4241 5.20185L11.389 5.21912L11.3708 5.18632L11.3218 5.19652L11.3005 5.15819L11.5418 5.10952L11.567 5.15492L11.398 5.33385L11.3767 5.29552L11.4114 5.25965L11.3889 5.21912L11.4241 5.20185ZM11.0803 4.77999L11.104 4.80132L11.1456 4.71079L11.06 4.76199C11.06 4.76185 11.0699 4.77072 11.0803 4.77999L11.0528 4.80785L11.0248 4.78285L10.9819 4.80859L10.9492 4.77939L11.1612 4.65425L11.1998 4.68885L11.099 4.91325L11.0662 4.88405L11.0873 4.83879L11.0528 4.80785L11.0803 4.77999ZM9.37025 4.50445L9.39972 4.49239L9.33625 4.41545L9.34512 4.51485C9.35346 4.5113 9.36183 4.50783 9.37025 4.50445L9.38338 4.54132L9.34872 4.55565L9.35318 4.60545L9.31265 4.62219L9.29218 4.37692L9.34018 4.35712L9.49845 4.54559L9.45785 4.56225L9.42625 4.52365L9.38345 4.54125L9.37025 4.50445ZM8.33058 6.05692L8.33038 6.01099C8.33032 5.99645 8.31758 5.98432 8.29825 5.98439C8.27918 5.98452 8.26778 5.99812 8.26792 6.01519L8.26818 6.07452L8.33065 6.07419C8.33072 6.06843 8.3307 6.06267 8.33058 6.05692L8.37252 6.05245L8.37265 6.07399L8.46352 6.07352L8.46378 6.12025L8.22918 6.12145L8.22852 5.99345C8.22838 5.96125 8.26172 5.94165 8.29512 5.94152C8.32878 5.94132 8.35098 5.96705 8.35098 5.97959C8.35092 5.96345 8.36812 5.94625 8.39718 5.94612L8.46285 5.94579L8.46312 5.99092L8.40798 5.99119C8.37952 5.99132 8.37225 6.00459 8.37238 6.02779L8.37252 6.05245L8.33058 6.05692ZM11.2912 4.92972L11.3198 4.96559C11.3289 4.97692 11.3464 4.97865 11.3615 4.96659C11.3764 4.95465 11.3769 4.93699 11.3662 4.92359L11.3292 4.87725L11.2804 4.91619L11.2912 4.92972ZM11.2611 4.95925L11.2476 4.94245L11.1766 4.99919L11.1474 4.96265L11.3307 4.81625L11.4106 4.91625C11.4308 4.94152 11.4168 4.97745 11.3906 4.99832C11.3642 5.01939 11.331 5.01299 11.3231 5.00312C11.3332 5.01572 11.3304 5.03985 11.3077 5.05799L11.2564 5.09899L11.2282 5.06372L11.2712 5.02932C11.2934 5.01159 11.2909 4.99665 11.2764 4.97852L11.2611 4.95925Z" fill="#FFCF46"/>
<path d="M8.40651 6.5098C8.44333 6.5098 8.47318 6.47995 8.47318 6.44313C8.47318 6.40631 8.44333 6.37646 8.40651 6.37646C8.36969 6.37646 8.33984 6.40631 8.33984 6.44313C8.33984 6.47995 8.36969 6.5098 8.40651 6.5098Z" fill="#FFCF46"/>
<path d="M11.593 6.5098C11.6299 6.5098 11.6597 6.47995 11.6597 6.44313C11.6597 6.40631 11.6299 6.37646 11.593 6.37646C11.5562 6.37646 11.5264 6.40631 11.5264 6.44313C11.5264 6.47995 11.5562 6.5098 11.593 6.5098Z" fill="#FFCF46"/>
<path d="M9.49333 5.5785L9.44773 5.65523L9.81127 5.7267C9.81056 5.71874 9.81013 5.71075 9.81 5.70276L9.49333 5.5785ZM9.6106 5.38076L9.57233 5.4455L9.83907 5.56823C9.84195 5.56232 9.84502 5.55661 9.84827 5.5511L9.6106 5.38076ZM9.5562 5.47256L9.51867 5.53576L9.81367 5.64956C9.81494 5.64169 9.8165 5.63386 9.81833 5.6261L9.5562 5.47256ZM10.1523 5.84283L10.5683 6.13563C10.6073 6.13403 10.7155 6.1293 10.7376 6.12836L10.1639 5.82043C10.1604 5.82808 10.1566 5.83555 10.1523 5.84283ZM9.9826 5.9401L9.96313 6.14103C9.9744 6.14083 9.9964 6.14063 10.0003 6.1405V5.94116H9.99993C9.99402 5.94116 9.98824 5.94081 9.9826 5.9401ZM10.0109 5.45476L10.0599 4.8263L9.99987 4.7251L9.97413 4.76836L9.9956 5.45443L9.9998 5.45423C10.0035 5.45432 10.0072 5.4545 10.0109 5.45476ZM10.7812 6.04156L10.6863 5.88136L10.1804 5.7735C10.1776 5.78421 10.1744 5.79456 10.1706 5.80456L10.7812 6.04156ZM10.6166 5.7641L10.5615 5.67136L10.1885 5.72556C10.1876 5.73578 10.1862 5.74595 10.1843 5.75603L10.6166 5.7641ZM10.5321 5.6219L10.4907 5.55203L10.1879 5.6639C10.189 5.67332 10.1896 5.68292 10.1897 5.6927L10.5321 5.6219ZM10.4523 5.48743L10.4235 5.4389L10.1767 5.60923C10.1792 5.6171 10.1813 5.62514 10.183 5.63336L10.4523 5.48743ZM10.3977 5.39523L10.3612 5.33383L10.1555 5.55823C10.1596 5.5657 10.1634 5.57345 10.1668 5.5815L10.3977 5.39523ZM10.3467 5.3095L10.3223 5.26843L10.1297 5.52016C10.1342 5.52568 10.1386 5.53148 10.1428 5.53756L10.3467 5.3095ZM10.3013 5.2329L10.2769 5.19183L10.0945 5.48676C10.0997 5.49059 10.1047 5.4947 10.1095 5.4991L10.3013 5.2329ZM10.2461 5.13996L10.2117 5.0819L10.0685 5.47076C10.0741 5.47356 10.0796 5.4767 10.085 5.48016L10.2461 5.13996ZM10.168 5.00863L10.1209 4.9293L10.0287 5.45716C10.0338 5.45814 10.0387 5.45941 10.0435 5.46096L10.168 5.00863ZM9.91153 4.8739L9.86187 4.9575L9.96313 5.4589C9.96802 5.4577 9.97298 5.45672 9.978 5.45596L9.91153 4.8739ZM9.81913 5.0295L9.78253 5.09123L9.93067 5.47103C9.93431 5.46916 9.93804 5.46745 9.94187 5.4659L9.81913 5.0295ZM9.74787 5.1495L9.71907 5.19803L9.90573 5.48623C9.90898 5.48388 9.91227 5.48163 9.9156 5.4795L9.74787 5.1495ZM9.68833 5.24996L9.63993 5.3315L9.87233 5.5173C9.87598 5.51312 9.87973 5.50912 9.8836 5.5053L9.68833 5.24996ZM9.37427 5.7689L9.31267 5.8803L9.8218 5.7827C9.82021 5.77716 9.81877 5.77158 9.81747 5.76596L9.37427 5.7689ZM9.2306 6.02136L9.16113 6.13843L9.83387 5.8161C9.83164 5.81091 9.82955 5.80566 9.8276 5.80036L9.2306 6.02136ZM9.50987 6.05436L9.53867 6.10016L9.85007 5.8473C9.84784 5.84366 9.84571 5.83997 9.84367 5.83623L9.50987 6.05436ZM9.5648 6.14156L9.56567 6.14283C9.59193 6.14303 9.6302 6.14363 9.63667 6.14363L9.87353 5.87956C9.87033 5.87592 9.86726 5.87216 9.86433 5.8683L9.5648 6.14156ZM9.78913 6.04096C9.808 6.0389 9.83713 6.0351 9.8454 6.03423L9.90587 5.9093C9.9004 5.90526 9.89515 5.90094 9.89013 5.89636L9.78913 6.04096ZM9.87707 6.0595C9.88473 6.07596 9.9022 6.11016 9.90473 6.11423L9.9504 5.93283C9.94418 5.93077 9.93812 5.92825 9.93227 5.9253L9.87707 6.0595ZM10.0466 6.13976C10.0633 6.13936 10.0899 6.13923 10.0997 6.13903L10.0407 5.9355C10.0348 5.9372 10.0288 5.93849 10.0227 5.93936L10.0466 6.13976ZM10.154 6.13823C10.166 6.13803 10.2018 6.1383 10.2211 6.1385L10.0726 5.92263C10.0666 5.92583 10.0604 5.92865 10.054 5.9311L10.154 6.13823ZM10.2625 6.1387C10.2864 6.13883 10.3388 6.1383 10.3543 6.1385L10.1069 5.89883C10.1037 5.90168 10.1004 5.90437 10.097 5.9069L10.2625 6.1387ZM10.392 6.13856C10.4201 6.1383 10.4758 6.1379 10.4916 6.13756L10.1393 5.86296C10.1342 5.87017 10.1286 5.87703 10.1226 5.8835L10.392 6.13856Z" fill="#B3D2EF"/>
<path d="M10.6964 5.8976C10.7132 5.97628 10.7166 6.05725 10.7064 6.13707L10.7209 6.13667C10.7292 6.06897 10.728 6.00044 10.7174 5.93307L10.6964 5.8976ZM10.4436 5.4718C10.3167 5.37366 10.1608 5.32054 10.0004 5.3208C9.83349 5.3208 9.67982 5.37707 9.55722 5.47174L9.53589 5.50767C9.66492 5.39617 9.82983 5.33493 10.0004 5.3352C10.1779 5.3352 10.3402 5.40027 10.465 5.5078L10.4436 5.4718ZM9.30436 5.89774L9.28329 5.9332C9.27199 6.00515 9.27148 6.07837 9.28176 6.15047L9.29629 6.15067C9.29132 6.11629 9.28881 6.0816 9.28876 6.04687C9.28869 5.99574 9.29409 5.9458 9.30436 5.89774Z" fill="#4E2F91"/>
<path d="M10.7173 5.93331C10.728 6.00066 10.7291 6.06917 10.7208 6.13684H10.7353C10.7421 6.07977 10.7424 6.02211 10.7361 5.96497L10.7173 5.93331ZM10.4248 5.44044C10.3005 5.35313 10.1522 5.3064 10.0003 5.30664C9.84235 5.30664 9.69601 5.35611 9.57581 5.44037L9.55715 5.47184C9.68402 5.37376 9.83991 5.32066 10.0003 5.32091C10.1672 5.32091 10.3209 5.37724 10.4435 5.47191L10.4248 5.44044ZM9.28315 5.93338L9.26441 5.96504C9.25743 6.02682 9.25832 6.08923 9.26708 6.15078L9.28155 6.15064C9.27129 6.07854 9.27183 6.00532 9.28315 5.93338Z" fill="#003976"/>
<path d="M10.7357 5.96466C10.7421 6.02181 10.7418 6.07951 10.7348 6.13659L10.7493 6.13666C10.7549 6.08902 10.756 6.04097 10.7525 5.99313L10.7357 5.96466ZM10.4072 5.41133C10.2856 5.3333 10.1442 5.29188 9.99975 5.29199C9.84968 5.29199 9.70988 5.33579 9.59235 5.41126L9.57528 5.44006C9.6996 5.35279 9.84785 5.30608 9.99975 5.30633C10.1577 5.30633 10.3041 5.35579 10.4243 5.44013L10.4072 5.41133ZM9.26388 5.96473L9.24701 5.99313C9.24331 6.04565 9.24503 6.09842 9.25215 6.15059L9.26661 6.15046C9.25804 6.0889 9.25713 6.02651 9.26388 5.96473Z" fill="#009CDC"/>
<path d="M10.7532 5.9933C10.7567 6.04114 10.7556 6.0892 10.75 6.13683L10.7644 6.13677C10.7688 6.09798 10.7704 6.05892 10.7692 6.0199L10.7532 5.9933ZM10.3922 5.38517C10.2736 5.31481 10.1383 5.27773 10.0004 5.27783C9.86257 5.27772 9.72725 5.31478 9.60869 5.3851L9.59302 5.4115C9.71453 5.33341 9.85598 5.292 10.0004 5.29223C10.1505 5.29223 10.2904 5.33603 10.4079 5.41157L10.3922 5.38517ZM9.24769 5.99337L9.23189 6.01997C9.23043 6.06389 9.23259 6.10786 9.23835 6.15143L9.25275 6.15083C9.24566 6.09866 9.24396 6.04589 9.24769 5.99337Z" fill="#00AD8E"/>
<path d="M10.7689 6.02021C10.7702 6.05929 10.7686 6.09843 10.7641 6.13727L10.7785 6.13694C10.782 6.10738 10.7837 6.07743 10.7837 6.04707L10.7836 6.04501L10.7689 6.02021ZM10.3772 5.36027C10.2617 5.29675 10.1321 5.26351 10.0003 5.26367C9.8685 5.26352 9.73884 5.29676 9.6234 5.36027L9.60853 5.38527C9.72709 5.31495 9.86242 5.27789 10.0003 5.27801C10.1434 5.27801 10.2773 5.31727 10.3921 5.38534L10.3772 5.36027ZM9.23173 6.02007L9.21686 6.04507L9.2168 6.04701C9.2168 6.08221 9.21906 6.11681 9.2236 6.15081L9.2382 6.15154C9.23231 6.10798 9.23015 6.064 9.23173 6.02007Z" fill="#FFF200"/>
<path d="M10.7829 6.04476L10.783 6.04682C10.783 6.07718 10.7813 6.10711 10.7779 6.13662L10.7923 6.13669C10.7949 6.1142 10.7965 6.09145 10.7971 6.06842L10.7829 6.04476ZM10.3624 5.33629C10.2501 5.27876 10.1257 5.24884 9.99955 5.24902C9.86888 5.24902 9.74562 5.28056 9.63675 5.33622L9.62268 5.35996C9.73813 5.29644 9.86778 5.26321 9.99955 5.26336C10.1362 5.26336 10.2647 5.29842 10.3765 5.35996L10.3624 5.33629ZM9.21622 6.04489L9.20215 6.06849C9.2029 6.09631 9.20502 6.12371 9.20848 6.15069L9.22295 6.15062C9.21843 6.11621 9.21616 6.08154 9.21615 6.04682L9.21622 6.04489Z" fill="#FAAB54"/>
<path d="M10.7977 6.06866C10.7971 6.09164 10.7955 6.11438 10.793 6.13686L10.8075 6.1368C10.8091 6.12169 10.8103 6.10653 10.8112 6.09133L10.7977 6.06866ZM10.3497 5.3138C10.2406 5.26163 10.1212 5.23466 10.0003 5.23486C9.87519 5.23486 9.75679 5.26326 9.65099 5.31373L9.63752 5.3364C9.7498 5.2789 9.87417 5.24901 10.0003 5.2492C10.131 5.2492 10.2543 5.28073 10.3632 5.33646L10.3497 5.3138ZM9.18945 6.09126C9.19048 6.11131 9.19225 6.13115 9.19479 6.1508L9.20925 6.15086C9.20573 6.12359 9.20362 6.09615 9.20292 6.06866L9.18945 6.09126Z" fill="#ED1C2E"/>
<path d="M9.592 6.18673C9.60993 6.18746 9.66067 6.18819 9.67187 6.18819C9.68307 6.18819 9.69573 6.20066 9.67113 6.20066C9.64653 6.20066 9.60767 6.20213 9.60173 6.20213L9.592 6.18673ZM9.61893 6.22479C9.63087 6.22479 9.65327 6.22259 9.66073 6.22333C9.6682 6.22406 9.67193 6.22993 9.66073 6.23139C9.64953 6.23286 9.63533 6.23579 9.62493 6.23653L9.61893 6.22479ZM9.9392 6.18226C9.9504 6.18446 10.0146 6.18153 10.0258 6.18153V6.19333C9.99893 6.19406 9.95713 6.19846 9.94593 6.19773L9.9392 6.18226ZM10.2595 6.16979C10.2774 6.16979 10.3095 6.17126 10.3199 6.17126L10.3192 6.18079C10.2998 6.18006 10.2714 6.18366 10.2655 6.18366L10.2595 6.16979ZM10.4708 6.17273C10.4902 6.17126 10.5313 6.17346 10.5425 6.17346L10.5417 6.18446C10.5185 6.18519 10.4902 6.18593 10.4789 6.18593L10.4708 6.17273ZM10.9049 6.24999C10.8784 6.25106 10.8407 6.25446 10.8314 6.25626C10.8202 6.25846 10.8157 6.27093 10.8351 6.26799C10.8505 6.26566 10.8907 6.26386 10.9127 6.26313L10.9049 6.24999ZM9.08887 6.25986C9.11373 6.26046 9.17073 6.26533 9.20007 6.27026L9.22993 6.25413C9.18607 6.24927 9.14204 6.24609 9.09793 6.24459L9.08887 6.25986ZM9.11413 6.21733L9.10627 6.23066C9.14567 6.22159 9.218 6.22486 9.25687 6.23439L9.27033 6.22193C9.24127 6.20759 9.1516 6.21093 9.11413 6.21733ZM9.1368 6.17899L9.12253 6.20306C9.1718 6.19213 9.26007 6.18286 9.3038 6.19333L9.31647 6.18153C9.2684 6.16493 9.17533 6.17486 9.1368 6.17899ZM9.36373 6.58173C9.3544 6.57939 9.36693 6.57246 9.37927 6.56713C9.433 6.54366 9.50173 6.55686 9.5346 6.56346C9.56687 6.56993 9.56307 6.57713 9.55373 6.58013C9.58932 6.57976 9.6249 6.57891 9.66047 6.57759C9.63607 6.57679 9.6078 6.57126 9.557 6.55466C9.48533 6.53119 9.3898 6.54439 9.35693 6.55466C9.33007 6.56306 9.2982 6.56846 9.26467 6.56299C9.29613 6.57186 9.3308 6.57919 9.36373 6.58173ZM10.8313 6.12599C10.7777 6.12559 10.6285 6.13273 10.5783 6.13533C10.5215 6.13826 10.2677 6.13973 10.205 6.13826C10.1423 6.13679 9.83613 6.14413 9.7466 6.14413C9.66113 6.14413 9.2468 6.14013 9.16087 6.13846L9.14807 6.16006C9.1974 6.15939 9.43113 6.16313 9.50913 6.16173C9.59273 6.16026 9.80927 6.16319 9.88393 6.16173C9.9586 6.16026 10.1363 6.15439 10.1707 6.15586C10.205 6.15733 10.4543 6.15586 10.5007 6.15293C10.5451 6.15013 10.7107 6.14593 10.8414 6.14306L10.8313 6.12599ZM10.8514 6.15986C10.8106 6.16085 10.7698 6.1627 10.7291 6.16539C10.7171 6.16686 10.7045 6.17786 10.7329 6.17566C10.7558 6.17393 10.8272 6.17406 10.8599 6.17413L10.8514 6.15986ZM10.869 6.18953C10.8346 6.18973 10.7665 6.19279 10.7567 6.19473C10.7455 6.19693 10.7381 6.21159 10.759 6.20719C10.7761 6.20359 10.8449 6.20239 10.8765 6.20213L10.869 6.18953ZM10.8887 6.22273C10.8573 6.22399 10.8043 6.22999 10.7941 6.23059C10.7821 6.23133 10.7709 6.24306 10.7941 6.24233C10.8129 6.24179 10.8706 6.23679 10.896 6.23493L10.8887 6.22273ZM11.0353 6.46973C11.0054 6.47153 10.9653 6.46419 10.9485 6.45786C10.9291 6.45053 10.9127 6.44759 10.9381 6.46226C10.9605 6.47519 11.0154 6.48579 11.0444 6.48513L11.0353 6.46973ZM11.0566 6.50573C11.0234 6.50653 10.9539 6.49573 10.9053 6.47253C10.85 6.44613 10.7785 6.45586 10.7171 6.46373C10.6021 6.47839 10.5439 6.47106 10.4498 6.44906C10.3557 6.42706 10.2288 6.42999 10.1855 6.44759C10.1423 6.46519 10.1512 6.47106 10.1975 6.46226C10.2438 6.45346 10.3513 6.44026 10.4439 6.46519C10.5365 6.49013 10.6245 6.49453 10.6813 6.49013C10.738 6.48573 10.7843 6.47986 10.8082 6.48133C10.8321 6.48279 10.8291 6.49039 10.8082 6.49306C10.6365 6.51506 10.5648 6.52093 10.4663 6.49306C10.3677 6.46519 10.2766 6.47546 10.2109 6.48426C10.1451 6.49306 10.0795 6.48866 10.0183 6.46519C9.957 6.44173 9.90907 6.43399 9.87193 6.44613C9.85853 6.45053 9.854 6.45786 9.8764 6.45493C9.8988 6.45199 9.96147 6.45199 10.0153 6.47693C10.069 6.50186 10.1511 6.50773 10.2243 6.49746C10.2975 6.48719 10.3871 6.47546 10.4647 6.50773C10.5424 6.53993 10.6319 6.53266 10.7111 6.52093C10.7903 6.50919 10.844 6.49453 10.9067 6.51066C10.9621 6.52486 11.0371 6.52879 11.0683 6.52553L11.0566 6.50573Z" fill="#003976"/>
<path d="M11.0776 6.54106C11.0422 6.54719 10.9516 6.54039 10.9127 6.53113C10.8694 6.52086 10.7992 6.52966 10.6992 6.54873C10.5991 6.56779 10.4902 6.53553 10.4334 6.52233C10.3766 6.50913 10.3065 6.50766 10.2557 6.51353C10.205 6.51939 10.1243 6.52966 10.0093 6.49593C9.86676 6.45413 9.79129 6.47246 9.75549 6.48273C9.71969 6.49299 9.64349 6.49299 9.56289 6.47099C9.48229 6.44899 9.40909 6.45486 9.35982 6.46806C9.31056 6.48126 9.23589 6.49153 9.16722 6.47099C9.10376 6.45199 9.02242 6.45186 8.97276 6.45539L8.96289 6.47213C9.00602 6.46473 9.10576 6.46233 9.16576 6.48566C9.23749 6.51353 9.33456 6.50199 9.36736 6.49153C9.44049 6.46806 9.48829 6.47246 9.55996 6.49446C9.61049 6.50993 9.70562 6.51279 9.76749 6.49739C9.86756 6.47246 9.92429 6.48713 10.0064 6.51353C10.0886 6.53993 10.202 6.54286 10.2633 6.53846C10.3245 6.53406 10.3768 6.51939 10.4514 6.54286C10.5261 6.56633 10.6261 6.58246 10.7127 6.56193C10.7993 6.54139 10.877 6.53846 10.9173 6.54579C10.9555 6.55273 11.0245 6.56233 11.085 6.55333L11.0776 6.54106Z" fill="#003976"/>
<path d="M11.0949 6.56913C11.0686 6.57266 11.008 6.57413 10.9507 6.56633C10.8576 6.55353 10.7891 6.56066 10.7282 6.57513C10.6356 6.59713 10.5834 6.5898 10.5088 6.5722C10.4341 6.5546 10.3654 6.5502 10.2818 6.559C10.1982 6.5678 10.0743 6.55313 9.97871 6.5282C9.88311 6.50326 9.80551 6.51353 9.73531 6.53113C9.66511 6.54873 9.55618 6.52966 9.52178 6.51353C9.48744 6.4974 9.43664 6.49593 9.36798 6.5106C9.29931 6.52526 9.23804 6.52086 9.16784 6.5018C9.10237 6.484 9.01604 6.47646 8.95511 6.48626L8.94824 6.4978C8.99311 6.49273 9.10531 6.48966 9.16938 6.51353C9.24404 6.5414 9.32764 6.5326 9.37098 6.5238C9.41431 6.515 9.48911 6.5118 9.52178 6.5282C9.59191 6.5634 9.70264 6.55533 9.74278 6.54433C9.83384 6.5194 9.90104 6.5194 9.97871 6.54286C10.0564 6.56633 10.1982 6.581 10.2863 6.56926C10.3458 6.56133 10.4356 6.56486 10.5088 6.5854C10.5828 6.60717 10.6615 6.60768 10.7358 6.58686C10.8179 6.56486 10.9074 6.57073 10.9568 6.57806C11.0037 6.585 11.0412 6.59066 11.1028 6.58226L11.0949 6.56913Z" fill="#003976"/>
<path d="M11.1154 6.60358C11.0867 6.60612 10.9939 6.60705 10.9537 6.60298C10.9104 6.59858 10.8402 6.58832 10.7626 6.61032C10.6849 6.63232 10.5745 6.62938 10.5133 6.60885C10.4521 6.58832 10.3729 6.58098 10.2997 6.59125C10.2265 6.60152 10.134 6.60885 10.0235 6.57658C9.91293 6.54432 9.86967 6.53845 9.75327 6.56925C9.70394 6.58225 9.46653 6.57952 9.39933 6.58245C9.33213 6.58538 9.24853 6.56045 9.19773 6.53992C9.14973 6.52052 9.02447 6.51165 8.934 6.52185L8.92353 6.53945C9.0084 6.52185 9.11907 6.53745 9.16193 6.56192C9.10767 6.54885 8.97727 6.55472 8.90714 6.56712L8.8916 6.59332C9.00247 6.56905 9.16747 6.57525 9.2276 6.58832C9.2948 6.60298 9.40527 6.61472 9.47693 6.59712C9.54607 6.58012 9.65674 6.60138 9.7248 6.62792H10.0353C9.9866 6.59818 9.92934 6.61498 9.8876 6.61912C9.8428 6.62345 9.79947 6.61318 9.7786 6.60005C9.75773 6.58685 9.7786 6.58832 9.81447 6.57805C9.91827 6.54832 9.99953 6.58345 10.0598 6.62792H10.304C10.37 6.58332 10.4285 6.60512 10.4625 6.61765C10.4711 6.62078 10.4899 6.62452 10.5143 6.62792H10.7717C10.8344 6.60298 10.9165 6.61178 10.9568 6.61765C11.012 6.6265 11.0683 6.62628 11.1234 6.61698L11.1154 6.60358Z" fill="#003976"/>
<path d="M10.9371 6.30389C10.7788 6.30136 10.7117 6.20803 10.6532 6.11049C10.6233 6.11196 10.58 6.11643 10.5517 6.11489C10.5472 6.12956 10.5278 6.17943 10.5158 6.21756C10.4815 6.19556 10.4457 6.12223 10.4247 6.08123C10.4083 6.08123 10.374 6.08269 10.3471 6.07976C10.3366 6.10176 10.3053 6.17356 10.2919 6.20289C10.2665 6.17649 10.2053 6.08709 10.1829 6.05189C10.1545 6.05043 10.1127 6.05629 10.0799 6.05629C10.0619 6.10903 10.0261 6.18676 9.98125 6.23216C9.94838 6.19996 9.88572 6.08263 9.86478 6.03276C9.84392 6.03276 9.80205 6.04156 9.77818 6.04156C9.75732 6.08256 9.69758 6.20576 9.66172 6.27023C9.60198 6.20863 9.52732 6.08256 9.47652 5.99756L9.40485 6.00343C9.31472 6.25456 9.15952 6.28903 9.06592 6.29883L8.99512 6.41809C9.03138 6.41836 9.09265 6.42456 9.13752 6.43883C9.18832 6.45496 9.28238 6.46663 9.35552 6.44029C9.42872 6.41389 9.50632 6.41829 9.58245 6.43296C9.65858 6.44763 9.78705 6.45643 9.89898 6.40223C10.0423 6.47403 10.1335 6.43443 10.2036 6.41983C10.2738 6.40516 10.3708 6.39489 10.4455 6.41836C10.544 6.44929 10.6707 6.44929 10.7636 6.42423C10.8759 6.39389 10.9431 6.45269 11.0275 6.45636L10.9371 6.30389Z" fill="#00AD8E"/>
<path d="M9.40527 6.00349C9.41121 6.13689 9.48741 6.27656 9.67854 6.44363C9.69054 6.44436 9.70907 6.44403 9.72141 6.44363C9.67067 6.39376 9.55607 6.26883 9.51727 6.20796C9.51576 6.19849 9.51476 6.18894 9.51427 6.17936C9.61954 6.29883 9.69714 6.39116 9.79721 6.43516C9.81527 6.43189 9.84001 6.42583 9.85634 6.41976C9.69014 6.33403 9.59941 6.20796 9.47694 5.99756C9.45301 5.99983 9.42241 6.00129 9.40527 6.00349ZM10.1141 6.05476C10.0857 6.14123 10.0518 6.22336 10.0025 6.26589C10.0107 6.27543 10.0234 6.28569 10.0324 6.29443C10.0533 6.27829 10.0802 6.24676 10.0869 6.23943C10.0995 6.24529 10.1041 6.27023 10.0704 6.32736C10.1137 6.35669 10.1869 6.39723 10.2391 6.41329C10.1955 6.41989 10.1433 6.43509 10.1197 6.43876C10.0241 6.36983 9.94874 6.32296 9.87554 6.19836C9.86507 6.24523 9.87221 6.26776 9.90541 6.30536C9.93527 6.33909 9.98234 6.39169 10.0719 6.44369C10.0184 6.44523 9.96234 6.43403 9.89941 6.40216C9.86361 6.34203 9.79194 6.20716 9.77847 6.04156C9.80407 6.04103 9.84107 6.03329 9.86507 6.03276C9.89201 6.09269 9.94461 6.19223 9.98154 6.23216C10.0131 6.20029 10.0557 6.12989 10.0801 6.05629C10.0891 6.05603 10.1093 6.05516 10.1141 6.05476ZM10.3734 6.08136C10.3644 6.12456 10.3347 6.19109 10.3139 6.22703C10.3079 6.22043 10.2976 6.21016 10.2922 6.20283L10.3474 6.07969C10.3542 6.08029 10.3685 6.08176 10.3734 6.08136ZM10.3213 6.25776C10.3295 6.26223 10.3445 6.27316 10.3505 6.27609C10.3677 6.24969 10.3713 6.22843 10.3669 6.18889C10.3467 6.20503 10.3445 6.24169 10.3213 6.25776ZM10.5161 6.21749C10.5243 6.22483 10.5341 6.23143 10.5415 6.23656C10.5565 6.19556 10.5737 6.14276 10.5781 6.11489C10.5694 6.11546 10.5607 6.11546 10.552 6.11489C10.5369 6.15756 10.5207 6.20283 10.5161 6.21749Z" fill="#FFE01B"/>
</svg>
