<svg width="20" height="13" viewBox="0 0 20 13" fill="none" xmlns="http://www.w3.org/2000/svg">
<path d="M0.0332031 0.0322266H19.9668V12.9676H0.0332031V0.0322266Z" fill="white"/>
<path d="M0.0332031 6.5H9.99998V12.9677H0.0332031V6.5Z" fill="#005293"/>
<path d="M10 0.0322266H19.9668V6.49989H10V0.0322266Z" fill="#D21034"/>
<path d="M3.43652 2.76615L4.41287 3.4567L4.03998 4.57399L5.01632 3.88344L5.99274 4.57399L5.61978 3.4567L6.59612 2.76615H5.38928L5.01632 1.64893L4.64337 2.76615H3.43652Z" fill="#005293"/>
<path d="M13.4033 9.23399L14.3797 9.92448L14.0068 11.0417L14.9831 10.3513L15.9595 11.0417L15.5865 9.92448L16.5629 9.23399H15.3561L14.9831 8.1167L14.6102 9.23399H13.4033Z" fill="#D21034"/>
</svg>
