<svg width="20" height="12" viewBox="0 0 20 12" fill="none" xmlns="http://www.w3.org/2000/svg">
<path d="M0.0332031 0.0332031H19.9668V11.9669H0.0332031V0.0332031Z" fill="white"/>
<path d="M0.0332031 7.98877H19.9668V11.9667H0.0332031V7.98877Z" fill="#0038A8"/>
<path d="M0.0332031 0.0332031H19.9668V4.0111H0.0332031V0.0332031Z" fill="#D52B1E"/>
<path fill-rule="evenodd" clip-rule="evenodd" d="M11.5294 6.00024C11.5294 6.84303 10.8448 7.5263 10.0002 7.52636C9.15555 7.52643 8.47084 6.84329 8.4707 6.00057V6.00024C8.47064 5.15746 9.15529 4.47419 9.99987 4.47412C10.8445 4.47405 11.5292 5.15719 11.5294 5.99991V6.00024Z" stroke="black" stroke-width="0.93" stroke-linecap="round"/>
<path d="M10.2024 5.2876C10.2024 5.2876 10.7842 5.53768 10.6826 6.05447C10.581 6.57127 10.2572 6.56782 10.1301 6.62497C10.0032 6.68205 9.91552 6.7638 9.86542 6.75239C9.81532 6.74092 9.74907 6.7024 9.74907 6.7024C9.74907 6.7024 9.74376 6.78727 9.84575 6.80271C9.94774 6.81816 10.0818 6.66872 10.1463 6.65215C10.2107 6.63558 10.6061 6.59275 10.7024 6.06687C10.8146 5.50552 10.206 5.30404 10.2024 5.2876Z" fill="#009B3A" stroke="black" stroke-width="0.075"/>
<path d="M10.4959 5.3975C10.5068 5.44013 10.507 5.47534 10.4964 5.47613C10.4859 5.47693 10.4685 5.44305 10.4576 5.40042C10.4467 5.35779 10.4464 5.32259 10.457 5.32179C10.4676 5.321 10.4849 5.35487 10.4959 5.3975Z" fill="#009B3A" stroke="black" stroke-width="0.075"/>
<path d="M10.4758 5.40302C10.496 5.44366 10.5045 5.47946 10.495 5.48298C10.4854 5.48649 10.4613 5.45646 10.4412 5.41582L10.4411 5.41568C10.4209 5.37504 10.4123 5.33924 10.4219 5.33573C10.4315 5.33221 10.4556 5.36225 10.4757 5.40289L10.4758 5.40302Z" fill="#009B3A" stroke="black" stroke-width="0.075"/>
<path d="M10.4173 5.44133C10.4586 5.45339 10.4912 5.47196 10.4902 5.48276C10.4892 5.49364 10.4549 5.49264 10.4137 5.48058C10.3725 5.46851 10.3398 5.44995 10.3408 5.43914C10.3418 5.42833 10.3761 5.42933 10.4173 5.44133Z" fill="#009B3A" stroke="black" stroke-width="0.075"/>
<path d="M10.4266 5.42009C10.4641 5.44522 10.4909 5.47307 10.4863 5.48222C10.4817 5.49143 10.4476 5.47844 10.4101 5.45338L10.4099 5.45324C10.3723 5.42812 10.3455 5.40034 10.3501 5.39112C10.3547 5.38197 10.3889 5.3949 10.4264 5.42003C10.4265 5.41998 10.4266 5.42001 10.4266 5.42009Z" fill="#009B3A" stroke="black" stroke-width="0.075"/>
<path d="M10.4507 5.41018C10.4826 5.44326 10.5028 5.47588 10.4958 5.48304C10.4889 5.4902 10.4573 5.46918 10.4254 5.4361C10.3935 5.40301 10.3733 5.3704 10.3803 5.36324C10.3873 5.35601 10.4188 5.37709 10.4507 5.41018Z" fill="#009B3A" stroke="black" stroke-width="0.075"/>
<path d="M10.4917 5.4826C10.4921 5.48293 10.4693 5.4952 10.4642 5.49706C10.459 5.49891 10.452 5.49023 10.4372 5.49779C10.4248 5.50432 10.4149 5.5147 10.4089 5.52735C10.4057 5.53544 10.4131 5.53889 10.4311 5.53021C10.449 5.52152 10.4537 5.50773 10.4624 5.50236C10.471 5.49699 10.4855 5.48903 10.4938 5.48612C10.4974 5.47836 10.5089 5.46165 10.515 5.45204C10.521 5.44249 10.5445 5.42665 10.5531 5.40828C10.5606 5.39303 10.5577 5.38011 10.5478 5.38554C10.5378 5.39098 10.5248 5.40623 10.5188 5.41723C10.5127 5.42824 10.5179 5.44216 10.5113 5.4525C10.5059 5.45993 10.4931 5.4826 10.4917 5.4826ZM10.6718 5.54221C10.6728 5.60811 10.6614 5.65869 10.6466 5.65524C10.6316 5.6518 10.6188 5.59558 10.6178 5.52967V5.52928C10.6169 5.46338 10.6281 5.41279 10.6431 5.41624C10.6581 5.41969 10.6709 5.47591 10.6719 5.54181L10.6718 5.54221Z" fill="#009B3A" stroke="black" stroke-width="0.075"/>
<path d="M10.6412 5.54124C10.6556 5.6084 10.6556 5.66349 10.6412 5.66422C10.6267 5.66495 10.6034 5.61105 10.5889 5.54389C10.5745 5.47666 10.5745 5.42164 10.5889 5.42091C10.6034 5.42011 10.6267 5.47401 10.6412 5.54124Z" fill="#009B3A" stroke="black" stroke-width="0.075"/>
<path d="M10.5482 5.56987C10.6014 5.60554 10.6405 5.64671 10.6356 5.66189C10.6307 5.67707 10.5837 5.66043 10.5306 5.62476L10.5302 5.6245C10.477 5.58883 10.4379 5.54766 10.4428 5.53248C10.4476 5.51729 10.4947 5.53393 10.5478 5.5696L10.5482 5.56987Z" fill="#009B3A" stroke="black" stroke-width="0.075"/>
<path d="M10.5676 5.54383C10.6113 5.59661 10.6392 5.64839 10.6298 5.65952C10.6204 5.67066 10.5774 5.63685 10.5337 5.58408L10.5335 5.58381C10.4898 5.53104 10.4621 5.47933 10.4716 5.46839C10.481 5.45738 10.524 5.49119 10.5676 5.54383Z" fill="#009B3A" stroke="black" stroke-width="0.075"/>
<path d="M10.6045 5.5402C10.6377 5.60179 10.655 5.65768 10.643 5.66498C10.6311 5.67227 10.5944 5.62825 10.5612 5.56659L10.5609 5.56599C10.5276 5.5044 10.5104 5.44851 10.5224 5.44122C10.5343 5.43393 10.571 5.47795 10.6042 5.53954L10.6045 5.5402Z" fill="#009B3A" stroke="black" stroke-width="0.075"/>
<path d="M10.6368 5.66237C10.6371 5.66303 10.6015 5.67039 10.5938 5.67072C10.5861 5.67105 10.5793 5.65547 10.5562 5.65972C10.5369 5.66353 10.5195 5.67408 10.5072 5.68949C10.5 5.6997 10.5092 5.70785 10.5369 5.70341C10.5647 5.69897 10.5758 5.68133 10.5895 5.67749C10.6033 5.67364 10.626 5.66873 10.6383 5.6682C10.6459 5.65866 10.6675 5.63996 10.6789 5.62889C10.6904 5.61788 10.7282 5.60575 10.7463 5.58321C10.7617 5.56478 10.7621 5.54496 10.7465 5.5482C10.7308 5.55145 10.7078 5.56763 10.6958 5.58069C10.6839 5.59375 10.6864 5.61609 10.6737 5.62783C10.6639 5.63618 10.6387 5.66297 10.6368 5.66237ZM10.7663 5.78277C10.7553 5.848 10.7351 5.89574 10.7211 5.88931C10.7072 5.88288 10.7048 5.82487 10.7158 5.75963C10.7269 5.69439 10.747 5.64666 10.7609 5.65302C10.7749 5.65945 10.7773 5.71753 10.7663 5.78277Z" fill="#009B3A" stroke="black" stroke-width="0.075"/>
<path d="M10.7373 5.77598C10.7393 5.84513 10.7293 5.89956 10.7151 5.8975C10.7009 5.89552 10.6877 5.83784 10.6858 5.76875V5.76855C10.6838 5.6994 10.6938 5.64497 10.708 5.64703C10.7222 5.64902 10.7354 5.7067 10.7374 5.77578L10.7373 5.77598Z" fill="#009B3A" stroke="black" stroke-width="0.075"/>
<path d="M10.6414 5.78651C10.6869 5.83192 10.7176 5.88005 10.7101 5.89404C10.7025 5.90803 10.6595 5.88257 10.614 5.83716L10.6138 5.83696C10.5683 5.79154 10.5375 5.74341 10.5451 5.72942C10.5527 5.71543 10.5957 5.74089 10.6411 5.78631L10.6414 5.78651Z" fill="#009B3A" stroke="black" stroke-width="0.075"/>
<path d="M10.6639 5.76399C10.697 5.82446 10.7149 5.88094 10.7037 5.89016C10.6926 5.89937 10.6566 5.85774 10.6235 5.79727L10.6233 5.79688C10.5901 5.73641 10.5722 5.67993 10.5834 5.67071C10.5946 5.6615 10.6305 5.70313 10.6637 5.76359L10.6639 5.76399Z" fill="#009B3A" stroke="black" stroke-width="0.075"/>
<path d="M10.7019 5.76805C10.7232 5.83528 10.73 5.89376 10.717 5.89866C10.704 5.90357 10.6761 5.85305 10.6547 5.78582L10.6545 5.78516C10.6332 5.71793 10.6264 5.65946 10.6394 5.65462C10.6525 5.64978 10.6803 5.70023 10.7017 5.76746L10.7019 5.76805Z" fill="#009B3A" stroke="black" stroke-width="0.075"/>
<path d="M10.7103 5.89485C10.7105 5.89558 10.6743 5.89604 10.6667 5.89485C10.659 5.89366 10.6552 5.87701 10.6319 5.87682C10.6124 5.87686 10.5934 5.88397 10.5787 5.89684C10.5699 5.90552 10.5773 5.9154 10.6052 5.91633C10.6331 5.91726 10.6472 5.90201 10.6613 5.90082C10.6755 5.89962 10.6985 5.89916 10.7107 5.90101C10.7198 5.89306 10.7444 5.87867 10.7576 5.86999C10.7708 5.8613 10.81 5.85659 10.8316 5.83777C10.85 5.82252 10.854 5.80303 10.8381 5.80322C10.8222 5.80342 10.7969 5.81496 10.7828 5.82557C10.7687 5.83617 10.7671 5.85872 10.7526 5.86787C10.7415 5.87416 10.712 5.89578 10.7103 5.89485ZM10.7729 6.05151C10.7375 6.10747 10.7006 6.1434 10.6905 6.1318C10.6803 6.12013 10.7007 6.0653 10.7361 6.00935L10.7361 6.00928C10.7715 5.95332 10.8083 5.91739 10.8185 5.92899C10.8287 5.94059 10.8082 5.99542 10.7729 6.05145L10.7729 6.05151Z" fill="#009B3A" stroke="black" stroke-width="0.075"/>
<path d="M10.7502 6.03309C10.7251 6.098 10.6949 6.14441 10.6828 6.13678C10.6706 6.12909 10.6812 6.07029 10.7063 6.00538L10.7064 6.00498C10.7316 5.94008 10.7617 5.89387 10.7737 5.90176C10.7858 5.90958 10.7753 5.96832 10.7502 6.03309Z" fill="#009B3A" stroke="black" stroke-width="0.075"/>
<path d="M10.6582 6.00359C10.6818 6.06452 10.6908 6.12174 10.6785 6.13155C10.6662 6.14136 10.6372 6.09992 10.6136 6.03906C10.5901 5.9782 10.5811 5.92092 10.5934 5.91111C10.6057 5.90129 10.6347 5.94273 10.6582 6.00359Z" fill="#009B3A" stroke="black" stroke-width="0.075"/>
<path d="M10.688 5.99216C10.6945 6.06198 10.6886 6.12158 10.6749 6.12542C10.6612 6.12927 10.6449 6.0757 10.6384 6.00595C10.6319 5.93621 10.6378 5.87654 10.6515 5.87276C10.6652 5.86885 10.6815 5.92235 10.688 5.99216Z" fill="#009B3A" stroke="black" stroke-width="0.075"/>
<path d="M10.7205 6.01057C10.7136 6.08171 10.697 6.13859 10.6833 6.13753C10.6696 6.13654 10.6641 6.07806 10.6709 6.00686C10.6778 5.93572 10.6944 5.8789 10.7081 5.8799C10.7218 5.88096 10.7273 5.93943 10.7205 6.01057Z" fill="#009B3A" stroke="black" stroke-width="0.075"/>
<path d="M10.679 6.13227C10.6655 6.12715 10.6523 6.12114 10.6395 6.1143C10.6331 6.11006 10.6361 6.09302 10.6151 6.08321C10.5975 6.07518 10.5775 6.07398 10.5591 6.07983C10.5477 6.0842 10.5507 6.09647 10.5755 6.1088C10.6004 6.12113 10.6191 6.11278 10.6323 6.11755C10.6456 6.12226 10.6667 6.13134 10.6771 6.13817C10.6884 6.13453 10.7162 6.13134 10.7315 6.12869C10.7469 6.12604 10.7842 6.13784 10.8111 6.12935C10.8337 6.12279 10.8449 6.10635 10.8304 6.09998C10.8159 6.09362 10.7884 6.09388 10.7716 6.09786C10.7547 6.10184 10.7446 6.12213 10.7278 6.12465C10.7153 6.12597 10.6802 6.13386 10.679 6.13227ZM10.7004 6.32367C10.643 6.37274 10.5906 6.39906 10.5832 6.38255C10.5759 6.36604 10.6165 6.31287 10.6738 6.26387L10.6739 6.26381C10.7312 6.21475 10.7836 6.18843 10.791 6.20493C10.7984 6.22144 10.7578 6.27461 10.7005 6.32361L10.7004 6.32367Z" fill="#009B3A" stroke="black" stroke-width="0.075"/>
<path d="M10.6808 6.29512C10.6318 6.35771 10.5833 6.39808 10.5725 6.38529C10.5616 6.37249 10.5926 6.3113 10.6416 6.24871L10.6419 6.24825C10.6909 6.18566 10.7394 6.14529 10.7503 6.15815C10.7611 6.17101 10.7301 6.23207 10.6812 6.29472L10.6808 6.29512Z" fill="#009B3A" stroke="black" stroke-width="0.075"/>
<path d="M10.5899 6.22931C10.5957 6.30495 10.5869 6.37158 10.5701 6.37808C10.5533 6.38458 10.535 6.32856 10.5292 6.25284L10.5291 6.25231C10.5233 6.17667 10.5321 6.11004 10.5489 6.10354C10.5657 6.09704 10.584 6.15306 10.5898 6.22878L10.5899 6.22931Z" fill="#009B3A" stroke="black" stroke-width="0.075"/>
<path d="M10.6264 6.22759C10.6106 6.30695 10.5845 6.37066 10.5682 6.36993C10.5518 6.3692 10.5515 6.30423 10.5673 6.22487C10.5832 6.14551 10.6092 6.0818 10.6256 6.08253C10.6419 6.08326 10.6423 6.14823 10.6264 6.22759Z" fill="#009B3A" stroke="black" stroke-width="0.075"/>
<path d="M10.6562 6.25993C10.6252 6.33597 10.5881 6.39273 10.5734 6.38663C10.5587 6.38059 10.5719 6.31403 10.6029 6.23798C10.6339 6.16194 10.6709 6.10519 10.6857 6.11129C10.7004 6.11732 10.6871 6.18389 10.6562 6.25993Z" fill="#009B3A" stroke="black" stroke-width="0.075"/>
<path d="M10.5707 6.37913C10.5574 6.36857 10.5449 6.35719 10.5331 6.34505C10.5274 6.33802 10.5363 6.32032 10.5164 6.30189C10.4966 6.28346 10.47 6.27716 10.456 6.27789C10.442 6.27862 10.4412 6.2932 10.4645 6.31581C10.4878 6.33842 10.5111 6.33597 10.5242 6.34598C10.5372 6.35599 10.5574 6.37362 10.5665 6.38483C10.5802 6.38489 10.6119 6.39139 10.6296 6.39404C10.6473 6.39669 10.6846 6.42315 10.717 6.42348C10.744 6.42441 10.7618 6.41029 10.7479 6.39809C10.734 6.38589 10.7037 6.37614 10.6838 6.37448C10.664 6.37283 10.6461 6.39152 10.6268 6.38821C10.6127 6.38529 10.5715 6.38131 10.5707 6.37913ZM10.5136 6.56198C10.4314 6.57557 10.3663 6.57033 10.3682 6.55044C10.3701 6.53048 10.4382 6.50337 10.5204 6.48984L10.5208 6.48978C10.603 6.47625 10.6681 6.48136 10.6662 6.50131C10.6644 6.52127 10.5962 6.54839 10.514 6.56191L10.5136 6.56198Z" fill="#009B3A" stroke="black" stroke-width="0.075"/>
<path d="M10.5103 6.52312C10.4287 6.55435 10.3599 6.56463 10.3566 6.54613C10.3532 6.52763 10.4167 6.48732 10.4983 6.4561L10.4984 6.45603C10.58 6.4248 10.6489 6.41453 10.6522 6.43302C10.6555 6.45152 10.5921 6.49183 10.5105 6.52306L10.5103 6.52312Z" fill="#009B3A" stroke="black" stroke-width="0.075"/>
<path d="M10.4592 6.40831C10.4234 6.48362 10.3784 6.54176 10.3588 6.53812C10.3391 6.53447 10.3522 6.47049 10.388 6.39511C10.4238 6.3198 10.4688 6.26165 10.4885 6.2653C10.5081 6.26895 10.495 6.33292 10.4592 6.40831Z" fill="#009B3A" stroke="black" stroke-width="0.075"/>
<path d="M10.4951 6.42804C10.4363 6.49434 10.3763 6.53989 10.361 6.52968C10.3457 6.51954 10.3809 6.45761 10.4395 6.39132C10.4983 6.32502 10.5583 6.2794 10.5738 6.28948C10.5892 6.29956 10.554 6.36148 10.4953 6.42785L10.4951 6.42804Z" fill="#009B3A" stroke="black" stroke-width="0.075"/>
<path d="M10.5054 6.47528C10.4339 6.52971 10.367 6.5624 10.356 6.54821C10.3451 6.53402 10.3941 6.4784 10.4657 6.4239L10.466 6.42363C10.5376 6.3692 10.6043 6.33672 10.6151 6.35104C10.6259 6.36536 10.5768 6.42092 10.5054 6.47528Z" fill="#009B3A" stroke="black" stroke-width="0.075"/>
<path d="M10.3575 6.53981C10.3568 6.54034 10.3416 6.49572 10.3399 6.48577C10.3382 6.47583 10.3565 6.46409 10.3474 6.43512C10.3383 6.40615 10.316 6.3848 10.3021 6.37744C10.2883 6.37008 10.2795 6.38347 10.2896 6.41841C10.2997 6.45342 10.3236 6.46442 10.3306 6.48153C10.3378 6.49857 10.3476 6.52701 10.3503 6.54299C10.3635 6.55094 10.3905 6.57534 10.4061 6.58814C10.4218 6.60093 10.4432 6.64754 10.4744 6.66657C10.5 6.68301 10.5248 6.67983 10.5181 6.6602C10.5114 6.64058 10.4875 6.61386 10.4692 6.6008C10.4509 6.58774 10.4234 6.59516 10.4067 6.58098C10.3947 6.56991 10.3571 6.54239 10.3575 6.53981ZM10.2677 6.69567C10.1833 6.69687 10.115 6.67824 10.1152 6.65397C10.1154 6.62984 10.1837 6.60929 10.268 6.60796C10.3524 6.60677 10.4207 6.6254 10.4205 6.64966C10.4203 6.67386 10.352 6.69441 10.2677 6.69567Z" fill="#009B3A" stroke="black" stroke-width="0.075"/>
<path d="M10.2481 6.5588C10.1947 6.62775 10.1367 6.67144 10.1186 6.65639C10.1006 6.6414 10.1294 6.57332 10.183 6.50437C10.2365 6.43542 10.2945 6.39173 10.3124 6.40678C10.3305 6.42182 10.3017 6.48985 10.2481 6.5588Z" fill="#009B3A" stroke="black" stroke-width="0.075"/>
<path d="M10.2698 6.62875C10.1912 6.66249 10.1207 6.67171 10.1122 6.64936C10.1037 6.62702 10.1603 6.58154 10.2387 6.5478C10.3172 6.51405 10.3877 6.50483 10.3963 6.52718C10.4049 6.54952 10.3483 6.595 10.2698 6.62875ZM10.3114 5.30079C10.3503 5.33573 10.3738 5.36841 10.3637 5.37378C10.3537 5.37916 10.3142 5.35529 10.2754 5.32041C10.2365 5.28548 10.213 5.25279 10.2229 5.24735C10.2329 5.24192 10.2724 5.26578 10.3113 5.30072L10.3114 5.30079Z" fill="#009B3A" stroke="black" stroke-width="0.075"/>
<path d="M10.2645 5.33998C10.317 5.34681 10.3613 5.36113 10.3634 5.372C10.3654 5.38287 10.3244 5.38619 10.2718 5.37936C10.2192 5.37253 10.1749 5.35821 10.1729 5.34734C10.1709 5.33647 10.2119 5.33315 10.2645 5.33998Z" fill="#009B3A" stroke="black" stroke-width="0.075"/>
<path d="M10.283 5.31523C10.3325 5.34036 10.3684 5.36774 10.3632 5.37636C10.3579 5.38498 10.3136 5.37158 10.264 5.34646L10.2638 5.34639C10.2143 5.32126 10.1785 5.29388 10.1838 5.28533C10.1892 5.27671 10.2336 5.2901 10.283 5.31523ZM9.59375 6.54712C9.59375 6.54712 9.72192 6.57457 9.83328 6.61494C9.94471 6.65532 10.1139 6.79401 10.1595 6.8019C10.2105 6.80422 10.2813 6.78685 10.3081 6.71333C10.2295 6.73421 10.1824 6.76604 10.1074 6.72486C10.0809 6.71485 9.99408 6.63596 9.89887 6.59379C9.80365 6.55163 9.61182 6.50343 9.61182 6.50343L9.59375 6.54712ZM9.73036 5.39121C9.7299 5.39015 9.87787 5.31357 9.87787 5.31357L9.71521 5.35507L9.69634 5.38365L9.73036 5.39121Z" fill="#009B3A" stroke="black" stroke-width="0.075"/>
<path d="M9.86981 5.42721C9.81267 5.41687 9.72489 5.39771 9.66895 5.3932C9.70762 5.35051 9.76084 5.27824 9.79366 5.23389C9.772 5.27619 9.73798 5.33194 9.72456 5.37245C9.76396 5.39367 9.82582 5.41031 9.86981 5.42721Z" fill="#009B3A" stroke="black" stroke-width="0.075"/>
<path d="M9.70363 5.40007C9.70297 5.39907 9.83473 5.29883 9.83473 5.29883L9.6825 5.36678L9.66895 5.39821L9.70363 5.40007Z" fill="#009B3A" stroke="black" stroke-width="0.075"/>
<path d="M9.84379 5.42561C9.78632 5.41467 9.69781 5.39458 9.6416 5.38974C9.67954 5.34572 9.73164 5.27127 9.76373 5.22559C9.7428 5.26921 9.70971 5.32676 9.69702 5.36853C9.73688 5.3906 9.79928 5.40797 9.84379 5.42561Z" fill="#009B3A" stroke="black" stroke-width="0.075"/>
<path d="M9.68179 5.40826C9.68146 5.40713 9.83614 5.34375 9.83614 5.34375L9.6699 5.37107L9.64844 5.39778L9.68179 5.40826Z" fill="#009B3A" stroke="black" stroke-width="0.075"/>
<path d="M9.82632 5.42652C9.76818 5.42168 9.67822 5.41087 9.62207 5.41207C9.65443 5.3632 9.69715 5.28186 9.72353 5.23193C9.70798 5.27854 9.682 5.3406 9.67436 5.38449C9.71642 5.40252 9.78021 5.41339 9.82632 5.42652Z" fill="#009B3A" stroke="black" stroke-width="0.075"/>
<path d="M9.66592 5.4089C9.66506 5.40804 9.77051 5.28174 9.77051 5.28174L9.63802 5.38059L9.63184 5.41433L9.66592 5.4089Z" fill="#009B3A" stroke="black" stroke-width="0.075"/>
<path d="M9.82596 5.43511C9.76363 5.43391 9.66696 5.42841 9.60742 5.43372C9.63692 5.37816 9.67413 5.28633 9.69712 5.22998C9.6853 5.28196 9.66397 5.35151 9.66025 5.3999C9.70676 5.41668 9.77566 5.42404 9.82596 5.43511Z" fill="#009B3A" stroke="black" stroke-width="0.075"/>
<path d="M9.6447 5.43897C9.6439 5.43785 9.77167 5.31738 9.77167 5.31738L9.61799 5.40218L9.60742 5.43851L9.6447 5.43897Z" fill="#009B3A" stroke="black" stroke-width="0.075"/>
<path d="M9.79798 5.43914C9.73101 5.4394 9.62788 5.43576 9.5625 5.44305C9.60582 5.38106 9.66509 5.27903 9.70157 5.21631C9.67798 5.27386 9.64057 5.35103 9.62649 5.40446C9.67326 5.42177 9.74602 5.4282 9.79798 5.43914Z" fill="#009B3A" stroke="black" stroke-width="0.075"/>
<path d="M9.6025 5.44814C9.60184 5.44695 9.76469 5.31104 9.76469 5.31104L9.58137 5.40829L9.5625 5.4486L9.6025 5.44814Z" fill="#009B3A" stroke="black" stroke-width="0.075"/>
<path d="M9.77377 5.44306C9.70746 5.45261 9.60474 5.46335 9.54102 5.47959C9.57504 5.41316 9.61909 5.30542 9.6462 5.23926C9.63111 5.29866 9.60507 5.37908 9.59882 5.43305C9.64766 5.44346 9.72068 5.43961 9.77377 5.44306Z" fill="#009B3A" stroke="black" stroke-width="0.075"/>
<path d="M9.58042 5.47502C9.57949 5.47403 9.7054 5.30225 9.7054 5.30225L9.54939 5.443L9.54102 5.48609L9.58042 5.47502Z" fill="#009B3A" stroke="black" stroke-width="0.075"/>
<path d="M9.73644 5.46374C9.66966 5.46997 9.56647 5.47554 9.50195 5.48854C9.53969 5.4239 9.58973 5.31861 9.62062 5.25391C9.60222 5.31245 9.57165 5.39141 9.56242 5.44504C9.61052 5.45777 9.68368 5.45764 9.73644 5.46374Z" fill="#009B3A" stroke="black" stroke-width="0.075"/>
<path d="M9.55822 5.49333C9.55756 5.49213 9.71736 5.35596 9.71736 5.35596L9.53683 5.45302L9.51855 5.49353L9.55822 5.49333Z" fill="#009B3A" stroke="black" stroke-width="0.075"/>
<path d="M9.71689 5.47081C9.65031 5.4848 9.54699 5.50257 9.4834 5.52299C9.51449 5.4551 9.55356 5.3459 9.57775 5.27881C9.56546 5.33834 9.5432 5.41943 9.53954 5.47313C9.58945 5.47996 9.66307 5.47107 9.71689 5.47081Z" fill="#009B3A" stroke="black" stroke-width="0.075"/>
<path d="M9.5313 5.50079C9.53024 5.49999 9.63296 5.3125 9.63296 5.3125L9.49542 5.47533L9.49316 5.51836L9.5313 5.50079Z" fill="#009B3A" stroke="black" stroke-width="0.075"/>
<path d="M9.7169 5.48133C9.64547 5.49989 9.53417 5.52422 9.4668 5.54975C9.49264 5.47257 9.52228 5.34893 9.54062 5.27295C9.53444 5.34004 9.51982 5.43154 9.52241 5.49167C9.57803 5.4971 9.65783 5.48398 9.7169 5.48133Z" fill="#009B3A" stroke="black" stroke-width="0.075"/>
<path d="M9.51134 5.54415C9.51028 5.54303 9.63938 5.35547 9.63938 5.35547L9.47566 5.50802L9.46875 5.55562L9.51134 5.54415Z" fill="#009B3A" stroke="black" stroke-width="0.075"/>
<path d="M9.68907 5.50308C9.61884 5.52523 9.50921 5.55526 9.44336 5.5841C9.46549 5.50646 9.48914 5.38268 9.50382 5.30664C9.50077 5.37327 9.4906 5.46443 9.49598 5.5237C9.5516 5.52609 9.6304 5.50885 9.68907 5.50308Z" fill="#009B3A" stroke="black" stroke-width="0.075"/>
<path d="M9.48638 5.57159C9.48511 5.57073 9.58372 5.36328 9.58372 5.36328L9.44531 5.54268L9.44591 5.59055L9.48638 5.57159Z" fill="#009B3A" stroke="black" stroke-width="0.075"/>
<path d="M9.66218 5.53127C9.59022 5.54765 9.4784 5.5686 9.41016 5.592C9.43926 5.51642 9.47408 5.39496 9.49561 5.32031C9.4865 5.38648 9.46803 5.47658 9.46803 5.53605C9.52318 5.54301 9.60325 5.53227 9.66218 5.53127Z" fill="#009B3A" stroke="black" stroke-width="0.075"/>
<path d="M9.46267 5.59174C9.4618 5.59048 9.62174 5.42871 9.62174 5.42871L9.43423 5.54944L9.41895 5.59525L9.46267 5.59174Z" fill="#009B3A" stroke="black" stroke-width="0.075"/>
<path d="M9.62978 5.5598C9.55855 5.56934 9.44799 5.57962 9.37988 5.59666C9.41297 5.5226 9.4545 5.4024 9.48015 5.32861C9.46719 5.39504 9.4436 5.48494 9.43988 5.54547C9.4933 5.55801 9.57218 5.55496 9.62978 5.5598Z" fill="#009B3A" stroke="black" stroke-width="0.075"/>
<path d="M9.43149 5.57558C9.43029 5.57459 9.53973 5.37158 9.53973 5.37158L9.39295 5.54323L9.39062 5.59183L9.43149 5.57558Z" fill="#009B3A" stroke="black" stroke-width="0.075"/>
<path d="M9.63933 5.53549C9.56185 5.56718 9.44079 5.61127 9.36816 5.65032C9.39195 5.55849 9.41707 5.4131 9.43261 5.32373C9.42982 5.40117 9.41933 5.50764 9.42584 5.57586C9.48743 5.57387 9.57448 5.54716 9.63933 5.53549Z" fill="#009B3A" stroke="black" stroke-width="0.075"/>
<path d="M9.4163 5.63742C9.41503 5.63629 9.5458 5.40332 9.5458 5.40332L9.37483 5.60142L9.37012 5.65671L9.4163 5.63742Z" fill="#009B3A" stroke="black" stroke-width="0.075"/>
<path d="M9.60927 5.56403C9.53332 5.59963 9.41451 5.65002 9.34375 5.69258C9.36342 5.60082 9.38196 5.45609 9.39352 5.36719C9.39418 5.44363 9.38847 5.54911 9.39797 5.61594C9.45936 5.61057 9.54508 5.57928 9.60927 5.56403Z" fill="#009B3A" stroke="black" stroke-width="0.075"/>
<path d="M9.38975 5.67283C9.38835 5.67204 9.48424 5.4209 9.48424 5.4209L9.34277 5.64591L9.34636 5.70048L9.38975 5.67283Z" fill="#009B3A" stroke="black" stroke-width="0.075"/>
<path d="M9.57637 5.58505C9.50063 5.62125 9.38202 5.67257 9.31152 5.71573C9.33059 5.62384 9.34827 5.47911 9.35923 5.39014C9.36043 5.46651 9.35531 5.57199 9.36528 5.63869C9.42661 5.63272 9.51219 5.60077 9.57637 5.58505Z" fill="#009B3A" stroke="black" stroke-width="0.075"/>
<path d="M9.3684 5.70263C9.36727 5.70144 9.51464 5.48047 9.51464 5.48047L9.33026 5.66226L9.32129 5.71735L9.3684 5.70263Z" fill="#009B3A" stroke="black" stroke-width="0.075"/>
<path d="M9.56883 5.5735C9.50125 5.62733 9.39441 5.70642 9.33354 5.7655C9.33348 5.67275 9.32098 5.52981 9.31348 5.44189C9.33042 5.51469 9.34723 5.61692 9.37089 5.67818C9.43042 5.65703 9.50856 5.60486 9.56883 5.5735Z" fill="#009B3A" stroke="black" stroke-width="0.075"/>
<path d="M9.37575 5.71345C9.37416 5.71325 9.3927 5.44727 9.3927 5.44727L9.32227 5.70609L9.34193 5.75482L9.37575 5.71345Z" fill="#009B3A" stroke="black" stroke-width="0.075"/>
<path d="M9.54967 5.59833C9.4819 5.65176 9.37479 5.73033 9.31366 5.78913C9.31393 5.69632 9.3021 5.55324 9.29492 5.46533C9.3116 5.53826 9.32795 5.64056 9.35133 5.70202C9.41094 5.68113 9.48927 5.62929 9.54967 5.59833Z" fill="#009B3A" stroke="black" stroke-width="0.075"/>
<path d="M9.35843 5.75862C9.3569 5.75796 9.42653 5.49854 9.42653 5.49854L9.30859 5.73774L9.3179 5.79118L9.35843 5.75862Z" fill="#009B3A" stroke="black" stroke-width="0.075"/>
<path d="M9.54252 5.60441C9.47854 5.66733 9.37661 5.76068 9.32 5.8283C9.30996 5.7331 9.28179 5.58784 9.26465 5.49854C9.28996 5.57126 9.31827 5.67429 9.3493 5.73443C9.40844 5.70592 9.48359 5.64346 9.54252 5.60441Z" fill="#009B3A" stroke="black" stroke-width="0.075"/>
<path d="M9.35906 5.7918C9.3574 5.7916 9.37182 5.51514 9.37182 5.51514L9.30371 5.78391L9.32484 5.83463L9.35906 5.7918Z" fill="#009B3A" stroke="black" stroke-width="0.075"/>
<path d="M9.52224 5.65057C9.45373 5.70712 9.34523 5.79019 9.2837 5.85218C9.28157 5.75578 9.26556 5.60734 9.25586 5.51611C9.27493 5.59163 9.29453 5.69764 9.32031 5.76115C9.38124 5.73861 9.46071 5.68365 9.52224 5.65057Z" fill="#009B3A" stroke="black" stroke-width="0.075"/>
<path d="M9.33919 5.82321C9.33773 5.82235 9.43573 5.56299 9.43573 5.56299L9.29102 5.79351L9.2948 5.85059L9.33919 5.82321Z" fill="#009B3A" stroke="black" stroke-width="0.075"/>
<path d="M9.52036 5.65146C9.45969 5.71544 9.36322 5.81045 9.30959 5.87913C9.30003 5.78267 9.27318 5.63542 9.25684 5.54492C9.28089 5.61865 9.3078 5.72293 9.33724 5.78386C9.39331 5.75482 9.46454 5.69124 9.52036 5.65146Z" fill="#009B3A" stroke="black" stroke-width="0.075"/>
<path d="M9.34221 5.83659C9.34049 5.83659 9.33078 5.56152 9.33078 5.56152L9.28613 5.83553L9.31171 5.88314L9.34221 5.83659Z" fill="#009B3A" stroke="black" stroke-width="0.075"/>
<path d="M9.49092 5.67187C9.43225 5.73644 9.33863 5.83231 9.28713 5.90153C9.27471 5.805 9.24361 5.65788 9.22461 5.56738C9.25079 5.64097 9.28076 5.74519 9.31192 5.80592C9.36714 5.77636 9.43637 5.71211 9.49092 5.67187Z" fill="#009B3A" stroke="black" stroke-width="0.075"/>
<path d="M9.32675 5.86392C9.32522 5.86346 9.35752 5.58447 9.35752 5.58447L9.27539 5.8488L9.29174 5.9031L9.32675 5.86392Z" fill="#009B3A" stroke="black" stroke-width="0.075"/>
<path d="M9.47883 5.68301C9.42521 5.75296 9.33903 5.85738 9.29292 5.9313C9.27318 5.83649 9.23093 5.69316 9.20508 5.60498C9.23677 5.67559 9.27465 5.77636 9.31039 5.83378C9.36322 5.79904 9.4274 5.72836 9.47883 5.68301Z" fill="#009B3A" stroke="black" stroke-width="0.075"/>
<path d="M9.32548 5.89013C9.32389 5.89006 9.30774 5.61035 9.30774 5.61035L9.27246 5.88794L9.29791 5.93687L9.32548 5.89013Z" fill="#009B3A" stroke="black" stroke-width="0.075"/>
<path d="M9.47327 5.69901C9.42291 5.77227 9.34171 5.88193 9.29912 5.9587C9.27447 5.86429 9.22477 5.72215 9.19434 5.63477C9.22982 5.70425 9.27287 5.80369 9.31174 5.85965C9.36304 5.82186 9.4239 5.74734 9.47327 5.69901Z" fill="#009B3A" stroke="black" stroke-width="0.075"/>
<path d="M9.34375 5.91629C9.34223 5.91576 9.37226 5.63525 9.37226 5.63525L9.29199 5.89945L9.30894 5.95475L9.34375 5.91629Z" fill="#009B3A" stroke="black" stroke-width="0.075"/>
<path d="M9.46254 5.7249C9.41916 5.80466 9.34833 5.92499 9.31298 6.00727C9.28002 5.91683 9.21783 5.78245 9.17969 5.69971C9.22115 5.76388 9.27298 5.85677 9.31656 5.90696C9.36407 5.86234 9.41783 5.77986 9.46254 5.7249Z" fill="#009B3A" stroke="black" stroke-width="0.075"/>
<path d="M9.33362 5.93937C9.33203 5.93983 9.25488 5.67285 9.25488 5.67285L9.28153 5.95376L9.31701 5.9934L9.33362 5.93937Z" fill="#009B3A" stroke="black" stroke-width="0.075"/>
<path d="M9.46133 5.75608C9.41608 5.83564 9.34246 5.95558 9.30545 6.03759C9.27229 5.94742 9.20944 5.81343 9.1709 5.73096C9.21302 5.79487 9.26552 5.88755 9.3099 5.93761C9.35914 5.89306 9.41502 5.81085 9.46133 5.75608Z" fill="#009B3A" stroke="black" stroke-width="0.075"/>
<path d="M9.33718 5.98972C9.33552 5.98972 9.30827 5.70947 9.30827 5.70947L9.28223 5.98978L9.31033 6.03778L9.33718 5.98972Z" fill="#009B3A" stroke="black" stroke-width="0.075"/>
<path d="M9.46575 5.78042C9.41924 5.85892 9.34362 5.97713 9.30535 6.05828C9.27365 5.96739 9.21299 5.83187 9.17578 5.74854C9.21684 5.81344 9.26781 5.90732 9.3114 5.95844C9.36136 5.91501 9.41857 5.83413 9.46575 5.78042Z" fill="#009B3A" stroke="black" stroke-width="0.075"/>
<path d="M9.33392 6.01202C9.33225 6.01222 9.28182 5.73682 9.28182 5.73682L9.2793 6.01865L9.31126 6.063L9.33392 6.01202Z" fill="#009B3A" stroke="black" stroke-width="0.075"/>
<path d="M9.44604 5.81998C9.39588 5.89509 9.31481 6.00793 9.27269 6.08636C9.24538 5.99335 9.19129 5.85386 9.1582 5.76807C9.19608 5.83576 9.24252 5.93302 9.28359 5.98705C9.33541 5.9472 9.39634 5.87037 9.44604 5.81998Z" fill="#009B3A" stroke="black" stroke-width="0.075"/>
<path d="M9.31032 6.04253C9.30866 6.04214 9.33365 5.76123 9.33365 5.76123L9.25684 6.02795L9.27544 6.08231L9.31032 6.04253Z" fill="#009B3A" stroke="black" stroke-width="0.075"/>
<path d="M9.4493 5.82725C9.40644 5.90866 9.33628 6.03158 9.30166 6.11512C9.26584 6.02641 9.19913 5.8952 9.1582 5.81445C9.20219 5.87657 9.25734 5.96694 9.30319 6.01507C9.35109 5.96846 9.40458 5.88393 9.4493 5.82725Z" fill="#009B3A" stroke="black" stroke-width="0.075"/>
<path d="M9.30038 6.06585C9.29878 6.06639 9.21387 5.80371 9.21387 5.80371L9.24716 6.0825L9.28443 6.12042L9.30038 6.06585Z" fill="#009B3A" stroke="black" stroke-width="0.075"/>
<path d="M9.43688 5.84814C9.40691 5.93745 9.35641 6.07356 9.33495 6.16319C9.28638 6.08384 9.20086 5.96947 9.14844 5.89906C9.20106 5.95051 9.26904 6.02722 9.32139 6.06454C9.36146 6.00826 9.40139 5.91351 9.43688 5.84814Z" fill="#009B3A" stroke="black" stroke-width="0.075"/>
<path d="M9.37787 6.08767C9.37627 6.08826 9.28418 5.8291 9.28418 5.8291L9.32511 6.10636L9.36345 6.14283L9.37787 6.08767Z" fill="#009B3A" stroke="black" stroke-width="0.075"/>
<path d="M9.43648 5.87549C9.40717 5.96506 9.35767 6.10176 9.33688 6.19153C9.28771 6.1127 9.20139 5.9992 9.14844 5.92939C9.20146 5.98031 9.2699 6.05628 9.32259 6.09308C9.36232 6.03639 9.40153 5.94126 9.43648 5.87549Z" fill="#009B3A" stroke="black" stroke-width="0.075"/>
<path d="M9.37834 6.13144C9.37682 6.13223 9.25781 5.88965 9.25781 5.88965L9.32798 6.15816L9.36984 6.18839L9.37834 6.13144Z" fill="#009B3A" stroke="black" stroke-width="0.075"/>
<path d="M9.427 5.89795C9.40826 5.99097 9.3749 6.13351 9.3646 6.2256C9.30673 6.15446 9.20806 6.05435 9.14746 5.99262C9.20593 6.03552 9.28261 6.10109 9.33909 6.12999C9.37191 6.06807 9.39989 5.96816 9.427 5.89795Z" fill="#009B3A" stroke="black" stroke-width="0.075"/>
<path d="M9.38627 6.1696C9.38461 6.16993 9.32129 5.89844 9.32129 5.89844L9.33199 6.17994L9.36601 6.22204L9.38627 6.1696Z" fill="#009B3A" stroke="black" stroke-width="0.075"/>
<path d="M9.42768 5.92676C9.41778 6.0219 9.39798 6.16822 9.39632 6.26123C9.33227 6.19825 9.22503 6.1118 9.15918 6.05856C9.22117 6.09337 9.30337 6.14833 9.3621 6.16948C9.38895 6.10351 9.40735 6.00028 9.42768 5.92676Z" fill="#009B3A" stroke="black" stroke-width="0.075"/>
<path d="M9.3896 6.18943C9.38834 6.19069 9.21777 5.99365 9.21777 5.99365L9.34727 6.23074L9.39458 6.24685L9.3896 6.18943Z" fill="#009B3A" stroke="black" stroke-width="0.075"/>
<path d="M9.43115 5.96045C9.42085 6.05552 9.40045 6.20178 9.39845 6.29473C9.33467 6.23134 9.22776 6.14436 9.16211 6.09066C9.22397 6.1258 9.30596 6.18122 9.36463 6.20277C9.39168 6.137 9.41048 6.03391 9.43115 5.96045Z" fill="#009B3A" stroke="black" stroke-width="0.075"/>
<path d="M9.4093 6.23498C9.40784 6.23584 9.27734 5.99902 9.27734 5.99902L9.36027 6.26388L9.40359 6.29213L9.4093 6.23498Z" fill="#009B3A" stroke="black" stroke-width="0.075"/>
<path d="M9.43877 5.99951C9.43252 6.09511 9.41824 6.24256 9.42023 6.33558C9.35392 6.27611 9.24356 6.19562 9.17578 6.14596C9.23897 6.17739 9.32316 6.22778 9.38256 6.24574C9.40681 6.17832 9.42123 6.0741 9.43877 5.99951Z" fill="#009B3A" stroke="black" stroke-width="0.075"/>
<path d="M9.42575 6.27803C9.42442 6.27922 9.2627 6.07178 9.2627 6.07178L9.38157 6.31662L9.42814 6.33571L9.42575 6.27803Z" fill="#009B3A" stroke="black" stroke-width="0.075"/>
<path d="M9.44084 6.04346C9.43512 6.13913 9.42177 6.28671 9.42429 6.37972C9.35765 6.32085 9.24675 6.24123 9.17871 6.19223C9.2421 6.22306 9.32655 6.27278 9.38609 6.29022C9.40994 6.2226 9.42376 6.11831 9.44084 6.04346Z" fill="#009B3A" stroke="black" stroke-width="0.075"/>
<path d="M9.44052 6.31314C9.439 6.31387 9.32617 6.06445 9.32617 6.06445L9.38943 6.33674L9.43056 6.36943L9.44052 6.31314Z" fill="#009B3A" stroke="black" stroke-width="0.075"/>
<path d="M9.4454 6.07178C9.44865 6.16778 9.44919 6.31642 9.46028 6.40871C9.38865 6.35905 9.27131 6.29474 9.19922 6.25503C9.265 6.27724 9.35337 6.31536 9.41404 6.32471C9.43144 6.25416 9.43543 6.14848 9.4454 6.07178Z" fill="#009B3A" stroke="black" stroke-width="0.075"/>
<path d="M9.45981 6.30332C9.45882 6.30491 9.25098 6.16064 9.25098 6.16064L9.42799 6.3553L9.47716 6.35782L9.45981 6.30332Z" fill="#009B3A" stroke="black" stroke-width="0.075"/>
<path d="M9.45179 6.08203C9.46009 6.17763 9.4684 6.32574 9.48435 6.4173C9.40999 6.3705 9.28913 6.31083 9.21484 6.27397C9.28189 6.29359 9.37239 6.32826 9.43365 6.33529C9.4474 6.26442 9.44581 6.15894 9.45179 6.08203Z" fill="#009B3A" stroke="black" stroke-width="0.075"/>
<path d="M9.48255 6.3563C9.48128 6.35749 9.30859 6.15674 9.30859 6.15674L9.44035 6.39634L9.488 6.41364L9.48255 6.3563Z" fill="#009B3A" stroke="black" stroke-width="0.075"/>
<path d="M9.46716 6.11865C9.47946 6.21386 9.49407 6.36164 9.51388 6.45233C9.4378 6.40997 9.31481 6.35746 9.23926 6.32504C9.3069 6.34069 9.39853 6.36992 9.45986 6.3733C9.47049 6.3015 9.46451 6.19602 9.46716 6.11865Z" fill="#009B3A" stroke="black" stroke-width="0.075"/>
<path d="M9.51779 6.39026C9.51679 6.39179 9.31055 6.24414 9.31055 6.24414L9.48536 6.44164L9.53453 6.44502L9.51779 6.39026Z" fill="#009B3A" stroke="black" stroke-width="0.075"/>
<path d="M9.47337 6.15918C9.49197 6.25326 9.51622 6.39971 9.54194 6.48855C9.4636 6.45335 9.33795 6.41244 9.26074 6.38718C9.32891 6.39639 9.42194 6.41701 9.48307 6.41463C9.48885 6.34177 9.47583 6.23682 9.47337 6.15918Z" fill="#009B3A" stroke="black" stroke-width="0.075"/>
<path d="M9.54057 6.41905C9.53931 6.42024 9.36914 6.21631 9.36914 6.21631L9.49778 6.45823L9.54522 6.47646L9.54057 6.41905Z" fill="#009B3A" stroke="black" stroke-width="0.075"/>
<path d="M9.48467 6.18506C9.51185 6.27655 9.54965 6.41962 9.58341 6.50495C9.50261 6.48022 9.37457 6.45615 9.2959 6.44124C9.3642 6.44137 9.45802 6.44959 9.51829 6.43898C9.51709 6.36539 9.49437 6.26223 9.48467 6.18506Z" fill="#009B3A" stroke="black" stroke-width="0.075"/>
<path d="M9.55002 6.41935C9.54962 6.4212 9.31055 6.36816 9.31055 6.36816L9.53825 6.48114L9.58423 6.4639L9.55002 6.41935Z" fill="#009B3A" stroke="black" stroke-width="0.075"/>
<path d="M9.50038 6.21338C9.52723 6.305 9.56443 6.44827 9.59786 6.53373C9.51719 6.50854 9.38915 6.48381 9.31055 6.46836C9.37885 6.46889 9.47274 6.47758 9.53294 6.46737C9.53214 6.39384 9.50982 6.29055 9.50038 6.21338Z" fill="#009B3A" stroke="black" stroke-width="0.075"/>
<path d="M9.58848 6.44486C9.58775 6.44652 9.35938 6.33447 9.35938 6.33447L9.56482 6.50068L9.61406 6.49611L9.58848 6.44486Z" fill="#009B3A" stroke="black" stroke-width="0.075"/>
<path d="M9.48852 6.22998C9.53403 6.31345 9.60054 6.44505 9.65118 6.5211C9.56726 6.51473 9.43729 6.51937 9.35742 6.52209C9.42407 6.50717 9.51736 6.49451 9.5739 6.47091C9.55755 6.39917 9.51397 6.30331 9.48852 6.22998Z" fill="#009B3A" stroke="black" stroke-width="0.075"/>
<path d="M9.62479 6.46993C9.62433 6.47179 9.38672 6.4043 9.38672 6.4043L9.61011 6.53053L9.65708 6.51621L9.62479 6.46993Z" fill="#009B3A" stroke="black" stroke-width="0.075"/>
<path d="M9.51296 6.26514C9.55894 6.34827 9.62625 6.47948 9.67734 6.55506C9.59342 6.54936 9.46359 6.55513 9.38379 6.55851C9.4503 6.54306 9.54346 6.52953 9.5998 6.50547C9.58299 6.43393 9.53887 6.33833 9.51296 6.26514Z" fill="#009B3A" stroke="black" stroke-width="0.075"/>
<path d="M9.65539 6.48933C9.65452 6.49092 9.43359 6.35693 9.43359 6.35693L9.62741 6.54197L9.67725 6.5425L9.65539 6.48933Z" fill="#009B3A" stroke="black" stroke-width="0.075"/>
<path d="M9.53193 6.28613C9.58522 6.3637 9.66403 6.48682 9.72157 6.55623C9.63858 6.5614 9.51167 6.58408 9.43359 6.59787C9.49745 6.57367 9.58761 6.54801 9.64064 6.51645C9.61712 6.44664 9.56449 6.35634 9.53193 6.28613Z" fill="#009B3A" stroke="black" stroke-width="0.075"/>
<path d="M9.67111 6.50848C9.67104 6.5104 9.43164 6.50284 9.43164 6.50284L9.66852 6.57272L9.71064 6.5466L9.67111 6.50848ZM9.80991 5.35097C9.80991 5.35024 9.98214 5.32227 9.98214 5.32227L9.81078 5.32624L9.78088 5.34156L9.80991 5.35097Z" fill="#009B3A" stroke="black" stroke-width="0.075"/>
<path d="M9.90435 5.38785C9.85438 5.3728 9.77883 5.34754 9.72754 5.3364C9.78209 5.31479 9.86275 5.27647 9.91239 5.25293C9.87418 5.2768 9.81863 5.30743 9.789 5.33136C9.81764 5.35072 9.8696 5.37048 9.90435 5.38785Z" fill="#009B3A" stroke="black" stroke-width="0.075"/>
<path d="M9.8026 5.3572C9.8024 5.35647 9.96925 5.31152 9.96925 5.31152L9.79655 5.33347L9.77051 5.3513L9.8026 5.3572Z" fill="#009B3A" stroke="black" stroke-width="0.075"/>
<path d="M9.91261 5.39991C9.85421 5.3944 9.76464 5.38326 9.70703 5.38267C9.75042 5.34428 9.81128 5.2801 9.84883 5.24072C9.82304 5.27772 9.78344 5.32691 9.7663 5.36192C9.80544 5.37763 9.86829 5.3881 9.91261 5.39991Z" fill="#009B3A" stroke="black" stroke-width="0.075"/>
<path d="M9.74098 5.36861C9.79868 5.36176 9.85642 5.35526 9.9142 5.34912L9.74543 5.34375L9.71387 5.35761L9.74098 5.36861Z" fill="#009B3A" stroke="black" stroke-width="0.075"/>
<path d="M9.86915 5.40632C9.81606 5.39617 9.73533 5.37854 9.68164 5.37224C9.73267 5.34725 9.80709 5.30422 9.85287 5.27783C9.81872 5.30356 9.76822 5.33724 9.7427 5.36236C9.77506 5.37834 9.83094 5.39279 9.86915 5.40632Z" fill="#009B3A" stroke="black" stroke-width="0.075"/>
<path d="M9.72589 5.36726C9.72543 5.3666 9.87838 5.30176 9.87838 5.30176L9.71141 5.34578L9.69141 5.36607L9.72589 5.36726Z" fill="#009B3A" stroke="black" stroke-width="0.075"/>
<path d="M9.86362 5.42584C9.81944 5.40761 9.75173 5.37678 9.70801 5.36392C9.74189 5.33249 9.7896 5.2774 9.81897 5.24365C9.79851 5.2774 9.76728 5.32102 9.75352 5.35457C9.78276 5.3795 9.83027 5.40396 9.86362 5.42584Z" fill="#009B3A" stroke="black" stroke-width="0.075"/>
<path d="M9.73379 5.37846C9.73346 5.37747 9.85239 5.32715 9.85239 5.32715L9.72322 5.34485L9.70734 5.36779L9.73379 5.37846ZM9.63452 6.48671C9.63459 6.48863 9.38867 6.48856 9.38867 6.48856L9.63758 6.54929L9.67844 6.52257L9.63452 6.48671Z" fill="#009B3A" stroke="black" stroke-width="0.075"/>
<path d="M9.67939 6.50277C9.67906 6.50456 9.42969 6.44482 9.42969 6.44482L9.66942 6.56211L9.7164 6.54699L9.67939 6.50277Z" fill="#009B3A" stroke="black" stroke-width="0.075"/>
<path d="M9.72056 6.5193C9.72056 6.52116 9.47266 6.50684 9.47266 6.50684L9.72056 6.58136L9.76309 6.55729L9.72056 6.5193Z" fill="#009B3A" stroke="black" stroke-width="0.075"/>
<path d="M9.56287 6.34473C9.62739 6.41567 9.724 6.52864 9.79164 6.59116C9.70838 6.60369 9.583 6.6373 9.50586 6.65779C9.56719 6.62842 9.65496 6.59527 9.70433 6.55967C9.67104 6.49363 9.60539 6.41023 9.56287 6.34473Z" fill="#009B3A" stroke="black" stroke-width="0.075"/>
<path d="M9.75461 6.53206C9.75415 6.53378 9.50684 6.45117 9.50684 6.45117L9.73966 6.58934L9.78843 6.57906L9.75461 6.53206Z" fill="#009B3A" stroke="black" stroke-width="0.075"/>
<path d="M9.58607 6.36084C9.65637 6.42482 9.76235 6.52745 9.83484 6.58254C9.75504 6.60548 9.63643 6.65487 9.56348 6.6851C9.62009 6.64785 9.70208 6.60343 9.74647 6.56133C9.70713 6.49854 9.63444 6.4221 9.58607 6.36084Z" fill="#009B3A" stroke="black" stroke-width="0.075"/>
<path d="M9.77421 6.54736C9.77461 6.54929 9.53906 6.59351 9.53906 6.59351L9.78684 6.61035L9.82179 6.57587L9.77421 6.54736Z" fill="#009B3A" stroke="black" stroke-width="0.075"/>
<path d="M9.72572 6.53271C9.72598 6.53457 9.48047 6.55148 9.48047 6.55148L9.73349 6.59484L9.77223 6.5654L9.72572 6.53271Z" fill="#009B3A" stroke="black" stroke-width="0.075"/>
<path d="M9.77113 6.54546C9.77093 6.54725 9.51758 6.50488 9.51758 6.50488L9.76575 6.60526L9.81153 6.58703L9.77113 6.54546Z" fill="#009B3A" stroke="black" stroke-width="0.075"/>
<path d="M9.81283 6.55908C9.81296 6.56094 9.56445 6.56372 9.56445 6.56372L9.81748 6.62094L9.85807 6.59402L9.81283 6.55908Z" fill="#009B3A" stroke="black" stroke-width="0.075"/>
<path d="M9.64273 6.39551C9.71243 6.46174 9.81742 6.56775 9.88964 6.62543C9.80745 6.64366 9.68486 6.68576 9.60938 6.71149C9.66831 6.678 9.75343 6.63889 9.80007 6.60004C9.76187 6.53652 9.69011 6.45796 9.64273 6.39551Z" fill="#009B3A" stroke="black" stroke-width="0.075"/>
<path d="M9.84815 6.56895C9.84782 6.57067 9.59473 6.50537 9.59473 6.50537L9.83752 6.62703L9.88542 6.61344L9.84815 6.56895Z" fill="#009B3A" stroke="black" stroke-width="0.075"/>
<path d="M9.66699 6.41016C9.74194 6.4691 9.8555 6.5641 9.93198 6.61402C9.8541 6.6424 9.73942 6.69981 9.66885 6.73495C9.72254 6.69391 9.80108 6.64399 9.84214 6.59897C9.79816 6.53904 9.71988 6.46784 9.66699 6.41016Z" fill="#009B3A" stroke="black" stroke-width="0.075"/>
<path d="M9.8699 6.58301C9.87043 6.58486 9.63867 6.6452 9.63867 6.6452L9.88724 6.64493L9.91954 6.6082L9.8699 6.58301Z" fill="#009B3A" stroke="black" stroke-width="0.075"/>
<path d="M10.189 6.23599L10.0001 6.10578L9.81122 6.23599L9.88205 6.02762L9.7168 5.89734H9.92929L10.0001 5.68896L10.0709 5.89734H10.2834L10.1182 6.02762L10.189 6.23599Z" fill="#FEDF00" stroke="black" stroke-width="0.163"/>
<path d="M9.18587 6.58892L9.00853 6.69401L8.95431 6.60291C8.9443 6.58598 8.93805 6.57222 8.93557 6.56161C8.93314 6.55114 8.93431 6.54017 8.9389 6.53045C8.94402 6.51976 8.95236 6.51093 8.96275 6.50519C8.97151 6.4997 8.98158 6.49665 8.99192 6.49637C9.00156 6.49643 9.01104 6.49882 9.01956 6.50333C9.02514 6.50634 9.03128 6.51133 9.03797 6.51832C9.03649 6.5124 9.03585 6.50631 9.03604 6.50022C9.03631 6.49734 9.03768 6.49259 9.04016 6.48596C9.04268 6.47933 9.04483 6.4746 9.0466 6.47177L9.08229 6.41489L9.11903 6.47668L9.08222 6.53801C9.07735 6.54587 9.07475 6.55188 9.07444 6.55604C9.07403 6.56159 9.07538 6.56714 9.0783 6.57188L9.08116 6.57672L9.15312 6.53409L9.18587 6.58892ZM9.04773 6.59655L9.03398 6.57348C9.03069 6.56881 9.027 6.56444 9.02295 6.56041C9.02018 6.55726 9.01631 6.55527 9.01212 6.55485C9.00784 6.55438 9.00353 6.55531 8.99983 6.5575C8.99728 6.55883 8.99506 6.56071 8.99334 6.563C8.99161 6.56529 8.99043 6.56795 8.98986 6.57076C8.98897 6.57619 8.9915 6.58391 8.99743 6.5939L9.01172 6.6179L9.04773 6.59655ZM8.88076 6.45964L8.82687 6.29794L8.86866 6.28408L8.90242 6.38532L8.93352 6.37498L8.90222 6.2811L8.94215 6.26784L8.97345 6.36172L9.01199 6.34892L8.9773 6.24477L9.02162 6.23005L9.0765 6.39467L8.88076 6.45964ZM8.80999 6.21944L8.79797 6.11443C8.79531 6.09153 8.79879 6.07378 8.8084 6.06119C8.81797 6.04859 8.83283 6.04112 8.85298 6.03878C8.87363 6.03639 8.8905 6.04075 8.90361 6.05184C8.91668 6.06289 8.92468 6.08117 8.9276 6.10667L8.93159 6.14128L9.0076 6.13259L9.01491 6.19604L8.80999 6.21944ZM8.89006 6.14605L8.88827 6.1306C8.88685 6.1184 8.88375 6.11009 8.87896 6.10567C8.87674 6.10348 8.87403 6.10184 8.87105 6.10088C8.86807 6.09993 8.86491 6.09968 8.86182 6.10017C8.85572 6.10077 8.85011 6.10375 8.84621 6.10846C8.84222 6.11323 8.84091 6.12154 8.84229 6.13339L8.84434 6.15135L8.89006 6.14605ZM8.80348 5.83325L8.81033 5.77014L8.93258 5.78327C8.94472 5.78459 8.95597 5.78771 8.96634 5.79261C8.9767 5.79756 8.98548 5.80448 8.99265 5.81336C8.99987 5.82225 9.00461 5.83131 9.00687 5.84055C9.0101 5.85332 9.01079 5.8683 9.00893 5.8855C9.00787 5.89544 9.00598 5.90623 9.00328 5.91785C9.00062 5.92948 8.99679 5.93902 8.99179 5.94649C8.98645 5.95434 8.97964 5.96107 8.97172 5.96632C8.9642 5.97166 8.95565 5.97539 8.9466 5.97725C8.93501 5.9797 8.92312 5.98042 8.91132 5.97938L8.78906 5.96625L8.79591 5.90313L8.92109 5.91659C8.93225 5.91783 8.94133 5.91566 8.94833 5.91009C8.95197 5.90703 8.95493 5.90326 8.95703 5.899C8.95913 5.89475 8.96034 5.8901 8.96056 5.88536C8.96135 5.88072 8.96118 5.87597 8.96006 5.8714C8.95894 5.86683 8.95689 5.86253 8.95405 5.85878C8.94855 5.85197 8.94009 5.84793 8.92866 5.84665L8.80348 5.83325ZM8.83106 5.68236L8.87039 5.56998C8.87695 5.55129 8.88663 5.53854 8.89943 5.53173C8.90546 5.5284 8.91213 5.52641 8.919 5.5259C8.92587 5.52538 8.93277 5.52635 8.93923 5.52875C8.95016 5.53234 8.95937 5.53985 8.96508 5.54983C8.96908 5.55771 8.97104 5.56646 8.97079 5.57529C8.97903 5.56251 8.9884 5.55425 8.9989 5.55049C9.0101 5.54676 9.02225 5.54707 9.03325 5.55135C9.04275 5.55436 9.05124 5.5599 9.0578 5.56738C9.06436 5.57486 9.06874 5.58399 9.07046 5.59378C9.07157 5.59984 9.07103 5.60817 9.06886 5.61878C9.06711 5.62815 9.06484 5.63743 9.06209 5.64656L9.02581 5.75018L8.83106 5.68236ZM8.9286 5.64841L8.93777 5.62229C8.94105 5.61292 8.94171 5.60585 8.93976 5.60108C8.93781 5.5963 8.93378 5.59283 8.92767 5.59067C8.92522 5.58969 8.92259 5.58926 8.91996 5.58941C8.91733 5.58956 8.91477 5.59028 8.91245 5.59153C8.90802 5.59405 8.90419 5.59988 8.90096 5.60903L8.89172 5.63555L8.9286 5.64841ZM9.00508 5.67507L9.01577 5.6445C9.01941 5.63416 9.02014 5.62623 9.01797 5.6207C9.01685 5.61796 9.01514 5.61551 9.01296 5.61351C9.01077 5.61152 9.00817 5.61003 9.00534 5.60917C9.00273 5.60814 8.99992 5.60773 8.99713 5.60799C8.99434 5.60824 8.99164 5.60914 8.98926 5.61062C8.9843 5.61363 8.97998 5.62037 8.97631 5.63085L8.96561 5.66134L9.00508 5.67507ZM8.92866 5.43493L8.96155 5.3805L9.09464 5.46066L9.14601 5.37573L9.18946 5.40192L9.10514 5.54134L8.92866 5.43493ZM9.05318 5.24658L9.09405 5.19765L9.25245 5.32939L9.21159 5.37838L9.05318 5.24658ZM9.33033 5.14037L9.38368 5.11683C9.39103 5.13111 9.39509 5.14486 9.39584 5.15807C9.39659 5.17129 9.39416 5.1838 9.38853 5.1956C9.38132 5.2094 9.37132 5.22157 9.35916 5.23133C9.34215 5.24592 9.32614 5.25535 9.31112 5.25964C9.29606 5.26397 9.2793 5.26327 9.26082 5.25752C9.24226 5.25182 9.22466 5.23927 9.208 5.21986C9.18572 5.19401 9.17551 5.16826 9.17737 5.14262C9.17923 5.11699 9.19272 5.09336 9.21783 5.07175C9.23755 5.05487 9.25646 5.04556 9.27458 5.04384C9.29274 5.04212 9.31163 5.04713 9.33126 5.05889L9.29677 5.10497C9.29259 5.10209 9.28797 5.09992 9.28308 5.09854C9.27733 5.09709 9.27131 5.09709 9.26556 5.09854C9.25981 5.09999 9.25451 5.10283 9.25013 5.10682C9.24494 5.11088 9.24092 5.11625 9.2385 5.12236C9.23607 5.12848 9.23531 5.13513 9.23631 5.14163C9.2375 5.15197 9.24412 5.16413 9.25617 5.17809C9.2711 5.19538 9.28395 5.20499 9.29471 5.20693C9.30018 5.20787 9.30579 5.20751 9.31109 5.20587C9.31639 5.20424 9.32123 5.20137 9.32521 5.19752C9.33447 5.18956 9.33923 5.18099 9.33949 5.1718C9.33927 5.1607 9.3361 5.14986 9.33033 5.14037ZM9.55026 5.06148L9.48621 5.09555L9.49338 5.13023L9.43591 5.16079L9.40727 4.9428L9.4686 4.91018L9.63398 5.05538L9.57518 5.08667L9.55026 5.06148ZM9.5175 5.02846L9.46255 4.97389L9.47743 5.04981L9.5175 5.02846ZM9.71225 4.81763L9.80554 4.80152C9.82392 4.79834 9.83921 4.79827 9.85139 4.80132C9.86357 4.80437 9.87416 4.8099 9.88315 4.8179C9.89214 4.82594 9.89938 4.83586 9.90488 4.84766C9.91032 4.85946 9.91425 4.87226 9.91664 4.88605C9.9204 4.90771 9.92085 4.92494 9.91797 4.93776C9.91532 4.94992 9.91006 4.96137 9.90255 4.97131C9.89598 4.98034 9.88722 4.98757 9.8771 4.99233C9.8655 4.99784 9.85324 5.00187 9.84062 5.00433L9.74733 5.02037L9.71225 4.81763ZM9.78302 4.85277L9.80222 4.96355L9.81757 4.9609C9.83068 4.95865 9.83976 4.9556 9.84481 4.95175C9.8502 4.94732 9.85387 4.94116 9.85518 4.93431C9.85704 4.92654 9.85657 4.91454 9.85378 4.89831C9.85006 4.87683 9.84401 4.86273 9.83564 4.85602C9.82722 4.8493 9.81489 4.84735 9.79863 4.85018L9.78302 4.85277ZM9.97704 4.78223L10.1477 4.78952L10.1458 4.83341L10.039 4.82883L10.0376 4.86152L10.1366 4.86576L10.1348 4.90773L10.0358 4.90349L10.034 4.94399L10.1439 4.9487L10.142 4.99524L9.96827 4.98782L9.97704 4.78223ZM10.2254 4.80178L10.2873 4.8169L10.2504 4.96753L10.347 4.99113L10.3349 5.04033L10.1764 5.00161L10.2254 4.80178ZM10.5562 4.91124L10.6474 4.96501C10.6672 4.97672 10.6793 4.9902 10.6837 5.00545C10.688 5.0207 10.685 5.03703 10.6746 5.05445C10.6641 5.07235 10.6504 5.08315 10.6336 5.08687C10.6169 5.09058 10.5975 5.08592 10.5754 5.07288L10.5453 5.05518L10.5064 5.12088L10.4513 5.08839L10.5562 4.91124ZM10.5666 5.01924L10.58 5.0272C10.5906 5.03343 10.5991 5.03597 10.6055 5.03482C10.6086 5.03434 10.6115 5.03316 10.6141 5.03138C10.6167 5.0296 10.6188 5.02726 10.6203 5.02455C10.6235 5.01933 10.6245 5.01306 10.6231 5.00711C10.6217 5.00106 10.6159 4.995 10.6055 4.98895L10.5899 4.97973L10.5666 5.01924ZM10.7453 5.25904L10.6922 5.20972L10.6617 5.22782L10.614 5.18353L10.8112 5.08554L10.8621 5.13281L10.7784 5.33615L10.7296 5.2908L10.7453 5.25904ZM10.7659 5.21741L10.7997 5.14773L10.7326 5.18651L10.7659 5.21741ZM10.7907 5.35438L10.9608 5.23796L11.0208 5.32534C11.032 5.34156 11.0391 5.35491 11.0422 5.36539C11.0453 5.37566 11.0449 5.38669 11.041 5.39668C11.0366 5.40768 11.0288 5.41703 11.0188 5.4234C11.0105 5.42947 11.0006 5.43316 10.9903 5.43407C10.9806 5.43474 10.971 5.43296 10.9622 5.4289C10.9551 5.4253 10.9486 5.42065 10.9428 5.41511C10.9447 5.42093 10.9457 5.42697 10.9459 5.43308C10.9454 5.43802 10.9444 5.44289 10.9428 5.4476C10.9408 5.4544 10.9389 5.45927 10.9372 5.46218L10.9053 5.52125L10.8646 5.46198L10.8973 5.3984C10.9008 5.39278 10.903 5.38647 10.9039 5.37991C10.9039 5.37435 10.9022 5.36892 10.899 5.36439L10.8958 5.35975L10.8267 5.40702L10.7907 5.35438ZM10.9281 5.33774L10.9433 5.35982C10.9469 5.36426 10.9508 5.36837 10.9552 5.37208C10.9583 5.37509 10.962 5.3767 10.9663 5.37692C10.9707 5.37712 10.9749 5.37591 10.9785 5.37348C10.984 5.36972 10.987 5.3651 10.9875 5.35962C10.9881 5.35414 10.9851 5.3466 10.9785 5.33701L10.9627 5.31401L10.9281 5.33774ZM10.992 5.64583L10.9651 5.57854L10.9297 5.58185L10.9056 5.52152L11.1259 5.51708L11.1517 5.58145L10.9889 5.72956L10.9641 5.66777L10.992 5.64583ZM11.0285 5.61699L11.0889 5.56846L11.0116 5.57489L11.0285 5.61699ZM11.082 5.84167L11.1245 5.83531L11.139 5.9325L11.0521 5.9455C11.0389 5.93199 11.0277 5.91668 11.0188 5.90002C11.0114 5.88422 11.0066 5.86741 11.0043 5.85016C11.0006 5.82598 11.0018 5.80567 11.0078 5.78923C11.0139 5.7727 11.0249 5.75842 11.0394 5.74833C11.0555 5.7371 11.0742 5.72991 11.0937 5.72738C11.116 5.72406 11.136 5.72574 11.1538 5.73241C11.1806 5.74243 11.1862 5.75065 11.1974 5.76709C11.206 5.77991 11.2121 5.79796 11.2156 5.82125C11.2189 5.84375 11.2194 5.86088 11.217 5.87264C11.2149 5.88396 11.2097 5.89451 11.2022 5.90327C11.1948 5.91188 11.1847 5.91902 11.1721 5.92468L11.1521 5.86567C11.159 5.8625 11.1645 5.8571 11.1679 5.85036C11.1712 5.84291 11.1721 5.83463 11.1706 5.82662C11.1699 5.82036 11.1678 5.81434 11.1645 5.809C11.1611 5.80366 11.1566 5.79915 11.1513 5.7958C11.1404 5.78903 11.1246 5.7872 11.1039 5.79029C11.0818 5.79361 11.0667 5.80011 11.0584 5.80978C11.0461 5.8243 11.0472 5.83173 11.0494 5.84658C11.0505 5.85361 11.0525 5.86017 11.0555 5.86627C11.06 5.87542 11.0631 5.87913 11.0693 5.88662L11.0885 5.88377L11.082 5.84167ZM11.2168 6.14048L11.2112 6.20366L11.0887 6.19279C11.077 6.19189 11.0655 6.18893 11.0548 6.18404C11.0445 6.17944 11.0353 6.17249 11.0281 6.16375C11.0214 6.15592 11.0163 6.14675 11.0134 6.13683C11.0098 6.12213 11.0089 6.10692 11.0105 6.09188C11.0113 6.0819 11.013 6.07107 11.0154 6.0594C11.0173 6.0492 11.021 6.03944 11.0264 6.03056C11.0316 6.02263 11.0383 6.01578 11.0461 6.0104C11.0535 6.00492 11.0619 6.00104 11.0709 5.999C11.0843 5.99622 11.0961 5.99529 11.1062 5.99622L11.2287 6.00709L11.223 6.07027L11.0976 6.05913C11.0929 6.05842 11.088 6.05867 11.0834 6.05987C11.0787 6.06106 11.0743 6.06318 11.0705 6.06609C11.067 6.06924 11.0641 6.07308 11.0621 6.07736C11.0601 6.08164 11.0589 6.08629 11.0588 6.09102C11.0581 6.09568 11.0583 6.10043 11.0595 6.10498C11.0608 6.10953 11.0629 6.11378 11.0658 6.11748C11.0715 6.12424 11.08 6.12813 11.0914 6.12914L11.2168 6.14048ZM10.9889 6.35834L11.0115 6.28952L10.9823 6.26943L11.0026 6.20771L11.1743 6.34548L11.1526 6.41138L10.9325 6.42059L10.9532 6.35741L10.9889 6.35834ZM11.0354 6.35953L11.113 6.36106L11.0496 6.3165L11.0354 6.35953ZM11.1093 6.5266L11.0729 6.58713L10.9917 6.58707L11.0301 6.6584L10.9939 6.7186L10.9323 6.58846L10.8582 6.54417L10.8911 6.48954L10.9651 6.53383L11.1093 6.5266Z" fill="black"/>
<path fill-rule="evenodd" clip-rule="evenodd" d="M11.2563 5.99999C11.2563 6.69241 10.6938 7.25383 9.99984 7.2539C9.30589 7.25396 8.74323 6.69268 8.74316 6.00026V5.99999C8.7431 5.30757 9.30562 4.74616 9.99958 4.74609C10.6935 4.74603 11.2562 5.30731 11.2563 5.99973V5.99999Z" stroke="black" stroke-width="0.503" stroke-linecap="round"/>
<path fill-rule="evenodd" clip-rule="evenodd" d="M10.9622 6.00001C10.9622 6.5304 10.5313 6.96048 9.9997 6.96055C9.46807 6.96061 9.03718 6.53067 9.03711 6.00021V6.00001C9.03704 5.46963 9.46794 5.03962 9.99957 5.03955C10.5312 5.03948 10.9621 5.46943 10.9622 5.99982V6.00001Z" stroke="black" stroke-width="0.602" stroke-linecap="round"/>
</svg>
