<svg width="20" height="13" viewBox="0 0 20 13" fill="none" xmlns="http://www.w3.org/2000/svg">
<path d="M0.0332031 0.0322266H19.9668V12.9676H0.0332031V0.0322266Z" fill="white"/>
<path d="M7.41599 1.46924H19.9668V2.90648H7.41599V1.46924ZM7.41599 4.34373H19.9668V5.78097H7.41599V4.34373ZM0.0332031 7.21828H19.9668V8.65552H0.0332031V7.21828ZM0.0332031 10.0928H19.9668V11.53H0.0332031V10.0928Z" fill="#0038A8"/>
<path d="M3.55762 4.32812L3.80201 4.68333C2.79776 5.39076 3.41091 5.80909 2.69922 6.03552C3.14188 5.61506 2.62952 5.57962 3.00247 4.70325" fill="#FCD116"/>
<path d="M3.55762 4.32812L3.80201 4.68333C2.79776 5.39076 3.41091 5.80909 2.69922 6.03552C3.14188 5.61506 2.62952 5.57962 3.00247 4.70325" stroke="black" stroke-width="0.2" stroke-linecap="square"/>
<path d="M3.38294 4.42871C2.82885 5.31763 3.19224 5.80639 2.69922 6.03541" stroke="black" stroke-width="0.2"/>
<path d="M3.72455 3.62549H4.21179L3.72455 6.23409L3.2373 3.62549H3.72455V6.23409Z" fill="#FCD116"/>
<path d="M3.72455 3.62549H4.21179L3.72455 6.23409M3.72455 3.62549H3.2373L3.72455 6.23409M3.72455 3.62549V6.23409" stroke="black" stroke-width="0.2"/>
<path d="M3.09633 4.00707L3.01108 4.42644C1.7871 4.23545 1.91673 4.95323 1.24902 4.6235C1.8675 4.63088 1.53095 4.25317 2.43128 3.89014" fill="#FCD116"/>
<path d="M3.09633 4.00707L3.01108 4.42644C1.7871 4.23545 1.91673 4.95323 1.24902 4.6235C1.8675 4.63088 1.53095 4.25317 2.43128 3.89014" stroke="black" stroke-width="0.2" stroke-linecap="square"/>
<path d="M2.89965 3.95801C1.86211 4.2052 1.76404 4.80094 1.24902 4.62353" stroke="black" stroke-width="0.2"/>
<path d="M3.72509 3.62539L4.06968 3.9608L1.83014 5.46996L3.38064 3.29004L3.72509 3.62539L1.83008 5.46996Z" fill="#FCD116"/>
<path d="M3.72509 3.62539L4.06968 3.9608L1.83014 5.46996L3.38064 3.29004L3.72509 3.62539ZM3.72509 3.62539L1.83008 5.46996" stroke="black" stroke-width="0.2"/>
<path d="M3.00311 3.46251L2.63819 3.70039C1.91142 2.72287 1.48165 3.31964 1.24902 2.62695C1.68098 3.05776 1.7174 2.55911 2.61773 2.92214" fill="#FCD116"/>
<path d="M3.00311 3.46251L2.63819 3.70039C1.91142 2.72287 1.48165 3.31964 1.24902 2.62695C1.68098 3.05776 1.7174 2.55911 2.61773 2.92214" stroke="black" stroke-width="0.2" stroke-linecap="square"/>
<path d="M2.89965 3.29248C1.98643 2.75314 1.48431 3.10685 1.24902 2.62695" stroke="black" stroke-width="0.2"/>
<path d="M3.72486 3.62515V4.09943L1.04492 3.62515L3.72486 3.15088V3.62515H1.04492Z" fill="#FCD116"/>
<path d="M3.72486 3.62515V4.09943L1.04492 3.62515M3.72486 3.62515V3.15088L1.04492 3.62515M3.72486 3.62515H1.04492" stroke="black" stroke-width="0.2"/>
<path d="M3.33208 3.01347L2.90118 2.93049C3.09739 1.73908 2.35999 1.86527 2.69872 1.21533C2.69121 1.81728 3.07919 1.48969 3.45215 2.36612" fill="#FCD116"/>
<path d="M3.33208 3.01347L2.90118 2.93049C3.09739 1.73908 2.35999 1.86527 2.69872 1.21533C2.69121 1.81728 3.07919 1.48969 3.45215 2.36612" stroke="black" stroke-width="0.2" stroke-linecap="square"/>
<path d="M3.38311 2.82203C3.12915 1.8121 2.51713 1.71664 2.69938 1.21533" stroke="black" stroke-width="0.2"/>
<path d="M3.72509 3.62534L3.38058 3.96075L1.83008 1.78083L4.06961 3.28999L3.72509 3.62534L1.83008 1.78083Z" fill="#FCD116"/>
<path d="M3.72509 3.62534L3.38058 3.96075L1.83008 1.78083M3.72509 3.62534L4.06961 3.28999L1.83008 1.78083M3.72509 3.62534L1.83008 1.78083" stroke="black" stroke-width="0.2"/>
<path d="M3.89185 2.92273L3.64746 2.56753C4.65171 1.86009 4.03862 1.44176 4.75025 1.21533C4.30766 1.63579 4.81995 1.67124 4.44706 2.54761" fill="#FCD116"/>
<path d="M3.89185 2.92273L3.64746 2.56753C4.65171 1.86009 4.03862 1.44176 4.75025 1.21533C4.30766 1.63579 4.81995 1.67124 4.44706 2.54761" stroke="black" stroke-width="0.2" stroke-linecap="square"/>
<path d="M4.06641 2.82203C4.62049 1.93311 4.2571 1.44435 4.75013 1.21533" stroke="black" stroke-width="0.2"/>
<path d="M3.72455 3.6252H3.2373L3.72455 1.0166L4.21179 3.6252H3.72455V1.0166Z" fill="#FCD116"/>
<path d="M3.72455 3.6252H3.2373L3.72455 1.0166M3.72455 3.6252H4.21179L3.72455 1.0166M3.72455 3.6252V1.0166" stroke="black" stroke-width="0.2"/>
<path d="M4.35352 3.24342L4.43877 2.82405C5.66275 3.01504 5.53312 2.29726 6.20082 2.62698C5.58235 2.61961 5.9189 2.99732 5.01857 3.36035" fill="#FCD116"/>
<path d="M4.35352 3.24342L4.43877 2.82405C5.66275 3.01504 5.53312 2.29726 6.20082 2.62698C5.58235 2.61961 5.9189 2.99732 5.01857 3.36035" stroke="black" stroke-width="0.2" stroke-linecap="square"/>
<path d="M4.5498 3.29273C5.58735 3.04554 5.68542 2.4498 6.20044 2.62721" stroke="black" stroke-width="0.2"/>
<path d="M3.7244 3.62534L3.37988 3.28993L5.61942 1.78076L4.06892 3.96069L3.7244 3.62534L5.61942 1.78076Z" fill="#FCD116"/>
<path d="M3.7244 3.62534L3.37988 3.28993L5.61942 1.78076M3.7244 3.62534L4.06892 3.96069L5.61942 1.78076M3.7244 3.62534L5.61942 1.78076" stroke="black" stroke-width="0.2"/>
<path d="M4.44629 3.78817L4.81121 3.55029C5.53798 4.52782 5.96775 3.93104 6.20038 4.62373C5.76842 4.19285 5.732 4.69158 4.83167 4.32855" fill="#FCD116"/>
<path d="M4.44629 3.78817L4.81121 3.55029C5.53798 4.52782 5.96775 3.93104 6.20038 4.62373C5.76842 4.19285 5.732 4.69158 4.83167 4.32855" stroke="black" stroke-width="0.2" stroke-linecap="square"/>
<path d="M4.5498 3.95801C5.46303 4.49735 5.96515 4.14363 6.20044 4.62353" stroke="black" stroke-width="0.2"/>
<path d="M3.72461 3.62515V3.15088L6.40454 3.62515L3.72461 4.09943V3.62515H6.40454Z" fill="#FCD116"/>
<path d="M3.72461 3.62515V3.15088L6.40454 3.62515M3.72461 3.62515V4.09943L6.40454 3.62515M3.72461 3.62515H6.40454" stroke="black" stroke-width="0.2"/>
<path d="M4.11714 4.2373L4.54803 4.32029C4.35182 5.51169 5.08923 5.38551 4.75049 6.03544C4.75807 5.4335 4.37003 5.76102 3.99707 4.88465" fill="#FCD116"/>
<path d="M4.11714 4.2373L4.54803 4.32029C4.35182 5.51169 5.08923 5.38551 4.75049 6.03544C4.75807 5.4335 4.37003 5.76102 3.99707 4.88465" stroke="black" stroke-width="0.2" stroke-linecap="square"/>
<path d="M4.06641 4.42871C4.32036 5.43864 4.93239 5.5341 4.75013 6.03541" stroke="black" stroke-width="0.2"/>
<path d="M3.72433 3.62545L4.06892 3.29004L5.61942 5.46996L3.37988 3.9608L3.72433 3.62545L5.61935 5.47003Z" fill="#FCD116"/>
<path d="M3.72433 3.62545L4.06892 3.29004L5.61942 5.46996L3.37988 3.9608L3.72433 3.62545ZM3.72433 3.62545L5.61935 5.47003" stroke="black" stroke-width="0.2"/>
<path d="M3.72434 4.49488C4.21769 4.49488 4.61763 4.10559 4.61763 3.62537C4.61763 3.14515 4.21769 2.75586 3.72434 2.75586C3.23099 2.75586 2.83105 3.14515 2.83105 3.62537C2.83105 4.10559 3.23099 4.49488 3.72434 4.49488Z" fill="#FCD116" stroke="black" stroke-width="0.2"/>
<path d="M4.38219 3.27756C4.32538 3.34082 4.29288 3.23016 4.08983 3.23016C3.88677 3.23016 3.85435 3.34871 3.82185 3.32497C3.78936 3.30124 3.99242 3.15895 4.0574 3.15106C4.12239 3.14317 4.3091 3.20649 4.38219 3.27756ZM4.14664 3.34877C4.20345 3.39618 4.15475 3.49895 4.09793 3.49895C4.04112 3.49895 3.93554 3.40414 3.98425 3.34088" fill="black"/>
<path d="M3.87891 3.41974C3.88701 3.32486 3.96821 3.30908 4.09818 3.30908C4.22814 3.30908 4.28495 3.40396 4.33366 3.42763C4.27685 3.42763 4.22808 3.3486 4.09818 3.3486C3.96828 3.3486 3.96821 3.3486 3.87891 3.42763M3.90329 3.44342C3.93578 3.39601 3.97638 3.49082 4.06568 3.49082C4.15499 3.49082 4.20376 3.46709 4.26057 3.42757C4.31738 3.38805 4.17937 3.52245 4.09 3.52245C4.0007 3.52251 3.87891 3.47504 3.90329 3.44342Z" fill="black"/>
<path d="M4.17896 3.49106C4.28455 3.43576 4.21956 3.35666 4.17896 3.34088C4.19518 3.35666 4.26016 3.4357 4.17896 3.49106ZM3.72421 3.96534C3.77292 3.96534 3.7892 3.94949 3.85418 3.94949C3.91916 3.94949 4.07345 4.03642 4.16282 4.00479C3.97604 4.07593 4.04913 4.02853 3.72428 4.02853H3.68368M4.19518 4.076C4.16269 4.02063 4.17079 4.03648 4.10587 3.94949C4.17086 3.99696 4.18707 4.02063 4.19518 4.076ZM3.72421 4.15503C3.92727 4.15503 3.89478 4.11552 4.16275 4.00485C3.9678 4.02859 3.9272 4.09178 3.72421 4.09178H3.68362M3.72421 3.86257C3.78109 3.86257 3.7973 3.82305 3.86229 3.82305C3.92727 3.82305 4.01657 3.84678 4.05724 3.87835C4.06534 3.88624 4.03285 3.81509 3.96787 3.8072C3.90288 3.79931 3.92727 3.69654 3.85418 3.68069C3.85418 3.71232 3.87857 3.70443 3.88667 3.75184C3.88667 3.79136 3.81358 3.79136 3.79737 3.75184C3.81358 3.81509 3.76488 3.81509 3.72428 3.81509M3.06641 3.27756C3.12322 3.34082 3.15571 3.23016 3.35877 3.23016C3.56182 3.23016 3.59431 3.34871 3.62681 3.32497C3.6593 3.30124 3.45624 3.15895 3.39126 3.15106C3.32627 3.14317 3.1395 3.20649 3.06641 3.27756ZM3.30189 3.34877C3.24508 3.39618 3.29378 3.49895 3.35059 3.49895C3.4074 3.49895 3.51298 3.40414 3.46428 3.34088" fill="black"/>
<path d="M3.57005 3.41974C3.56195 3.32486 3.48068 3.30908 3.35078 3.30908C3.22082 3.30908 3.16401 3.40396 3.11523 3.42763C3.17211 3.42763 3.22082 3.3486 3.35078 3.3486C3.48075 3.3486 3.48068 3.3486 3.57005 3.42763M3.54567 3.44342C3.51317 3.39601 3.47258 3.49082 3.38327 3.49082C3.29397 3.49082 3.2452 3.46709 3.18839 3.42757C3.13151 3.38805 3.26959 3.52245 3.35889 3.52245C3.44819 3.52251 3.57005 3.47504 3.54567 3.44342Z" fill="black"/>
<path d="M3.27019 3.491C3.16461 3.4357 3.2296 3.3566 3.27019 3.34082C3.25398 3.3566 3.189 3.43564 3.27019 3.491ZM3.72501 3.96527C3.67631 3.96527 3.66003 3.94943 3.59511 3.94943C3.5302 3.94943 3.37584 4.03635 3.28647 4.00473C3.47325 4.07587 3.40016 4.02846 3.72501 4.02846H3.76561M3.25398 4.07593C3.28647 4.02057 3.27837 4.03642 3.34328 3.94943C3.27837 3.9969 3.26209 4.02057 3.25398 4.07593ZM3.72501 4.15497C3.52202 4.15497 3.55451 4.11539 3.28647 4.00473C3.48136 4.02846 3.52202 4.09172 3.72501 4.09172H3.76561M3.72501 3.8625C3.6682 3.8625 3.65192 3.82298 3.58694 3.82298C3.52196 3.82298 3.43265 3.84672 3.39206 3.87828C3.38395 3.88617 3.41644 3.81503 3.48136 3.80714C3.54627 3.79925 3.52196 3.69648 3.59505 3.68063C3.59505 3.71226 3.57066 3.70437 3.56255 3.75178C3.56255 3.79129 3.63564 3.79129 3.65186 3.75178C3.63564 3.81503 3.68435 3.81503 3.72495 3.81503M3.72501 4.22611C3.68441 4.22611 3.57883 4.24985 3.72501 4.24985C3.87119 4.24985 3.76561 4.22611 3.72501 4.22611Z" fill="black"/>
</svg>
