<svg width="20" height="11" viewBox="0 0 20 11" fill="none" xmlns="http://www.w3.org/2000/svg">
<path d="M0 0.0380859H20V10.9616H0V0.0380859Z" fill="white"/>
<path d="M0 0.0380859H20V0.878375H0V0.0380859ZM0 1.71866H20V2.55895H0V1.71866ZM0 3.39917H20V4.23946H0V3.39917ZM0 5.07975H20V5.92004H0V5.07975ZM0 6.76026H20V7.60055H0V6.76026ZM0 8.44084H20V9.28113H0V8.44084ZM0 10.1213H20V10.9616H0V10.1213Z" fill="#B22234"/>
<path d="M0 0.0380859H8V5.91997H0V0.0380859Z" fill="#3C3B6E"/>
<path d="M0.375977 0.515656L0.566577 0.659348L0.493777 0.89187L0.68431 0.748178L0.87491 0.89187L0.80211 0.659348L0.992643 0.515656H0.75711L0.68431 0.283203L0.61151 0.515656H0.375977ZM1.70231 0.515656L1.89284 0.659348L1.82004 0.89187L2.01064 0.748178L2.20124 0.89187L2.12844 0.659348L2.31898 0.515656H2.08344L2.01064 0.283203L1.93784 0.515656H1.70231ZM3.02864 0.515656L3.21918 0.659348L3.14638 0.89187L3.33698 0.748178L3.52751 0.89187L3.45471 0.659348L3.64531 0.515656H3.40978L3.33698 0.283203L3.26418 0.515656H3.02864ZM4.35498 0.515656L4.54551 0.659348L4.47271 0.89187L4.66331 0.748178L4.85384 0.89187L4.78104 0.659348L4.97164 0.515656H4.73604L4.66331 0.283203L4.59051 0.515656H4.35498ZM5.68124 0.515656L5.87184 0.659348L5.79904 0.89187L5.98958 0.748178L6.18018 0.89187L6.10738 0.659348L6.29791 0.515656H6.06238L5.98958 0.283203L5.91678 0.515656H5.68124ZM7.00758 0.515656L7.19811 0.659348L7.12531 0.89187L7.31591 0.748178L7.50644 0.89187L7.43364 0.659348L7.62424 0.515656H7.38871L7.31591 0.283203L7.24311 0.515656H7.00758ZM1.03911 1.10557L1.22971 1.24927L1.15691 1.48172L1.34751 1.33803L1.53804 1.48172L1.46524 1.24927L1.65584 1.10557H1.42024L1.34751 0.873052L1.27471 1.10557H1.03911ZM2.36544 1.10557L2.55604 1.24927L2.48324 1.48172L2.67378 1.33803L2.86438 1.48172L2.79158 1.24927L2.98211 1.10557H2.74658L2.67378 0.873052L2.60098 1.10557H2.36544ZM3.69178 1.10557L3.88238 1.24927L3.80958 1.48172L4.00011 1.33803L4.19071 1.48172L4.11791 1.24927L4.30844 1.10557H4.07291L4.00011 0.873052L3.92731 1.10557H3.69178ZM5.01811 1.10557L5.20864 1.24927L5.13584 1.48172L5.32644 1.33803L5.51698 1.48172L5.44418 1.24927L5.63478 1.10557H5.39924L5.32644 0.873052L5.25364 1.10557H5.01811ZM6.34438 1.10557L6.53498 1.24927L6.46218 1.48172L6.65271 1.33803L6.84331 1.48172L6.77051 1.24927L6.96104 1.10557H6.72551L6.65271 0.873052L6.57998 1.10557H6.34438ZM0.375977 1.69542L0.566577 1.83912L0.493777 2.07164L0.68431 1.92795L0.87491 2.07164L0.80211 1.83912L0.992643 1.69542H0.75711L0.68431 1.46297L0.61151 1.69542H0.375977ZM1.70231 1.69542L1.89284 1.83912L1.82004 2.07164L2.01064 1.92795L2.20124 2.07164L2.12844 1.83912L2.31898 1.69542H2.08344L2.01064 1.46297L1.93784 1.69542H1.70231ZM3.02864 1.69542L3.21918 1.83912L3.14638 2.07164L3.33698 1.92795L3.52751 2.07164L3.45471 1.83912L3.64531 1.69542H3.40978L3.33698 1.46297L3.26418 1.69542H3.02864ZM4.35498 1.69542L4.54551 1.83912L4.47271 2.07164L4.66331 1.92795L4.85384 2.07164L4.78104 1.83912L4.97164 1.69542H4.73604L4.66331 1.46297L4.59051 1.69542H4.35498ZM5.68124 1.69542L5.87184 1.83912L5.79904 2.07164L5.98958 1.92795L6.18018 2.07164L6.10738 1.83912L6.29791 1.69542H6.06238L5.98958 1.46297L5.91678 1.69542H5.68124ZM7.00758 1.69542L7.19811 1.83912L7.12531 2.07164L7.31591 1.92795L7.50644 2.07164L7.43364 1.83912L7.62424 1.69542H7.38871L7.31591 1.46297L7.24311 1.69542H7.00758ZM1.05551 2.28728L1.24604 2.43097L1.17331 2.66342L1.36384 2.51973L1.55444 2.66342L1.48164 2.4309L1.67218 2.28728H1.43664L1.36384 2.05476L1.29104 2.28728H1.05551ZM2.38184 2.28728L2.57238 2.43097L2.49958 2.66342L2.69018 2.51973L2.88071 2.66342L2.80791 2.4309L2.99851 2.28728H2.76298L2.69018 2.05476L2.61738 2.28728H2.38184ZM3.70818 2.28728L3.89871 2.43097L3.82591 2.66342L4.01651 2.51973L4.20704 2.66342L4.13424 2.4309L4.32484 2.28728H4.08924L4.01651 2.05476L3.94371 2.28728H3.70818ZM5.03444 2.28728L5.22504 2.43097L5.15224 2.66342L5.34278 2.51973L5.53338 2.66342L5.46058 2.4309L5.65111 2.28728H5.41558L5.34278 2.05476L5.26998 2.28728H5.03444ZM6.36078 2.28728L6.55131 2.43097L6.47851 2.66342L6.66911 2.51973L6.85964 2.66342L6.78684 2.4309L6.97744 2.28728H6.74191L6.66911 2.05476L6.59631 2.28728H6.36078ZM0.39611 2.87222L0.58671 3.01584L0.51391 3.24836L0.704443 3.10467L0.895043 3.24836L0.822243 3.01584L1.01278 2.87222H0.777243L0.704443 2.63969L0.631643 2.87222H0.39611ZM1.72244 2.87222L1.91298 3.01584L1.84018 3.24836L2.03078 3.10467L2.22131 3.24836L2.14858 3.01584L2.33911 2.87222H2.10358L2.03078 2.63969L1.95798 2.87222H1.72244ZM3.04878 2.87222L3.23931 3.01584L3.16651 3.24836L3.35711 3.10467L3.54764 3.24836L3.47484 3.01584L3.66544 2.87222H3.42991L3.35711 2.63969L3.28431 2.87222H3.04878ZM4.37504 2.87222L4.56564 3.01584L4.49284 3.24836L4.68338 3.10467L4.87398 3.24836L4.80118 3.01584L4.99178 2.87222H4.75618L4.68338 2.63969L4.61064 2.87222H4.37504ZM5.70138 2.87222L5.89191 3.01584L5.81918 3.24836L6.00971 3.10467L6.20031 3.24836L6.12751 3.01584L6.31804 2.87222H6.08251L6.00971 2.63969L5.93691 2.87222H5.70138ZM7.02771 2.87222L7.21824 3.01584L7.14544 3.24836L7.33604 3.10467L7.52658 3.24836L7.45378 3.01584L7.64438 2.87222H7.40884L7.33604 2.63969L7.26324 2.87222H7.02771ZM0.408577 4.03323L0.59911 4.17693L0.52631 4.40945L0.71691 4.26576L0.907443 4.40945L0.834643 4.17693L1.02524 4.03323H0.78971L0.71691 3.80078L0.64411 4.03323H0.408577ZM1.73484 4.03323L1.92544 4.17693L1.85264 4.40945L2.04318 4.26576L2.23378 4.40945L2.16098 4.17693L2.35151 4.03323H2.11598L2.04318 3.80078L1.97038 4.03323H1.73484ZM3.06118 4.03323L3.25171 4.17693L3.17898 4.40945L3.36951 4.26576L3.56011 4.40945L3.48731 4.17693L3.67784 4.03323H3.44231L3.36951 3.80078L3.29671 4.03323H3.06118ZM4.38751 4.03323L4.57804 4.17693L4.50524 4.40945L4.69584 4.26576L4.88638 4.40945L4.81364 4.17693L5.00418 4.03323H4.76864L4.69584 3.80078L4.62304 4.03323H4.38751ZM5.71378 4.03323L5.90438 4.17693L5.83158 4.40945L6.02211 4.26576L6.21271 4.40945L6.13991 4.17693L6.33051 4.03323H6.09491L6.02211 3.80078L5.94938 4.03323H5.71378ZM7.04011 4.03323L7.23064 4.17693L7.15791 4.40945L7.34844 4.26576L7.53904 4.40945L7.46624 4.17693L7.65678 4.03323H7.42124L7.34844 3.80078L7.27564 4.03323H7.04011ZM0.392377 5.20795L0.58291 5.35164L0.51011 5.58417L0.70071 5.44047L0.891243 5.58417L0.818443 5.35164L1.00904 5.20795H0.773443L0.70071 4.9755L0.62791 5.20795H0.392377ZM1.71864 5.20795L1.90924 5.35164L1.83644 5.58417L2.02698 5.44047L2.21758 5.58417L2.14478 5.35164L2.33531 5.20795H2.09978L2.02698 4.9755L1.95418 5.20795H1.71864ZM3.04498 5.20795L3.23551 5.35164L3.16278 5.58417L3.35331 5.44047L3.54391 5.58417L3.47111 5.35164L3.66164 5.20795H3.42611L3.35331 4.9755L3.28051 5.20795H3.04498ZM4.37131 5.20795L4.56184 5.35164L4.48904 5.58417L4.67964 5.44047L4.87018 5.58417L4.79744 5.35164L4.98798 5.20795H4.75244L4.67964 4.9755L4.60684 5.20795H4.37131ZM5.69758 5.20795L5.88818 5.35164L5.81538 5.58417L6.00591 5.44047L6.19651 5.58417L6.12371 5.35164L6.31431 5.20795H6.07871L6.00591 4.9755L5.93318 5.20795H5.69758ZM7.02391 5.20795L7.21444 5.35164L7.14171 5.58417L7.33224 5.44047L7.52284 5.58417L7.45004 5.35164L7.64058 5.20795H7.40504L7.33224 4.9755L7.25944 5.20795H7.02391ZM1.05944 3.44691L1.24998 3.59061L1.17724 3.82306L1.36778 3.67937L1.55838 3.82306L1.48558 3.59061L1.67611 3.44691H1.44058L1.36778 3.21439L1.29498 3.44691H1.05944ZM2.38578 3.44691L2.57631 3.59061L2.50351 3.82306L2.69411 3.67937L2.88464 3.82306L2.81191 3.59061L3.00244 3.44691H2.76691L2.69411 3.21439L2.62131 3.44691H2.38578ZM3.71211 3.44691L3.90264 3.59061L3.82984 3.82306L4.02044 3.67937L4.21098 3.82306L4.13818 3.59061L4.32878 3.44691H4.09324L4.02044 3.21439L3.94764 3.44691H3.71211ZM5.03838 3.44691L5.22898 3.59061L5.15618 3.82306L5.34671 3.67937L5.53731 3.82306L5.46451 3.59061L5.65504 3.44691H5.41951L5.34671 3.21439L5.27391 3.44691H5.03838ZM6.36471 3.44691L6.55524 3.59061L6.48244 3.82306L6.67304 3.67937L6.86358 3.82306L6.79084 3.59061L6.98138 3.44691H6.74584L6.67304 3.21439L6.60024 3.44691H6.36471ZM1.05551 4.61976L1.24611 4.76345L1.17331 4.99598L1.36384 4.85228L1.55444 4.99598L1.48164 4.76345L1.67218 4.61976H1.43664L1.36384 4.38731L1.29104 4.61976H1.05551ZM2.38184 4.61976L2.57238 4.76345L2.49958 4.99598L2.69018 4.85228L2.88078 4.99598L2.80798 4.76345L2.99851 4.61976H2.76298L2.69018 4.38731L2.61738 4.61976H2.38184ZM3.70818 4.61976L3.89871 4.76345L3.82591 4.99598L4.01651 4.85228L4.20704 4.99598L4.13424 4.76345L4.32484 4.61976H4.08931L4.01651 4.38731L3.94371 4.61976H3.70818ZM5.03444 4.61976L5.22504 4.76345L5.15224 4.99598L5.34278 4.85228L5.53338 4.99598L5.46058 4.76345L5.65111 4.61976H5.41558L5.34278 4.38731L5.26998 4.61976H5.03444ZM6.36078 4.61976L6.55131 4.76345L6.47851 4.99598L6.66911 4.85228L6.85964 4.99598L6.78691 4.76345L6.97744 4.61976H6.74191L6.66911 4.38731L6.59631 4.61976H6.36078Z" fill="white"/>
</svg>
