<svg width="18" height="13" viewBox="0 0 18 13" fill="none" xmlns="http://www.w3.org/2000/svg">
<path d="M17.4195 0.982906C17.079 0.397585 16.4524 0 15.7265 0H8.84615V0.982906H17.4195ZM0 9.82906H17.6923V10.812H0V9.82906ZM8.84615 5.89744H17.6923V6.88034H8.84615V5.89744ZM8.84615 3.93162H17.6923V4.91453H8.84615V3.93162ZM0 7.86325H17.6923V8.84615H0V7.86325ZM1.96581 12.7778H15.7265C16.4524 12.7778 17.079 12.3802 17.4195 11.7949H0.272756C0.613333 12.3802 1.23994 12.7778 1.96581 12.7778ZM8.84615 1.96581H17.6923V2.94872H8.84615V1.96581Z" fill="#B22334"/>
<path d="M0.0334188 11.1452C0.0417735 11.1909 0.0511111 11.2366 0.0624145 11.2813C0.0751923 11.3309 0.0909188 11.3786 0.107628 11.4268C0.151368 11.5541 0.204444 11.6769 0.271282 11.7919L0.272756 11.7944H17.4195L17.4205 11.7924C17.4869 11.6779 17.54 11.555 17.5837 11.4283C17.6004 11.3796 17.6166 11.3309 17.6294 11.2803C17.6407 11.2361 17.65 11.1909 17.6584 11.1452C17.6785 11.0371 17.6923 10.926 17.6923 10.8115H0C0 10.926 0.0137607 11.0366 0.0334188 11.1452ZM0 8.84567H17.6923V9.82858H0V8.84567ZM0 6.87986V7.86276H17.6923V6.87986H8.84615H0ZM8.84615 4.91405H17.6923V5.89695H8.84615V4.91405ZM8.84615 2.94823H17.6923V3.93114H8.84615V2.94823ZM0 1.96533C0 1.85082 0.0147436 1.74073 0.0334188 1.63163C0.0137607 1.74024 0 1.85082 0 1.96533ZM0.062906 1.4955C0.0751923 1.44537 0.0923932 1.3977 0.10812 1.34954C0.0914102 1.3977 0.0756838 1.44586 0.062906 1.4955ZM8.84615 1.96533H17.6923C17.6923 1.85082 17.6785 1.73975 17.6584 1.63114C17.65 1.58593 17.6412 1.54071 17.6294 1.49648C17.6161 1.44586 17.6004 1.39672 17.5832 1.34806C17.5395 1.22127 17.4864 1.0989 17.42 0.984388C17.4205 0.983896 17.42 0.982913 17.4195 0.982422H8.84615V1.96533Z" fill="#EEEEEE"/>
<path d="M8.84615 0H1.96581C0.880192 0 0 0.880192 0 1.96581V6.88034H8.84615V0Z" fill="#3C3B6E"/>
<path d="M0.983398 1.33922L1.28712 1.55988L1.17113 1.91618L1.47436 1.69601L1.77808 1.91618L1.66209 1.55988L1.96581 1.33922H1.59034L1.47436 0.982422L1.35887 1.33922H0.983398ZM1.9663 2.32212L2.27002 2.54279L2.15404 2.89909L2.45727 2.67892L2.76098 2.89909L2.645 2.54279L2.94872 2.32212H2.57325L2.45727 1.96533L2.34177 2.32212H1.9663ZM3.93212 2.32212L4.23583 2.54279L4.11985 2.89909L4.42308 2.67892L4.7268 2.89909L4.61081 2.54279L4.91453 2.32212H4.53906L4.42308 1.96533L4.30759 2.32212H3.93212ZM5.89793 2.32212L6.20165 2.54279L6.08566 2.89909L6.38889 2.67892L6.69261 2.89909L6.57662 2.54279L6.88034 2.32212H6.50487L6.38889 1.96533L6.2734 2.32212H5.89793ZM1.9663 4.28793L2.27002 4.5086L2.15404 4.8649L2.45727 4.64473L2.76098 4.8649L2.645 4.5086L2.94872 4.28793H2.57325L2.45727 3.93114L2.34177 4.28793H1.9663ZM3.93212 4.28793L4.23583 4.5086L4.11985 4.8649L4.42308 4.64473L4.7268 4.8649L4.61081 4.5086L4.91453 4.28793H4.53906L4.42308 3.93114L4.30759 4.28793H3.93212ZM5.89793 4.28793L6.20165 4.5086L6.08566 4.8649L6.38889 4.64473L6.69261 4.8649L6.57662 4.5086L6.88034 4.28793H6.50487L6.38889 3.93114L6.2734 4.28793H5.89793ZM2.94921 1.33922L3.25293 1.55988L3.13695 1.91618L3.44017 1.69601L3.74389 1.91618L3.62791 1.55988L3.93162 1.33922H3.55615L3.44017 0.982422L3.32468 1.33922H2.94921ZM4.91502 1.33922L5.21874 1.55988L5.10276 1.91618L5.40598 1.69601L5.7097 1.91618L5.59372 1.55988L5.89744 1.33922H5.52197L5.40598 0.982422L5.29049 1.33922H4.91502ZM6.88083 1.33922L7.18455 1.55988L7.06857 1.91618L7.3718 1.69601L7.67551 1.91618L7.55953 1.55988L7.86325 1.33922H7.48778L7.3718 0.982422L7.2563 1.33922H6.88083ZM0.983398 3.30503L1.28712 3.52569L1.17113 3.88199L1.47436 3.66182L1.77808 3.88199L1.66209 3.52569L1.96581 3.30503H1.59034L1.47436 2.94823L1.35887 3.30503H0.983398ZM3.13695 3.88199L3.44017 3.66182L3.74389 3.88199L3.62791 3.52569L3.93162 3.30503H3.55615L3.44017 2.94823L3.32468 3.30503H2.94921L3.25293 3.52569L3.13695 3.88199ZM4.91502 3.30503L5.21874 3.52569L5.10276 3.88199L5.40598 3.66182L5.7097 3.88199L5.59372 3.52569L5.89744 3.30503H5.52197L5.40598 2.94823L5.29049 3.30503H4.91502ZM6.88083 3.30503L7.18455 3.52569L7.06857 3.88199L7.3718 3.66182L7.67551 3.88199L7.55953 3.52569L7.86325 3.30503H7.48778L7.3718 2.94823L7.2563 3.30503H6.88083ZM0.983398 5.27084L1.28712 5.4915L1.17113 5.84781L1.47436 5.62764L1.77808 5.84781L1.66209 5.4915L1.96581 5.27084H1.59034L1.47436 4.91405L1.35887 5.27084H0.983398ZM3.13695 5.84781L3.44017 5.62764L3.74389 5.84781L3.62791 5.4915L3.93162 5.27084H3.55615L3.44017 4.91405L3.32468 5.27084H2.94921L3.25293 5.4915L3.13695 5.84781ZM4.91502 5.27084L5.21874 5.4915L5.10276 5.84781L5.40598 5.62764L5.7097 5.84781L5.59372 5.4915L5.89744 5.27084H5.52197L5.40598 4.91405L5.29049 5.27084H4.91502ZM6.88083 5.27084L7.18455 5.4915L7.06857 5.84781L7.3718 5.62764L7.67551 5.84781L7.55953 5.4915L7.86325 5.27084H7.48778L7.3718 4.91405L7.2563 5.27084H6.88083Z" fill="white"/>
</svg>
