<svg width="20" height="13" viewBox="0 0 20 13" fill="none" xmlns="http://www.w3.org/2000/svg">
<path d="M0.0332031 0.0322266H19.9668V12.9676H0.0332031V0.0322266Z" fill="#CF142B"/>
<path d="M0.0332031 0.0322266H19.9668V8.65575H0.0332031V0.0322266Z" fill="#00247D"/>
<path d="M0.0332031 0.0322266H19.9668V4.34402H0.0332031V0.0322266Z" fill="#FFCC00"/>
<path d="M5.72461 7.58402L6.04394 7.82216L5.90999 8.1914L6.24135 7.96936L6.56076 8.2075L6.44614 7.83218L6.7775 7.61008L6.37537 7.60012L6.26082 7.2248L6.1268 7.59398L5.72461 7.58402ZM6.51544 6.24049L6.7278 6.57312L6.46846 6.87245L6.85903 6.77866L7.07139 7.11123L7.10042 6.72071L7.49105 6.62693L7.11843 6.47934L7.14747 6.08876L6.88806 6.38808L6.51544 6.24049ZM7.45836 5.83652L7.85836 5.87824L7.94122 6.26138L8.10554 5.90398L8.50561 5.94569L8.20713 5.68311L8.37145 5.32564L8.02268 5.52077L7.72428 5.25818L7.80713 5.64139L7.45836 5.83652ZM8.76096 5.18451L9.12282 5.35565L9.06753 5.74345L9.34647 5.46133L9.7084 5.6324L9.5189 5.28696L9.7979 5.00484L9.40182 5.07346L9.21232 4.72803L9.15697 5.11589L8.76096 5.18451ZM10.2033 5.01222L10.4827 5.29388L10.2938 5.63964L10.6554 5.46799L10.9349 5.74966L10.8789 5.36192L11.2405 5.19027L10.8443 5.12223L10.7883 4.73449L10.5995 5.08019L10.2033 5.01222ZM11.6256 5.33948L11.7893 5.69721L11.4903 5.95928L11.89 5.91834L12.054 6.27606L12.1377 5.89298L12.5378 5.85204L12.1894 5.65627L12.273 5.27325L11.974 5.53526L11.6256 5.33948ZM12.5084 6.63592L12.8992 6.72848L12.9296 7.11899L13.1408 6.78571L13.5317 6.87833L13.2715 6.57978L13.4827 6.24657L13.1105 6.39526L12.8502 6.09671L12.8806 6.48717L12.5084 6.63592ZM13.2125 7.59753L13.5421 7.82209L13.4245 8.19657L13.7457 7.96095L14.0753 8.18557L13.9443 7.8153L14.2655 7.57962L13.8633 7.58648L13.7324 7.2162L13.6148 7.59068L13.2125 7.59753Z" fill="white"/>
</svg>
